<svg width="148" height="550" viewBox="0 0 148 550" fill="none" xmlns="http://www.w3.org/2000/svg">
<g opacity="0.05">
<path d="M136.557 254.034L94.6389 278.204L52.7211 254.034V205.697L94.6389 181.527L136.557 205.697V254.034Z" stroke="white" stroke-width="2"/>
<path d="M136.557 73.6613L94.6389 97.831L52.7211 73.6613V25.3241L94.6389 1.15435L136.557 25.3241V73.6613Z" stroke="white" stroke-width="2"/>
<path d="M146.361 369.544L103.443 344.798V295.305L146.361 270.559L189.278 295.305V344.798L146.361 369.544Z" fill="white"/>
<path d="M42.9182 189.172L0.000404358 164.426V114.933L42.9182 90.1865L85.8359 114.933V164.426L42.9182 189.172Z" fill="white"/>
<path d="M188.278 163.848L146.361 188.018L104.443 163.848V115.511L146.361 91.3409L188.278 115.511V163.848Z" stroke="white" stroke-width="2"/>
<path d="M146.361 549.918L103.443 525.172V475.679L146.361 450.933L189.278 475.679V525.172L146.361 549.918Z" fill="white"/>
<path d="M136.557 434.407L94.6389 458.577L52.7211 434.407V386.07L94.6389 361.9L136.557 386.07V434.407Z" stroke="white" stroke-width="2"/>
</g>
</svg>
