<svg width="148" height="550" viewBox="0 0 148 550" fill="none" xmlns="http://www.w3.org/2000/svg">
<g opacity="0.05">
<path d="M1.50034 180.455L-41.4583 205.201V254.693L1.50034 279.44L44.459 254.693V205.201L1.50034 180.455Z" fill="white"/>
<path d="M95.2295 295.965L53.2709 271.795L11.3122 295.965V344.301L53.2709 368.472L95.2295 344.301V295.965Z" stroke="white" stroke-width="2"/>
<path d="M95.2295 476.338L53.2709 452.168L11.3122 476.338V524.675L53.2709 548.845L95.2295 524.675V476.338Z" stroke="white" stroke-width="2"/>
<path d="M1.50034 360.826L-41.4583 385.572V435.065L1.50034 459.811L44.459 435.065V385.572L1.50034 360.826Z" fill="white"/>
<path d="M1.50034 0.0810547L-41.4583 24.8273V74.3199L1.50034 99.0662L44.459 74.3199V24.8273L1.50034 0.0810547Z" fill="white"/>
<path d="M147 25.4053L105.041 1.2351L63.0827 25.4053V73.7419L105.041 97.9121L147 73.7419V25.4053Z" stroke="white" stroke-width="2"/>
<path d="M53.2709 90.2666L10.3122 115.013V164.505L53.2709 189.252L96.2295 164.505V115.013L53.2709 90.2666Z" fill="white"/>
</g>
</svg>
