<svg width="40" height="46" viewBox="0 0 40 46" fill="none" xmlns="http://www.w3.org/2000/svg">
<path d="M40 11V35L20 46L0 35V11L20 0L40 11Z" fill="#1A1A1A"/>
<g clip-path="url(#clip0)">
<path fill-rule="evenodd" clip-rule="evenodd" d="M20 10.9999C13.37 10.9999 8 16.3699 8 22.9999C8 28.3099 11.435 32.7949 16.205 34.3849C16.805 34.4899 17.03 34.1299 17.03 33.8149C17.03 33.5299 17.015 32.5849 17.015 31.5799C14 32.1349 13.22 30.8449 12.98 30.1699C12.845 29.8249 12.26 28.7599 11.75 28.4749C11.33 28.2499 10.73 27.6949 11.735 27.6799C12.68 27.6649 13.355 28.5499 13.58 28.9099C14.66 30.7249 16.385 30.2149 17.075 29.8999C17.18 29.1199 17.495 28.5949 17.84 28.2949C15.17 27.9949 12.38 26.9599 12.38 22.3699C12.38 21.0649 12.845 19.9849 13.61 19.1449C13.49 18.8449 13.07 17.6149 13.73 15.9649C13.73 15.9649 14.735 15.6499 17.03 17.1949C17.99 16.9249 19.01 16.7899 20.03 16.7899C21.05 16.7899 22.07 16.9249 23.03 17.1949C25.325 15.6349 26.33 15.9649 26.33 15.9649C26.99 17.6149 26.57 18.8449 26.45 19.1449C27.215 19.9849 27.68 21.0499 27.68 22.3699C27.68 26.9749 24.875 27.9949 22.205 28.2949C22.64 28.6699 23.015 29.3899 23.015 30.5149C23.015 32.1199 23 33.4099 23 33.8149C23 34.1299 23.225 34.5049 23.825 34.3849C26.2072 33.5807 28.2773 32.0496 29.7438 30.0073C31.2103 27.965 31.9994 25.5142 32 22.9999C32 16.3699 26.63 10.9999 20 10.9999Z" fill="white"/>
</g>
<defs>
<clipPath id="clip0">
<rect width="24" height="24" fill="white" transform="translate(8 10.9999)"/>
</clipPath>
</defs>
</svg>
