<svg width="40" height="46" viewBox="0 0 40 46" fill="none" xmlns="http://www.w3.org/2000/svg">
<path d="M40 11V35L20 46L0 35V11L20 0L40 11Z" fill="#FFE100"/>
<path d="M11 14.1617C11 12.9685 11.9683 12.0002 13.1615 12.0002C14.354 12.0002 15.3222 12.9685 15.323 14.1617C15.323 15.355 14.3548 16.3435 13.1615 16.3435C11.9683 16.3435 11 15.355 11 14.1617Z" fill="#1A1A1A"/>
<path d="M28.9955 30.0002V29.9995H29V23.398C29 20.1685 28.3047 17.6807 24.5292 17.6807C22.7142 17.6807 21.4962 18.6767 20.999 19.621H20.9465V17.9822H17.3667V29.9995H21.0942V24.049C21.0942 22.4822 21.3912 20.9672 23.3315 20.9672C25.2432 20.9672 25.2717 22.7552 25.2717 24.1495V30.0002H28.9955Z" fill="#1A1A1A"/>
<path d="M11.297 17.983H15.029V30.0002H11.297V17.983Z" fill="#1A1A1A"/>
</svg>
