<svg width="40" height="46" viewBox="0 0 40 46" fill="none" xmlns="http://www.w3.org/2000/svg">
<path d="M40 11V35L20 46L0 35V11L20 0L40 11Z" fill="#1A1A1A"/>
<path d="M16.5992 30.5658C23.5173 30.5658 27.3013 24.8339 27.3013 19.8637C27.3013 19.7006 27.3013 19.5383 27.2903 19.3779C28.0265 18.8449 28.6619 18.185 29.1667 17.4291C28.4802 17.7334 27.7519 17.933 27.0061 18.0212C27.7914 17.551 28.379 16.8116 28.6598 15.9404C27.9216 16.3785 27.114 16.6872 26.2718 16.8534C25.7048 16.25 24.9546 15.8504 24.1375 15.7165C23.3204 15.5825 22.4819 15.7217 21.7519 16.1124C21.0218 16.5032 20.441 17.1237 20.0993 17.8779C19.7576 18.6321 19.674 19.478 19.8616 20.2845C18.3661 20.2095 16.9031 19.821 15.5676 19.1439C14.2321 18.4669 13.0538 17.5166 12.1093 16.3547C11.6284 17.1827 11.481 18.1628 11.6973 19.0955C11.9136 20.0283 12.4773 20.8435 13.2735 21.3753C12.6752 21.358 12.0898 21.197 11.5667 20.906V20.9537C11.567 21.822 11.8677 22.6635 12.4177 23.3355C12.9677 24.0074 13.7332 24.4685 14.5843 24.6405C14.0305 24.7915 13.4494 24.8134 12.8858 24.7047C13.1261 25.4522 13.594 26.1059 14.2242 26.5743C14.8544 27.0427 15.6152 27.3025 16.4003 27.3172C15.6203 27.93 14.7271 28.3831 13.7719 28.6505C12.8167 28.9179 11.8181 28.9943 10.8333 28.8755C12.5536 29.9795 14.5552 30.565 16.5992 30.5622" fill="white"/>
</svg>
