<svg width="41" height="29" viewBox="0 0 41 29" fill="none" xmlns="http://www.w3.org/2000/svg">
<path d="M31.25 2H8.75C7.75544 2 6.80161 2.39908 6.09835 3.10944C5.39509 3.81981 5 4.78327 5 5.78788L5 6.54545L19.5115 14.7906C19.8149 14.963 20.1861 14.9648 20.4911 14.7953L35 6.73485V5.78788C35 4.78327 34.6049 3.81981 33.9017 3.10944C33.1984 2.39908 32.2446 2 31.25 2Z" fill="#6A6AFB"/>
<path d="M19.0625 17.3413L5 9.38672V23.2125C5 24.2171 5.39509 25.1805 6.09835 25.8909C6.80161 26.6013 7.75544 27.0004 8.75 27.0004H31.25C32.2446 27.0004 33.1984 26.6013 33.9016 25.8909C34.6049 25.1805 35 24.2171 35 23.2125V9.38672L20.9375 17.3413C20.642 17.4724 20.3228 17.5401 20 17.5401C19.6772 17.5401 19.358 17.4724 19.0625 17.3413Z" fill="#6A6AFB"/>
</svg>
