<svg width="30" height="25" viewBox="0 0 30 25" fill="none" xmlns="http://www.w3.org/2000/svg">
<path d="M26.25 0H3.75C2.75544 0 1.80161 0.399079 1.09835 1.10944C0.395088 1.81981 0 2.78327 0 3.78788L0 4.54545L14.5115 12.7906C14.8149 12.963 15.1861 12.9648 15.4911 12.7953L30 4.73485V3.78788C30 2.78327 29.6049 1.81981 28.9017 1.10944C28.1984 0.399079 27.2446 0 26.25 0Z" fill="#6A6AFB"/>
<path d="M14.0625 15.3413L0 7.38672V21.2125C0 22.2171 0.395088 23.1805 1.09835 23.8909C1.80161 24.6013 2.75544 25.0004 3.75 25.0004H26.25C27.2446 25.0004 28.1984 24.6013 28.9016 23.8909C29.6049 23.1805 30 22.2171 30 21.2125V7.38672L15.9375 15.3413C15.642 15.4724 15.3228 15.5401 15 15.5401C14.6772 15.5401 14.358 15.4724 14.0625 15.3413Z" fill="#6A6AFB"/>
</svg>
