<svg width="41" height="40" viewBox="0 0 41 40" fill="none" xmlns="http://www.w3.org/2000/svg">
<path d="M31.4336 7.60547H8.93359C7.93903 7.60547 6.9852 8.00455 6.28194 8.71491C5.57868 9.42528 5.18359 10.3887 5.18359 11.3933L5.18359 12.1509L19.6951 20.3961C19.9985 20.5685 20.3697 20.5702 20.6747 20.4008L35.1836 12.3403V11.3933C35.1836 10.3887 34.7885 9.42528 34.0852 8.71491C33.382 8.00455 32.4282 7.60547 31.4336 7.60547Z" fill="#6A6AFB"/>
<path d="M19.2461 22.9467L5.18359 14.9922V28.8179C5.18359 29.8226 5.57868 30.786 6.28194 31.4964C6.9852 32.2067 7.93903 32.6058 8.93359 32.6058H31.4336C32.4282 32.6058 33.382 32.2067 34.0852 31.4964C34.7885 30.786 35.1836 29.8226 35.1836 28.8179V14.9922L21.1211 22.9467C20.8256 23.0779 20.5064 23.1456 20.1836 23.1456C19.8608 23.1456 19.5416 23.0779 19.2461 22.9467Z" fill="#6A6AFB"/>
</svg>
