<svg width="40" height="40" viewBox="0 0 40 40" fill="none" xmlns="http://www.w3.org/2000/svg">
<path d="M36.0145 32.1192L33.7904 27.75L33.3104 27.9525C28.9795 29.7817 24.1287 30.8308 20.0004 30.8308C15.872 30.8308 11.0212 29.7817 6.68955 27.9525L6.20955 27.75L3.98538 32.1192C3.88205 32.3217 3.86621 32.5567 3.94121 32.7708C4.01538 32.9858 4.17455 33.16 4.38038 33.255C9.30955 35.5167 14.5645 36.6642 20.0004 36.6642C25.4362 36.6642 30.6912 35.5167 35.6195 33.255C35.8262 33.16 35.9845 32.9858 36.0587 32.7708C36.1337 32.5567 36.1179 32.3217 36.0145 32.1192Z" fill="#FFE100"/>
<path d="M17.5012 13.3335C17.5012 15.6344 15.6354 17.5002 13.3346 17.5002C12.7221 17.5002 12.1513 17.3494 11.6296 17.1085L6.96875 26.2635L7.33875 26.4202C11.4121 28.1402 16.1454 29.1669 20.0012 29.1669C23.8571 29.1669 28.5904 28.1402 32.6629 26.4202L33.0329 26.2635L20.7438 2.12187C20.4596 1.56354 19.5429 1.56354 19.2587 2.12187L15.3837 9.73354C16.6421 10.4494 17.5012 11.7827 17.5012 13.3335ZM22.5012 19.1669C23.8821 19.1669 25.0012 20.286 25.0012 21.6669C25.0012 23.0477 23.8821 24.1669 22.5012 24.1669C21.1204 24.1669 20.0012 23.0477 20.0012 21.6669C20.0012 20.286 21.1204 19.1669 22.5012 19.1669Z" fill="#FFE100"/>
</svg>
