<svg width="34" height="36" viewBox="0 0 34 36" fill="none" xmlns="http://www.w3.org/2000/svg">
<path d="M33.0145 31.1192L30.7904 26.75L30.3104 26.9525C25.9795 28.7817 21.1287 29.8308 17.0004 29.8308C12.872 29.8308 8.02121 28.7817 3.68955 26.9525L3.20955 26.75L0.98538 31.1192C0.882047 31.3217 0.866213 31.5567 0.941213 31.7708C1.01538 31.9858 1.17455 32.16 1.38038 32.255C6.30955 34.5167 11.5645 35.6642 17.0004 35.6642C22.4362 35.6642 27.6912 34.5167 32.6195 32.255C32.8262 32.16 32.9845 31.9858 33.0587 31.7708C33.1337 31.5567 33.1179 31.3217 33.0145 31.1192Z" fill="#FFE100"/>
<path d="M14.5012 12.3335C14.5012 14.6344 12.6354 16.5002 10.3346 16.5002C9.72208 16.5002 9.15125 16.3494 8.62958 16.1085L3.96875 25.2635L4.33875 25.4202C8.41208 27.1402 13.1454 28.1669 17.0012 28.1669C20.8571 28.1669 25.5904 27.1402 29.6629 25.4202L30.0329 25.2635L17.7438 1.12187C17.4596 0.563542 16.5429 0.563542 16.2587 1.12187L12.3837 8.73354C13.6421 9.44938 14.5012 10.7827 14.5012 12.3335ZM19.5012 18.1669C20.8821 18.1669 22.0012 19.286 22.0012 20.6669C22.0012 22.0477 20.8821 23.1669 19.5012 23.1669C18.1204 23.1669 17.0012 22.0477 17.0012 20.6669C17.0012 19.286 18.1204 18.1669 19.5012 18.1669Z" fill="#FFE100"/>
</svg>
