<svg width="30" height="38" viewBox="0 0 30 38" fill="none" xmlns="http://www.w3.org/2000/svg">
<path d="M15 0C11.0232 0.0046097 7.21053 1.59089 4.39848 4.41084C1.58643 7.2308 0.00459678 11.0542 0 15.0422C0 25.4039 10.3216 34.8139 13.4858 37.4518C13.911 37.8061 14.4464 38 14.9992 38C15.552 38 16.0874 37.8061 16.5126 37.4518C19.6705 34.8139 30 25.4039 30 15.0406C29.995 11.0528 28.413 7.2299 25.601 4.41028C22.789 1.59067 18.9766 0.00460888 15 0Z" fill="#F65570"/>
<path d="M15 9V15M15 21V15M15 15H21M15 15H9" stroke="white" stroke-width="3" stroke-linecap="round" stroke-linejoin="round"/>
</svg>
