<svg width="40" height="40" viewBox="0 0 40 40" fill="none" xmlns="http://www.w3.org/2000/svg">
<path d="M20 1C16.0232 1.00461 12.2105 2.59089 9.39848 5.41084C6.58643 8.2308 5.0046 12.0542 5 16.0422C5 26.4039 15.3216 35.8139 18.4858 38.4518C18.911 38.8061 19.4464 39 19.9992 39C20.552 39 21.0874 38.8061 21.5126 38.4518C24.6705 35.8139 35 26.4039 35 16.0406C34.995 12.0528 33.413 8.2299 30.601 5.41028C27.789 2.59067 23.9766 1.00461 20 1Z" fill="#F65570"/>
<path d="M20 10V16M20 22V16M20 16H26M20 16H14" stroke="white" stroke-width="3" stroke-linecap="round" stroke-linejoin="round"/>
</svg>
