<svg width="40" height="40" viewBox="0 0 40 40" fill="none" xmlns="http://www.w3.org/2000/svg">
<path d="M39.5153 12.9145L39.5036 12.9027L33.003 6.58528C31.297 4.92234 29.0177 3.99521 26.6473 4.00002C26.4806 4.04718 25.9273 3.88044 25.8139 4.50528C25.6234 5.94927 24.9371 7.27983 23.8749 8.2648C22.8126 9.24978 21.4418 9.82664 20.0017 9.89475C18.5612 9.82703 17.19 9.25033 16.1274 8.26532C15.0649 7.28031 14.3783 5.94955 14.1877 4.50528C14.0761 3.88212 13.521 4.04718 13.3543 4.00002C10.9845 3.99564 8.70588 4.92275 7.00035 6.58528L0.488027 12.9145C0.175543 13.2304 0 13.6587 0 14.1053C0 14.5519 0.175543 14.9802 0.488027 15.296L4.36175 19.2101C4.64989 19.5069 5.03744 19.684 5.44826 19.7068C5.85908 19.7295 6.26346 19.5962 6.58197 19.3331L8.65718 17.7112C8.78095 17.6144 8.92918 17.5548 9.08491 17.5391C9.24064 17.5235 9.39758 17.5525 9.53776 17.6228C9.67794 17.6931 9.79571 17.8019 9.87757 17.9366C9.95943 18.0714 10.0021 18.2267 10.0007 18.3849V34.3158C10.0007 34.7625 10.1763 35.1909 10.4889 35.5067C10.8014 35.8226 11.2254 36 11.6675 36H28.3358C28.7779 36 29.2019 35.8226 29.5145 35.5067C29.8271 35.1909 30.0027 34.7625 30.0027 34.3158V18.3781C30.0012 18.22 30.0439 18.0647 30.1257 17.9299C30.2076 17.7951 30.3254 17.6864 30.4656 17.6161C30.6057 17.5458 30.7627 17.5168 30.9184 17.5324C31.0741 17.548 31.2224 17.6077 31.3461 17.7044L33.398 19.3061C33.7174 19.5746 34.1245 19.7129 34.5395 19.6939C34.9545 19.6748 35.3475 19.4999 35.6416 19.2034L39.5153 15.2893C39.8257 14.9737 40 14.5469 40 14.1019C40 13.657 39.8257 13.2301 39.5153 12.9145V12.9145Z" fill="#0AC285"/>
</svg>
