<svg width="40" height="32" viewBox="0 0 40 32" fill="none" xmlns="http://www.w3.org/2000/svg">
<path d="M39.5153 8.91454L39.5036 8.90275L33.003 2.58528C31.297 0.922344 29.0177 -0.00479385 26.6473 1.86418e-05C26.4806 0.0471765 25.9273 -0.11956 25.8139 0.505281C25.6234 1.94927 24.9371 3.27983 23.8749 4.2648C22.8126 5.24978 21.4418 5.82664 20.0017 5.89475C18.5612 5.82703 17.19 5.25033 16.1274 4.26532C15.0649 3.28031 14.3783 1.94955 14.1877 0.505281C14.0761 -0.117876 13.521 0.0471765 13.3543 1.86418e-05C10.9845 -0.00435627 8.70588 0.92275 7.00035 2.58528L0.488027 8.91454C0.175543 9.23038 0 9.65868 0 10.1053C0 10.5519 0.175543 10.9802 0.488027 11.296L4.36175 15.2101C4.64989 15.5069 5.03744 15.684 5.44826 15.7068C5.85908 15.7295 6.26346 15.5962 6.58197 15.3331L8.65718 13.7112C8.78094 13.6144 8.92918 13.5548 9.08491 13.5391C9.24064 13.5235 9.39758 13.5525 9.53776 13.6228C9.67795 13.6931 9.79571 13.8019 9.87757 13.9366C9.95943 14.0714 10.0021 14.2267 10.0007 14.3849V30.3158C10.0007 30.7625 10.1763 31.1909 10.4889 31.5067C10.8014 31.8226 11.2254 32 11.6675 32H28.3358C28.7779 32 29.2019 31.8226 29.5145 31.5067C29.8271 31.1909 30.0027 30.7625 30.0027 30.3158V14.3781C30.0012 14.22 30.0439 14.0647 30.1257 13.9299C30.2076 13.7951 30.3254 13.6864 30.4656 13.6161C30.6057 13.5458 30.7627 13.5168 30.9184 13.5324C31.0741 13.548 31.2224 13.6077 31.3461 13.7044L33.398 15.3061C33.7174 15.5746 34.1245 15.7129 34.5395 15.6939C34.9545 15.6748 35.3475 15.4999 35.6416 15.2034L39.5153 11.2893C39.8257 10.9737 40 10.5469 40 10.1019C40 9.65696 39.8257 9.2301 39.5153 8.91454Z" fill="#0AC285"/>
</svg>
