<svg width="30" height="30" viewBox="0 0 30 30" fill="none" xmlns="http://www.w3.org/2000/svg">
<path d="M26.875 0H3.125C2.2962 0 1.50134 0.32924 0.915291 0.915291C0.32924 1.50134 0 2.2962 0 3.125L0 26.875C0 27.2854 0.0808305 27.6917 0.237876 28.0709C0.394922 28.45 0.625108 28.7945 0.915291 29.0847C1.20547 29.3749 1.54997 29.6051 1.92911 29.7621C2.30826 29.9192 2.71462 30 3.125 30H26.875C27.2854 30 27.6917 29.9192 28.0709 29.7621C28.45 29.6051 28.7945 29.3749 29.0847 29.0847C29.3749 28.7945 29.6051 28.45 29.7621 28.0709C29.9192 27.6917 30 27.2854 30 26.875V3.125C30 2.71462 29.9192 2.30826 29.7621 1.92911C29.6051 1.54997 29.3749 1.20547 29.0847 0.915291C28.7945 0.625108 28.45 0.394922 28.0709 0.237876C27.6917 0.0808305 27.2854 0 26.875 0V0ZM23.125 11.875H17.5C17.1685 11.875 16.8505 11.7433 16.6161 11.5089C16.3817 11.2745 16.25 10.9565 16.25 10.625C16.25 10.2935 16.3817 9.97554 16.6161 9.74112C16.8505 9.5067 17.1685 9.375 17.5 9.375H23.125C23.4565 9.375 23.7745 9.5067 24.0089 9.74112C24.2433 9.97554 24.375 10.2935 24.375 10.625C24.375 10.9565 24.2433 11.2745 24.0089 11.5089C23.7745 11.7433 23.4565 11.875 23.125 11.875ZM24.375 21.875C24.375 22.2065 24.2433 22.5245 24.0089 22.7589C23.7745 22.9933 23.4565 23.125 23.125 23.125H17.5C17.1685 23.125 16.8505 22.9933 16.6161 22.7589C16.3817 22.5245 16.25 22.2065 16.25 21.875C16.25 21.5435 16.3817 21.2255 16.6161 20.9911C16.8505 20.7567 17.1685 20.625 17.5 20.625H23.125C23.4565 20.625 23.7745 20.7567 24.0089 20.9911C24.2433 21.2255 24.375 21.5435 24.375 21.875ZM14.125 7L10.375 12C10.2679 12.1438 10.131 12.2629 9.97381 12.3492C9.81658 12.4355 9.64262 12.4869 9.46375 12.5H9.375C9.04351 12.4999 8.72562 12.3682 8.49125 12.1337L6.61625 10.2587C6.3817 10.0244 6.24986 9.7064 6.24975 9.37482C6.24969 9.21063 6.28197 9.04804 6.34475 8.89633C6.40753 8.74462 6.49957 8.60676 6.61562 8.49063C6.73168 8.37449 6.86947 8.28235 7.02114 8.21946C7.17281 8.15658 7.33537 8.12418 7.49956 8.12412C7.83115 8.124 8.1492 8.25561 8.38375 8.49L9.24 9.34625L12.125 5.5C12.3239 5.23478 12.62 5.05945 12.9482 5.01256C13.2764 4.96568 13.6098 5.05109 13.875 5.25C14.1402 5.44891 14.3156 5.74503 14.3624 6.07322C14.4093 6.40141 14.3239 6.73478 14.125 7ZM14.125 19.5L10.375 24.5C10.2653 24.6402 10.1275 24.7558 9.97039 24.8394C9.81327 24.923 9.64036 24.9727 9.46283 24.9853C9.28531 24.9979 9.10711 24.9731 8.93976 24.9126C8.7724 24.852 8.61961 24.757 8.49125 24.6338L6.61625 22.7588C6.38855 22.523 6.26256 22.2072 6.26541 21.8795C6.26826 21.5518 6.39972 21.2382 6.63148 21.0065C6.86324 20.7747 7.17675 20.6433 7.5045 20.6404C7.83224 20.6376 8.148 20.7636 8.38375 20.9912L9.24 21.8475L12.125 18C12.3239 17.7348 12.62 17.5594 12.9482 17.5126C13.2764 17.4657 13.6098 17.5511 13.875 17.75C14.1402 17.9489 14.3156 18.245 14.3624 18.5732C14.4093 18.9014 14.3239 19.2348 14.125 19.5Z" fill="#00B8F5"/>
</svg>
