<svg width="40" height="40" viewBox="0 0 40 40" fill="none" xmlns="http://www.w3.org/2000/svg">
<path d="M31.875 5H8.125C7.2962 5 6.50134 5.32924 5.91529 5.91529C5.32924 6.50134 5 7.2962 5 8.125L5 31.875C5 32.2854 5.08083 32.6917 5.23788 33.0709C5.39492 33.45 5.62511 33.7945 5.91529 34.0847C6.20547 34.3749 6.54997 34.6051 6.92911 34.7621C7.30826 34.9192 7.71462 35 8.125 35H31.875C32.2854 35 32.6917 34.9192 33.0709 34.7621C33.45 34.6051 33.7945 34.3749 34.0847 34.0847C34.3749 33.7945 34.6051 33.45 34.7621 33.0709C34.9192 32.6917 35 32.2854 35 31.875V8.125C35 7.71462 34.9192 7.30826 34.7621 6.92911C34.6051 6.54997 34.3749 6.20547 34.0847 5.91529C33.7945 5.62511 33.45 5.39492 33.0709 5.23788C32.6917 5.08083 32.2854 5 31.875 5V5ZM28.125 16.875H22.5C22.1685 16.875 21.8505 16.7433 21.6161 16.5089C21.3817 16.2745 21.25 15.9565 21.25 15.625C21.25 15.2935 21.3817 14.9755 21.6161 14.7411C21.8505 14.5067 22.1685 14.375 22.5 14.375H28.125C28.4565 14.375 28.7745 14.5067 29.0089 14.7411C29.2433 14.9755 29.375 15.2935 29.375 15.625C29.375 15.9565 29.2433 16.2745 29.0089 16.5089C28.7745 16.7433 28.4565 16.875 28.125 16.875ZM29.375 26.875C29.375 27.2065 29.2433 27.5245 29.0089 27.7589C28.7745 27.9933 28.4565 28.125 28.125 28.125H22.5C22.1685 28.125 21.8505 27.9933 21.6161 27.7589C21.3817 27.5245 21.25 27.2065 21.25 26.875C21.25 26.5435 21.3817 26.2255 21.6161 25.9911C21.8505 25.7567 22.1685 25.625 22.5 25.625H28.125C28.4565 25.625 28.7745 25.7567 29.0089 25.9911C29.2433 26.2255 29.375 26.5435 29.375 26.875ZM19.125 12L15.375 17C15.2679 17.1438 15.131 17.2629 14.9738 17.3492C14.8166 17.4355 14.6426 17.4869 14.4638 17.5H14.375C14.0435 17.4999 13.7256 17.3682 13.4913 17.1337L11.6163 15.2587C11.3817 15.0244 11.2499 14.7064 11.2497 14.3748C11.2497 14.2106 11.282 14.048 11.3447 13.8963C11.4075 13.7446 11.4996 13.6068 11.6156 13.4906C11.7317 13.3745 11.8695 13.2823 12.0211 13.2195C12.1728 13.1566 12.3354 13.1242 12.4996 13.1241C12.8311 13.124 13.1492 13.2556 13.3837 13.49L14.24 14.3463L17.125 10.5C17.3239 10.2348 17.62 10.0594 17.9482 10.0126C18.2764 9.96568 18.6098 10.0511 18.875 10.25C19.1402 10.4489 19.3156 10.745 19.3624 11.0732C19.4093 11.4014 19.3239 11.7348 19.125 12V12ZM19.125 24.5L15.375 29.5C15.2653 29.6402 15.1275 29.7558 14.9704 29.8394C14.8133 29.923 14.6404 29.9727 14.4628 29.9853C14.2853 29.9979 14.1071 29.9731 13.9398 29.9126C13.7724 29.852 13.6196 29.757 13.4913 29.6338L11.6163 27.7588C11.3886 27.523 11.2626 27.2072 11.2654 26.8795C11.2683 26.5518 11.3997 26.2382 11.6315 26.0065C11.8632 25.7747 12.1768 25.6433 12.5045 25.6404C12.8322 25.6376 13.148 25.7636 13.3837 25.9912L14.24 26.8475L17.125 23C17.3239 22.7348 17.62 22.5594 17.9482 22.5126C18.2764 22.4657 18.6098 22.5511 18.875 22.75C19.1402 22.9489 19.3156 23.245 19.3624 23.5732C19.4093 23.9014 19.3239 24.2348 19.125 24.5Z" fill="#00B8F5"/>
</svg>
