<svg width="452" height="127" viewBox="0 0 452 127" fill="none" xmlns="http://www.w3.org/2000/svg">
<path d="M377 105.078L415 83.1545L453 105.078V148.922L415 170.846L377 148.922V105.078Z" stroke="#F2F2F2" stroke-width="2"/>
<path d="M189 105.078L227 83.1545L265 105.078V148.922L227 170.846L189 148.922V105.078Z" stroke="#F2F2F2" stroke-width="2"/>
<path d="M321 82L360 104.5V149.5L321 172L282 149.5V104.5L321 82Z" fill="#F2F2F2"/>
<path d="M1 105.078L39 83.1545L77 105.078V148.922L39 170.846L1 148.922V105.078Z" stroke="#F2F2F2" stroke-width="2"/>
<path d="M142 23.0776L180 1.15449L218 23.0776V66.9224L180 88.8455L142 66.9224V23.0776Z" stroke="#F2F2F2" stroke-width="2"/>
<path d="M330 23.0776L368 1.15449L406 23.0776V66.9224L368 88.8455L330 66.9224V23.0776Z" stroke="#F2F2F2" stroke-width="2"/>
<path d="M133 82L172 104.5V149.5L133 172L94 149.5V104.5L133 82Z" fill="#F2F2F2"/>
<path d="M274 0L313 22.5V67.5L274 90L235 67.5V22.5L274 0Z" fill="#F2F2F2"/>
<path d="M462 0L501 22.5V67.5L462 90L423 67.5V22.5L462 0Z" fill="#F2F2F2"/>
</svg>
