<svg width="140" height="56" viewBox="0 0 140 56" fill="none" xmlns="http://www.w3.org/2000/svg">
<path d="M15.3384 40.2497H18.4409V48.9649H23.8286V51.7581H15.3384V40.2497ZM27.037 46.0312V45.9922C27.037 42.6918 29.6249 40 33.0679 40C36.5109 40 39.0535 42.645 39.0535 45.9454V45.9844C39.0535 49.2848 36.4655 51.9766 33.0225 51.9766C29.5795 51.9766 27.037 49.3316 27.037 46.0312ZM35.9056 46.0312V45.9922C35.9056 44.3303 34.7554 42.8947 33.0377 42.8947C31.3502 42.8947 30.2152 44.3069 30.2152 45.9688V46.0078C30.2152 47.6697 31.3654 49.1053 33.0604 49.1053C34.7705 49.1053 35.9056 47.6931 35.9056 46.0312ZM42.8521 46.71V40.2497H45.9924V46.6476C45.9924 48.3095 46.8097 49.0897 48.0431 49.0897C49.2765 49.0897 50.0938 48.3329 50.0938 46.7334V40.2497H53.2341V46.632C53.2341 50.3459 51.1834 51.9688 48.0053 51.9688C44.8422 51.961 42.8521 50.3147 42.8521 46.71ZM57.971 40.2497H62.2691C66.2494 40.2497 68.5725 42.606 68.5725 45.9298V45.9688C68.5725 49.2926 66.2267 51.7503 62.2086 51.7503H57.971V40.2497ZM62.3221 48.9259C64.1684 48.9259 65.4019 47.8804 65.4019 46.0156V45.9766C65.4019 44.1274 64.1684 43.0663 62.3221 43.0663H61.066V48.9103H62.3221V48.9259ZM73.0673 40.2497H81.9964V43.0429H76.1471V45.0091H81.4364V47.6541H76.1471V51.7581H73.0673V40.2497ZM86.2945 40.2497H89.3742V48.9649H94.7847V51.7581H86.2869V40.2497H86.2945ZM102.866 40.1638H105.848L110.6 51.7503H107.278L106.461 49.6983H102.163L101.368 51.7503H98.1217L102.866 40.1638ZM105.59 47.2172L104.357 43.9558L103.101 47.2172H105.59ZM114.588 40.2497H119.862C121.572 40.2497 122.745 40.7022 123.502 41.498C124.16 42.1534 124.493 43.0351 124.493 44.1821V44.2211C124.493 45.9844 123.577 47.1547 122.208 47.7477L124.871 51.7659H121.292L119.045 48.2783H117.69V51.7659H114.588V40.2497ZM119.718 45.7659C120.77 45.7659 121.368 45.2354 121.368 44.4083V44.3693C121.368 43.4642 120.732 43.0117 119.695 43.0117H117.667V45.7581L119.718 45.7659ZM128.95 40.2497H137.924V42.9571H132.014V44.697H137.364V47.2172H132.014V49.0429H138V51.7503H128.95V40.2497ZM8.57345 47.381C8.13456 48.3875 7.21895 49.1053 6.02336 49.1053C4.33591 49.1053 3.17815 47.6463 3.17815 46.0078V45.9688C3.17815 44.3069 4.31321 42.8947 6.00066 42.8947C7.27192 42.8947 8.24807 43.6983 8.64912 44.7984H11.9105C11.396 42.052 9.04261 40.0156 6.02336 40.0156C2.58793 40.0234 0 42.7074 0 46.0078V46.0468C0 49.355 2.55009 52 5.98552 52C8.9291 52 11.237 50.0338 11.8348 47.4044L8.57345 47.381Z" fill="#404041"/>
<path d="M134.351 22.4575L125.81 17.5044L124.333 16.8613L89.3959 17.1063V35.0355H134.344L134.351 22.4575Z" fill="white"/>
<path d="M118.423 33.3411C118.836 31.8962 118.678 30.566 117.986 29.5798C117.354 28.6777 116.285 28.1502 114.999 28.089L90.6473 27.7679C90.4893 27.7679 90.3538 27.6838 90.2711 27.5692C90.1883 27.4469 90.1732 27.2863 90.2108 27.1258C90.2936 26.8811 90.5269 26.7053 90.7828 26.6824L115.352 26.3613C118.257 26.2237 121.425 23.8308 122.531 20.8952L123.939 17.1798C123.999 17.0192 124.021 16.8587 123.976 16.6982C122.403 9.42787 116.015 4 108.377 4C101.333 4 95.358 8.62515 93.2209 15.0316C91.8363 13.9842 90.0754 13.4261 88.1791 13.602C84.7927 13.946 82.0837 16.6982 81.7526 20.1307C81.6698 21.0175 81.73 21.8814 81.9332 22.6841C76.4173 22.8446 72 27.4239 72 33.0735C72 33.5781 72.0376 34.075 72.0978 34.5795C72.1355 34.8242 72.3386 35 72.5719 35H117.52C117.775 35 118.016 34.8165 118.092 34.5566L118.423 33.3411Z" fill="#F38020"/>
<path d="M126.564 17C126.343 17 126.108 17 125.888 17.0235C125.728 17.0235 125.591 17.1491 125.531 17.3139L124.574 20.7585C124.156 22.2415 124.315 23.6068 125.014 24.619C125.652 25.5449 126.731 26.0863 128.03 26.1491L133.263 26.4786C133.422 26.4786 133.559 26.565 133.643 26.6827C133.726 26.8082 133.741 26.9887 133.703 27.1378C133.62 27.3888 133.384 27.5693 133.126 27.5929L127.673 27.9224C124.718 28.0636 121.543 30.5196 120.427 33.5327L120.024 34.5841C119.94 34.7881 120.085 35 120.305 35H139.02C139.24 35 139.438 34.8588 139.499 34.6312C139.818 33.4385 140 32.1752 140 30.8806C140 23.2302 133.969 17 126.564 17Z" fill="#FAAE40"/>
</svg>
