<svg width="52" height="58" viewBox="0 0 52 58" fill="none" xmlns="http://www.w3.org/2000/svg">
<path d="M26 0L52 14.5V43.5L26 58L0 43.5V14.5L26 0Z" fill="#FFE100"/>
<g clip-path="url(#clip0)">
<path d="M26.0557 31.9617C27.7125 31.9617 29.0557 30.6185 29.0557 28.9617C29.0557 27.3048 27.7125 25.9617 26.0557 25.9617C24.3988 25.9617 23.0557 27.3048 23.0557 28.9617C23.0557 30.6185 24.3988 31.9617 26.0557 31.9617Z" stroke="#1A1A1A" stroke-width="2" stroke-linecap="round" stroke-linejoin="round"/>
<path d="M33.4557 31.9617C33.3225 32.2633 33.2828 32.5979 33.3417 32.9223C33.4005 33.2467 33.5551 33.546 33.7857 33.7817L33.8457 33.8417C34.0316 34.0274 34.1791 34.248 34.2798 34.4908C34.3804 34.7336 34.4322 34.9938 34.4322 35.2567C34.4322 35.5195 34.3804 35.7798 34.2798 36.0226C34.1791 36.2653 34.0316 36.4859 33.8457 36.6717C33.6599 36.8576 33.4393 37.0051 33.1965 37.1058C32.9537 37.2064 32.6935 37.2582 32.4307 37.2582C32.1678 37.2582 31.9076 37.2064 31.6648 37.1058C31.422 37.0051 31.2014 36.8576 31.0157 36.6717L30.9557 36.6117C30.72 36.3811 30.4206 36.2265 30.0963 36.1677C29.7719 36.1088 29.4373 36.1486 29.1357 36.2817C28.8399 36.4084 28.5876 36.6189 28.41 36.8872C28.2323 37.1555 28.1369 37.4699 28.1357 37.7917V37.9617C28.1357 38.4921 27.9249 39.0008 27.5499 39.3759C27.1748 39.751 26.6661 39.9617 26.1357 39.9617C25.6052 39.9617 25.0965 39.751 24.7215 39.3759C24.3464 39.0008 24.1357 38.4921 24.1357 37.9617V37.8717C24.1279 37.5407 24.0208 37.2197 23.8282 36.9504C23.6356 36.6811 23.3664 36.476 23.0557 36.3617C22.754 36.2286 22.4195 36.1888 22.0951 36.2477C21.7707 36.3065 21.4713 36.4611 21.2357 36.6917L21.1757 36.7517C20.9899 36.9376 20.7693 37.0851 20.5265 37.1858C20.2837 37.2864 20.0235 37.3382 19.7607 37.3382C19.4978 37.3382 19.2376 37.2864 18.9948 37.1858C18.752 37.0851 18.5314 36.9376 18.3457 36.7517C18.1597 36.5659 18.0122 36.3453 17.9115 36.1026C17.8109 35.8598 17.7591 35.5995 17.7591 35.3367C17.7591 35.0738 17.8109 34.8136 17.9115 34.5708C18.0122 34.328 18.1597 34.1074 18.3457 33.9217L18.4057 33.8617C18.6362 33.626 18.7908 33.3267 18.8497 33.0023C18.9085 32.6779 18.8688 32.3433 18.7357 32.0417C18.6089 31.7459 18.3984 31.4937 18.1301 31.316C17.8618 31.1383 17.5475 31.043 17.2257 31.0417H17.0557C16.5252 31.0417 16.0165 30.831 15.6415 30.4559C15.2664 30.0808 15.0557 29.5721 15.0557 29.0417C15.0557 28.5112 15.2664 28.0025 15.6415 27.6275C16.0165 27.2524 16.5252 27.0417 17.0557 27.0417H17.1457C17.4767 27.0339 17.7977 26.9268 18.067 26.7342C18.3363 26.5416 18.5414 26.2724 18.6557 25.9617C18.7888 25.6601 18.8285 25.3255 18.7697 25.0011C18.7108 24.6767 18.5562 24.3773 18.3257 24.1417L18.2657 24.0817C18.0797 23.8959 17.9322 23.6753 17.8315 23.4326C17.7309 23.1898 17.6791 22.9295 17.6791 22.6667C17.6791 22.4038 17.7309 22.1436 17.8315 21.9008C17.9322 21.658 18.0797 21.4374 18.2657 21.2517C18.4514 21.0657 18.672 20.9182 18.9148 20.8176C19.1576 20.7169 19.4178 20.6651 19.6807 20.6651C19.9435 20.6651 20.2037 20.7169 20.4465 20.8176C20.6893 20.9182 20.9099 21.0657 21.0957 21.2517L21.1557 21.3117C21.3913 21.5422 21.6907 21.6969 22.0151 21.7557C22.3395 21.8145 22.674 21.7748 22.9757 21.6417H23.0557C23.3514 21.5149 23.6037 21.3044 23.7814 21.0361C23.959 20.7678 24.0544 20.4535 24.0557 20.1317V19.9617C24.0557 19.4312 24.2664 18.9225 24.6415 18.5475C25.0165 18.1724 25.5252 17.9617 26.0557 17.9617C26.5861 17.9617 27.0948 18.1724 27.4699 18.5475C27.8449 18.9225 28.0557 19.4312 28.0557 19.9617V20.0517C28.0569 20.3735 28.1523 20.6878 28.33 20.9561C28.5076 21.2244 28.7599 21.4349 29.0557 21.5617C29.3573 21.6948 29.6919 21.7345 30.0163 21.6757C30.3406 21.6169 30.64 21.4622 30.8757 21.2317L30.9357 21.1717C31.1214 20.9857 31.342 20.8382 31.5848 20.7376C31.8276 20.6369 32.0878 20.5851 32.3507 20.5851C32.6135 20.5851 32.8737 20.6369 33.1165 20.7376C33.3593 20.8382 33.5799 20.9857 33.7657 21.1717C33.9516 21.3574 34.0991 21.578 34.1998 21.8208C34.3004 22.0636 34.3522 22.3238 34.3522 22.5867C34.3522 22.8495 34.3004 23.1098 34.1998 23.3526C34.0991 23.5953 33.9516 23.8159 33.7657 24.0017L33.7057 24.0617C33.4751 24.2973 33.3205 24.5967 33.2617 24.9211C33.2028 25.2455 33.2425 25.5801 33.3757 25.8817V25.9617C33.5024 26.2574 33.7129 26.5097 33.9812 26.6874C34.2495 26.865 34.5639 26.9604 34.8857 26.9617H35.0557C35.5861 26.9617 36.0948 27.1724 36.4699 27.5475C36.8449 27.9225 37.0557 28.4312 37.0557 28.9617C37.0557 29.4921 36.8449 30.0008 36.4699 30.3759C36.0948 30.751 35.5861 30.9617 35.0557 30.9617H34.9657C34.6439 30.963 34.3295 31.0583 34.0612 31.236C33.7929 31.4137 33.5824 31.6659 33.4557 31.9617V31.9617Z" stroke="#1A1A1A" stroke-width="2" stroke-linecap="round" stroke-linejoin="round"/>
</g>
<defs>
<clipPath id="clip0">
<rect width="24" height="24" fill="white" transform="translate(14.0557 16.9617)"/>
</clipPath>
</defs>
</svg>
