<svg width="175" height="48" viewBox="0 0 175 48" fill="none" xmlns="http://www.w3.org/2000/svg">
<path fill-rule="evenodd" clip-rule="evenodd" d="M30.7202 28.279V27.9815L28.1953 25.8135H27.9011C27.2067 26.5788 26.1346 27.1523 24.9353 27.1523C23.063 27.1523 21.5899 25.7282 21.5899 23.7733C21.5899 21.8184 23.063 20.3943 24.9353 20.3943C26.1346 20.3943 27.2067 20.9678 27.9011 21.7331H28.1953L30.7202 19.565V19.2676C29.3946 17.6527 27.3126 16.6113 24.9557 16.6113C20.6227 16.6113 17.3413 19.6716 17.3413 23.7733C17.3413 23.9322 17.3773 24.0785 17.388 24.2344C19.1612 25.4376 20.7266 26.4005 22.0745 27.2821C24.0176 28.5085 25.586 29.6371 26.8775 30.6863C28.4876 30.2804 29.7928 29.3998 30.7202 28.279ZM18.9233 28.2024C19.9351 29.4424 21.3636 30.3317 23.0485 30.7115C21.9104 30.0731 20.8082 29.4463 19.7817 28.7527C19.4807 28.5667 19.2126 28.3865 18.9233 28.2024Z" fill="#FC0000"/>
<path fill-rule="evenodd" clip-rule="evenodd" d="M45.3406 30.0216L44.7094 27.3013L44.4783 27.1522C44.3521 27.2161 44.2472 27.3013 43.9316 27.3013C43.447 27.3013 43.1527 26.7908 42.9003 26.3878C42.4798 25.7494 42.1428 25.4094 41.8486 25.2612C43.3839 24.5811 44.4152 23.3062 44.4152 21.4782C44.4152 18.6514 42.4798 16.866 38.8828 16.866H32.6134V30.6803H36.7785V25.8347H37.1572C38.0826 25.8347 39.2616 27.8322 39.8083 28.7254C40.9445 30.5321 41.8486 30.9351 43.4684 30.9351C44.2258 30.9351 44.857 30.659 45.2357 30.319L45.3406 30.0216ZM40.1656 21.7117C40.1656 22.6262 39.4927 23.0718 38.7139 23.0718H36.7785V20.2663H38.7139C39.4927 20.2663 40.1656 20.7768 40.1656 21.7117Z" fill="#FC0000"/>
<path fill-rule="evenodd" clip-rule="evenodd" d="M61.4333 23.7733C61.4333 19.6716 58.1519 16.6113 53.7975 16.6113C49.4422 16.6113 46.1608 19.6716 46.1608 23.7733C46.1608 27.875 49.4422 30.9353 53.7975 30.9353C58.1519 30.9353 61.4333 27.8537 61.4333 23.7733ZM57.1838 23.7733C57.1838 25.7495 55.6688 27.1523 53.7975 27.1523C51.9253 27.1523 50.4103 25.7495 50.4103 23.7733C50.4103 21.797 51.9253 20.3943 53.7975 20.3943C55.6688 20.3943 57.1838 21.797 57.1838 23.7733Z" fill="#FC0000"/>
<path fill-rule="evenodd" clip-rule="evenodd" d="M82.2805 16.8662H78.3048L75.8431 24.5174L73.2347 16.8662H70.7109L68.1229 24.4748L65.6621 16.8662H61.6855L61.4961 17.1849L66.5876 30.6806H69.1115L71.9723 23.1573L74.8545 30.6806H77.3794L82.4699 17.1849L82.2805 16.8662Z" fill="#FC0000"/>
<path fill-rule="evenodd" clip-rule="evenodd" d="M97.7212 23.7521C97.7212 19.6291 94.9652 16.8662 90.4846 16.8662H84.1103V30.6806H90.4846C94.9652 30.6806 97.7212 27.9177 97.7212 23.7521ZM93.4716 23.7734C93.4716 26.0257 92.1461 27.2803 90.3165 27.2803H88.2753V20.2665H90.3165C92.1461 20.2665 93.4716 21.5211 93.4716 23.7734Z" fill="#FC0000"/>
<path fill-rule="evenodd" clip-rule="evenodd" d="M119.786 20.2665H123.951V16.8662H111.456V20.2665H115.621V30.6806H119.786V20.2665Z" fill="#FC0000"/>
<path fill-rule="evenodd" clip-rule="evenodd" d="M137.267 21.4779C137.267 18.6511 135.331 16.8657 131.734 16.8657H125.465V30.6801H129.631V25.8344H130.62L133.207 30.6801H137.351L137.541 30.3614L134.763 25.2396C136.257 24.5382 137.267 23.2847 137.267 21.4779ZM133.017 21.7114C133.017 22.6259 132.344 23.0715 131.565 23.0715H129.631V20.266H131.565C132.344 20.266 133.017 20.7766 133.017 21.7114Z" fill="#FC0000"/>
<path fill-rule="evenodd" clip-rule="evenodd" d="M139.791 30.6806H143.956V16.8662H139.791V30.6806Z" fill="#FC0000"/>
<path fill-rule="evenodd" clip-rule="evenodd" d="M154.516 23.0507L159.228 17.1849L159.038 16.8662H154.601L150.75 21.7758V16.8662H146.585V30.6806H150.75V26.4297L151.508 25.5375L155.042 30.6806H159.397L159.586 30.3619L154.516 23.0507Z" fill="#FC0000"/>
<path fill-rule="evenodd" clip-rule="evenodd" d="M160.722 16.8657V30.6811H171.197V27.2808H164.886V25.3675H169.64V22.1793H164.886V20.267H171.135V16.8657H160.722Z" fill="#FC0000"/>
<path fill-rule="evenodd" clip-rule="evenodd" d="M104.767 30.8445C107.818 30.8445 110.466 29.3574 110.466 26.4899C110.466 23.3647 107.797 22.5568 105.441 21.8767C104.514 21.6006 103.567 21.281 103.567 20.6009C103.567 20.1117 104.093 19.8143 104.893 19.8143C106.261 19.8143 107.418 20.6648 108.006 21.218H108.301L110.256 18.8804V18.583C109.226 17.4147 107.124 16.5225 104.809 16.5225C101.569 16.5225 99.3199 18.2643 99.3199 20.7927C99.3199 23.5139 101.8 24.7045 103.903 25.2993C105.272 25.682 106.199 25.7459 106.199 26.4899C106.199 27.0218 105.546 27.3405 104.535 27.3405C103.251 27.3405 101.695 26.5112 100.939 25.7672H100.644L98.7101 28.1901V28.4875C99.9501 29.868 102.179 30.8445 104.767 30.8445Z" fill="#FC0000"/>
<path fill-rule="evenodd" clip-rule="evenodd" d="M32.9579 43.5416C31.9489 41.2379 29.9222 38.2822 21.9825 34.0614C18.3215 32.0309 12.0666 28.9047 6.44105 22.9634C6.95087 25.1082 9.56313 29.8212 20.7987 35.7063C23.9101 37.4045 29.1715 38.9972 32.9579 43.5416Z" fill="#FC0000"/>
<path fill-rule="evenodd" clip-rule="evenodd" d="M32.4512 39.5961C31.4937 36.8739 29.7652 33.3883 21.5681 28.2113C17.576 25.6015 11.7154 22.3242 4 13.9688C4.55158 16.2211 6.98904 22.0782 19.2754 29.6819C23.3113 32.4099 28.5202 34.0926 32.4512 39.5961Z" fill="#FC0000"/>
</svg>
