<svg width="196" height="56" viewBox="0 0 196 56" fill="none" xmlns="http://www.w3.org/2000/svg">
<path fill-rule="evenodd" clip-rule="evenodd" d="M0 13.6001L7.50876 10.4276L19.1341 15.9814L10.9099 19.948L11.4728 28.7679L0.97829 22.0792L0 13.6001ZM34.5302 28.745L35.195 19.9527L26.8595 15.9817L38.3845 10.4258L46 13.5992C45.7858 15.2819 45.5741 16.9397 45.3637 18.5974C45.2381 19.5833 45.1291 20.5719 44.9748 21.5537C44.9384 21.7865 44.8088 22.0816 44.6208 22.205C41.3835 24.3321 38.1308 26.4365 34.8811 28.5451C34.8003 28.5975 34.7133 28.6412 34.5302 28.745ZM23.0531 40.1884L30.6615 35.2366L29.7882 47.0446L23.0019 52L16.1131 47.0467L15.3394 35.2383L23.0531 40.1884ZM22.9494 4L34.2766 8.76449C30.5185 10.5509 26.7604 12.3374 23.0025 14.1241L11.6234 8.71661L22.9494 4ZM2.87654 37.5537L1.53718 26.3348L11.7278 32.9304L12.5005 44.4461L2.87654 37.554V37.5537ZM44.4122 26.3348C44.2039 27.9634 44.0119 29.4746 43.8175 30.9854C43.5571 33.0069 43.3015 35.029 43.0232 37.0478C42.9923 37.2696 42.8843 37.5486 42.7121 37.675C39.6886 39.8925 36.6495 42.0909 33.6131 44.2918C33.5751 44.3191 33.5263 44.3316 33.4048 44.3857L34.2216 32.9325L44.4119 26.3348H44.4122Z" fill="#10D05D"/>
<path fill-rule="evenodd" clip-rule="evenodd" d="M59 40.4642V16.1248C62.8057 16.2551 66.5962 16.1492 70.3216 16.5811C73.7516 16.9791 76.0277 19.7265 76.1475 23.1237C76.2706 26.6405 76.2769 30.1685 76.1452 33.6854C76.0039 37.4484 73.0232 40.2918 69.0898 40.4381C65.7587 40.5623 62.4192 40.4642 59 40.4642ZM63.7658 36.348C65.353 36.348 66.8301 36.3802 68.3061 36.3386C69.7165 36.2992 70.6742 35.5946 71.0873 34.252C71.3013 33.5448 71.4154 32.8121 71.4263 32.0744C71.4659 29.607 71.4535 27.1373 71.432 24.6698C71.4283 24.0842 71.3613 23.5007 71.232 22.9291C70.9381 21.6529 70.1866 20.6506 68.8191 20.5342C67.1494 20.3906 65.457 20.4999 63.7646 20.4999C63.7658 25.7791 63.7658 31.0117 63.7658 36.348ZM196 40.4614H192.392L192.174 39.1476C191.866 39.3471 191.617 39.5101 191.368 39.6698C189.46 40.8905 187.383 41.1666 185.225 40.5695C182.991 39.952 181.601 38.3144 181.422 36.1773C181.162 33.0595 181.111 29.8803 181.432 26.7736C181.713 24.0517 183.808 22.5161 186.63 22.4873C188.239 22.4706 189.852 22.7661 191.538 22.9285V15H195.999L196 40.4614ZM191.547 26.8617C190.435 26.691 189.37 26.4377 188.294 26.3839C186.765 26.3074 185.764 27.089 185.68 28.5753C185.564 30.6342 185.607 32.7075 185.695 34.7697C185.736 35.7277 186.232 36.5493 187.252 36.8941C188.558 37.3348 190.336 36.8203 191.175 35.7366C191.369 35.486 191.529 35.1351 191.531 34.8285C191.56 32.2662 191.548 29.7023 191.548 26.8617H191.547ZM89.6971 27.6711C89.4073 26.5934 88.6659 26.1344 87.8324 25.8273C86.1542 25.2081 84.4387 25.2862 82.7231 25.6909C82.3926 25.7691 82.0659 25.8639 81.6518 25.9736L80.7612 23.5755C83.017 22.5449 85.3043 22.0177 87.7364 22.1557C88.3014 22.1879 88.8705 22.2444 89.4225 22.3586C92.6123 23.0144 94.3183 24.7479 94.4347 27.9538C94.5855 32.0855 94.4719 36.2261 94.4719 40.4276H90.569L90.2752 38.9181C88.8688 40.1493 87.2809 40.7852 85.4637 40.8539C82.6039 40.9626 80.134 39.5157 79.2615 37.2051C78.3591 34.8147 79.3141 31.8521 81.5461 30.1796C83.4843 28.7283 85.7513 28.1479 88.1167 27.8457C88.6117 27.7831 89.1089 27.736 89.6971 27.6711ZM89.8141 30.1918C88.3777 30.6614 87.0962 30.9746 85.9095 31.4957C84.5652 32.0866 83.7809 33.1826 83.6233 34.6655C83.4662 36.1407 84.4443 37.2932 85.94 37.3309C87.4742 37.3697 88.6586 36.6768 89.6056 35.5492C89.7311 35.3995 89.8028 35.16 89.8051 34.9616C89.822 33.4842 89.8141 32.0057 89.8141 30.1918ZM98.0358 31.463C98.1471 30.0715 98.1093 28.69 98.3907 27.3751C99.0942 24.0916 101.8 22.1984 105.647 22.1253C109.727 22.0476 112.741 23.9957 113.258 27.5758C113.632 30.2031 113.631 32.8688 113.255 35.496C112.748 38.9995 109.797 40.9055 105.783 40.8628C101.831 40.8206 99.132 38.9918 98.3992 35.6667C98.0957 34.2952 98.1449 32.8489 98.0364 31.463H98.0358ZM109.036 31.8882C108.969 30.5937 108.973 29.6635 108.862 28.7477C108.667 27.1228 107.584 26.1139 106.039 26.0241C104.469 25.9326 103.124 26.7292 102.965 28.2793C102.747 30.4086 102.748 32.5844 102.921 34.7193C103.037 36.144 104.265 36.9312 105.724 36.9645C107.297 37.0011 108.349 36.3264 108.704 34.8224C108.955 33.7536 108.96 32.6282 109.037 31.8882H109.036ZM132.501 18.467L130.668 21.7089C129.084 20.8319 127.505 20.1999 125.717 20.2033C123.376 20.2083 121.797 21.5637 121.746 23.8671C121.674 27.0192 121.677 30.1725 121.753 33.3245C121.809 35.603 123.36 36.9517 125.669 36.9351C127.202 36.924 128.098 36.6601 130.675 35.4433C130.969 35.9611 131.272 36.485 131.567 37.0122C131.869 37.5527 132.162 38.0965 132.455 38.6309C129.118 41.6062 122.985 41.8107 119.595 39.065C117.978 37.755 117.079 36.0226 117.032 33.9925C116.948 30.3786 116.936 26.7592 117.032 23.1453C117.111 20.1617 119.088 17.6765 122.047 16.7291C125.774 15.5366 129.238 16.152 132.501 18.467ZM158.959 31.6775C158.892 32.9082 158.936 34.1577 158.732 35.3662C158.255 38.2035 156.305 40.1166 153.398 40.6394C150.672 41.1294 148.059 40.9188 145.866 39.004C144.662 37.9518 143.959 36.5858 143.876 35.0325C143.762 32.8816 143.681 30.7112 143.85 28.5686C144.124 25.0928 146.514 22.8077 150.074 22.515C151.308 22.4146 152.61 22.4762 153.812 22.7522C157.108 23.5078 158.813 25.9675 158.901 29.822C158.915 30.4391 158.902 31.0566 158.902 31.6742L158.959 31.677L158.959 31.6775ZM148.184 31.6903L148.216 31.6952C148.216 32.1886 148.194 32.6837 148.223 33.1754C148.251 33.666 148.296 34.1605 148.394 34.6411C148.711 36.185 149.725 37.0066 151.29 37.0288C152.819 37.051 154.074 36.2111 154.206 34.6905C154.38 32.6663 154.381 30.6313 154.209 28.6069C154.08 27.0863 152.84 26.2564 151.302 26.2691C149.695 26.283 148.657 27.1273 148.411 28.7438C148.262 29.7151 148.254 30.7074 148.184 31.6903ZM172.7 22.8371H177.188V40.4581H173.321L172.986 39.1276C171.868 39.6387 170.798 40.3156 169.626 40.6283C165.841 41.64 162.98 39.7357 162.814 35.9051C162.628 31.5949 162.772 27.2709 162.772 22.8792H167.126V23.7628C167.126 26.9449 167.113 30.1269 167.135 33.309C167.14 34.0452 167.211 34.7903 167.35 35.5132C167.508 36.3369 168.026 36.8603 168.914 37.0321C170.785 37.3936 172.7 35.9062 172.7 34.0579V22.8376V22.8371ZM139.832 40.4575H135.44V15.005H139.832V40.4575Z" fill="#252525"/>
</svg>
