<svg width="159" height="48" viewBox="0 0 159 48" fill="none" xmlns="http://www.w3.org/2000/svg">
<path fill-rule="evenodd" clip-rule="evenodd" d="M88.1957 9.81419V11.5317H87.7692H87.3427V10.0751V8.61846H86.0632H84.7836L84.7944 17.9126L84.8051 27.2067H86.0633H87.3214L87.3427 20.7062L87.364 14.2058H87.7692H88.1743L88.1851 21.3476L88.1959 28.4894H89.4966H90.7972V21.3367V14.1841H91.0744H91.3516V12.8579V11.5317H91.0744H90.7972V9.81419V8.09668H89.4964H88.1957V9.81419ZM117.125 8.30322C117.027 8.53941 116.815 9.13023 116.747 9.35764C116.661 9.64101 116.455 9.94985 116.292 10.0383C116.187 10.0956 116.011 10.121 115.597 10.1385L115.043 10.162L115.031 11.2817L115.02 12.4013L115.756 12.4012C116.742 12.4011 117.859 12.3273 118.071 12.2482C118.18 12.2077 118.366 12.0576 118.582 11.8363L118.922 11.4882H121.211H123.5L123.293 11.9122C123.105 12.299 122.793 12.9583 122.155 14.3145C122.026 14.5895 121.711 15.2513 121.456 15.7851C121.201 16.3189 120.992 16.778 120.992 16.8054C120.992 16.9294 120.865 16.6983 120.759 16.3799C120.491 15.5778 120.3 15.0265 120.263 14.945C120.242 14.8971 120.157 14.6657 120.075 14.4306C119.814 13.6795 119.549 13.3906 118.966 13.2234C118.798 13.1752 118.369 13.1622 116.94 13.1622H115.128L115.117 14.2819L115.105 15.4015H116.13H117.154L117.25 15.5136C117.36 15.6423 117.796 16.6229 117.766 16.6728C117.755 16.6911 117.142 16.706 116.404 16.706H115.063L115.074 17.9561L115.085 19.2061L118.327 19.205C121.492 19.2038 121.58 19.2016 122.101 19.1066C122.696 18.998 122.97 18.8822 123.269 18.614C123.602 18.315 123.484 18.5356 125.657 14.1727L126.323 12.8351V10.9442V9.05327H123.077H119.831L119.861 8.93369C119.877 8.86795 119.946 8.68368 120.014 8.52419C120.083 8.36475 120.139 8.21313 120.139 8.18721C120.139 8.15438 119.694 8.14016 118.666 8.14016H117.192L117.125 8.30322ZM66.3599 9.42425V10.6648L65.8611 10.6526L65.3623 10.6403L65.0501 9.74897C64.8783 9.25872 64.7077 8.77442 64.671 8.67281L64.6042 8.48801H63.9254H63.2465V9.57504V10.6621H62.926H62.6055L62.6168 11.8469L62.6282 13.0318L64.4937 13.0432L66.3592 13.0545L66.3702 15.8259L66.3812 18.5974L67.6713 18.6089L68.9614 18.6204V15.837V13.0535H70.8166H72.6718V11.8598V10.666L72.3839 10.6532L72.096 10.6403L72.0846 9.56304L72.0732 8.48575L71.4298 8.49775L70.7864 8.50976L70.5747 9.03153C70.4583 9.3185 70.27 9.78549 70.1563 10.0693C70.0425 10.353 69.9318 10.6032 69.9102 10.6252C69.8886 10.6472 69.6711 10.6597 69.4268 10.6528L68.9827 10.6403L68.9714 9.41199L68.9601 8.18364H67.6599H66.3599V9.42425ZM74.5294 8.36844C74.5162 8.47006 74.476 8.78803 74.4402 9.07501C74.4044 9.36199 74.3565 9.74219 74.3338 9.91989C74.2822 10.3243 74.1563 10.5982 73.9792 10.6916C73.9055 10.7304 73.7156 10.7716 73.5571 10.7832L73.2688 10.8042V11.9977V13.1912L74.431 13.1749C75.5097 13.1596 75.6103 13.1515 75.8314 13.0621C75.9624 13.0091 76.1101 12.9216 76.1598 12.8678C76.2519 12.7678 76.638 11.9747 76.638 11.8854C76.638 11.8491 77.4044 11.8361 79.5388 11.8361H82.4395L82.4282 10.6295L82.4168 9.42286L79.7407 9.41164C77.6426 9.4029 77.0646 9.38881 77.0647 9.34642C77.0649 9.2975 77.1563 8.67733 77.2153 8.32496L77.239 8.18364H75.8963H74.5535L74.5294 8.36844ZM92.5891 9.54243C92.5901 11.3351 92.6481 11.6171 93.1068 12.0614C93.4946 12.4371 93.9974 12.5309 95.6271 12.5314L96.64 12.5318V11.4665V10.4012L95.9896 10.4005C95.6319 10.4001 95.3164 10.3851 95.2886 10.367C95.1735 10.2924 95.1473 10.0642 95.1473 9.1374V8.18364H93.8679H92.5884L92.5891 9.54243ZM101.025 9.16254C101.007 10.0632 100.999 10.151 100.919 10.2604L100.832 10.3794L100.026 10.4012L99.2202 10.4229L99.2087 11.4773L99.1973 12.5318L100.254 12.5308C101.575 12.5295 102.264 12.478 102.582 12.3568C102.766 12.2868 102.879 12.2012 103.071 11.9871C103.474 11.5394 103.477 11.5207 103.497 9.71636L103.513 8.18364H102.278H101.044L101.025 9.16254ZM108.224 8.29413C108.21 8.33096 108.133 8.7593 108.051 9.24602C107.83 10.5734 107.731 10.8991 107.489 11.0928C107.395 11.1687 107.317 11.1838 107.019 11.1838H106.662V12.3796V13.5753L107.398 13.5738C108.256 13.572 109.185 13.5134 109.432 13.4454C109.723 13.3655 109.885 13.1769 110.184 12.5677L110.459 12.01H112.249H114.04V10.836V9.66201H112.484C111.628 9.66201 110.927 9.64679 110.927 9.62814C110.927 9.60953 110.965 9.3209 111.012 8.98679C111.058 8.65268 111.097 8.34505 111.097 8.30322C111.098 8.23226 111.002 8.22713 109.674 8.22713C108.43 8.22713 108.246 8.23565 108.224 8.29413ZM131.971 9.0424C131.768 9.39516 131.57 9.73266 131.53 9.79245C131.49 9.85223 131.364 10.0717 131.25 10.2801C130.83 11.0496 130.743 11.0969 129.749 11.0969H129.095V12.2736V13.4503L130.493 13.4367L131.891 13.4231L132.188 13.274C132.724 13.0053 133.073 12.5783 133.973 11.086L134.176 10.749L138.342 10.7491H142.508L142.789 11.1295C142.944 11.3388 143.235 11.735 143.436 12.01C144.078 12.8898 144.416 13.1755 144.992 13.3255C145.282 13.4011 145.511 13.4144 146.847 13.4331L148.372 13.4545V12.2757V11.0969H147.522C147.016 11.0969 146.584 11.0759 146.452 11.0451C146.073 10.9558 146.03 10.9036 144.906 9.19588L144.384 8.40366L138.362 8.40236L132.339 8.40105L131.971 9.0424ZM79.3675 13.291C79.3675 13.302 79.2734 13.62 79.1584 13.9976C79.0433 14.3752 78.8789 14.9287 78.793 15.2276C78.7071 15.5265 78.6015 15.8787 78.5582 16.0103C78.515 16.1418 78.4175 16.4646 78.3415 16.7277C78.2656 16.9908 78.1714 17.3136 78.1322 17.4451C78.093 17.5767 77.9663 18.002 77.8506 18.3903C77.6633 19.0188 77.5763 19.2237 77.5763 19.036C77.5763 19.0022 77.4331 18.5864 77.2581 18.112C77.083 17.6376 76.7563 16.7407 76.5319 16.119C76.3076 15.4972 76.0806 14.8711 76.0274 14.7276L75.9308 14.4667L74.5998 14.4552C73.8225 14.4485 73.2688 14.4601 73.2688 14.4832C73.2688 14.5049 73.3479 14.7253 73.4446 14.973C73.5413 15.2206 73.741 15.7461 73.8883 16.1407C74.0357 16.5353 74.3045 17.2495 74.4856 17.7278C74.6667 18.2061 74.8968 18.8224 74.9969 19.0974C75.097 19.3725 75.2768 19.8457 75.3963 20.149C75.5159 20.4523 75.6793 20.8828 75.7595 21.1056C75.8397 21.3284 75.9936 21.7406 76.1015 22.0216L76.2977 22.5325L76.2144 22.7825C76.1685 22.92 76.0811 23.1695 76.0201 23.3369C75.959 23.5043 75.8589 23.788 75.7975 23.9673C75.4727 24.9161 75.064 26.02 75.0018 26.1169C74.8501 26.3529 74.7606 26.3775 73.9864 26.3955L73.2688 26.4123V27.4943V28.5763H74.5714C76.0219 28.5763 76.3222 28.5402 76.8013 28.3081C77.1652 28.1317 77.3187 27.8862 77.592 27.0432C77.7061 26.6913 77.8161 26.4138 77.8363 26.4266C77.8566 26.4394 78.0251 26.7669 78.2108 27.1544C78.6117 27.9913 78.7956 28.2274 79.1962 28.4206L79.4741 28.5546L80.8922 28.5681L82.3102 28.5816V27.4981V26.4145L81.7225 26.3929C81.0008 26.3665 80.8144 26.2989 80.5886 25.9822C80.4628 25.8057 79.7041 24.2213 79.2478 23.1823L79.1226 22.8972L79.2898 22.3561C79.3817 22.0585 79.483 21.727 79.5149 21.6193C79.5468 21.5117 79.6888 21.0519 79.8305 20.5975C80.3437 18.9522 80.6456 17.9761 80.8391 17.3364C80.9476 16.9777 81.1032 16.4788 81.1849 16.2277C81.2667 15.9766 81.3684 15.6439 81.4109 15.4885C81.4536 15.333 81.5791 14.9221 81.6899 14.5754C81.8007 14.2286 81.9348 13.7932 81.9878 13.6079L82.0842 13.2709H80.7259C79.9787 13.2709 79.3675 13.2799 79.3675 13.291ZM92.1619 17.3824V21.4939L97.1198 21.4765C102.609 21.4573 102.477 21.4639 103.094 21.1745C103.632 20.9223 103.996 20.3523 104.131 19.5524C104.194 19.1802 104.206 18.7075 104.22 16.1951L104.236 13.2709H98.1988H92.1619V17.3824ZM70.4434 14.0432L69.4305 14.0552L69.4323 14.1522C69.4334 14.2056 69.481 14.5036 69.5382 14.8145C69.5954 15.1254 69.6914 15.6635 69.7514 16.0103C69.8884 16.8012 69.9654 17.0943 70.1224 17.4231C70.4356 18.0791 71.054 18.3203 72.224 18.2428L72.7784 18.2061L72.7898 17.1951L72.8013 16.1842L72.4913 16.184C72.1042 16.1838 71.9432 16.0978 71.8717 15.8531C71.8446 15.7602 71.7733 15.3809 71.7134 15.0102C71.576 14.1604 71.5492 14.0392 71.4978 14.0348C71.475 14.0329 71.0005 14.0367 70.4434 14.0432ZM63.8172 14.0536C63.8065 14.0835 63.7644 14.3873 63.7186 14.6623C63.4523 16.2609 63.4831 16.2056 62.8414 16.2385L62.6282 16.2494V17.2495V18.2496L63.076 18.2632C63.5896 18.2789 64.2369 18.2114 64.5471 18.1097C64.6971 18.0605 64.8247 17.9723 64.9787 17.8116C65.3099 17.4656 65.4258 17.1355 65.6347 15.9423C65.7308 15.3937 65.8445 14.7591 65.8876 14.5319C65.9306 14.3047 65.9574 14.1042 65.9471 14.0862L64.8744 14.0552C64.0783 14.0552 63.8172 14.0536 63.8172 14.0536ZM129.436 15.358V16.532H133.296H137.156V17.4017V18.2713H133.296H129.436V19.4453V20.6193H133.296H137.156V23.4021V26.1849H133.125H129.095V27.3589V28.5329H138.798H148.5V27.3589V26.1849H144.278H140.056V23.4023V20.6197L144.054 20.6086L148.052 20.5975V19.4453V18.293L144.054 18.2819L140.056 18.2709V17.4014V16.532H143.979H147.903V15.358V14.1841H138.67H129.436V15.358ZM106.705 16.0537V17.2712H107.623H108.54L108.529 18.4126L108.517 19.554L107.59 19.5657L106.662 19.5774V20.7941V22.0107H107.599H108.536L108.548 24.8913L108.559 27.5436C108.56 27.6939 108.594 27.8421 108.66 27.9772C108.774 28.2098 109.008 28.4435 109.261 28.5746C109.637 28.7705 109.87 28.7924 111.577 28.7931L113.187 28.7937V27.5611V26.3286L112.473 26.3015C112.08 26.2867 111.714 26.2614 111.659 26.2453C111.594 26.2262 111.53 26.1485 111.477 26.0229C111.402 25.8429 111.396 25.701 111.396 23.9202V22.0107H112.655H113.914L113.902 20.8041L113.891 19.5975L112.644 19.5859L111.396 19.5744V18.4228V17.2712H112.718H114.04V16.0537V14.8363H110.373H106.705V16.0537ZM101.537 17.2386C101.526 18.3417 101.509 18.7531 101.468 18.8252C101.338 19.0595 101.421 19.054 98.0068 19.054H94.8488V17.4307C94.8488 16.5378 94.8615 15.7943 94.8772 15.7784C94.8928 15.7624 96.4011 15.7494 98.2289 15.7494H101.552L101.537 17.2386ZM63.1186 19.554V20.0105H62.8627H62.6068V21.2063V22.402H62.8576H63.1085L63.1289 23.239C63.1456 23.92 63.1644 24.1158 63.23 24.2894C63.3283 24.5498 63.5685 24.8024 63.9562 25.0532C64.1171 25.1574 64.4629 25.3812 64.7245 25.5507C64.9862 25.7201 65.3547 25.9566 65.5436 26.0762C65.7325 26.1957 65.8815 26.3131 65.8748 26.3371C65.8503 26.425 65.3861 26.619 65.0989 26.6613C64.9363 26.6853 64.309 26.7053 63.705 26.7058L62.6068 26.7067V27.6441V28.5814L64.43 28.5666L66.2532 28.5517L66.5944 28.4312C66.9745 28.297 67.146 28.1941 67.5587 27.8529C67.7138 27.7247 67.8674 27.6199 67.8999 27.6201C67.9325 27.6202 68.2374 27.7769 68.5776 27.9683C69.5842 28.5349 69.7853 28.5763 71.5261 28.5763H72.8424V27.6415V26.7067H72.3186C71.6968 26.7067 70.808 26.6049 70.5394 26.5031C70.2968 26.4111 69.857 26.1499 69.857 26.0978C69.857 26.0761 70.1195 25.8374 70.4405 25.5673C71.2676 24.871 71.517 24.6366 71.7184 24.3661C71.9842 24.0089 72.0418 23.7892 72.0645 23.045L72.0839 22.4053L72.4525 22.3927L72.821 22.3803L72.8324 21.1954L72.8437 20.0105H72.4592H72.0747V19.554V19.0974H70.9247H69.7747L69.7625 19.5431L69.7504 19.9888L67.6073 20.0001L65.4642 20.0113V19.5544V19.0974H64.2914H63.1186V19.554ZM115.235 24.3384V28.5796L119.936 28.5669L124.638 28.5542L124.912 28.4589C125.272 28.3336 125.579 28.113 125.852 27.7841C126.105 27.479 126.194 27.3153 126.307 26.9458C126.382 26.7003 126.387 26.4914 126.387 23.4021V20.1192L120.811 20.1082L115.235 20.0972V24.3384ZM129.735 21.322C129.735 21.3498 129.764 21.4721 129.799 21.5938C129.835 21.7154 129.951 22.1346 130.056 22.5253C130.312 23.4684 130.604 24.0389 131.064 24.496C131.61 25.0388 132.163 25.1412 134.543 25.1413L135.961 25.1413V24.0154V22.8894L134.799 22.8697C133.45 22.8466 133.312 22.8184 133.101 22.5209C132.927 22.2763 132.788 21.9557 132.697 21.5867L132.618 21.2715H131.177C130.11 21.2715 129.735 21.2846 129.735 21.322ZM144.682 21.7712C144.52 22.3008 144.357 22.5769 144.128 22.712C143.933 22.8267 143.416 22.8803 142.505 22.8803H141.676V24.0108V25.1413L142.988 25.1409C144.86 25.1404 145.435 25.0755 145.984 24.8029C146.38 24.6061 146.808 24.0716 147.099 23.4093C147.234 23.1033 147.517 22.1979 147.625 21.7281C147.663 21.5606 147.705 21.3894 147.717 21.3476C147.737 21.2762 147.649 21.2715 146.287 21.2715H144.835L144.682 21.7712ZM98.5165 24.2019C98.5165 26.623 98.5481 27.254 98.6887 27.6343C98.8414 28.0476 99.1634 28.2984 99.732 28.4469C99.8869 28.4874 100.548 28.5075 102.153 28.5206L104.361 28.5385L104.349 27.3291L104.338 26.1197L102.845 26.0979C102.024 26.086 101.32 26.0599 101.281 26.04C101.143 25.9706 101.118 25.618 101.118 23.7261V21.8802H99.8173H98.5165V24.2019ZM94.2286 22.0874C94.2042 22.105 94.1523 22.2661 94.1132 22.4455C93.9808 23.0541 93.7414 24.1188 93.5264 25.0555C93.2347 26.3261 93.2588 26.305 92.0873 26.3121L91.5649 26.3153V27.4702V28.625L92.727 28.598C94.0123 28.5682 94.3416 28.5345 94.6934 28.3973C95.413 28.1165 95.7051 27.5245 96.1285 25.4892C96.2006 25.1424 96.3907 24.2424 96.5509 23.489C96.7111 22.7357 96.8339 22.1047 96.8238 22.0868C96.8002 22.0446 94.2873 22.0452 94.2286 22.0874ZM69.765 22.6955C69.7457 23.0414 69.6604 23.2258 69.3835 23.5198C69.1595 23.7576 67.8716 24.8529 67.7959 24.87C67.7298 24.8848 66.0061 23.8347 65.773 23.6376C65.5269 23.4295 65.4642 23.2572 65.4642 22.788V22.402H67.6228H69.7813L69.765 22.6955ZM123.549 24.1086C123.547 25.8269 123.548 25.818 123.238 26.0723L123.074 26.2066H120.572H118.071L118.059 24.4457C118.053 23.4772 118.058 22.6603 118.069 22.6303C118.085 22.5876 118.673 22.5759 120.82 22.5759H123.551L123.549 24.1086ZM107.515 32.3409C107.457 32.3515 107.293 32.381 107.153 32.4064C106.551 32.515 106.109 32.7448 105.635 33.1951C104.913 33.8814 104.571 34.8363 104.573 36.1561C104.574 36.7446 104.62 37.0848 104.764 37.5939C104.917 38.1301 105.155 38.5267 105.592 38.9714C105.898 39.2826 106.025 39.3772 106.364 39.5446C106.907 39.8131 107.305 39.8982 108.027 39.8996C108.652 39.9009 109.05 39.8393 109.451 39.6792C110.181 39.3876 110.789 38.8227 111.113 38.1344C111.445 37.4317 111.503 37.1314 111.502 36.1203C111.501 35.3579 111.489 35.2051 111.405 34.8811C111.076 33.6164 110.254 32.7584 109.072 32.4446C108.742 32.357 107.779 32.2929 107.515 32.3409ZM124.063 32.3439C123.165 32.4671 122.539 32.8514 122.216 33.4783C121.643 34.5907 122.171 35.8244 123.427 36.3067C123.713 36.4162 125.084 36.8181 125.491 36.9116C125.616 36.9402 125.897 37.1458 125.994 37.2802C126.122 37.4551 126.139 37.7834 126.032 37.9973C125.93 38.2 125.687 38.4313 125.484 38.5176C125.082 38.689 124.292 38.6757 123.938 38.4916C123.594 38.3129 123.319 37.9299 123.206 37.4721C123.163 37.2984 123.142 37.2726 123.045 37.2725C122.814 37.2724 121.78 37.3732 121.751 37.3986C121.734 37.4133 121.758 37.6003 121.804 37.8143C122.038 38.9042 122.66 39.5597 123.712 39.8251C124.132 39.9311 125.287 39.9286 125.747 39.8207C126.118 39.7338 126.589 39.5124 126.838 39.3081C127.345 38.8926 127.665 38.0167 127.56 37.3289C127.467 36.7222 127.331 36.4351 126.963 36.0674C126.601 35.7063 126.062 35.4802 124.764 35.1445C124.411 35.0532 124.013 34.9262 123.881 34.8623C123.156 34.5129 123.254 33.8552 124.063 33.6348C124.586 33.4922 125.224 33.5745 125.512 33.8219C125.657 33.946 125.826 34.2538 125.874 34.4812L125.904 34.6247L126.593 34.5973C126.972 34.5822 127.306 34.5626 127.334 34.5538C127.435 34.522 127.31 33.9254 127.121 33.5384C126.853 32.9911 126.37 32.6208 125.689 32.4413C125.365 32.3557 124.398 32.2979 124.063 32.3439ZM83.5044 36.1207V39.8011L85.3276 39.783C87.3669 39.7628 87.3639 39.7632 88.0137 39.4382C88.743 39.0735 89.2538 38.2971 89.4815 37.2074C89.5546 36.857 89.5533 35.4786 89.4794 35.055C89.347 34.2971 89.0101 33.6249 88.5326 33.1656C88.2034 32.8489 87.9663 32.7113 87.5064 32.5697C87.2083 32.4779 87.1057 32.4725 85.3489 32.4568L83.5044 32.4404V36.1207ZM93.3561 32.4866C93.3561 32.5099 93.2114 32.9066 93.0345 33.3681C92.8577 33.8296 92.6013 34.5007 92.4647 34.8594C92.3282 35.2181 92.0526 35.9421 91.8522 36.4682C91.6519 36.9943 91.3214 37.865 91.1179 38.4031C90.9143 38.9412 90.7205 39.4457 90.6872 39.5242C90.5693 39.8021 90.5497 39.7945 91.3882 39.7945H92.1499L92.3087 39.3488C92.3961 39.1037 92.5291 38.727 92.6042 38.5118L92.7409 38.1205H94.1628H95.5848L95.8769 38.9031C96.0375 39.3336 96.1694 39.7103 96.1699 39.7402C96.1706 39.7817 96.3618 39.7945 96.9812 39.7945C97.5007 39.7945 97.7915 39.7787 97.7915 39.7504C97.7915 39.7261 97.7227 39.5354 97.6387 39.3265C97.3738 38.6679 97.1865 38.1918 96.0523 35.2942L94.9461 32.4679H94.1382C93.6297 32.4797 93.3561 32.4602 93.3561 32.4866ZM97.8768 33.0766V33.7071H98.943H100.009V36.7508V39.7945H100.734H101.459V36.7516V33.7087L102.515 33.697L103.57 33.6854L103.582 33.0658L103.594 32.4462H100.735H97.8768V33.0766ZM113.187 36.1196V39.7945H113.87H114.552V37.0479C114.552 35.5373 114.566 34.315 114.582 34.3318C114.598 34.3485 114.91 35.5795 115.275 37.0674L115.938 39.7728L116.645 39.7846L117.352 39.7965L117.419 39.5455C117.455 39.4074 117.76 38.1648 118.098 36.7842C118.435 35.4035 118.725 34.2736 118.742 34.2731C118.76 34.2727 118.774 35.5149 118.774 37.0334V39.7945H119.457H120.139V36.1203V32.4462H119.03C118.42 32.4462 117.921 32.4577 117.921 32.4718C117.921 32.486 117.861 32.7256 117.788 33.0045C117.587 33.7701 117.087 35.7177 116.868 36.5892C116.761 37.0145 116.666 37.355 116.657 37.3458C116.639 37.3274 116.366 36.3057 116.074 35.1637C115.97 34.7572 115.812 34.1506 115.724 33.8158C115.636 33.481 115.522 33.0408 115.471 32.8375L115.378 32.4679L114.283 32.4563L113.187 32.4447V36.1196ZM108.807 33.747C109.505 34.0241 109.882 34.6249 109.991 35.6351C110.073 36.3996 109.94 37.2237 109.65 37.7349C109.494 38.0103 109.147 38.3187 108.812 38.4783C108.58 38.589 108.519 38.5987 108.048 38.5985C107.577 38.5982 107.518 38.5888 107.297 38.4784C106.761 38.2107 106.405 37.7924 106.233 37.2291C106.047 36.6192 106.046 35.5089 106.23 34.9631C106.45 34.314 106.844 33.8949 107.413 33.7045C107.765 33.5864 108.455 33.6075 108.807 33.747ZM86.9716 33.8095C87.4819 33.9808 87.7612 34.3338 87.9442 35.039C88.0736 35.5379 88.0754 36.705 87.9475 37.2167C87.7766 37.9 87.6165 38.1517 87.2242 38.354C86.9524 38.4942 86.6414 38.5335 85.8053 38.5335H84.9971V36.1154V33.6973L85.882 33.719C86.5256 33.7348 86.8228 33.7595 86.9716 33.8095ZM94.4085 34.9246C94.466 35.08 94.5959 35.442 94.6973 35.729C94.7986 36.016 94.9318 36.3852 94.9931 36.5495C95.0544 36.7137 95.1046 36.8556 95.1046 36.8647C95.1046 36.8738 94.6735 36.8813 94.1465 36.8813H93.1884L93.2695 36.653C93.7177 35.3925 94.0551 34.4458 94.0926 34.3434L94.1382 34.2187L94.2211 34.4304C94.2667 34.5468 94.351 34.7692 94.4085 34.9246ZM62.9907 35.9899V36.5334H71.9894H80.9881V35.9899V35.4464H71.9894H62.9907V35.9899ZM130.119 35.9899V36.5334H139.117H148.116V35.9899V35.4464H139.117H130.119V35.9899Z" fill="url(#paint0_linear_503_2594)"/>
<path d="M44.0773 13.166L41.9787 13.233L42.9505 10.082L45.0439 9.99944L44.0773 13.166Z" fill="url(#paint1_linear_503_2594)"/>
<path d="M44.0773 13.166L41.9787 13.233L42.9505 10.082L45.0439 9.99944L44.0773 13.166Z" fill="url(#paint2_linear_503_2594)"/>
<path d="M23.1382 34.9051L25.2369 34.8381L24.2651 37.9892L22.1716 38.0717L23.1382 34.9051Z" fill="url(#paint3_linear_503_2594)"/>
<path d="M23.1382 34.9051L25.2369 34.8381L24.2651 37.9892L22.1716 38.0717L23.1382 34.9051Z" fill="url(#paint4_linear_503_2594)"/>
<path d="M37.2971 36.9301C34.2592 38.6211 27.0406 41.1845 24.8572 40.9996L26.6005 42.7036C30.0407 42.1987 35.4645 39.8086 37.2971 36.9301Z" fill="url(#paint5_linear_503_2594)"/>
<path d="M29.8616 11.1147C32.8995 9.42369 40.1181 6.86025 42.3015 7.04521L40.5582 5.34119C37.1181 5.84611 31.6942 8.23617 29.8616 11.1147Z" fill="url(#paint6_linear_503_2594)"/>
<path fill-rule="evenodd" clip-rule="evenodd" d="M39.4354 16.281C28.0391 17.3051 21.7743 25.7102 27.6813 31.711C36.4848 31.5767 46.1492 23.3422 39.4354 16.281ZM34.0159 22.1426L33.5502 20.1325L33.0845 22.1426C32.9365 22.7812 32.4607 23.2938 31.8339 23.49L30.229 23.9921L31.8339 24.4943C32.4607 24.6904 32.9365 25.2031 33.0845 25.8417L33.5502 27.8518L34.0159 25.8417C34.1638 25.2031 34.6397 24.6904 35.2665 24.4943L36.8714 23.9921L35.2665 23.49C34.6397 23.2938 34.1638 22.7812 34.0159 22.1426Z" fill="url(#paint7_linear_503_2594)"/>
<path d="M28.3735 44.5235L28.9178 45.0665C31.5017 47.6445 35.6909 47.6445 38.2748 45.0665L54.6594 28.7192C57.2432 26.1412 57.2432 21.9615 54.6594 19.3836L49.0088 13.7475L48.2125 15.7537H45.6988L46.5024 13.1943H44.3493L43.5561 15.8461L40.1174 16.2605C46.7018 17.8463 51.5686 34.1337 28.3735 44.5235Z" fill="url(#paint8_linear_503_2594)"/>
<path d="M38.7237 3.47652L38.1794 2.93347C35.5956 0.355506 31.4063 0.35551 28.8225 2.93348L12.4379 19.2808C9.85404 21.8588 9.85404 26.0385 12.4379 28.6164L18.0884 34.2525L18.8848 32.2463H21.3984L20.5949 34.8057H22.7479L23.5412 32.1539L26.9799 31.7395C20.3955 30.1537 15.5286 13.8663 38.7237 3.47652Z" fill="url(#paint9_linear_503_2594)"/>
<defs>
<linearGradient id="paint0_linear_503_2594" x1="62.8286" y1="20.5208" x2="148.5" y2="19.7964" gradientUnits="userSpaceOnUse">
<stop stop-color="#A76337"/>
<stop offset="1" stop-color="#FFE5B9"/>
</linearGradient>
<linearGradient id="paint1_linear_503_2594" x1="44.3046" y1="10.1985" x2="18.6265" y2="36.3193" gradientUnits="userSpaceOnUse">
<stop stop-color="#E8C193"/>
<stop offset="1" stop-color="#B07142"/>
</linearGradient>
<linearGradient id="paint2_linear_503_2594" x1="44.3046" y1="10.1985" x2="18.6265" y2="36.3193" gradientUnits="userSpaceOnUse">
<stop stop-color="#E8C193"/>
<stop offset="1" stop-color="#B07142"/>
</linearGradient>
<linearGradient id="paint3_linear_503_2594" x1="44.3046" y1="10.1985" x2="18.6265" y2="36.3193" gradientUnits="userSpaceOnUse">
<stop stop-color="#E8C193"/>
<stop offset="1" stop-color="#B07142"/>
</linearGradient>
<linearGradient id="paint4_linear_503_2594" x1="44.3046" y1="10.1985" x2="18.6265" y2="36.3193" gradientUnits="userSpaceOnUse">
<stop stop-color="#E8C193"/>
<stop offset="1" stop-color="#B07142"/>
</linearGradient>
<linearGradient id="paint5_linear_503_2594" x1="44.3046" y1="10.1985" x2="18.6265" y2="36.3193" gradientUnits="userSpaceOnUse">
<stop stop-color="#E8C193"/>
<stop offset="1" stop-color="#B07142"/>
</linearGradient>
<linearGradient id="paint6_linear_503_2594" x1="44.3046" y1="10.1985" x2="18.6265" y2="36.3193" gradientUnits="userSpaceOnUse">
<stop stop-color="#E8C193"/>
<stop offset="1" stop-color="#B07142"/>
</linearGradient>
<linearGradient id="paint7_linear_503_2594" x1="44.3046" y1="10.1985" x2="18.6265" y2="36.3193" gradientUnits="userSpaceOnUse">
<stop stop-color="#E8C193"/>
<stop offset="1" stop-color="#B07142"/>
</linearGradient>
<linearGradient id="paint8_linear_503_2594" x1="44.3046" y1="10.1985" x2="18.6265" y2="36.3193" gradientUnits="userSpaceOnUse">
<stop stop-color="#E8C193"/>
<stop offset="1" stop-color="#B07142"/>
</linearGradient>
<linearGradient id="paint9_linear_503_2594" x1="44.3046" y1="10.1985" x2="18.6265" y2="36.3193" gradientUnits="userSpaceOnUse">
<stop stop-color="#E8C193"/>
<stop offset="1" stop-color="#B07142"/>
</linearGradient>
</defs>
</svg>
