<svg width="182" height="56" viewBox="0 0 182 56" fill="none" xmlns="http://www.w3.org/2000/svg">
<path d="M41.5941 28.6335C41.5941 22.9676 45.5374 19.0027 51.1613 19.0027H51.5738C53.1342 18.9648 54.676 19.3311 56.0327 20.0623C57.3894 20.7934 58.5096 21.8616 59.2725 23.1515C59.3695 23.3124 59.3453 23.4388 59.1815 23.5193L56.7548 24.6685C56.7155 24.693 56.6713 24.7096 56.6249 24.717C56.5786 24.7245 56.5311 24.7228 56.4855 24.712C56.4398 24.7012 56.3971 24.6816 56.3599 24.6543C56.3227 24.627 56.2919 24.5927 56.2694 24.5536C55.8094 23.7378 55.1126 23.0636 54.2612 22.6105C53.4099 22.1574 52.4396 21.9444 51.4646 21.9965H51.046C47.5091 21.9965 45.0703 24.657 45.0703 28.5243C45.0703 32.3916 47.497 34.9947 51.046 34.9947H51.4646C53.776 34.9947 55.1046 34.2534 56.1602 33.1156C56.2113 33.0505 56.2856 33.0052 56.3694 32.9883C56.4532 32.9713 56.5406 32.9839 56.6152 33.0237L59.1087 34.1729C59.1479 34.188 59.1817 34.2133 59.2064 34.2458C59.2311 34.2784 59.2456 34.3168 59.2482 34.3568C59.241 34.4285 59.2115 34.4965 59.1633 34.5522C57.6345 36.6669 54.8802 38 51.5192 38H51.1067C45.3736 37.954 41.5941 34.2362 41.5941 28.6335Z" fill="#3B76E7"/>
<path fill-rule="evenodd" clip-rule="evenodd" d="M33.6467 37.615H36.6497C36.8438 37.615 36.953 37.5116 36.8984 37.3277C35.0448 31.2773 32.6855 25.3764 29.8428 19.6808C29.8066 19.5759 29.7343 19.4856 29.6376 19.4241C29.5408 19.3627 29.4251 19.3337 29.309 19.3417H25.3959C25.2791 19.3344 25.163 19.3636 25.0655 19.4248C24.9679 19.4861 24.8943 19.576 24.856 19.6808C22.0232 25.3803 19.6641 31.2805 17.8004 37.3277C17.7458 37.5116 17.855 37.615 18.0491 37.615H20.943C21.0168 37.6189 21.0897 37.5972 21.1478 37.5538C21.2059 37.5104 21.2452 37.4484 21.2584 37.3794C21.6467 35.8796 22.126 34.2994 22.678 32.7077H31.8994C32.4515 34.2994 32.9308 35.8796 33.3312 37.3794C33.3444 37.4484 33.3837 37.5104 33.4418 37.5538C33.4999 37.5972 33.5728 37.6189 33.6467 37.615ZM27.6103 22.2149C28.7569 24.6168 29.8732 27.2487 30.8802 29.8862H23.6851C24.6922 27.2487 25.8206 24.6168 26.9672 22.2149H27.6103Z" fill="#3B76E7"/>
<path d="M14.4394 22.0137V19.6118C14.4412 19.5774 14.4353 19.543 14.4222 19.5109C14.4091 19.4788 14.389 19.4496 14.3633 19.4253C14.3376 19.4009 14.3068 19.382 14.2729 19.3695C14.239 19.3571 14.2028 19.3516 14.1664 19.3532H0.27366C0.23735 19.3516 0.201078 19.3571 0.167172 19.3695C0.133265 19.382 0.102474 19.4009 0.0767694 19.4253C0.0510649 19.4496 0.0310151 19.4788 0.0179083 19.5109C0.0048014 19.543 -0.00107436 19.5774 0.000657695 19.6118V37.3507C-0.0019608 37.3855 0.00325893 37.4205 0.0159689 37.4533C0.0286789 37.4861 0.0485917 37.516 0.0743926 37.541C0.100193 37.566 0.131295 37.5855 0.165644 37.5982C0.199994 37.611 0.236809 37.6167 0.27366 37.615H3.00368C3.04053 37.6167 3.07735 37.611 3.1117 37.5982C3.14605 37.5855 3.17715 37.566 3.20295 37.541C3.22875 37.516 3.24867 37.4861 3.26138 37.4533C3.27409 37.4205 3.2793 37.3855 3.27669 37.3507V30.1103H12.2615C12.2986 30.1119 12.3357 30.1062 12.3703 30.0935C12.4049 30.0808 12.4364 30.0614 12.4627 30.0365C12.4889 30.0117 12.5094 29.9819 12.5228 29.949C12.5363 29.9162 12.5423 29.8811 12.5406 29.846V27.444C12.5424 27.4091 12.5363 27.3742 12.5229 27.3417C12.5094 27.3092 12.4888 27.2797 12.4624 27.2553C12.4361 27.2308 12.4045 27.212 12.3699 27.1999C12.3352 27.1879 12.2983 27.183 12.2615 27.1854H3.24635V22.2781H14.1664C14.2033 22.2798 14.2401 22.2741 14.2745 22.2613C14.3088 22.2486 14.3399 22.2291 14.3657 22.2041C14.3915 22.1791 14.4114 22.1492 14.4241 22.1164C14.4368 22.0836 14.4421 22.0486 14.4394 22.0137Z" fill="#3B76E7"/>
<path d="M81.2158 37.3506V34.9544C81.2159 34.8902 81.1903 34.8284 81.1441 34.7815C81.0979 34.7345 81.0346 34.7059 80.967 34.7016H69.5009V29.9264H78.601C78.6379 29.9281 78.6747 29.9224 78.709 29.9096C78.7434 29.8969 78.7745 29.8774 78.8003 29.8524C78.8261 29.8274 78.846 29.7975 78.8587 29.7647C78.8714 29.7319 78.8766 29.6969 78.874 29.662V27.2888C78.8757 27.2544 78.8699 27.2201 78.8568 27.188C78.8437 27.1558 78.8236 27.1267 78.7979 27.1023C78.7722 27.078 78.7414 27.059 78.7075 27.0466C78.6736 27.0342 78.6373 27.0286 78.601 27.0302H69.5009V22.278H80.688C80.7251 22.2797 80.7621 22.2739 80.7968 22.2612C80.8314 22.2485 80.8629 22.2291 80.8891 22.2042C80.9154 22.1794 80.9359 22.1496 80.9493 22.1168C80.9627 22.0839 80.9688 22.0488 80.967 22.0137V19.6117C80.9688 19.5768 80.9628 19.542 80.9493 19.5094C80.9359 19.4769 80.9153 19.4474 80.8889 19.423C80.8625 19.3985 80.831 19.3797 80.7963 19.3676C80.7617 19.3556 80.7248 19.3507 80.688 19.3531H66.4676C66.4313 19.3515 66.395 19.3571 66.3611 19.3695C66.3272 19.3819 66.2964 19.4009 66.2707 19.4252C66.245 19.4496 66.2249 19.4788 66.2118 19.5109C66.1987 19.543 66.1929 19.5773 66.1946 19.6117V37.3506C66.192 37.3855 66.1972 37.4205 66.2099 37.4533C66.2226 37.4861 66.2425 37.516 66.2683 37.5409C66.2941 37.5659 66.3252 37.5854 66.3596 37.5982C66.3939 37.611 66.4307 37.6167 66.4676 37.615H80.9367C80.9738 37.6166 81.0109 37.6109 81.0455 37.5982C81.0801 37.5855 81.1116 37.5661 81.1379 37.5412C81.1641 37.5163 81.1846 37.4865 81.1981 37.4537C81.2115 37.4209 81.2175 37.3858 81.2158 37.3506Z" fill="#3B76E7"/>
<path fill-rule="evenodd" clip-rule="evenodd" d="M106.126 32.6042C106.126 35.7992 103.535 37.615 98.9609 37.615H89.4786C89.4418 37.6167 89.405 37.611 89.3706 37.5982C89.3363 37.5855 89.3052 37.566 89.2794 37.541C89.2536 37.516 89.2337 37.4861 89.221 37.4533C89.2082 37.4205 89.203 37.3855 89.2056 37.3507V19.6118C89.2039 19.5774 89.2098 19.543 89.2229 19.5109C89.236 19.4788 89.2561 19.4496 89.2818 19.4253C89.3075 19.4009 89.3383 19.382 89.3722 19.3695C89.4061 19.3571 89.4423 19.3516 89.4786 19.3532H98.1177C102.571 19.3532 104.997 21.0254 104.997 24.0767C104.997 26.0879 103.923 27.4038 101.746 28.0187C104.803 28.622 106.126 30.3574 106.126 32.6042ZM98.0509 22.1861H92.4817V27.082H98.0509C100.544 27.082 101.691 26.312 101.691 24.6283C101.691 22.9447 100.544 22.1861 98.0509 22.1861ZM102.765 32.3284C102.765 30.6332 101.551 29.8632 98.9731 29.8632H92.4817V34.7706H98.9731C101.618 34.7706 102.765 34.0408 102.765 32.3284Z" fill="#3B76E7"/>
<path fill-rule="evenodd" clip-rule="evenodd" d="M121.82 19.0027C115.754 19.0027 111.901 22.9676 111.901 28.4784C111.901 33.9776 115.754 37.954 121.82 37.954H122.233C128.294 37.954 132.152 33.9891 132.152 28.4784C132.152 22.9676 128.3 19.0027 122.233 19.0027H121.82ZM128.664 28.4784C128.664 32.4088 126.17 34.9774 122.215 34.9774H121.802C117.847 34.9774 115.353 32.4088 115.353 28.4784C115.353 24.5479 117.847 21.9793 121.802 21.9793H122.215C126.17 21.9793 128.664 24.5479 128.664 28.4784Z" fill="#3B76E7"/>
<path fill-rule="evenodd" clip-rule="evenodd" d="M137.745 28.4784C137.745 22.9676 141.604 19.0027 147.671 19.0027H148.083C154.15 19.0027 158.002 22.9676 158.002 28.4784C158.002 33.9891 154.144 37.954 148.083 37.954H147.671C141.604 37.954 137.745 33.9776 137.745 28.4784ZM148.059 34.9774C152.014 34.9774 154.508 32.4088 154.508 28.4784C154.508 24.5479 152.014 21.9793 148.059 21.9793H147.646C143.691 21.9793 141.197 24.5479 141.197 28.4784C141.197 32.4088 143.691 34.9774 147.646 34.9774H148.059Z" fill="#3B76E7"/>
<path d="M178.217 37.615H181.772C181.99 37.615 182.075 37.4599 181.923 37.3162C178.988 34.0457 175.776 31.0073 172.32 28.2313C175.456 25.6481 178.338 22.7996 180.928 19.721C180.984 19.669 181.019 19.5996 181.025 19.5256C181.025 19.4222 180.947 19.3417 180.783 19.3417H177.416C177.335 19.3359 177.254 19.351 177.181 19.3854C177.108 19.4198 177.047 19.4722 177.003 19.5371C174.838 22.156 172.432 24.5885 169.814 26.8062H168.188V19.6118C168.19 19.5769 168.184 19.542 168.171 19.5095C168.157 19.477 168.136 19.4475 168.11 19.4231C168.084 19.3986 168.052 19.3798 168.018 19.3677C167.983 19.3557 167.946 19.3507 167.909 19.3532H165.179C165.143 19.3516 165.107 19.3571 165.073 19.3696C165.039 19.382 165.008 19.401 164.982 19.4253C164.957 19.4497 164.936 19.4788 164.923 19.5109C164.91 19.5431 164.904 19.5774 164.906 19.6118V37.3507C164.904 37.3856 164.909 37.4205 164.921 37.4534C164.934 37.4862 164.954 37.516 164.98 37.541C165.006 37.566 165.037 37.5855 165.071 37.5983C165.105 37.611 165.142 37.6167 165.179 37.615H167.909C167.946 37.6167 167.983 37.611 168.018 37.5982C168.053 37.5855 168.084 37.5661 168.11 37.5412C168.137 37.5164 168.157 37.4866 168.171 37.4538C168.184 37.4209 168.19 37.3858 168.188 37.3507V29.8115H169.784C172.63 32.1472 175.289 34.6807 177.737 37.3909C177.787 37.4666 177.859 37.5277 177.943 37.5673C178.028 37.6068 178.123 37.6234 178.217 37.615Z" fill="#3B76E7"/>
</svg>
