<svg width="159" height="48" viewBox="0 0 159 48" fill="none" xmlns="http://www.w3.org/2000/svg">
<g clip-path="url(#clip0_414:3229)">
<path fill-rule="evenodd" clip-rule="evenodd" d="M111.702 19.2368H121.193V22.4406H114.877V25.7241H120.429V28.9279H114.877V32.2115H121.193V35.4152H111.702V19.2368Z" fill="#EB3223"/>
<path fill-rule="evenodd" clip-rule="evenodd" d="M144.154 18.9819H153.646V22.1857H147.33V25.4693H152.882V28.673H147.33V31.9566H153.646V35.1604H144.154V18.9819Z" fill="black"/>
<path fill-rule="evenodd" clip-rule="evenodd" d="M155.507 35.038V19.019H159V35.038H155.507Z" fill="black"/>
<path fill-rule="evenodd" clip-rule="evenodd" d="M72.3049 19.1953H83.4197V22.3991H79.3016V34.8917H76.126V22.3991H72.3049V19.1953Z" fill="#EB3223"/>
<path fill-rule="evenodd" clip-rule="evenodd" d="M47.5349 19.2339H57.2206V22.758H51.0281V25.9953H56.4267V29.5195H51.0281V35.3142H47.5349V19.2339Z" fill="#EB3223"/>
<path fill-rule="evenodd" clip-rule="evenodd" d="M58.2527 30.4337V19.2205H61.7459V30.4337C61.7459 30.8736 62.2305 32.2759 64.3658 32.2759V35.8C60.1499 35.8 58.2527 32.6636 58.2527 30.4337Z" fill="#EB3223"/>
<path fill-rule="evenodd" clip-rule="evenodd" d="M70.4789 30.4335V19.2202H66.9857V30.4335C66.9857 30.8733 66.5011 32.2756 64.3658 32.2756V35.7998C68.5817 35.7998 70.4789 32.6634 70.4789 30.4335Z" fill="#EB3223"/>
<path fill-rule="evenodd" clip-rule="evenodd" d="M85.2456 30.4337V19.2205H88.7388V30.4337C88.7388 30.8736 89.2234 32.2759 91.3588 32.2759V35.8C87.1428 35.8 85.2456 32.6636 85.2456 30.4337Z" fill="#EB3223"/>
<path fill-rule="evenodd" clip-rule="evenodd" d="M97.4719 30.4335V19.2202H93.9787V30.4335C93.9787 30.8733 93.4941 32.2756 91.3587 32.2756V35.7998C95.5747 35.7998 97.4719 32.6634 97.4719 30.4335Z" fill="#EB3223"/>
<path fill-rule="evenodd" clip-rule="evenodd" d="M102.021 22.2323V26.517H104.585C105.281 26.1218 105.647 25.6523 105.82 25.2239C106.016 24.7366 106.027 24.1409 105.763 23.4739C105.496 22.8005 104.999 22.4665 104.032 22.3116C103.377 22.2067 102.727 22.211 102.021 22.2323ZM103.957 29.7208H102.021V34.935H98.8455V19.0672L100.433 19.067C100.659 19.067 100.936 19.0578 101.246 19.0474C102.191 19.016 103.448 18.9742 104.53 19.1475C106.115 19.4015 107.874 20.1727 108.711 22.2839C109.241 23.619 109.305 25.0789 108.762 26.4288C108.401 27.3259 107.801 28.1038 107.004 28.7319C107.289 29.3511 108.003 30.9149 108.003 30.9149L109.819 35.2948H106.471L106.198 34.675C105.906 33.9996 105.512 33.1231 105.116 32.2491C104.719 31.3769 104.323 30.5143 104.026 29.8692C104.002 29.8184 103.979 29.7688 103.957 29.7208Z" fill="#EB3223"/>
<path d="M126.309 19.2236H122.708L126.237 35.3421H130.657L132.573 24.4798L133.924 35.3421H138.828L142.778 19.2236H138.748L136.612 31.2879L134.638 19.2236H130.788L128.673 31.2879L126.309 19.2236Z" fill="#1A1A1A"/>
<path d="M5.08103 30.47C5.08103 31.8855 3.9436 33.033 2.54052 33.033C1.13743 33.033 0 31.8855 0 30.47C0 29.0545 1.13743 27.907 2.54052 27.907C3.9436 27.907 5.08103 29.0545 5.08103 30.47Z" fill="#EB3223"/>
<path d="M8.90244 35.7085C8.90244 36.9913 7.87165 38.0312 6.6001 38.0312C5.32855 38.0312 4.29776 36.9913 4.29776 35.7085C4.29776 34.4257 5.32855 33.3857 6.6001 33.3857C7.87165 33.3857 8.90244 34.4257 8.90244 35.7085Z" fill="#EB3223"/>
<path d="M13.6251 39.4106C13.6251 40.6049 12.6654 41.5732 11.4815 41.5732C10.2977 41.5732 9.33795 40.6049 9.33795 39.4106C9.33795 38.2163 10.2977 37.248 11.4815 37.248C12.6654 37.248 13.6251 38.2163 13.6251 39.4106Z" fill="#EB3223"/>
<path d="M18.9313 41.0238C18.9313 42.0855 18.0782 42.9461 17.0259 42.9461C15.9736 42.9461 15.1205 42.0855 15.1205 41.0238C15.1205 39.9622 15.9736 39.1016 17.0259 39.1016C18.0782 39.1016 18.9313 39.9622 18.9313 41.0238Z" fill="#EB3223"/>
<path d="M23.5269 40.3666C23.5269 41.2955 22.7805 42.0485 21.8597 42.0485C20.9389 42.0485 20.1925 41.2955 20.1925 40.3666C20.1925 39.4376 20.9389 38.6846 21.8597 38.6846C22.7805 38.6846 23.5269 39.4376 23.5269 40.3666Z" fill="#EB3223"/>
<path d="M27.6269 38.6844C27.6269 39.5691 26.916 40.2863 26.0391 40.2863C25.1622 40.2863 24.4513 39.5691 24.4513 38.6844C24.4513 37.7997 25.1622 37.0825 26.0391 37.0825C26.916 37.0825 27.6269 37.7997 27.6269 38.6844Z" fill="#EB3223"/>
<path d="M30.485 35.806C30.485 36.6022 29.8452 37.2477 29.056 37.2477C28.2667 37.2477 27.6269 36.6022 27.6269 35.806C27.6269 35.0097 28.2667 34.3643 29.056 34.3643C29.8452 34.3643 30.485 35.0097 30.485 35.806Z" fill="#EB3223"/>
<path d="M31.5965 32.4138C31.5965 33.1216 31.0278 33.6954 30.3262 33.6954C29.6247 33.6954 29.056 33.1216 29.056 32.4138C29.056 31.7061 29.6247 31.1323 30.3262 31.1323C31.0278 31.1323 31.5965 31.7061 31.5965 32.4138Z" fill="#EB3223"/>
<path d="M31.5965 29.0286C31.5965 29.6478 31.0989 30.1499 30.485 30.1499C29.8712 30.1499 29.3735 29.6478 29.3735 29.0286C29.3735 28.4093 29.8712 27.9072 30.485 27.9072C31.0989 27.9072 31.5965 28.4093 31.5965 29.0286Z" fill="#EB3223"/>
<path d="M30.4057 25.9367C30.4057 26.5118 29.9436 26.978 29.3736 26.978C28.8036 26.978 28.3415 26.5118 28.3415 25.9367C28.3415 25.3617 28.8036 24.8955 29.3736 24.8955C29.9436 24.8955 30.4057 25.3617 30.4057 25.9367Z" fill="#EB3223"/>
<path d="M27.6269 24.4646C27.6269 24.9954 27.2003 25.4257 26.6742 25.4257C26.148 25.4257 25.7215 24.9954 25.7215 24.4646C25.7215 23.9337 26.148 23.5034 26.6742 23.5034C27.2003 23.5034 27.6269 23.9337 27.6269 24.4646Z" fill="#EB3223"/>
<path d="M34.1119 40.1632C35.3435 39.485 36.8868 39.9425 37.559 41.185C38.2313 42.4275 37.7778 43.9845 36.5463 44.6627C35.3147 45.3408 33.7714 44.8834 33.0991 43.6409C32.4269 42.3984 32.8803 40.8414 34.1119 40.1632Z" fill="#EB3223"/>
<path d="M36.8391 34.27C37.9552 33.6554 39.3538 34.07 39.963 35.196C40.5723 36.322 40.1613 37.733 39.0452 38.3476C37.9291 38.9622 36.5305 38.5476 35.9213 37.4216C35.312 36.2956 35.723 34.8846 36.8391 34.27Z" fill="#EB3223"/>
<path d="M37.7976 28.3135C38.8367 27.7413 40.1389 28.1273 40.7061 29.1756C41.2733 30.224 40.8907 31.5377 39.8516 32.1099C38.8124 32.6821 37.5102 32.2961 36.943 31.2478C36.3758 30.1995 36.7584 28.8857 37.7976 28.3135Z" fill="#EB3223"/>
<path d="M36.6584 22.8422C37.5821 22.3335 38.7396 22.6766 39.2438 23.6085C39.748 24.5403 39.4079 25.7081 38.4842 26.2167C37.5605 26.7254 36.403 26.3823 35.8989 25.4504C35.3947 24.5185 35.7348 23.3508 36.6584 22.8422Z" fill="#EB3223"/>
<path d="M33.8848 19.0871C34.6931 18.642 35.7059 18.9422 36.147 19.7576C36.5882 20.573 36.2906 21.5948 35.4824 22.0399C34.6742 22.4849 33.6614 22.1847 33.2202 21.3693C32.7791 20.5539 33.0766 19.5322 33.8848 19.0871Z" fill="#EB3223"/>
<path d="M30.4571 16.2632C31.2268 15.8393 32.1914 16.1252 32.6115 16.9017C33.0317 17.6783 32.7483 18.6514 31.9786 19.0753C31.2088 19.4992 30.2442 19.2133 29.8241 18.4367C29.404 17.6602 29.6874 16.687 30.4571 16.2632Z" fill="#EB3223"/>
<path d="M26.5835 15.1109C27.2763 14.7294 28.1444 14.9867 28.5226 15.6856C28.9007 16.3845 28.6456 17.2603 27.9529 17.6418C27.2601 18.0233 26.392 17.766 26.0139 17.0671C25.6357 16.3682 25.8908 15.4923 26.5835 15.1109Z" fill="#EB3223"/>
<path d="M23.0997 15.7515C23.7155 15.4124 24.4872 15.6412 24.8233 16.2624C25.1594 16.8837 24.9327 17.6622 24.3169 18.0013C23.7011 18.3403 22.9294 18.1116 22.5933 17.4904C22.2572 16.8691 22.4839 16.0906 23.0997 15.7515Z" fill="#EB3223"/>
<path d="M20.1539 17.3737C20.6927 17.077 21.3679 17.2771 21.662 17.8207C21.9561 18.3643 21.7577 19.0455 21.2189 19.3422C20.6801 19.6389 20.0049 19.4387 19.7108 18.8951C19.4167 18.3516 19.615 17.6704 20.1539 17.3737Z" fill="#EB3223"/>
<path d="M18.0347 19.9091C18.535 19.6336 19.162 19.8194 19.4351 20.3242C19.7082 20.8289 19.524 21.4615 19.0237 21.737C18.5233 22.0125 17.8964 21.8267 17.6233 21.3219C17.3502 20.8171 17.5344 20.1846 18.0347 19.9091Z" fill="#EB3223"/>
<path d="M18.0849 23.0754C18.5467 22.8211 19.1255 22.9926 19.3776 23.4585C19.6297 23.9245 19.4596 24.5083 18.9978 24.7627C18.536 25.017 17.9572 24.8454 17.7051 24.3795C17.453 23.9136 17.6231 23.3297 18.0849 23.0754Z" fill="#EB3223"/>
<path d="M27.9408 9.82278C26.7384 9.09323 26.3499 7.51845 27.0731 6.30542C27.7962 5.09238 29.3572 4.70045 30.5595 5.43C31.7619 6.15956 32.1504 7.73433 31.4273 8.94737C30.7041 10.1604 29.1432 10.5523 27.9408 9.82278Z" fill="#EB3223"/>
<path d="M21.5213 10.4269C20.4316 9.76573 20.0795 8.33859 20.7349 7.23928C21.3902 6.13997 22.8048 5.78477 23.8945 6.44593C24.9842 7.10709 25.3362 8.53423 24.6809 9.63354C24.0255 10.7329 22.6109 11.088 21.5213 10.4269Z" fill="#EB3223"/>
<path d="M15.9425 12.6016C14.928 11.986 14.6002 10.6573 15.2103 9.63382C15.8205 8.61033 17.1375 8.27963 18.152 8.89519C19.1665 9.51075 19.4943 10.8395 18.8842 11.863C18.274 12.8865 16.957 13.2172 15.9425 12.6016Z" fill="#EB3223"/>
<path d="M11.8379 16.3576C10.9361 15.8104 10.6447 14.6293 11.1871 13.7195C11.7294 12.8098 12.9001 12.5158 13.8019 13.063C14.7037 13.6101 14.9951 14.7912 14.4527 15.701C13.9104 16.6108 12.7397 16.9047 11.8379 16.3576Z" fill="#EB3223"/>
<path d="M10.0275 20.6692C9.23841 20.1904 8.98346 19.157 9.45803 18.3609C9.93259 17.5649 10.957 17.3077 11.746 17.7864C12.5351 18.2652 12.79 19.2986 12.3155 20.0947C11.8409 20.8908 10.8165 21.148 10.0275 20.6692Z" fill="#EB3223"/>
<path d="M9.34308 25.0805C8.59159 24.6246 8.34879 23.6403 8.80075 22.8822C9.25272 22.124 10.2283 21.8791 10.9798 22.335C11.7313 22.791 11.9741 23.7752 11.5221 24.5334C11.0702 25.2915 10.0946 25.5365 9.34308 25.0805Z" fill="#EB3223"/>
<path d="M10.3149 29.035C9.63854 28.6246 9.42001 27.7388 9.82678 27.0565C10.2336 26.3742 11.1116 26.1537 11.7879 26.5641C12.4643 26.9745 12.6828 27.8603 12.276 28.5426C11.8693 29.2249 10.9912 29.4454 10.3149 29.035Z" fill="#EB3223"/>
<path d="M12.6234 31.7439C12.0222 31.3791 11.828 30.5917 12.1895 29.9852C12.5511 29.3787 13.3316 29.1827 13.9328 29.5475C14.534 29.9123 14.7282 30.6997 14.3666 31.3062C14.0051 31.9127 13.2246 32.1087 12.6234 31.7439Z" fill="#EB3223"/>
<path d="M15.4994 33.4894C14.9734 33.1702 14.8034 32.4813 15.1198 31.9506C15.4362 31.4199 16.1191 31.2484 16.6451 31.5676C17.1712 31.8868 17.3411 32.5757 17.0247 33.1064C16.7084 33.6371 16.0255 33.8086 15.4994 33.4894Z" fill="#EB3223"/>
<path d="M18.7392 34.0531C18.2507 33.7567 18.0929 33.117 18.3866 32.6242C18.6804 32.1314 19.3146 31.9721 19.803 32.2685C20.2915 32.5649 20.4493 33.2047 20.1555 33.6975C19.8618 34.1903 19.2276 34.3495 18.7392 34.0531Z" fill="#EB3223"/>
<path d="M21.422 32.4097C20.9711 32.1362 20.8254 31.5456 21.0966 31.0907C21.3677 30.6358 21.9531 30.4889 22.404 30.7624C22.8549 31.036 23.0006 31.6266 22.7294 32.0815C22.4582 32.5363 21.8728 32.6833 21.422 32.4097Z" fill="#EB3223"/>
</g>
<defs>
<clipPath id="clip0_414:3229">
<rect width="159" height="48" fill="white"/>
</clipPath>
</defs>
</svg>
