<svg width="159" height="48" viewBox="0 0 159 48" fill="none" xmlns="http://www.w3.org/2000/svg">
<path d="M70.6412 24.9976C70.6412 30.4647 66.3434 34.4933 61.0692 34.4933C55.7949 34.4933 51.4971 30.4647 51.4971 24.9976C51.4971 19.492 55.7949 15.502 61.0692 15.502C66.3434 15.502 70.6412 19.492 70.6412 24.9976ZM66.451 24.9976C66.451 21.5812 63.9601 19.2437 61.0692 19.2437C58.1782 19.2437 55.6873 21.5812 55.6873 24.9976C55.6873 28.3798 58.1782 30.7515 61.0692 30.7515C63.9601 30.7515 66.451 28.3755 66.451 24.9976Z" fill="#EA4335"/>
<path d="M91.2908 24.9976C91.2908 30.4647 86.9931 34.4933 81.7188 34.4933C76.4445 34.4933 72.1468 30.4647 72.1468 24.9976C72.1468 19.4963 76.4445 15.502 81.7188 15.502C86.9931 15.502 91.2908 19.492 91.2908 24.9976ZM87.1006 24.9976C87.1006 21.5812 84.6098 19.2437 81.7188 19.2437C78.8278 19.2437 76.337 21.5812 76.337 24.9976C76.337 28.3798 78.8278 30.7515 81.7188 30.7515C84.6098 30.7515 87.1006 28.3755 87.1006 24.9976Z" fill="#FBBC05"/>
<path d="M111.08 16.0756V33.1233C111.08 40.1359 106.924 43 102.011 43C97.3868 43 94.6034 39.9218 93.5537 37.4045L97.2018 35.8932C97.8514 37.4387 99.4432 39.2625 102.007 39.2625C105.152 39.2625 107.101 37.3317 107.101 33.697V32.3313H106.955C106.017 33.4829 104.21 34.489 101.93 34.489C97.1588 34.489 92.7879 30.3534 92.7879 25.0319C92.7879 19.6718 97.1588 15.502 101.93 15.502C104.206 15.502 106.012 16.508 106.955 17.6254H107.101V16.0799H111.08V16.0756ZM107.398 25.0319C107.398 21.6883 105.156 19.2437 102.304 19.2437C99.4131 19.2437 96.991 21.6883 96.991 25.0319C96.991 28.3412 99.4131 30.7515 102.304 30.7515C105.156 30.7515 107.398 28.3412 107.398 25.0319Z" fill="#4285F4"/>
<path d="M117.641 6.08301V33.9107H113.554V6.08301H117.641Z" fill="#34A853"/>
<path d="M133.567 28.1228L136.819 30.2805C135.77 31.826 133.24 34.4889 128.869 34.4889C123.449 34.4889 119.4 30.319 119.4 24.9932C119.4 19.3463 123.483 15.4976 128.4 15.4976C133.352 15.4976 135.774 19.4191 136.565 21.5383L137 22.6172L124.244 27.8745C125.221 29.7796 126.74 30.7514 128.869 30.7514C131.003 30.7514 132.483 29.7068 133.567 28.1228ZM123.556 24.7064L132.083 21.183C131.614 19.9971 130.203 19.1708 128.542 19.1708C126.413 19.1708 123.449 21.0417 123.556 24.7064Z" fill="#EA4335"/>
<path d="M36.027 22.5272V18.4986H49.6687C49.8021 19.2007 49.8709 20.0312 49.8709 20.9303C49.8709 23.9528 49.0406 27.6903 46.3648 30.3532C43.762 33.0503 40.4366 34.4888 36.0313 34.4888C27.866 34.4888 21 27.8701 21 19.7444C21 11.6187 27.866 5 36.0313 5C40.5484 5 43.7664 6.76385 46.1841 9.06284L43.3275 11.9055C41.5938 10.2873 39.2449 9.02859 36.027 9.02859C30.0644 9.02859 25.401 13.8107 25.401 19.7444C25.401 25.6781 30.0644 30.4602 36.027 30.4602C39.8945 30.4602 42.0972 28.9147 43.5082 27.5105C44.6526 26.3717 45.4054 24.7448 45.7023 22.5229L36.027 22.5272Z" fill="#4285F4"/>
</svg>
