<svg width="147" height="48" viewBox="0 0 147 48" fill="none" xmlns="http://www.w3.org/2000/svg">
<path d="M62.9074 25.26C62.9074 32.1658 57.4611 37.2546 50.7773 37.2546C44.0935 37.2546 38.6472 32.1658 38.6472 25.26C38.6472 18.3055 44.0935 13.2654 50.7773 13.2654C57.4611 13.2654 62.9074 18.3055 62.9074 25.26ZM57.5974 25.26C57.5974 20.9445 54.4408 17.9918 50.7773 17.9918C47.1137 17.9918 43.9572 20.9445 43.9572 25.26C43.9572 29.5322 47.1137 32.5281 50.7773 32.5281C54.4408 32.5281 57.5974 29.5268 57.5974 25.26Z" fill="#EA4335"/>
<path d="M89.0754 25.26C89.0754 32.1658 83.6292 37.2546 76.9454 37.2546C70.2616 37.2546 64.8153 32.1658 64.8153 25.26C64.8153 18.3109 70.2616 13.2654 76.9454 13.2654C83.6292 13.2654 89.0754 18.3055 89.0754 25.26ZM83.7655 25.26C83.7655 20.9445 80.6089 17.9918 76.9454 17.9918C73.2818 17.9918 70.1253 20.9445 70.1253 25.26C70.1253 29.5322 73.2818 32.5281 76.9454 32.5281C80.6089 32.5281 83.7655 29.5268 83.7655 25.26Z" fill="#FBBC05"/>
<path d="M114.153 13.99V35.5241C114.153 44.3821 108.887 48 102.661 48C96.8005 48 93.2732 44.1117 91.943 40.9319L96.5661 39.023C97.3893 40.9752 99.4064 43.2789 102.656 43.2789C106.641 43.2789 109.11 40.84 109.11 36.2487V34.5236H108.925C107.737 35.9783 105.447 37.2492 102.558 37.2492C96.5116 37.2492 90.9726 32.0252 90.9726 25.3032C90.9726 18.5326 96.5116 13.2654 102.558 13.2654C105.441 13.2654 107.731 14.5362 108.925 15.9477H109.11V13.9954H114.153V13.99ZM109.487 25.3032C109.487 21.0797 106.646 17.9918 103.032 17.9918C99.3683 17.9918 96.2989 21.0797 96.2989 25.3032C96.2989 29.4835 99.3683 32.5281 103.032 32.5281C106.646 32.5281 109.487 29.4835 109.487 25.3032Z" fill="#4285F4"/>
<path d="M122.467 1.36816V36.5191H117.288V1.36816H122.467Z" fill="#34A853"/>
<path d="M142.65 29.2077L146.771 31.9333C145.441 33.8855 142.235 37.2492 136.696 37.2492C129.827 37.2492 124.697 31.982 124.697 25.2546C124.697 18.1217 129.871 13.26 136.102 13.26C142.377 13.26 145.446 18.2136 146.449 20.8905L147 22.2533L130.836 28.8941C132.073 31.3006 133.998 32.5282 136.696 32.5282C139.4 32.5282 141.276 31.2086 142.65 29.2077ZM129.963 24.8923L140.769 20.4416C140.174 18.9437 138.386 17.8999 136.282 17.8999C133.583 17.8999 129.827 20.2632 129.963 24.8923Z" fill="#EA4335"/>
<path d="M19.0428 22.1397V17.0509H36.3302C36.4992 17.9378 36.5864 18.9869 36.5864 20.1226C36.5864 23.9405 35.5343 28.6616 32.1433 32.0252C28.845 35.4322 24.6308 37.2492 19.0483 37.2492C8.70093 37.2492 0 28.8887 0 18.6246C0 8.36053 8.70093 0 19.0483 0C24.7726 0 28.8505 2.22803 31.9143 5.13204L28.2944 8.72285C26.0974 6.67869 23.1207 5.08878 19.0428 5.08878C11.4868 5.08878 5.5771 11.1293 5.5771 18.6246C5.5771 26.1199 11.4868 32.1604 19.0428 32.1604C23.9439 32.1604 26.7352 30.2082 28.5234 28.4344C29.9735 26.996 30.9276 24.941 31.3037 22.1343L19.0428 22.1397Z" fill="#4285F4"/>
</svg>
