<svg width="175" height="48" viewBox="0 0 175 48" fill="none" xmlns="http://www.w3.org/2000/svg">
<path d="M94.0571 18.4034H97.486V27.7623C97.486 32.5129 94.8177 35.2376 90.1694 35.2376C85.5693 35.2376 82.9251 32.5602 82.9251 27.8926V18.4153H86.3541V27.786C86.3541 30.5582 87.7425 32.039 90.2177 32.039C92.6928 32.039 94.0571 30.5937 94.0571 27.9045V18.4034V18.4034ZM74.7392 25.085H66.9879V18.4034H63.5589V34.9888H66.9879V28.248H74.7271V34.9888H78.156V18.4034H74.7271V25.085H74.7392ZM160.607 18.4034V34.9651H163.988V18.4034H160.607V18.4034ZM147.145 27.8453H153.387V24.8244H147.145V21.4244H156.2V18.4153H143.765V34.977H156.526V31.9561H147.145V27.8453V27.8453ZM133.695 29.8L129.856 18.3916H127.055L123.215 29.8L119.484 18.4034H115.838L121.73 34.977H124.567L128.407 24.0899L132.246 34.977H135.108L140.988 18.4034H137.426L133.695 29.8V29.8ZM109.741 18.4982L117.118 34.977H113.52L111.999 31.5296H104.259L104.151 31.7665L102.726 34.977H99.2246L106.674 18.4034H109.668L109.741 18.4982V18.4982ZM110.562 28.1414L108.123 22.5853L105.696 28.1414L105.527 28.5205H110.719L110.562 28.1414V28.1414Z" fill="#24272A"/>
<path d="M29.8009 33.2237C29.8492 33.1881 29.8612 33.117 29.8371 33.0578C26.5079 26.0367 22.3546 19.4209 17.4615 13.3449C17.4615 13.3449 13.5738 16.97 13.8515 20.6069C13.9166 21.4454 14.1494 22.2631 14.5369 23.0132C14.9243 23.7633 15.4586 24.4311 16.1093 24.9784C19.502 28.2244 27.7121 32.3233 29.6198 33.2592C29.6801 33.2829 29.7526 33.271 29.8009 33.2237V33.2237ZM28.5331 35.9958C28.509 35.9247 28.4365 35.8773 28.352 35.8773L14.6846 36.3393C16.1697 38.9338 18.6689 40.9477 21.2648 40.3317C23.0637 39.8933 27.1205 37.1094 28.4607 36.1616C28.5693 36.0787 28.5331 36.0076 28.5331 35.9958V35.9958ZM28.7384 34.7993C28.8108 34.6927 28.6901 34.5979 28.6901 34.5979C22.6895 30.6174 11.0504 24.5045 11.0504 24.5045C10.6646 25.6647 10.5567 26.8966 10.735 28.1044C10.9134 29.3122 11.3731 30.4634 12.0786 31.4684C12.7841 32.4735 13.7163 33.3055 14.8027 33.8996C15.8892 34.4937 17.1006 34.834 18.3429 34.894C18.5482 34.9296 26.4685 34.894 28.5935 34.8822C28.6539 34.8704 28.7022 34.8467 28.7384 34.7993V34.7993ZM29.6439 7.55189C29.0523 7.59927 27.4465 7.96652 27.4465 7.96652C23.8244 8.87871 22.9671 12.1129 22.9671 12.1129C22.3031 14.1386 22.9792 16.3777 22.9792 16.3777C24.1866 21.6376 30.1269 30.2975 31.4067 32.1101C31.4912 32.2048 31.5636 32.1693 31.5636 32.1693C31.6361 32.1456 31.6964 32.0864 31.6964 32.0035C33.6765 12.6697 29.6439 7.55189 29.6439 7.55189V7.55189ZM34.1715 32.1456C34.244 32.1693 34.3285 32.1456 34.3647 32.0745C35.6808 30.2146 41.5848 21.6021 42.7922 16.3658C42.7922 16.3658 43.4441 13.8306 42.8163 12.101C42.8163 12.101 41.9229 8.81948 38.3007 7.95467C38.3007 7.95467 37.2624 7.69405 36.1516 7.54004C36.1516 7.54004 32.0949 12.6578 34.0749 31.9916C34.0629 32.0627 34.1112 32.1219 34.1715 32.1456V32.1456ZM37.4073 35.8892C37.3751 35.8955 37.3446 35.9083 37.3176 35.9266C37.2906 35.9449 37.2677 35.9685 37.2503 35.9958C37.2383 36.0669 37.2503 36.1261 37.2986 36.1735C38.6026 37.0975 42.5748 39.8223 44.4825 40.3435C44.4825 40.3435 48.0201 41.5282 51.0868 36.3512L37.4073 35.8892V35.8892ZM54.733 24.4808C54.733 24.4808 43.1181 30.6055 37.1054 34.586C37.0451 34.6334 37.0089 34.7045 37.033 34.7756C37.033 34.7756 37.0934 34.8822 37.1779 34.8822C39.327 34.8822 47.4647 34.894 47.682 34.8585C48.4909 34.7993 49.2878 34.6216 50.0364 34.3254C50.0364 34.3254 52.9341 33.4251 54.4312 30.1909C54.4312 30.1909 55.7714 27.5609 54.733 24.4808ZM36.0067 33.2237C36.055 33.2592 36.1275 33.271 36.1878 33.2355C38.1438 32.2759 46.2935 28.2125 49.6621 24.9784C49.6621 24.9784 51.7991 23.2961 51.9078 20.5832C52.1493 16.8278 48.2978 13.3449 48.2978 13.3449C48.2978 13.3449 41.1743 21.8153 35.9464 33.0104C35.938 33.0481 35.9391 33.0872 35.9496 33.1244C35.9601 33.1615 35.9797 33.1956 36.0067 33.2237" fill="#CE0E2D"/>
</svg>
