<svg width="203" height="46" viewBox="0 0 203 46" fill="none" xmlns="http://www.w3.org/2000/svg">
<path fill-rule="evenodd" clip-rule="evenodd" d="M38.7598 0H12.92L0 23L12.92 46H38.7598L51.6801 23L38.7598 0ZM32.116 11.8275H19.564L13.2879 23L19.564 34.1727H32.116L38.392 23L32.116 11.8275Z" fill="#0078FB"/>
<path d="M22.0725 16.2893H29.5627L33.3079 22.9563L29.5627 29.6233H22.0725L18.3274 22.9563L22.0725 16.2893Z" fill="#737373"/>
<path d="M29.5627 29.6235L25.8658 22.9565L22.0725 29.6235H29.5627Z" fill="#464646"/>
<path d="M29.5627 16.2896H22.0725L25.8658 22.9565L29.5627 16.2896Z" fill="#C7C7C7"/>
<path d="M29.5627 16.2893L25.8658 22.9563H33.3273L29.5627 16.2893ZM25.8658 22.9563L22.0725 16.2893L18.3274 22.9563H25.8658Z" fill="#989898"/>
<path d="M38.7599 46L51.6802 23H38.392L32.1161 34.1727L38.7599 46Z" fill="#0058FB"/>
<path d="M38.7599 46L45.4039 34.1726H32.1161L38.7599 46Z" fill="#0078FB"/>
<path d="M45.4309 11.8274H32.1161L38.3921 22.9999L45.4309 11.8274Z" fill="#4CBAFB"/>
<path d="M45.4309 11.8438L38.392 23H51.6802L45.4309 11.8438Z" fill="#9DDAFB"/>
<path d="M25.8399 46L32.116 34.1726L38.7598 46H25.8399Z" fill="#0069E4"/>
<path d="M0 23H13.2879L6.27602 34.1727H19.564L26.0316 46H12.92L6.27602 34.1727L0 23Z" fill="#0101D7"/>
<path fill-rule="evenodd" clip-rule="evenodd" d="M13.2879 22.9999L6.30064 11.8274L0 22.9999H13.2879L19.564 34.1726H6.30064L13.2879 22.9999Z" fill="#0035FB"/>
<path d="M32.116 11.8275L26.0316 0L19.564 11.8275H32.116Z" fill="#0027FB"/>
<path d="M38.7599 0L32.1161 11.8275H45.4309L38.7599 0Z" fill="#37A0FB"/>
<path d="M130.737 23.9832H131.981L132.603 25.09L131.981 26.1969H130.737L130.116 25.09L130.737 23.9832Z" fill="#0101D7"/>
<path d="M67.8148 29.8362V16.2849H69.4862V29.8362H67.8148ZM84.8395 19.1287C84.5299 18.7725 84.0532 18.448 83.4093 18.1554C82.7658 17.8627 82.0475 17.7164 81.2553 17.7164C80.2399 17.7164 79.4911 17.9136 79.0081 18.308C78.5255 18.7025 78.284 19.2433 78.284 19.9304C78.284 20.4139 78.4077 20.7956 78.6554 21.0756C78.9032 21.3555 79.2805 21.5846 79.7882 21.7627C80.308 21.9408 80.9644 22.1253 81.7567 22.3162C82.6726 22.5198 83.4652 22.7679 84.1338 23.0605C84.8023 23.3532 85.3159 23.7477 85.6749 24.2439C86.0342 24.7274 86.2135 25.3764 86.2135 26.1907C86.2135 27.056 86.0029 27.7685 85.5821 28.3284C85.1613 28.8883 84.5855 29.3018 83.8551 29.569C83.1372 29.8362 82.3262 29.9698 81.4224 29.9698C79.3674 29.9698 77.5782 29.3336 76.0556 28.0612L76.8541 26.6106C77.1265 26.8906 77.4917 27.1705 77.9497 27.4504C78.4202 27.7304 78.9525 27.9658 79.5467 28.1566C80.1534 28.3348 80.791 28.4238 81.4596 28.4238C82.4006 28.4238 83.131 28.2521 83.6508 27.9085C84.1706 27.5522 84.4309 27.0369 84.4309 26.3625C84.4309 25.8535 84.2822 25.4464 83.9851 25.141C83.7005 24.8356 83.2731 24.5811 82.7039 24.3775C82.1344 24.1739 81.4408 23.9703 80.6239 23.7667C79.7326 23.5377 78.9834 23.2896 78.3767 23.0224C77.7704 22.7424 77.3121 22.3798 77.0028 21.9344C76.7057 21.4891 76.557 20.9101 76.557 20.1976C76.557 19.3323 76.7613 18.6007 77.1699 18.0026C77.5782 17.4046 78.1415 16.9529 78.8597 16.6475C79.5776 16.3421 80.3886 16.1895 81.2924 16.1895C82.1716 16.1895 82.9701 16.3294 83.688 16.6093C84.4184 16.8893 85.0623 17.2647 85.6193 17.7354L84.8395 19.1287ZM98.2168 29.9317C97.2883 29.9317 96.4464 29.7408 95.6913 29.3591C94.9362 28.9774 94.2802 28.462 93.7228 27.8131C93.178 27.1514 92.7572 26.4134 92.4601 25.599C92.163 24.772 92.0146 23.9258 92.0146 23.0605C92.0146 22.1571 92.1692 21.2982 92.4788 20.4839C92.8006 19.6568 93.2402 18.9252 93.7972 18.289C94.3667 17.64 95.029 17.131 95.7841 16.762C96.5392 16.3803 97.3627 16.1895 98.254 16.1895C99.1828 16.1895 100.024 16.3867 100.78 16.7811C101.535 17.1756 102.185 17.7036 102.73 18.3653C103.274 19.027 103.695 19.7649 103.992 20.5793C104.289 21.3937 104.438 22.2271 104.438 23.0796C104.438 23.9831 104.283 24.8483 103.974 25.6754C103.664 26.4897 103.225 27.2214 102.655 27.8703C102.098 28.5065 101.442 29.0092 100.687 29.3782C99.9316 29.7472 99.1084 29.9317 98.2168 29.9317ZM93.7044 23.0605C93.7044 23.7477 93.8094 24.4157 94.0199 25.0646C94.243 25.7008 94.5523 26.2671 94.9487 26.7633C95.3448 27.2596 95.8213 27.654 96.3786 27.9467C96.9356 28.2393 97.5545 28.3857 98.2355 28.3857C98.9413 28.3857 99.5726 28.233 100.13 27.9276C100.687 27.6222 101.157 27.2151 101.541 26.7061C101.937 26.1971 102.234 25.6245 102.432 24.9883C102.643 24.3521 102.748 23.7095 102.748 23.0605C102.748 22.3734 102.637 21.7118 102.414 21.0756C102.203 20.4394 101.894 19.8731 101.485 19.3769C101.089 18.8679 100.613 18.4735 100.055 18.1935C99.5105 17.9009 98.9041 17.7545 98.2355 17.7545C97.5298 17.7545 96.8984 17.9072 96.3414 18.2126C95.7841 18.5052 95.3077 18.9061 94.9115 19.4151C94.5276 19.924 94.2305 20.4966 94.0199 21.1328C93.8094 21.7563 93.7044 22.3989 93.7044 23.0605ZM111.08 16.2849L115.444 27.6795L119.79 16.2849H121.554L116.206 29.8362H114.683L109.316 16.2849H111.08ZM130.729 16.2849H132.14L137.526 29.8362H135.626L134.183 25.8663L131.435 18.2699L127.108 29.8362H125.325L130.729 16.2849ZM143.742 29.8362V16.2849H145.414V28.3093H152.768V29.8362H143.742ZM167.995 28.3093V29.8362H159.044V16.2849H167.828V17.8118H160.715V22.2017H166.899V23.6331H160.715V28.3093H167.995ZM176.416 19.4532V29.8362H174.745V16.2849H176.156L184.216 26.8778V16.304H185.887V29.8362H184.364L176.416 19.4532ZM203 17.8118H198.45V29.8362H196.779V17.8118H192.229V16.2849H203V17.8118Z" fill="black"/>
</svg>
