<svg width="175" height="48" viewBox="0 0 175 48" fill="none" xmlns="http://www.w3.org/2000/svg">
<path d="M36.5712 27.5085C36.5712 28.7732 36.8483 29.7442 37.2105 30.3316C37.6854 31.101 38.3937 31.427 39.1157 31.427C40.0471 31.427 40.8991 31.1955 42.541 28.9206C43.8563 27.0973 45.4062 24.5379 46.4491 22.9334L48.2152 20.2151C49.442 18.3272 50.862 16.2286 52.4901 14.8061C53.8192 13.645 55.253 13 56.696 13C59.1186 13 61.4262 14.4064 63.1923 17.0441C65.1251 19.9329 66.0633 23.5715 66.0633 27.3265C66.0633 29.5587 65.6241 31.199 64.8768 32.4948C64.1547 33.748 62.7474 35 60.3799 35V31.427C62.407 31.427 62.9129 29.561 62.9129 27.4255C62.9129 24.3824 62.2046 21.0052 60.6444 18.5921C59.5371 16.8805 58.1022 15.8347 56.5235 15.8347C54.8161 15.8347 53.4421 17.1247 51.8979 19.4249C51.077 20.647 50.2342 22.1363 49.2879 23.8169L48.2462 25.6656C46.1536 29.3825 45.6235 30.2291 44.5772 31.6263C42.7433 34.0728 41.1773 35 39.1157 35C36.6701 35 35.1237 33.9392 34.1659 32.3404C33.384 31.0377 33 29.3284 33 27.3806L36.5712 27.5085Z" fill="#0081FB"/>
<path d="M35.8159 17.2963C37.4532 14.7681 39.816 13 42.526 13C44.0955 13 45.6558 13.4653 47.285 14.798C49.0672 16.2551 50.9666 18.6543 53.3363 22.6086L54.186 24.0276C56.2373 27.4509 57.4043 29.212 58.0873 30.0425C58.9657 31.1091 59.5808 31.427 60.38 31.427C62.407 31.427 62.9129 29.561 62.9129 27.4255L66.0634 27.3265C66.0634 29.5587 65.6241 31.199 64.8768 32.4948C64.1547 33.748 62.7474 35 60.38 35C58.9082 35 57.6044 34.6798 56.1625 33.3172C55.0541 32.2713 53.7583 30.4134 52.7614 28.7432L49.7961 23.7812C48.3083 21.2909 46.9435 19.4341 46.1536 18.5933C45.3039 17.6891 44.2116 16.5972 42.4685 16.5972C41.0577 16.5972 39.8597 17.5889 38.857 19.1059L35.8159 17.2963Z" fill="url(#paint0_linear_542_8741)"/>
<path d="M42.4685 16.5972C41.0577 16.5972 39.8596 17.5889 38.857 19.1059C37.4393 21.2494 36.5712 24.4423 36.5712 27.5085C36.5712 28.7732 36.8483 29.7442 37.2105 30.3316L34.1659 32.3404C33.384 31.0377 33 29.3284 33 27.3806C33 23.8387 33.9704 20.1471 35.8158 17.2963C37.4531 14.7681 39.816 13 42.526 13L42.4685 16.5972Z" fill="url(#paint1_linear_542_8741)"/>
<path d="M73.0057 13.6958H77.1369L84.161 26.4259L91.1862 13.6958H95.2277V34.6131H91.8577V18.5819L85.6971 29.6832H82.5352L76.3758 18.5819V34.6131H73.0057V13.6958ZM105.787 21.4949C103.371 21.4949 101.915 23.3171 101.567 25.5735H109.769C109.6 23.2491 108.262 21.4949 105.787 21.4949ZM98.2252 26.8589C98.2252 22.1111 101.288 18.6556 105.846 18.6556C110.329 18.6556 113.006 22.0673 113.006 27.1123V28.0396H101.567C101.972 30.4941 103.598 32.1482 106.22 32.1482C108.311 32.1482 109.618 31.5089 110.858 30.3398L112.648 32.5363C110.961 34.0901 108.816 34.9863 106.1 34.9863C101.166 34.9863 98.2252 31.3822 98.2252 26.8589ZM117.092 21.7943H113.99V19.0299H117.092V14.4583H120.344V19.0299H125.057V21.7943H120.344V28.8009C120.344 31.1933 121.107 32.0433 122.984 32.0433C123.84 32.0433 124.331 31.9696 125.057 31.8487V34.5831C124.153 34.8388 123.291 34.9563 122.357 34.9563C118.847 34.9563 117.092 33.0351 117.092 29.1891V21.7943ZM138.748 24.4827C138.095 22.831 136.639 21.6146 134.498 21.6146C131.715 21.6146 129.934 23.5923 129.934 26.814C129.934 29.9551 131.574 32.0284 134.364 32.0284C136.558 32.0284 138.124 30.7498 138.748 29.1592V24.4827ZM142 34.6131H138.808V32.4315C137.916 33.7158 136.292 34.9863 133.663 34.9863C129.434 34.9863 126.608 31.4398 126.608 26.814C126.608 22.1445 129.502 18.6556 133.842 18.6556C135.988 18.6556 137.671 19.5149 138.808 21.0318V19.0299H142V34.6131Z" fill="#192830"/>
<defs>
<linearGradient id="paint0_linear_542_8741" x1="40.0137" y1="26.4764" x2="62.7798" y2="27.6242" gradientUnits="userSpaceOnUse">
<stop stop-color="#0064E1"/>
<stop offset="0.4" stop-color="#0064E1"/>
<stop offset="0.83" stop-color="#0073EE"/>
<stop offset="1" stop-color="#0082FB"/>
</linearGradient>
<linearGradient id="paint1_linear_542_8741" x1="38.1741" y1="29.0105" x2="38.1741" y2="20.6021" gradientUnits="userSpaceOnUse">
<stop stop-color="#0082FB"/>
<stop offset="1" stop-color="#0064E0"/>
</linearGradient>
</defs>
</svg>
