<svg width="197" height="42" viewBox="0 0 197 42" fill="none" xmlns="http://www.w3.org/2000/svg">
<path d="M197 19.0001V15.5403H192.698V10.1616L192.553 10.2062L188.512 11.4409L188.432 11.4651V15.5405H182.054V13.2701C182.054 12.213 182.291 11.404 182.757 10.8645C183.22 10.3314 183.883 10.0604 184.728 10.0604C185.336 10.0604 185.965 10.2033 186.598 10.4852L186.757 10.556V6.91233L186.682 6.88493C186.091 6.67292 185.288 6.56616 184.292 6.56616C183.037 6.56616 181.897 6.83887 180.903 7.37935C179.908 7.92058 179.125 8.69323 178.577 9.6756C178.031 10.6568 177.753 11.7901 177.753 13.0442V15.5403H174.758V19.0001H177.753V33.5756H182.054V19.0001H188.432V28.2626C188.432 32.0773 190.234 34.0105 193.787 34.0105C194.371 34.0105 194.986 33.9421 195.613 33.8083C196.252 33.6709 196.687 33.5337 196.943 33.3872L197 33.3537V29.8619L196.825 29.9775C196.592 30.1327 196.301 30.2597 195.96 30.3541C195.618 30.4502 195.332 30.4983 195.111 30.4983C194.278 30.4983 193.662 30.2743 193.28 29.8322C192.894 29.3862 192.698 28.6061 192.698 27.5149V19.0001H197ZM165.154 30.4989C163.593 30.4989 162.362 29.982 161.495 28.9639C160.622 27.9406 160.18 26.4817 160.18 24.6281C160.18 22.7157 160.622 21.2189 161.495 20.1775C162.363 19.143 163.582 18.618 165.119 18.618C166.61 18.618 167.797 19.1194 168.647 20.1092C169.502 21.1042 169.935 22.5889 169.935 24.5236C169.935 26.4821 169.528 27.9864 168.723 28.9928C167.925 29.9915 166.724 30.4989 165.154 30.4989ZM165.345 15.1058C162.367 15.1058 160.001 15.9773 158.315 17.6959C156.63 19.4148 155.775 21.7935 155.775 24.7664C155.775 27.5902 156.609 29.8616 158.255 31.5163C159.9 33.1716 162.139 34.0101 164.909 34.0101C167.796 34.0101 170.114 33.1265 171.8 31.384C173.486 29.6435 174.34 27.2873 174.34 24.3837C174.34 21.5158 173.538 19.2275 171.957 17.5838C170.375 15.9394 168.15 15.1058 165.345 15.1058ZM148.841 15.1058C146.815 15.1058 145.14 15.6233 143.86 16.6435C142.572 17.6699 141.919 19.0159 141.919 20.6448C141.919 21.4914 142.06 22.2435 142.337 22.8814C142.616 23.5214 143.048 24.085 143.622 24.5579C144.192 25.027 145.071 25.5183 146.236 26.0183C147.216 26.4208 147.946 26.7612 148.41 27.0296C148.864 27.2926 149.186 27.5569 149.368 27.8144C149.544 28.0664 149.634 28.4112 149.634 28.8367C149.634 30.0484 148.725 30.638 146.855 30.638C146.162 30.638 145.371 30.4934 144.504 30.2083C143.644 29.9275 142.832 29.5163 142.097 28.9892L141.918 28.8613V32.9961L141.984 33.0266C142.592 33.3071 143.359 33.5436 144.264 33.7297C145.166 33.9161 145.986 34.0108 146.699 34.0108C148.897 34.0108 150.667 33.4909 151.959 32.4646C153.259 31.4312 153.917 30.0534 153.917 28.3682C153.917 27.1525 153.563 26.11 152.864 25.2692C152.169 24.4353 150.965 23.6697 149.284 22.993C147.945 22.4563 147.087 22.0108 146.733 21.6688C146.392 21.3384 146.219 20.8712 146.219 20.2796C146.219 19.7551 146.433 19.3349 146.872 18.9946C147.314 18.6526 147.93 18.4787 148.702 18.4787C149.418 18.4787 150.152 18.5917 150.881 18.8132C151.609 19.0348 152.249 19.3314 152.783 19.6944L152.959 19.8143V15.892L152.892 15.8631C152.399 15.652 151.749 15.4714 150.96 15.3249C150.174 15.1793 149.461 15.1058 148.841 15.1058ZM130.707 30.4989C129.147 30.4989 127.916 29.982 127.049 28.9639C126.176 27.9406 125.734 26.4821 125.734 24.6281C125.734 22.7157 126.176 21.2189 127.049 20.1775C127.917 19.143 129.135 18.618 130.673 18.618C132.163 18.618 133.35 19.1194 134.201 20.1092C135.056 21.1042 135.489 22.5889 135.489 24.5236C135.489 26.4821 135.081 27.9864 134.277 28.9928C133.478 29.9915 132.278 30.4989 130.707 30.4989ZM130.899 15.1058C127.92 15.1058 125.555 15.9773 123.869 17.6959C122.184 19.4148 121.329 21.7935 121.329 24.7664C121.329 27.5914 122.163 29.8616 123.809 31.5163C125.454 33.1716 127.693 34.0101 130.463 34.0101C133.35 34.0101 135.669 33.1265 137.354 31.384C139.039 29.6435 139.894 27.2873 139.894 24.3837C139.894 21.5158 139.092 19.2275 137.511 17.5838C135.928 15.9394 133.704 15.1058 130.899 15.1058ZM114.8 18.6637V15.5403H110.552V33.5752H114.8V24.3497C114.8 22.781 115.157 21.4922 115.859 20.5188C116.553 19.557 117.478 19.0696 118.607 19.0696C118.99 19.0696 119.419 19.1326 119.884 19.2572C120.345 19.3811 120.678 19.5157 120.875 19.6572L121.053 19.7865V15.5095L120.985 15.48C120.589 15.3121 120.029 15.2275 119.321 15.2275C118.254 15.2275 117.298 15.57 116.48 16.2445C115.762 16.8373 115.243 17.6501 114.846 18.6637H114.8ZM102.945 15.1058C100.996 15.1058 99.2573 15.5232 97.7787 16.3459C96.297 17.1705 95.1511 18.3477 94.3715 19.8447C93.5953 21.338 93.2012 23.0824 93.2012 25.0277C93.2012 26.7318 93.5833 28.2955 94.3385 29.6737C95.0941 31.0542 96.1636 32.1342 97.5174 32.8833C98.8693 33.6314 100.432 34.0106 102.162 34.0106C104.181 34.0106 105.904 33.6076 107.286 32.8127L107.342 32.7807V28.894L107.164 29.0242C106.538 29.4796 105.838 29.8431 105.085 30.105C104.334 30.3666 103.65 30.4989 103.05 30.4989C101.383 30.4989 100.045 29.978 99.0732 28.9511C98.0998 27.9229 97.6062 26.479 97.6062 24.6622C97.6062 22.8339 98.1209 21.3529 99.1353 20.2601C100.147 19.1706 101.487 18.618 103.12 18.618C104.516 18.618 105.877 19.0901 107.164 20.0226L107.342 20.1519V16.0566L107.285 16.0243C106.8 15.7535 106.139 15.5299 105.319 15.3603C104.502 15.1911 103.704 15.1058 102.945 15.1058ZM90.2754 15.5405H86.0272V33.5752H90.2754V15.5405ZM88.1947 7.85759C87.4956 7.85759 86.8857 8.09529 86.3847 8.5663C85.8816 9.03864 85.6265 9.63335 85.6265 10.3352C85.6265 11.026 85.8786 11.6099 86.3769 12.0697C86.872 12.5281 87.4837 12.7605 88.1949 12.7605C88.906 12.7605 89.52 12.5281 90.021 12.0704C90.5252 11.6099 90.781 11.0262 90.781 10.3352C90.781 9.6579 90.5321 9.06928 90.0417 8.58533C89.5518 8.10233 88.9302 7.85759 88.1947 7.85759ZM77.5953 14.2099V33.5752H81.9308V8.40967H75.9303L68.3034 27.1019L60.9019 8.40967H54.6571V33.575H58.7313V14.208H58.8712L66.687 33.5752H69.7616L77.4554 14.2099H77.5953Z" fill="#706D6E"/>
<path d="M19.9846 19.9572H0V0H19.9846V19.9572Z" fill="#F1511B"/>
<path d="M42.0497 19.9572H22.0655V0H42.0497V19.9572Z" fill="#80CC28"/>
<path d="M19.984 42H0V22.043H19.984V42Z" fill="#00ADEF"/>
<path d="M42.0497 42H22.0655V22.043H42.0497V42Z" fill="#FBBC09"/>
</svg>
