<svg width="175" height="48" viewBox="0 0 175 48" fill="none" xmlns="http://www.w3.org/2000/svg">
<path d="M165 22.9287V20.2103H161.615V15.9842L161.501 16.0192L158.321 16.9893L158.259 17.0083V20.2105H153.24V18.4266C153.24 17.596 153.427 16.9603 153.794 16.5364C154.158 16.1176 154.68 15.9047 155.344 15.9047C155.822 15.9047 156.317 16.017 156.816 16.2384L156.94 16.294V13.4312L156.882 13.4096C156.417 13.2431 155.785 13.1592 155.002 13.1592C154.014 13.1592 153.117 13.3735 152.335 13.7981C151.552 14.2234 150.936 14.8304 150.505 15.6023C150.075 16.3733 149.857 17.2637 149.857 18.2491V20.2103H147.5V22.9287H149.857V34.3809H153.24V22.9287H158.259V30.2064C158.259 33.2037 159.676 34.7226 162.472 34.7226C162.932 34.7226 163.415 34.6689 163.909 34.5638C164.412 34.4558 164.754 34.348 164.955 34.2328L165 34.2065V31.463L164.862 31.5538C164.679 31.6758 164.45 31.7755 164.182 31.8497C163.913 31.9252 163.688 31.963 163.514 31.963C162.859 31.963 162.374 31.787 162.073 31.4397C161.769 31.0892 161.615 30.4763 161.615 29.6189V22.9287H165ZM139.943 31.9635C138.715 31.9635 137.747 31.5574 137.064 30.7574C136.378 29.9534 136.03 28.8071 136.03 27.3507C136.03 25.8481 136.378 24.6721 137.065 23.8538C137.748 23.041 138.707 22.6285 139.916 22.6285C141.089 22.6285 142.023 23.0225 142.692 23.8002C143.364 24.5819 143.706 25.7485 143.706 27.2686C143.706 28.8074 143.385 29.9894 142.752 30.7801C142.124 31.5648 141.179 31.9635 139.943 31.9635ZM140.094 19.8689C137.751 19.8689 135.889 20.5536 134.563 21.904C133.236 23.2545 132.564 25.1235 132.564 27.4594C132.564 29.6781 133.22 31.4627 134.515 32.7628C135.81 34.0634 137.571 34.7223 139.751 34.7223C142.022 34.7223 143.846 34.028 145.173 32.6589C146.499 31.2913 147.171 29.44 147.171 27.1587C147.171 24.9053 146.54 23.1074 145.296 21.8159C144.052 20.5239 142.301 19.8689 140.094 19.8689ZM127.109 19.8689C125.515 19.8689 124.196 20.2755 123.189 21.0771C122.176 21.8835 121.662 22.9411 121.662 24.2209C121.662 24.8862 121.773 25.4771 121.991 25.9783C122.211 26.4812 122.551 26.9239 123.002 27.2955C123.45 27.6641 124.142 28.0502 125.059 28.443C125.83 28.7592 126.404 29.0267 126.77 29.2376C127.126 29.4442 127.38 29.6519 127.523 29.8542C127.662 30.0522 127.732 30.3232 127.732 30.6575C127.732 31.6095 127.017 32.0728 125.546 32.0728C125.001 32.0728 124.378 31.9591 123.696 31.7351C123.019 31.5145 122.381 31.1915 121.802 30.7773L121.662 30.6768V33.9256L121.713 33.9495C122.192 34.1699 122.796 34.3558 123.507 34.502C124.217 34.6484 124.862 34.7229 125.423 34.7229C127.152 34.7229 128.545 34.3143 129.561 33.5079C130.584 32.696 131.102 31.6134 131.102 30.2894C131.102 29.3342 130.823 28.5151 130.273 27.8545C129.727 27.1992 128.779 26.5977 127.457 26.066C126.403 25.6443 125.728 25.2942 125.45 25.0255C125.182 24.766 125.045 24.3989 125.045 23.934C125.045 23.5219 125.214 23.1917 125.559 22.9244C125.907 22.6557 126.391 22.519 126.999 22.519C127.563 22.519 128.14 22.6078 128.713 22.7819C129.286 22.9559 129.79 23.189 130.21 23.4742L130.348 23.5684V20.4866L130.295 20.4639C129.908 20.2981 129.396 20.1562 128.775 20.041C128.157 19.9266 127.596 19.8689 127.109 19.8689ZM112.841 31.9635C111.613 31.9635 110.644 31.5574 109.962 30.7574C109.275 29.9534 108.928 28.8074 108.928 27.3507C108.928 25.8481 109.276 24.6721 109.963 23.8538C110.645 23.041 111.604 22.6285 112.814 22.6285C113.986 22.6285 114.92 23.0225 115.59 23.8002C116.262 24.5819 116.603 25.7485 116.603 27.2686C116.603 28.8074 116.282 29.9894 115.649 30.7801C115.021 31.5648 114.077 31.9635 112.841 31.9635ZM112.992 19.8689C110.648 19.8689 108.787 20.5536 107.46 21.904C106.134 23.2545 105.462 25.1235 105.462 27.4594C105.462 29.679 106.118 31.4627 107.413 32.7628C108.707 34.0634 110.469 34.7223 112.649 34.7223C114.92 34.7223 116.744 34.028 118.071 32.6589C119.397 31.2913 120.069 29.44 120.069 27.1587C120.069 24.9053 119.438 23.1074 118.194 21.8159C116.949 20.5239 115.198 19.8689 112.992 19.8689ZM100.325 22.6643V20.2103H96.9828V34.3806H100.325V27.1319C100.325 25.8994 100.605 24.8868 101.158 24.1219C101.704 23.3662 102.432 22.9833 103.32 22.9833C103.621 22.9833 103.959 23.0328 104.325 23.1307C104.687 23.2281 104.95 23.3338 105.105 23.445L105.245 23.5466V20.1861L105.191 20.1629C104.88 20.031 104.439 19.9645 103.882 19.9645C103.042 19.9645 102.29 20.2336 101.647 20.7636C101.082 21.2293 100.673 21.868 100.361 22.6643H100.325ZM90.997 19.8689C89.4636 19.8689 88.0958 20.1968 86.9324 20.8433C85.7667 21.4912 84.8651 22.4161 84.2517 23.5923C83.641 24.7657 83.3309 26.1362 83.3309 27.6647C83.3309 29.0036 83.6315 30.2322 84.2257 31.3151C84.8202 32.3998 85.6617 33.2484 86.7269 33.8369C87.7905 34.4247 89.0199 34.7227 90.3811 34.7227C91.9695 34.7227 93.3257 34.406 94.4131 33.7814L94.457 33.7563V30.7025L94.3165 30.8048C93.824 31.1626 93.2735 31.4482 92.6813 31.6539C92.0905 31.8595 91.5519 31.9635 91.0796 31.9635C89.7681 31.9635 88.7152 31.5542 87.951 30.7474C87.1851 29.9395 86.7967 28.805 86.7967 27.3775C86.7967 25.9409 87.2017 24.7773 87.9999 23.9187C88.7956 23.0627 89.8504 22.6285 91.1348 22.6285C92.2334 22.6285 93.304 22.9994 94.3168 23.7321L94.457 23.8337V20.616L94.4117 20.5906C94.0306 20.3778 93.5107 20.2021 92.8654 20.0688C92.2228 19.9359 91.5942 19.8689 90.997 19.8689ZM81.0288 20.2105H77.6864V34.3806H81.0288V20.2105ZM79.3918 14.1739C78.8417 14.1739 78.3619 14.3606 77.9677 14.7307C77.5718 15.1018 77.3711 15.5691 77.3711 16.1206C77.3711 16.6634 77.5694 17.1221 77.9615 17.4834C78.3511 17.8436 78.8324 18.0262 79.392 18.0262C79.9514 18.0262 80.4345 17.8436 80.8287 17.484C81.2254 17.1221 81.4266 16.6635 81.4266 16.1206C81.4266 15.5884 81.2308 15.1259 80.845 14.7457C80.4595 14.3662 79.9704 14.1739 79.3918 14.1739ZM71.0521 19.165V34.3806H74.4633V14.6077H69.7421L63.7412 29.2944L57.9177 14.6077H53.0043V34.3804H56.2099V19.1635H56.3199L62.4694 34.3806H64.8886L70.9421 19.165H71.0521Z" fill="#706D6E"/>
<path d="M25.7239 23.6809H10V8.00024H25.7239V23.6809Z" fill="#F1511B"/>
<path d="M43.0848 23.6807H27.3612V8H43.0848V23.6807Z" fill="#80CC28"/>
<path d="M25.7235 41.0001H10V25.3196H25.7235V41.0001Z" fill="#00ADEF"/>
<path d="M43.0848 40.9998H27.3612V25.3193H43.0848V40.9998Z" fill="#FBBC09"/>
</svg>
