<svg width="148" height="56" viewBox="0 0 148 56" fill="none" xmlns="http://www.w3.org/2000/svg">
<path d="M140.083 27.0408L147.999 48C145.666 47.6663 143.334 47.2489 140.958 46.874L136.499 35.2915L131.916 45.9167C129.667 45.5418 127.457 45.4156 125.208 45.1244L133.25 26.7909L125.957 8H132.708L136.791 18.499L141.167 8H147.999L140.083 27.0408ZM120.625 8H114.5V44.3333C116.5 44.4583 118.583 44.5408 120.625 44.7907V8ZM109.207 43.9159C103.625 43.541 98.0411 43.2085 92.3335 43.0823V8H98.5822V37.1661C102.166 37.2499 105.749 37.541 109.207 37.7073V43.9159ZM85.6663 22.2081V28.458H77.1256V42.6662H70.9582V8H88.4582V14.2499H77.1256V22.2081H85.6663ZM60.458 14.2499V42.9998C58.3747 42.9998 56.2502 42.9998 54.2081 43.0823V14.2499H47.7496V8H66.9579V14.2499H60.458ZM40.9998 28.7905C38.2504 28.7905 34.9998 28.7905 32.6666 28.9167V38.2084C36.3333 37.9572 40 37.666 43.7079 37.541V43.541L26.4167 44.9169V8H43.7079V14.2499H32.6666V22.6655C35.0836 22.6655 38.7915 22.5406 40.9998 22.5406V28.7905ZM6.37486 25.2912V47.1239C4.12535 47.3751 2.12454 47.6663 0 48V8H5.9587L14.0832 30.7088V8H20.3331V45.4156C18.1248 45.7917 15.8753 45.9167 13.4995 46.2491L6.37486 25.2912Z" fill="#E50914"/>
</svg>
