<svg width="52" height="58" viewBox="0 0 52 58" fill="none" xmlns="http://www.w3.org/2000/svg">
<path d="M26 0L52 14.5V43.5L26 58L0 43.5V14.5L26 0Z" fill="#FFE100"/>
<path d="M15 21V27H21" stroke="#1A1A1A" stroke-width="2"/>
<path d="M37 37V31H31" stroke="#1A1A1A" stroke-width="2"/>
<path d="M34.49 26C33.9828 24.5668 33.1209 23.2854 31.9845 22.2754C30.8482 21.2654 29.4745 20.5598 27.9917 20.2243C26.5089 19.8888 24.9652 19.9344 23.5048 20.3568C22.0444 20.7792 20.7147 21.5647 19.64 22.64L15 27M37 31L32.36 35.36C31.2853 36.4353 29.9556 37.2208 28.4952 37.6432C27.0348 38.0657 25.4911 38.1113 24.0083 37.7758C22.5255 37.4402 21.1518 36.7346 20.0155 35.7246C18.8791 34.7146 18.0172 33.4332 17.51 32" stroke="#1A1A1A" stroke-width="2" stroke-linejoin="round"/>
</svg>
