<svg width="52" height="58" viewBox="0 0 52 58" fill="none" xmlns="http://www.w3.org/2000/svg">
<path d="M26 0L52 14.5V43.5L26 58L0 43.5V14.5L26 0Z" fill="#1A1A1A"/>
<path d="M31 25C32.6569 25 34 23.6569 34 22C34 20.3431 32.6569 19 31 19C29.3431 19 28 20.3431 28 22C28 23.6569 29.3431 25 31 25Z" stroke="white" stroke-width="2" stroke-linecap="round" stroke-linejoin="round"/>
<path d="M19 32C20.6569 32 22 30.6569 22 29C22 27.3431 20.6569 26 19 26C17.3431 26 16 27.3431 16 29C16 30.6569 17.3431 32 19 32Z" stroke="white" stroke-width="2" stroke-linecap="round" stroke-linejoin="round"/>
<path d="M31 39C32.6569 39 34 37.6569 34 36C34 34.3431 32.6569 33 31 33C29.3431 33 28 34.3431 28 36C28 37.6569 29.3431 39 31 39Z" stroke="white" stroke-width="2" stroke-linecap="round" stroke-linejoin="round"/>
<path d="M21.5898 30.51L28.4198 34.49" stroke="white" stroke-width="2" stroke-linecap="round" stroke-linejoin="round"/>
<path d="M28.4098 23.51L21.5898 27.49" stroke="white" stroke-width="2" stroke-linecap="round" stroke-linejoin="round"/>
</svg>
