<svg width="25" height="24" viewBox="0 0 25 24" fill="none" xmlns="http://www.w3.org/2000/svg">
<path fill-rule="evenodd" clip-rule="evenodd" d="M8.79947 0.000610352C7.47279 0.00158894 6.39908 1.07608 6.40006 2.40012C6.39908 3.72416 7.47377 4.79865 8.80045 4.79963H11.2008V2.4011C11.2018 1.07706 10.1271 0.00256754 8.79947 0.000610352C8.80045 0.000610352 8.80045 0.000610352 8.79947 0.000610352V0.000610352ZM8.79947 6.40061H2.40039C1.07371 6.40159 -0.000977872 7.47608 2.67973e-06 8.80012C-0.00195842 10.1242 1.07273 11.1986 2.39941 11.2006H8.79947C10.1262 11.1996 11.2008 10.1251 11.1999 8.80109C11.2008 7.47608 10.1262 6.40159 8.79947 6.40061Z" fill="#36C5F0"/>
<path fill-rule="evenodd" clip-rule="evenodd" d="M24.0016 8.79951C24.0026 7.47547 22.9279 6.40097 21.6012 6.4C20.2745 6.40097 19.1999 7.47547 19.2008 8.79951V11.2H21.6012C22.9279 11.199 24.0026 10.1245 24.0016 8.79951ZM17.6016 8.79951V2.39951C17.6025 1.07645 16.5288 0.00195719 15.2021 0C13.8755 0.000978593 12.8008 1.07547 12.8018 2.39951V8.79951C12.7998 10.1235 13.8745 11.198 15.2012 11.2C16.5279 11.199 17.6025 10.1245 17.6016 8.79951Z" fill="#2EB67D"/>
<path fill-rule="evenodd" clip-rule="evenodd" d="M15.1973 24C16.524 23.999 17.5986 22.9245 17.5977 21.6005C17.5986 20.2764 16.524 19.2019 15.1973 19.201H12.7969V21.6005C12.7959 22.9235 13.8706 23.998 15.1973 24ZM15.1973 17.599H21.5973C22.924 17.598 23.9987 16.5235 23.9977 15.1995C23.9997 13.8755 22.925 12.801 21.5983 12.799H15.1982C13.8716 12.8 12.7969 13.8745 12.7979 15.1985C12.7969 16.5235 13.8706 17.598 15.1973 17.599Z" fill="#ECB22E"/>
<path fill-rule="evenodd" clip-rule="evenodd" d="M6.70464e-07 15.1994C-0.000979881 16.5234 1.0737 17.5979 2.40039 17.5989C3.72708 17.5979 4.80176 16.5234 4.80078 15.1994V12.7999H2.40039C1.0737 12.8008 -0.000979881 13.8753 6.70464e-07 15.1994ZM6.40006 15.1994V21.5994C6.3981 22.9234 7.47278 23.9979 8.79947 23.9999C10.1262 23.9989 11.2008 22.9244 11.1999 21.6004V15.2013C11.2018 13.8773 10.1271 12.8028 8.80045 12.8008C7.47278 12.8008 6.39908 13.8753 6.40006 15.1994C6.40006 15.1994 6.40006 15.2004 6.40006 15.1994Z" fill="#E01E5A"/>
</svg>
