<svg width="175" height="48" viewBox="0 0 175 48" fill="none" xmlns="http://www.w3.org/2000/svg">
<path fill-rule="evenodd" clip-rule="evenodd" d="M48.8595 26.8144C47.9517 27.9031 46.8152 28.7974 45.5235 29.4394C46.2125 28.604 46.4886 27.5822 46.4757 26.4315C42.1106 26.4315 38.674 29.1466 40.296 34.417C41.2225 34.3515 41.7489 33.7475 42.2347 33.0902C42.286 33.8458 42.0849 34.675 41.4793 35.6272L41.873 36.483C40.7475 37.2673 39.0913 38.7354 37.7582 38.3033C34.2361 34.3495 28.7261 33.2602 21.5257 37.4843C22.0414 36.2865 22.3816 35.3692 23.5136 34.4129C22.1954 34.3659 19.6983 34.6976 17.7832 35.7193C17.8179 30.6641 18.6275 25.6412 20.1862 20.8109C16.7625 26.454 15.0827 33.0411 13.3773 41C11.5521 33.4813 10.1805 28.2293 11.4387 19.6274C7.7903 20.2499 3.74394 22.5616 0.5 24.4904C4.3923 19.5435 12.7889 14.2177 16.4437 13.1837C14.6762 15.9397 13.5399 19.7523 13.2682 22.8646L14.9116 22.7192C14.2525 24.1054 13.5678 27.3345 13.572 30.0229C14.0621 27.1563 15.5685 23.356 17.0835 20.9481L15.072 21.1283C16.2083 17.2665 18.9237 13.4499 21.2775 12.1599C22.2948 11.8481 23.3625 11.7142 24.4294 11.7647C24.1555 13.3843 22.7753 21.6176 23.475 25.4179C23.4943 21.3453 25.5357 9.92803 27.1876 7C29.8131 9.23391 30.2796 10.2638 31.2532 12.2418C36.4486 12.5162 40.4993 14.8565 44.2931 17.6474C44.2476 17.7881 44.1714 17.9179 44.0696 18.0284C43.9678 18.1389 43.8427 18.2275 43.7026 18.2883C44.7168 18.6384 47.199 19.9898 48.1598 20.7679C49.4137 21.7917 51.0292 23.1369 51.8252 24.044L50.3274 26.2964L49.6426 24.3512L51.0057 24.13L49.189 24.1075L49.9294 26.4847L48.8595 26.8144ZM41.5221 20.8478L40.1248 19.1626L36.3609 18.1163L38.5563 19.8567L39.8638 19.7912L41.5221 20.8478Z" fill="#FF9E16"/>
<path fill-rule="evenodd" clip-rule="evenodd" d="M80.2953 16.9349V20.5755H73.8203V31.0652H69.3096V20.5755H62.8324V16.9349H80.2953ZM87.3417 16.9349V31.0632H82.8331V16.9349H87.3417ZM105.044 21.8307C104.994 20.9461 104.526 20.484 103.641 20.4444C103.141 20.4199 102.128 20.4076 100.6 20.4076L97.7946 20.4199C96.8488 20.4363 96.1769 20.5734 95.7746 20.8294C95.3167 21.1283 95.0599 21.718 95.015 22.5985C94.9808 23.1165 94.9658 23.6223 94.9658 24.1219C94.9543 24.7049 94.9865 25.2879 95.0621 25.8664C95.1791 26.8916 95.6719 27.4424 96.5407 27.5188C97.1042 27.576 97.6709 27.6 98.2375 27.5905H100.031L103.093 27.5782C104.454 27.57 105.146 27.1482 105.17 26.3128V25.8562H99.5514V22.9712H109.681V23.4769C109.681 25.8917 109.636 27.4096 109.546 28.0307C109.427 28.7436 109.083 29.4046 108.56 29.9247C108.047 30.4552 107.361 30.8038 106.615 30.9137C106.068 31.0217 105.514 31.0902 104.957 31.1185C103.65 31.2113 101.897 31.2543 99.699 31.2475L96.5621 31.2229C95.2226 31.2065 94.2404 31.1103 93.6049 30.9301C93.1204 30.8138 92.6656 30.6047 92.268 30.3154C91.8705 30.0261 91.5383 29.6626 91.2917 29.247C90.8338 28.4996 90.5749 27.4185 90.5193 25.9995C90.4765 24.8665 90.4551 23.7356 90.4551 22.6067C90.4465 22.1289 90.4508 21.7795 90.4679 21.5583C90.4812 20.9881 90.5888 20.4235 90.7868 19.8855C91.3288 18.2774 92.597 17.3219 94.5913 17.0188C95.1199 16.9217 95.6546 16.8581 96.1919 16.8284C96.9651 16.7957 98.2054 16.7759 99.913 16.769C102.071 16.769 103.705 16.7854 104.813 16.8182C107.917 16.8864 109.498 18.2406 109.555 20.8806V21.8327L105.044 21.8307ZM112.454 16.9349H128.732V20.2376H116.963V22.1665H128.075V25.2235H116.965V27.7625H128.858V31.0652H112.454V16.9369V16.9349ZM145.069 16.9349C145.682 16.9353 146.295 16.966 146.905 17.027C148.283 17.1642 149.223 17.6413 149.723 18.4603C149.916 18.7668 150.056 19.1006 150.138 19.4493C150.29 20.1423 150.369 20.8482 150.374 21.5563C150.374 22.722 150.208 23.597 149.877 24.1813C149.546 24.7689 148.769 25.2296 147.551 25.5757C148.794 25.9046 149.563 26.308 149.858 26.7858C150.151 27.2588 150.299 28.1126 150.299 29.3371V31.0734H145.792L145.754 29.763C145.754 28.8634 145.645 28.2805 145.427 28.0143C145.183 27.697 144.603 27.5434 143.691 27.5516H136.54V31.0714H132.029V16.9431L145.069 16.9349ZM136.54 20.5755V23.9028H142.84C143.28 23.9028 143.76 23.9028 144.267 23.8782C144.586 23.8821 144.903 23.8257 145.2 23.7124C145.628 23.5076 145.855 23.0101 145.863 22.1849C145.863 21.6095 145.715 21.1918 145.397 20.9277C145.166 20.7229 144.712 20.6185 144.031 20.6103L142.718 20.5734L136.54 20.5755ZM160.604 16.9349H166.335L174.5 31.0632H169.382L168.004 28.6409V28.6286H158.877V28.6409L157.546 31.0632H152.441L160.604 16.9349V16.9349ZM160.677 25.3463V25.3259H166.17V25.3463L163.48 20.5141L160.677 25.3463Z" fill="#1A1A1A"/>
</svg>
