<svg width="799" height="656" viewBox="0 0 799 656" fill="none" xmlns="http://www.w3.org/2000/svg">
<path opacity="0.25" d="M461 281.076L542 234.156L623 281.076V374.924L542 421.844L461 374.924V281.076Z" stroke="url(#paint0_linear)" stroke-width="2"/>
<path opacity="0.5" d="M610 288.5L542 249L474 288.5V367.5" stroke="white"/>
<path opacity="0.25" d="M277 281.076L358 234.156L439 281.076V374.924L358 421.844L277 374.924V281.076Z" stroke="white" stroke-width="2"/>
<path opacity="0.25" d="M93 281.076L174 234.156L255 281.076V374.924L174 421.844L93 374.924V281.076Z" stroke="url(#paint1_linear)" stroke-width="2"/>
<path opacity="0.25" d="M645 281.076L726 234.156L807 281.076V374.924L726 421.844L645 374.924V281.076Z" stroke="white" stroke-width="2"/>
<path opacity="0.05" d="M461 601.076L542 554.156L623 601.076V694.924L542 741.844L461 694.924V601.076Z" stroke="white" stroke-width="2"/>
<path opacity="0.05" d="M277 601.076L358 554.156L439 601.076V694.924L358 741.844L277 694.924V601.076Z" stroke="white" stroke-width="2"/>
<path opacity="0.05" d="M645 601.076L726 554.156L807 601.076V694.924L726 741.844L645 694.924V601.076Z" stroke="white" stroke-width="2"/>
<path opacity="0.05" d="M461 -38.9236L542 -85.8443L623 -38.9236V54.9236L542 101.844L461 54.9236V-38.9236Z" stroke="white" stroke-width="2"/>
<path opacity="0.05" d="M277 -38.9236L358 -85.8443L439 -38.9236V54.9236L358 101.844L277 54.9236V-38.9236Z" stroke="white" stroke-width="2"/>
<path opacity="0.05" d="M93 -38.9236L174 -85.8443L255 -38.9236V54.9236L174 101.844L93 54.9236V-38.9236Z" stroke="white" stroke-width="2"/>
<path opacity="0.05" d="M645 -38.9236L726 -85.8443L807 -38.9236V54.9236L726 101.844L645 54.9236V-38.9236Z" stroke="white" stroke-width="2"/>
<path opacity="0.25" d="M369 121.076L450 74.1557L531 121.076V214.924L450 261.844L369 214.924V121.076Z" stroke="white" stroke-width="2"/>
<path opacity="0.25" d="M185 121.076L266 74.1557L347 121.076V214.924L266 261.844L185 214.924V121.076Z" stroke="url(#paint2_linear)" stroke-width="2"/>
<path opacity="0.25" d="M1 121.076L82 74.1557L163 121.076V214.924L82 261.844L1 214.924V121.076Z" stroke="url(#paint3_linear)" stroke-width="2"/>
<path opacity="0.5" d="M266 89L198 128.5V207.5L266 247" stroke="white"/>
<path opacity="0.5" d="M174 249L242 288.5V367.5L174 407" stroke="white"/>
<path opacity="0.25" d="M553 121.076L634 74.1557L715 121.076V214.924L634 261.844L553 214.924V121.076Z" stroke="url(#paint4_linear)" stroke-width="2"/>
<path opacity="0.5" d="M702 128.5V207.5L634 247L566 207.5" stroke="white"/>
<path opacity="0.05" d="M737 121.076L818 74.1557L899 121.076V214.924L818 261.844L737 214.924V121.076Z" stroke="white" stroke-width="2"/>
<path opacity="0.25" d="M369 441.076L450 394.156L531 441.076V534.924L450 581.844L369 534.924V441.076Z" stroke="url(#paint5_linear)" stroke-width="2"/>
<path opacity="0.25" d="M185 441.076L266 394.156L347 441.076V534.924L266 581.844L185 534.924V441.076Z" stroke="url(#paint6_linear)" stroke-width="2"/>
<path opacity="0.5" d="M334 527.5V448.5L266 409L198 448.5" stroke="white"/>
<path opacity="0.25" d="M553 441.076L634 394.156L715 441.076V534.924L634 581.844L553 534.924V441.076Z" stroke="url(#paint7_linear)" stroke-width="2"/>
<path opacity="0.5" d="M702 527.5V448.5L634 409L566 448.5" stroke="white"/>
<path opacity="0.05" d="M737 441.076L818 394.156L899 441.076V534.924L818 581.844L737 534.924V441.076Z" stroke="white" stroke-width="2"/>
<path fill-rule="evenodd" clip-rule="evenodd" d="M644.267 459.031C644.322 458.904 644.368 458.771 644.405 458.633C644.821 457.094 643.9 455.512 642.348 455.099C640.797 454.687 639.201 455.6 638.786 457.14C638.743 457.298 638.714 457.457 638.699 457.615L638.061 462.91C631.693 461.696 625.345 462.952 620.104 466.057L617.39 461.341C617.324 461.219 617.249 461.1 617.163 460.986C616.21 459.703 614.389 459.43 613.096 460.375C611.802 461.321 611.527 463.128 612.48 464.411C612.578 464.543 612.686 464.664 612.801 464.774L616.574 468.571C612.773 471.794 609.882 476.151 608.49 481.304C608.206 482.354 607.993 483.406 607.848 484.456L602.442 483.619C602.305 483.593 602.164 483.578 602.021 483.572C600.415 483.511 599.064 484.753 599.002 486.345C598.941 487.938 600.192 489.278 601.798 489.339C601.963 489.346 602.125 489.338 602.284 489.318L607.625 488.762C607.831 494.727 610.162 500.375 614.064 504.75L600.66 519.674C599.797 520.635 599.878 522.105 600.84 522.967L602.18 524.168C603.165 525.05 604.688 524.954 605.552 523.955L618.659 508.797C621.015 510.415 623.687 511.665 626.614 512.443C629.597 513.236 632.599 513.473 635.506 513.218L635.88 518.628C635.886 518.766 635.901 518.906 635.928 519.046C636.223 520.612 637.743 521.645 639.322 521.352C640.902 521.058 641.942 519.551 641.647 517.984C641.616 517.823 641.573 517.668 641.518 517.519L639.787 512.473C645.804 510.892 651.123 507.166 654.616 501.939L659.112 505.025C659.224 505.106 659.344 505.181 659.471 505.248C660.889 505.996 662.651 505.462 663.405 504.055C664.159 502.648 663.621 500.901 662.202 500.152C662.056 500.075 661.907 500.012 661.755 499.962L656.7 498.155C657.222 496.978 657.661 495.746 658.006 494.465C659.342 489.523 659.113 484.53 657.621 480.005L662.855 478.425C662.99 478.388 663.123 478.342 663.255 478.285C664.727 477.647 665.399 475.945 664.756 474.485C664.113 473.025 662.398 472.358 660.925 472.996C660.774 473.062 660.631 473.139 660.497 473.225L655.926 476.035C653.074 470.667 648.304 466.319 642.245 464.075L644.267 459.031ZM651.418 494.464C651.611 493.939 651.782 493.4 651.931 492.85C652.819 489.561 652.79 486.243 651.999 483.163L642.898 487.107C641.693 487.629 641.628 489.301 642.79 489.913L651.418 494.464ZM648.627 499.529L639.894 494.923C638.73 494.309 637.367 495.302 637.61 496.587L639.4 506.076C643.037 504.862 646.269 502.59 648.627 499.529ZM633.668 507.071L631.849 497.427C631.607 496.142 629.974 495.705 629.113 496.695L622.751 504.005C624.401 505.062 626.243 505.885 628.242 506.417C630.057 506.899 631.88 507.108 633.668 507.071ZM618.396 500.178C615.944 497.258 614.388 493.645 613.998 489.804L623.727 490.175C625.044 490.225 625.718 491.764 624.857 492.753L618.396 500.178ZM614.298 484.04L624.177 484.417C625.494 484.467 626.285 482.984 625.503 481.932L619.727 474.161C617.323 476.488 615.498 479.466 614.566 482.919C614.465 483.292 614.375 483.666 614.298 484.04ZM624.455 470.796L630.321 478.689C631.103 479.741 632.765 479.429 633.106 478.167L635.625 468.841C631.692 468.353 627.819 469.091 624.455 470.796ZM641.226 470.403L638.667 479.878C638.326 481.141 639.608 482.235 640.815 481.711L649.732 477.847C647.753 474.648 644.83 472.016 641.226 470.403ZM634.306 483.967L637.192 486.333L637.099 489.902L634.097 491.985L630.446 491.015L628.897 487.722L630.615 484.585L634.306 483.967Z" fill="white"/>
<path d="M551.195 295.889L546.678 303.72H537.663L533.097 295.889L537.604 288H546.619L551.195 295.889ZM538.818 301.616H545.463L548.766 295.948L548.708 295.889L545.405 290.104H538.76L535.467 295.948L538.818 301.616Z" fill="white"/>
<path d="M565.942 304.305L561.424 312.139H552.409L547.834 304.305L552.351 296.473H561.308L565.942 304.305ZM560.21 310.092L563.571 304.363L560.151 298.519H553.565L553.507 298.578L550.214 304.363L553.565 310.092H560.21Z" fill="white"/>
<path d="M536.507 304.305L531.999 312.139H522.974L518.408 304.305L522.916 296.473H531.882L536.507 304.305ZM524.13 310.092H530.726L534.078 304.363L530.726 298.578L530.668 298.519H524.13L520.837 304.363L524.13 310.092Z" fill="white"/>
<path d="M551.194 312.779L546.677 320.605H537.662L533.155 312.779L537.662 304.888H546.677L551.194 312.779ZM538.876 318.443H545.521L548.824 312.779L545.463 306.934H538.818L536.331 311.314L535.525 312.779L538.876 318.443Z" fill="white"/>
<path d="M536.565 321.255L532.048 329.081H523.033L518.467 321.255L522.975 313.303H531.941L536.565 321.255ZM524.189 326.919H530.785L534.137 321.197L530.834 315.465L530.785 315.407H524.247L520.954 321.255L524.189 326.919Z" fill="white"/>
<path d="M551.253 329.547L546.735 337.383H537.72L533.155 329.547L537.662 321.662H546.677L551.253 329.547ZM538.935 335.337H545.579L548.882 329.605V329.547L545.521 323.825H538.876L535.583 329.605L538.935 335.337Z" fill="white"/>
<path d="M565.999 321.255L561.482 329.081H552.467L547.891 321.255L552.409 313.361H561.365L565.999 321.255ZM553.681 326.919H560.268L563.629 321.197L560.209 315.349H553.623L553.565 315.465L550.213 321.255L553.565 326.977L553.681 326.919Z" fill="white"/>
<path d="M519.963 351.29L520.021 367.476H517.369L517.311 351.29H519.963Z" fill="white"/>
<path d="M519.905 344.511V347.488H517.253V344.511H519.905Z" fill="white"/>
<path d="M528.007 342.756L528.065 367.535H525.462L525.345 342.756H528.007Z" fill="white"/>
<path d="M513.026 351.814V354.035C512.337 353.802 511.696 353.569 511.064 353.453C510.423 353.278 509.792 353.22 509.15 353.22C508.519 353.22 507.878 353.336 507.188 353.511C506.547 353.686 505.974 354.093 505.449 354.558C504.934 355.092 504.526 355.732 504.235 356.547C503.953 357.371 503.778 358.36 503.778 359.592C503.778 360.464 503.895 361.221 504.118 361.987C504.351 362.744 504.701 363.326 505.168 363.907C505.226 363.975 505.333 364.092 505.391 364.15C505.799 364.557 506.324 364.906 506.838 365.139C507.538 365.43 508.344 365.605 509.267 365.605C509.908 365.605 510.54 365.546 511.297 365.43C511.929 365.255 512.56 365.081 513.26 364.848V367.069C513.085 367.185 512.793 367.302 512.512 367.418C512.22 367.535 511.871 367.593 511.463 367.709C511.123 367.825 510.715 367.884 510.248 367.884C509.85 367.942 509.384 368 508.976 368C507.878 368 506.897 367.825 505.857 367.476C504.934 367.127 504.06 366.603 503.312 365.954C502.622 365.255 502.039 364.383 501.631 363.326C501.291 362.22 501 361.046 501 359.592C501 358.535 501.117 357.545 501.35 356.721C501.525 355.848 501.865 355.092 502.273 354.442C502.681 353.802 503.137 353.22 503.603 352.813C504.118 352.337 504.643 351.988 505.226 351.697C505.799 351.407 506.44 351.174 507.013 351.057C507.654 350.999 508.286 350.883 508.869 350.883C509.675 350.883 510.423 350.999 511.122 351.115C511.812 351.232 512.453 351.465 513.026 351.814Z" fill="white"/>
<path d="M536.098 351.29V367.535H533.495L533.436 351.29H536.098Z" fill="white"/>
<path d="M581.436 352.279C581.786 352.638 582.126 353.162 582.359 353.744C582.709 354.5 582.942 355.441 582.942 356.663L583 367.535H580.455L580.397 357.07C580.397 356.372 580.28 355.79 580.163 355.266C579.989 354.733 579.814 354.326 579.522 354.035C579.241 353.744 578.891 353.511 578.483 353.337C578.085 353.162 577.618 353.162 577.152 353.162C576.229 353.162 575.365 353.395 574.607 353.918C573.859 354.442 573.169 355.15 572.528 356.023L572.586 367.476H569.924L569.866 357.012C569.866 356.314 569.75 355.732 569.584 355.208C569.41 354.675 569.235 354.268 568.943 353.977C568.652 353.686 568.312 353.395 567.904 353.278C567.496 353.104 567.039 353.104 566.573 353.104C565.65 353.104 564.785 353.337 564.028 353.86C563.28 354.384 562.58 355.092 562.007 355.965L562.065 367.535H559.462L559.404 351.232H561.424L561.949 353.511C562.298 353.162 562.58 352.813 562.93 352.454C563.28 352.163 563.678 351.872 564.086 351.581C564.494 351.348 565.009 351.116 565.475 350.999C566 350.825 566.515 350.825 567.097 350.825C568.312 350.825 569.293 351.116 570.099 351.698C570.332 351.872 570.566 352.047 570.74 352.221C571.255 352.755 571.663 353.336 571.955 354.035C572.703 353.046 573.509 352.221 574.442 351.698C575.365 351.116 576.462 350.825 577.618 350.825C578.201 350.825 578.774 350.941 579.415 351.057C580.047 351.232 580.63 351.523 581.145 351.93C581.203 352.047 581.32 352.163 581.436 352.279Z" fill="white"/>
<path d="M554.372 351.232L554.43 361.221C554.43 361.813 554.372 362.278 554.314 362.744C554.255 363.209 554.197 363.675 554.022 364.034C553.857 364.615 553.507 365.081 553.158 365.605C552.808 366.07 552.351 366.487 551.885 366.836C551.37 367.186 550.787 367.418 550.098 367.651C549.398 367.826 548.65 367.942 547.785 367.942C546.911 367.942 546.163 367.826 545.522 367.709C544.891 367.535 544.249 367.244 543.793 366.953C543.443 366.72 543.152 366.487 542.928 366.254C542.753 366.07 542.637 365.954 542.52 365.721C542.171 365.256 541.879 364.79 541.656 364.208C541.481 363.791 541.422 363.326 541.306 362.86C541.248 362.336 541.189 361.871 541.189 361.221L541.131 351.29H543.793L543.851 361.221C543.851 362.162 543.968 362.86 544.191 363.5C544.366 363.975 544.599 364.325 544.949 364.674C545.124 364.848 545.299 364.965 545.522 365.139C546.105 365.547 546.911 365.721 547.834 365.721C548.825 365.721 549.631 365.546 550.263 365.081C550.846 364.615 551.312 364.092 551.535 363.326C551.71 362.744 551.827 362.046 551.827 361.279L551.768 351.348H554.372V351.232Z" fill="white"/>
<path d="M535.982 344.511L536.04 347.488H533.379V344.511H535.982Z" fill="white"/>
<path d="M551.195 295.889L546.678 303.72H537.663L533.097 295.889L537.604 288H546.619L551.195 295.889ZM538.818 301.616H545.463L548.766 295.948L548.708 295.889L545.405 290.104H538.76L535.467 295.948L538.818 301.616Z" fill="white"/>
<path d="M565.942 304.305L561.424 312.139H552.409L547.834 304.305L552.351 296.473H561.308L565.942 304.305ZM560.21 310.092L563.571 304.363L560.151 298.519H553.565L553.507 298.578L550.214 304.363L553.565 310.092H560.21Z" fill="white"/>
<path d="M536.507 304.305L531.999 312.139H522.974L518.408 304.305L522.916 296.473H531.882L536.507 304.305ZM524.13 310.092H530.726L534.078 304.363L530.726 298.578L530.668 298.519H524.13L520.837 304.363L524.13 310.092Z" fill="white"/>
<path d="M551.194 312.779L546.677 320.605H537.662L533.155 312.779L537.662 304.888H546.677L551.194 312.779ZM538.876 318.443H545.521L548.824 312.779L545.463 306.934H538.818L536.331 311.314L535.525 312.779L538.876 318.443Z" fill="white"/>
<path d="M536.565 321.255L532.048 329.081H523.033L518.467 321.255L522.975 313.303H531.941L536.565 321.255ZM524.189 326.919H530.785L534.137 321.197L530.834 315.465L530.785 315.407H524.247L520.954 321.255L524.189 326.919Z" fill="white"/>
<path d="M551.253 329.547L546.735 337.383H537.72L533.155 329.547L537.662 321.662H546.677L551.253 329.547ZM538.935 335.337H545.579L548.882 329.605V329.547L545.521 323.825H538.876L535.583 329.605L538.935 335.337Z" fill="white"/>
<path d="M565.999 321.255L561.482 329.081H552.467L547.891 321.255L552.409 313.361H561.365L565.999 321.255ZM553.681 326.919H560.268L563.629 321.197L560.209 315.349H553.623L553.565 315.465L550.213 321.255L553.565 326.977L553.681 326.919Z" fill="white"/>
<path d="M519.963 351.29L520.021 367.476H517.369L517.311 351.29H519.963Z" fill="white"/>
<path d="M519.905 344.511V347.488H517.253V344.511H519.905Z" fill="white"/>
<path d="M528.007 342.756L528.065 367.535H525.462L525.345 342.756H528.007Z" fill="white"/>
<path d="M513.026 351.814V354.035C512.337 353.802 511.696 353.569 511.064 353.453C510.423 353.278 509.792 353.22 509.15 353.22C508.519 353.22 507.878 353.336 507.188 353.511C506.547 353.686 505.974 354.093 505.449 354.558C504.934 355.092 504.526 355.732 504.235 356.547C503.953 357.371 503.778 358.36 503.778 359.592C503.778 360.464 503.895 361.221 504.118 361.987C504.351 362.744 504.701 363.326 505.168 363.907C505.226 363.975 505.333 364.092 505.391 364.15C505.799 364.557 506.324 364.906 506.838 365.139C507.538 365.43 508.344 365.605 509.267 365.605C509.908 365.605 510.54 365.546 511.297 365.43C511.929 365.255 512.56 365.081 513.26 364.848V367.069C513.085 367.185 512.793 367.302 512.512 367.418C512.22 367.535 511.871 367.593 511.463 367.709C511.123 367.825 510.715 367.884 510.248 367.884C509.85 367.942 509.384 368 508.976 368C507.878 368 506.897 367.825 505.857 367.476C504.934 367.127 504.06 366.603 503.312 365.954C502.622 365.255 502.039 364.383 501.631 363.326C501.291 362.22 501 361.046 501 359.592C501 358.535 501.117 357.545 501.35 356.721C501.525 355.848 501.865 355.092 502.273 354.442C502.681 353.802 503.137 353.22 503.603 352.813C504.118 352.337 504.643 351.988 505.226 351.697C505.799 351.407 506.44 351.174 507.013 351.057C507.654 350.999 508.286 350.883 508.869 350.883C509.675 350.883 510.423 350.999 511.122 351.115C511.812 351.232 512.453 351.465 513.026 351.814Z" fill="white"/>
<path d="M536.098 351.29V367.535H533.495L533.436 351.29H536.098Z" fill="white"/>
<path d="M581.436 352.279C581.786 352.629 582.126 353.162 582.359 353.744C582.709 354.5 582.942 355.441 582.942 356.663L583 367.535H580.455L580.397 357.07C580.397 356.372 580.28 355.79 580.163 355.266C579.989 354.733 579.814 354.326 579.522 354.035C579.241 353.744 578.891 353.511 578.483 353.337C578.085 353.162 577.618 353.162 577.152 353.162C576.229 353.162 575.365 353.395 574.617 353.918C573.859 354.442 573.169 355.15 572.528 356.023L572.586 367.476H569.924L569.866 357.012C569.866 356.314 569.759 355.732 569.584 355.208C569.41 354.675 569.235 354.268 568.943 353.977C568.652 353.686 568.312 353.395 567.904 353.278C567.496 353.104 567.039 353.104 566.573 353.104C565.65 353.104 564.785 353.337 564.028 353.86C563.28 354.384 562.58 355.092 562.007 355.965L562.065 367.535H559.462L559.404 351.232H561.424L561.949 353.511C562.298 353.162 562.58 352.813 562.93 352.454C563.28 352.163 563.678 351.872 564.086 351.581C564.494 351.348 565.009 351.116 565.475 350.999C566 350.825 566.515 350.825 567.097 350.825C568.312 350.825 569.293 351.116 570.099 351.698C570.332 351.872 570.566 352.047 570.74 352.221C571.255 352.755 571.663 353.336 571.955 354.035C572.703 353.046 573.509 352.221 574.442 351.698C575.365 351.116 576.462 350.825 577.618 350.825C578.201 350.825 578.774 350.941 579.415 351.057C580.047 351.232 580.63 351.523 581.145 351.93C581.203 352.047 581.32 352.163 581.436 352.279Z" fill="white"/>
<path d="M554.372 351.232L554.43 361.221C554.43 361.813 554.372 362.278 554.314 362.744C554.255 363.209 554.197 363.675 554.022 364.034C553.857 364.615 553.507 365.081 553.158 365.605C552.808 366.07 552.351 366.487 551.885 366.836C551.37 367.186 550.787 367.418 550.098 367.651C549.398 367.826 548.65 367.942 547.776 367.942C546.911 367.942 546.163 367.826 545.522 367.709C544.891 367.535 544.249 367.244 543.793 366.953C543.443 366.72 543.152 366.487 542.918 366.245C542.753 366.07 542.637 365.954 542.52 365.721C542.171 365.256 541.879 364.79 541.656 364.208C541.481 363.791 541.422 363.326 541.306 362.86C541.248 362.336 541.189 361.871 541.189 361.221L541.131 351.29H543.793L543.851 361.221C543.851 362.162 543.968 362.86 544.191 363.5C544.366 363.966 544.599 364.325 544.949 364.674C545.124 364.848 545.299 364.965 545.522 365.139C546.105 365.547 546.911 365.721 547.834 365.721C548.825 365.721 549.631 365.546 550.263 365.081C550.846 364.615 551.312 364.092 551.535 363.326C551.71 362.744 551.827 362.046 551.827 361.279L551.768 351.348H554.372V351.232Z" fill="white"/>
<path d="M535.982 344.511L536.04 347.488H533.379V344.511H535.982Z" fill="white"/>
<path d="M146 353.489V297C146 294.791 147.791 293 150 293H198C200.209 293 202 294.791 202 297V318.679C195.568 304.984 182.198 301.116 175.703 300.989V300.038C174.946 300.038 174.378 300.672 174.189 300.989H172.865V299.467C171.805 299.62 171.036 300.799 170.784 301.37L169.838 301.56L169.649 299.277C168.741 299.582 167.505 301.433 167 302.321L165.865 302.511L165.297 299.848C164.389 300.152 163.532 302.638 163.216 303.842L162.459 304.223L162.27 300.989C161.059 301.902 160.252 304.667 160 305.935L159.243 306.505V303.272C158.184 304.337 157.793 306.632 157.73 307.647C149.708 315.864 151.297 326.542 153.189 330.853C152.432 333.516 152.054 334.087 152.432 336.94C152.732 339.203 155.964 341.062 157.73 341.696C160.605 343.217 160.473 347.973 159.811 349.304C158.146 352.652 160.757 353.109 163.027 353.109C167.568 353.109 166.411 350.636 165.676 349.304C163.405 345.196 163.784 341.505 164.73 340.935C165.486 340.478 166.432 341.315 167 342.076L170.595 346.641L168.892 348.543C169.838 348.543 171.099 347.909 171.919 347.592L172.108 348.734C174.42 348.641 176.143 347.454 177.278 346.198C178.36 345.001 177.886 343.349 176.69 342.265C175.332 341.033 174.029 339.282 174.568 336.37C175.778 329.826 166.495 323.118 161.703 320.582C160.946 310.995 168.324 308.788 174.378 308.788C196.476 308.788 197.333 333.643 195 346.071L193.676 346.641L194.432 347.402L194.054 349.304L192.351 349.685L193.297 350.636L192.351 352.728L190.838 353.109L191.784 353.87L190.838 355.962L188.568 356.152L189.892 357.674L189.135 359.196L186.108 359.766L187.622 361.288L186.486 363H158.865L146 353.489Z" fill="white"/>
<path d="M316.962 318.557C317.002 317.371 317.041 316.185 316.739 315.011C316.158 315.011 315.577 315.012 314.996 315.014C313.543 315.017 312.09 315.021 310.637 315.001C310.162 314.992 310 315.039 310 315.59C310.029 323.831 310.029 332.081 310 340.323C310 340.873 310.162 340.921 310.637 340.911C312.09 340.891 313.543 340.895 314.996 340.899C315.577 340.9 316.158 340.902 316.739 340.902C316.844 340.474 316.91 340.047 316.948 339.61C316.948 332.043 323.193 324.619 331.405 323.043C332.051 322.919 332.508 322.976 332.584 323.774C332.65 324.533 333.097 324.59 333.677 324.258C334.247 323.93 334.818 323.601 335.389 323.273C336.932 322.385 338.477 321.497 340.017 320.603C340.673 320.223 340.777 319.786 340.055 319.368C337.945 318.144 335.834 316.938 333.715 315.732C333.173 315.428 332.641 315.409 332.593 316.197C332.546 317.023 332.042 317.109 331.396 317.204C329.846 317.432 328.335 317.811 326.862 318.343C323.545 319.549 320.531 321.457 318.013 323.926C317.969 323.967 317.926 324.015 317.882 324.064C317.707 324.259 317.52 324.467 317.224 324.353C316.928 324.228 316.945 323.938 316.96 323.67C316.964 323.611 316.967 323.553 316.967 323.498C316.959 323.068 316.963 322.64 316.966 322.212C316.971 321.6 316.976 320.989 316.948 320.375C316.922 319.77 316.942 319.164 316.962 318.557Z" fill="white"/>
<path d="M370.859 328.342C371.251 328.272 371.641 328.202 371.991 328.046C372.695 327.742 372.409 324.685 372.39 324.495C372.324 323.736 371.811 323.66 371.174 323.764C369.986 323.973 368.817 324.23 367.79 324.894C367.362 325.169 367.058 325.255 366.725 324.695C366.193 323.802 365.138 323.669 363.541 324.135C362.744 324.366 362.776 324.944 362.807 325.5C362.813 325.607 362.819 325.713 362.819 325.815C362.791 329.689 362.791 333.563 362.81 337.436C362.819 339.237 362.707 340.031 363.049 340.384C363.397 340.742 364.213 340.645 366.098 340.683C367.248 340.702 367.648 340.256 367.619 339.136C367.572 336.696 367.581 334.256 367.628 331.825C367.657 329.907 368.512 328.863 370.252 328.464C370.451 328.415 370.655 328.379 370.859 328.342Z" fill="white"/>
<path fill-rule="evenodd" clip-rule="evenodd" d="M333.088 335.566C333.154 338.357 334.01 339.943 336.823 340.664C337.735 340.902 340.273 341.139 341.69 340.902C342.849 340.721 343.942 340.294 344.902 339.629C345.263 339.383 345.548 339.449 345.834 339.781C346.499 340.531 347.393 340.674 348.343 340.683L348.371 340.684C350.596 340.702 350.615 340.703 350.586 338.481C350.584 338.349 350.594 338.211 350.604 338.071C350.643 337.522 350.684 336.949 350.025 336.677C349.218 336.354 349.151 335.727 349.151 335.025C349.151 334.505 349.153 333.986 349.154 333.467C349.16 331.91 349.165 330.356 349.122 328.796C349.046 325.901 347.858 324.41 345.235 323.802C342.136 323.09 339.114 323.432 336.167 324.514C333.972 325.331 333.972 325.416 335.302 327.382C335.397 327.505 335.483 327.638 335.568 327.78C336.053 328.72 336.652 328.958 337.697 328.445C339.389 327.6 341.243 327.524 343.087 327.856C343.847 327.989 344.541 328.436 344.427 329.271C344.342 329.949 343.775 329.902 343.275 329.86C343.159 329.85 343.046 329.841 342.944 329.841C340.891 329.841 338.867 329.945 336.89 330.543C334.352 331.322 333.031 332.983 333.088 335.566ZM341.46 333.216C341.628 333.215 341.797 333.214 341.965 333.211H343.163C344.522 333.23 344.845 333.705 344.379 334.996C344.246 335.442 343.999 335.832 343.666 336.154C343.334 336.468 342.925 336.696 342.478 336.81C341.366 337.123 340.197 337.161 339.057 336.933C338.23 336.753 337.717 336.24 337.669 335.366C337.631 334.968 337.735 334.569 337.954 334.237C338.182 333.895 338.515 333.648 338.905 333.534C339.731 333.224 340.598 333.22 341.46 333.216Z" fill="white"/>
<path fill-rule="evenodd" clip-rule="evenodd" d="M371.64 335.566C371.706 338.357 372.562 339.943 375.375 340.664C376.288 340.902 378.816 341.139 380.242 340.902C381.392 340.721 382.494 340.294 383.454 339.629C383.815 339.383 384.091 339.449 384.386 339.781C385.051 340.531 385.944 340.674 386.895 340.683L386.923 340.684C389.148 340.702 389.167 340.703 389.129 338.481C389.127 338.348 389.137 338.207 389.148 338.065C389.189 337.519 389.232 336.948 388.568 336.677C387.769 336.354 387.703 335.727 387.703 335.025C387.7 334.331 387.702 333.639 387.704 332.948C387.708 331.564 387.712 330.183 387.674 328.796C387.598 325.901 386.41 324.41 383.787 323.802C380.688 323.09 377.666 323.432 374.719 324.514C372.514 325.331 372.524 325.416 373.845 327.382C373.94 327.505 374.035 327.638 374.111 327.78C374.605 328.72 375.204 328.958 376.24 328.445C377.941 327.6 379.785 327.524 381.639 327.856C382.399 327.989 383.084 328.436 382.979 329.271C382.894 329.949 382.328 329.902 381.823 329.86C381.705 329.85 381.591 329.841 381.487 329.841C379.443 329.841 377.409 329.945 375.442 330.543C372.904 331.322 371.583 332.983 371.64 335.566ZM380.009 333.216C380.178 333.215 380.348 333.214 380.517 333.211H381.705C383.065 333.23 383.397 333.705 382.931 334.996C382.798 335.442 382.551 335.832 382.219 336.154C381.886 336.468 381.477 336.696 381.03 336.81C379.918 337.123 378.74 337.161 377.609 336.933C376.782 336.753 376.259 336.24 376.221 335.366C376.183 334.968 376.288 334.569 376.506 334.237C376.734 333.895 377.067 333.648 377.447 333.534C378.282 333.224 379.143 333.22 380.009 333.216Z" fill="white"/>
<path d="M402.8 340.652C403.871 340.719 404.95 340.787 406 340.417V328.198C405.781 325.863 403.928 324.106 402.227 323.736C399.622 323.176 397.075 323.328 394.67 324.609C394.636 324.628 394.601 324.649 394.564 324.67C394.311 324.819 394.025 324.988 393.834 324.647C393.312 323.704 392.522 323.828 391.743 323.951C391.628 323.969 391.514 323.987 391.4 324.002C389.699 324.229 389.699 324.249 389.69 326.033C389.69 326.979 389.689 327.927 389.688 328.873C389.687 331.715 389.685 334.556 389.699 337.398C389.704 339.24 389.599 340.05 389.952 340.402C390.305 340.755 391.115 340.65 392.95 340.664C394.432 340.664 394.499 340.579 394.508 339.098C394.511 338.256 394.507 337.415 394.502 336.573C394.492 334.785 394.482 332.996 394.546 331.208C394.632 328.834 395.877 327.885 398.482 327.97C400.525 328.037 401.2 328.853 401.209 331.312V339.335C401.209 339.905 401.21 340.579 401.97 340.607C402.245 340.617 402.522 340.634 402.8 340.652Z" fill="white"/>
<path d="M323.06 329.613C325.75 332.888 326.862 336.734 327.052 340.902H332.574C332.963 340.081 332.82 339.261 332.677 338.445C332.635 338.203 332.593 337.962 332.565 337.721C332.023 333.43 330.35 329.603 327.717 326.185C327.27 325.597 326.795 325.492 326.177 325.891C325.132 326.556 324.134 327.287 323.193 328.094C322.642 328.568 322.575 329.015 323.06 329.613Z" fill="white"/>
<path d="M358.371 340.674H358.732V340.655C358.944 340.655 359.157 340.656 359.37 340.657C359.798 340.659 360.227 340.661 360.652 340.655C361.032 340.645 361.422 340.522 361.488 340.114C361.659 339.126 361.812 338.091 361.412 337.17C361.125 336.51 360.512 336.55 359.918 336.588C359.726 336.6 359.536 336.612 359.359 336.601C358.047 336.515 357.591 336.098 357.553 334.749C357.533 333.868 357.537 332.986 357.541 332.104C357.542 331.752 357.544 331.399 357.544 331.047C357.544 328.17 357.544 328.17 360.443 327.951C360.947 327.913 361.374 327.847 361.545 327.258C362.23 324.961 361.498 323.897 359.188 323.869C359.134 323.869 359.08 323.868 359.027 323.867C358.919 323.865 358.811 323.862 358.703 323.869C357.905 323.907 357.525 323.536 357.544 322.729C357.563 321.852 357.544 320.983 357.525 320.105L357.525 320.09C357.515 319.615 357.392 319.255 356.783 319.226C354.721 319.141 353.799 319.843 353.409 321.846C353.333 322.112 353.276 322.388 353.248 322.663C353.21 323.574 352.744 323.878 351.85 323.888C350.082 323.897 350.082 323.935 350.073 325.664L350.073 325.692C350.073 325.783 350.075 325.876 350.077 325.968C350.081 326.155 350.086 326.343 350.073 326.527C349.987 327.534 350.406 328.056 351.451 327.951C352.459 327.856 352.772 328.35 352.753 329.3C352.715 330.833 352.726 332.361 352.737 333.892C352.739 334.276 352.742 334.659 352.744 335.044C352.763 339.221 354.198 340.655 358.371 340.674Z" fill="white"/>
<path d="M727.844 326.265C728.224 326.673 728.671 327.033 729.165 327.317C729.896 327.706 730.505 327.516 731.056 326.948C731.312 326.72 731.474 326.407 731.521 326.076C731.569 325.734 731.502 325.393 731.322 325.099C731.113 324.72 730.847 324.379 730.533 324.085C724.561 318.122 718.59 312.157 712.618 306.192L712.582 306.156C709.509 303.087 706.437 300.018 703.365 296.95C703.004 296.542 702.538 296.24 702.025 296.072C700.913 295.77 700.001 296.456 700.001 297.424C699.982 298.285 700.371 298.771 700.808 299.222C701.616 300.055 702.433 300.882 703.251 301.702C711.038 309.481 718.834 317.267 726.63 325.053L727.844 326.265Z" fill="white"/>
<path d="M742.22 320.876C743.016 320.1 743.812 319.323 744.588 318.53C744.778 318.293 745.034 318.132 745.32 318.065C745.614 317.99 745.918 318.009 746.194 318.132C748.38 318.881 750.147 320.274 752 321.848C751.254 321.978 750.527 322.108 749.813 322.236L749.81 322.237L749.809 322.237C748.343 322.5 746.931 322.753 745.519 322.976C745.091 323.052 744.711 323.26 744.417 323.573C732.966 335.043 721.506 346.513 710.036 357.983C709.57 358.466 709.066 358.912 708.525 359.319C707.603 359.983 706.729 359.897 706.063 359.139C705.417 358.419 705.484 357.547 706.301 356.703C708.106 354.836 709.912 352.978 711.765 351.158C715.722 347.261 719.657 343.337 723.591 339.415C724.9 338.109 726.211 336.802 727.521 335.498C729.749 333.275 731.98 331.055 734.21 328.834C736.441 326.614 738.672 324.393 740.901 322.17C741.338 321.737 741.779 321.307 742.22 320.876Z" fill="white"/>
<path d="M748.284 328.559C748.275 328.872 748.17 329.175 747.98 329.431C747.762 329.706 747.534 329.972 747.286 330.227C737.93 339.58 728.564 348.932 719.198 358.284L718.959 358.523C718.673 358.817 718.369 359.082 718.046 359.329C717.191 359.973 716.488 359.935 715.804 359.253C715.11 358.561 715.072 357.86 715.699 357.006C715.946 356.684 716.212 356.381 716.507 356.106C721.16 351.459 725.811 346.811 730.462 342.162L730.473 342.151C735.126 337.5 739.78 332.848 744.436 328.199C744.816 327.782 745.262 327.422 745.766 327.156C746.935 326.606 748.275 327.336 748.284 328.559Z" fill="white"/>
<path d="M746.412 340.825L738.886 348.304C738.667 348.504 738.468 348.721 738.278 348.949C737.622 349.774 737.631 350.342 738.363 351.091C739.826 352.57 741.29 354.039 742.772 355.49C743.133 355.869 743.561 356.153 744.046 356.352C744.521 356.542 745.034 356.627 745.547 356.599C746.003 356.57 746.469 356.599 746.915 356.675C747.79 356.836 748.179 357.338 748.189 358.191C748.227 358.57 748.103 358.95 747.866 359.253C747.628 359.556 747.286 359.746 746.897 359.793C746.127 359.964 745.329 360.011 744.54 359.926C742.81 360.267 741.489 359.386 740.283 358.144C738.932 356.765 737.569 355.399 736.208 354.035C735.529 353.354 734.849 352.673 734.172 351.992C732.823 350.636 732.823 349.537 734.182 348.172L734.206 348.148C737.695 344.658 741.184 341.168 744.673 337.688C744.958 337.403 745.272 337.138 745.595 336.901C746.393 336.323 747.125 336.38 747.78 337.034C748.427 337.669 748.493 338.427 747.885 339.214C747.429 339.782 746.935 340.313 746.412 340.825Z" fill="white"/>
<path d="M724.575 332.247C725.677 332.654 726.703 331.981 726.741 330.815C726.732 330.531 726.665 330.256 726.542 330C726.428 329.735 726.247 329.507 726.038 329.317C725.581 328.855 725.119 328.397 724.659 327.94C724.431 327.713 724.203 327.487 723.976 327.26C717.771 321.08 711.575 314.899 705.379 308.719C704.97 308.311 704.524 307.961 704.153 307.951C702.956 307.97 702.167 308.984 702.367 309.923C702.509 310.586 702.937 311.07 703.403 311.534C709.95 318.085 716.507 324.635 723.064 331.185C723.491 331.64 724.005 332.01 724.575 332.247Z" fill="white"/>
<path d="M719.148 336.854C718.644 336.455 718.169 336.019 717.713 335.555C715.832 333.673 713.948 331.794 712.064 329.915C710.18 328.036 708.296 326.156 706.414 324.275C705.911 323.782 705.464 323.241 705.074 322.654C704.637 322 704.618 321.336 705.15 320.72C705.369 320.445 705.683 320.246 706.025 320.161C706.367 320.085 706.737 320.113 707.06 320.265C707.564 320.464 708.011 320.767 708.391 321.156C710.449 323.209 712.506 325.259 714.564 327.309C716.621 329.359 718.678 331.408 720.735 333.46C721.305 334.029 721.885 334.607 721.913 335.536C721.913 335.849 721.828 336.143 721.657 336.408C721.495 336.664 721.258 336.873 720.982 337.005C720.697 337.166 720.374 337.242 720.041 337.214C719.718 337.185 719.405 337.062 719.148 336.854Z" fill="white"/>
<path d="M479.237 190.024C479.237 190.024 479.237 189.998 479.237 190.024C478.705 189.415 478.439 188.277 478.147 187.087C477.881 185.896 477.562 184.6 476.586 183.753C476.4 183.595 476.187 183.435 475.974 183.33C475.762 183.197 475.575 183.118 475.362 183.039C476.737 178.99 476.187 174.941 474.804 171.29C473.11 166.818 470.131 162.902 467.879 160.229C465.334 157.027 462.869 154.011 462.922 149.539C462.993 142.712 463.658 130.037 451.616 130.011C451.138 129.985 450.606 130.011 450.074 130.037C436.622 131.123 440.178 145.332 439.992 150.068C439.752 153.535 439.034 156.287 436.649 159.673C433.838 163.008 429.856 168.405 428.003 174.042C427.125 176.688 426.7 179.413 427.072 181.953C426.939 182.06 426.833 182.165 426.726 182.297C425.902 183.171 425.29 184.256 424.607 184.97C423.969 185.605 423.064 185.844 422.053 186.188C421.051 186.531 419.961 187.061 419.296 188.331C418.976 188.912 418.87 189.548 418.87 190.183C418.87 190.765 418.95 191.373 419.056 191.929C419.242 193.12 419.429 194.257 419.189 195.025C418.4 197.169 418.294 198.65 418.843 199.735C419.402 200.82 420.546 201.297 421.841 201.561C424.421 202.09 427.923 201.958 430.681 203.414L430.921 202.963L430.681 203.414C433.625 204.949 436.622 205.504 439.007 204.949C440.736 204.551 442.146 203.519 442.856 201.932C444.718 201.932 446.784 201.137 450.047 200.953C452.282 200.767 455.066 201.746 458.276 201.561C458.356 201.905 458.488 202.249 458.648 202.567C459.889 205.054 462.204 206.165 464.642 205.98C467.107 205.795 469.714 204.34 471.833 201.826L471.434 201.509L471.833 201.826C473.846 199.392 477.189 198.386 479.424 197.036C480.532 196.375 481.437 195.528 481.49 194.311C481.596 193.199 480.878 191.824 479.237 190.024ZM449.488 145.411C449.488 144.511 449.621 143.744 449.967 142.976C450.313 142.21 450.739 141.627 451.35 141.178C451.962 140.727 452.547 140.515 453.23 140.515H453.257C453.948 140.515 454.534 140.727 455.119 141.151C455.731 141.601 456.174 142.157 456.52 142.924C456.866 143.664 457.025 144.406 457.052 145.279C457.052 145.306 457.052 145.332 457.052 145.332C457.052 146.232 456.892 146.999 456.573 147.767C456.387 148.216 456.147 148.586 455.89 148.904C455.81 148.851 455.704 148.825 455.598 148.772C455.252 148.639 454.959 148.507 454.693 148.402C454.427 148.295 454.215 148.242 454.002 148.163C454.161 147.978 454.48 147.739 454.587 147.475C454.773 147.052 454.853 146.655 454.853 146.152C454.853 146.125 454.853 146.125 454.853 146.099C454.853 145.623 454.8 145.226 454.667 144.802C454.534 144.379 454.347 144.062 454.081 143.797C453.815 143.532 453.549 143.427 453.23 143.4C453.204 143.4 453.204 143.4 453.177 143.4C452.885 143.4 452.627 143.506 452.361 143.718C452.069 143.955 451.856 144.247 451.696 144.671C451.51 145.094 451.43 145.517 451.43 145.993C451.43 146.02 451.43 146.02 451.43 146.046C451.43 146.311 451.43 146.576 451.483 146.814C450.872 146.523 450.074 146.285 449.542 146.152C449.515 145.914 449.488 145.676 449.488 145.438V145.411ZM441.534 143.48C441.747 142.792 442.04 142.289 442.43 141.892C442.856 141.495 443.255 141.283 443.76 141.257C443.787 141.257 443.84 141.257 443.867 141.257C444.319 141.257 444.718 141.415 445.143 141.733C445.596 142.104 445.933 142.553 446.225 143.215C446.518 143.876 446.677 144.511 446.704 145.306C446.731 145.623 446.731 145.941 446.704 146.232C446.624 146.258 446.518 146.285 446.438 146.311C445.959 146.469 445.569 146.655 445.197 146.92C445.223 146.655 445.25 146.39 445.223 146.099C445.223 146.073 445.223 146.073 445.223 146.046C445.197 145.65 445.09 145.332 444.957 144.988C444.798 144.644 444.638 144.406 444.425 144.22C444.239 144.062 444.053 143.983 443.84 143.983C443.813 143.983 443.787 143.983 443.787 143.983C443.547 144.009 443.361 144.115 443.175 144.327C442.989 144.538 442.882 144.829 442.802 145.173C442.723 145.543 442.696 145.888 442.723 146.285C442.723 146.311 442.723 146.311 442.723 146.337C442.749 146.734 442.829 147.051 442.989 147.395C443.122 147.739 443.308 147.978 443.521 148.163C443.547 148.19 443.601 148.216 443.627 148.242C443.414 148.428 443.255 148.534 443.068 148.665C442.962 148.746 442.802 148.851 442.643 148.983C442.306 148.639 442.013 148.242 441.774 147.687C441.481 147.025 441.322 146.39 441.295 145.597C441.242 144.829 441.322 144.167 441.534 143.48ZM441.88 150.28C442.59 149.751 443.069 149.381 443.414 149.142C443.734 148.904 443.867 148.825 443.973 148.719C444.505 148.216 445.356 147.29 446.651 146.867C447.103 146.708 447.582 146.628 448.14 146.602C449.204 146.602 450.473 146.946 451.989 147.925C452.938 148.534 453.656 148.586 455.358 149.301C456.174 149.645 456.653 150.068 456.866 150.518C457.105 150.968 457.105 151.47 456.919 152C456.52 153.032 455.279 154.143 453.523 154.673C452.672 154.937 451.936 155.572 451.058 156.049C450.18 156.552 449.205 156.948 447.848 156.869C447.263 156.842 446.81 156.71 446.411 156.552C446.012 156.392 445.702 156.154 445.383 155.916C444.771 155.413 444.212 154.805 443.414 154.328C442.146 153.614 441.455 152.767 441.215 152.053C441.056 151.365 441.242 150.756 441.88 150.28ZM442.386 199.867C442.199 202.249 440.869 203.546 438.803 204.022C436.728 204.498 433.944 204.022 431.16 202.567C428.083 200.926 424.394 201.111 422.053 200.609C420.865 200.37 420.094 200 419.748 199.312C419.402 198.624 419.376 197.434 420.147 195.396C420.52 194.258 420.253 193.015 420.067 191.85C419.881 190.686 419.801 189.628 420.2 188.886C420.706 187.907 421.477 187.537 422.399 187.219C423.33 186.875 424.448 186.611 425.317 185.737C426.115 184.891 426.727 183.832 427.445 183.065C428.057 182.43 428.642 182.007 429.537 182.007H429.564C429.724 182.007 429.883 182.033 430.069 182.06C431.266 182.244 432.322 183.065 433.332 184.441L436.25 189.733C437.021 191.347 438.67 193.12 440.045 194.92C441.455 196.666 442.51 198.492 442.386 199.867ZM442.146 196.031C441.774 195.422 441.322 194.84 440.869 194.231C440.577 193.861 440.284 193.491 439.992 193.12C440.577 193.12 441.056 193.015 441.455 192.855C441.96 192.643 442.306 192.273 442.457 191.824C442.803 190.898 442.457 189.601 441.348 188.119C440.258 186.611 438.405 184.944 435.665 183.277C433.652 182.033 432.534 180.499 432.011 178.831C431.479 177.164 431.559 175.365 431.958 173.592C432.721 170.179 434.742 166.871 436.01 164.807C436.356 164.542 436.143 165.283 434.716 167.903C433.439 170.311 431.08 175.841 434.317 180.155C434.397 177.085 435.141 173.936 436.383 171.026C438.192 166.951 441.96 159.912 442.253 154.275C442.404 154.382 442.936 154.752 443.175 154.884C443.867 155.281 444.399 155.889 445.064 156.419C445.729 156.948 446.571 157.424 447.848 157.504C447.981 157.504 448.087 157.504 448.194 157.504C449.488 157.504 450.526 157.08 451.377 156.604C452.308 156.075 453.044 155.493 453.736 155.254C455.225 154.805 456.387 153.984 457.052 153.032C458.196 157.557 460.874 164.066 462.603 167.268C463.498 168.961 465.334 172.533 466.105 176.873C466.602 176.847 467.134 176.926 467.719 177.085C469.767 171.793 465.972 166.077 464.243 164.463C463.552 163.775 463.498 163.484 463.844 163.484C465.733 165.151 468.198 168.485 469.102 172.242C469.501 173.963 469.608 175.762 469.155 177.534C469.368 177.614 469.581 177.72 469.812 177.826C473.11 179.413 474.325 180.816 473.74 182.721C473.554 182.721 473.367 182.721 473.19 182.721C473.163 182.721 473.164 182.721 473.137 182.721C473.607 181.213 472.552 180.101 469.741 178.831C466.815 177.561 464.483 177.667 464.083 180.287C464.057 180.418 464.03 180.551 464.03 180.71C463.818 180.79 463.605 180.895 463.365 181.001C461.991 181.742 461.246 183.118 460.82 184.785C460.395 186.452 460.288 188.463 460.182 190.712C460.102 191.85 459.65 193.385 459.18 195.025C454.401 198.386 447.768 199.867 442.146 196.031ZM480.505 194.338C480.452 195.078 479.929 195.634 478.918 196.243C476.896 197.46 473.341 198.492 471.089 201.244C469.129 203.572 466.708 204.869 464.589 205.028C462.47 205.186 460.634 204.313 459.57 202.17C458.914 200.9 459.18 198.888 459.73 196.799C460.288 194.681 461.113 192.512 461.219 190.765C461.326 188.516 461.459 186.531 461.831 185.023C462.204 183.515 462.815 182.483 463.871 181.901C463.924 181.874 463.977 181.848 464.03 181.821C464.163 183.779 465.121 185.764 466.841 186.188C468.73 186.69 471.434 185.076 472.578 183.753C472.818 183.753 473.03 183.727 473.234 183.727C474.245 183.7 475.07 183.753 475.948 184.521C476.613 185.076 476.923 186.135 477.189 187.298C477.455 188.489 477.668 189.759 478.493 190.686C480.062 192.432 480.559 193.596 480.505 194.338Z" fill="white"/>
<path d="M622.784 157.932C622.794 157.466 622.794 156.999 622.784 156.538C622.784 156.076 622.763 155.615 622.743 155.157C622.725 154.747 622.684 154.341 622.639 153.905L622.621 153.725C622.648 153.753 622.675 153.786 622.702 153.819C622.716 153.835 622.729 153.852 622.743 153.868C622.766 153.894 622.785 153.923 622.805 153.951C622.821 153.974 622.837 153.997 622.855 154.02C622.889 154.065 622.916 154.112 622.942 154.158L622.956 154.182C622.97 154.207 622.983 154.231 622.997 154.255C623.014 154.286 623.031 154.317 623.048 154.349C623.159 154.572 623.251 154.806 623.322 155.048C623.474 155.529 623.545 156.033 623.545 156.533C623.555 157.033 623.494 157.532 623.373 158.018C623.312 158.26 623.23 158.503 623.119 158.732C623.068 158.846 623.007 158.955 622.926 159.065C622.865 159.175 622.774 159.279 622.682 159.355C622.712 159.232 622.722 159.114 622.733 158.995L622.763 158.637C622.768 158.519 622.771 158.401 622.773 158.284C622.776 158.167 622.778 158.049 622.784 157.932Z" fill="white"/>
<path d="M603.893 167.911L603.936 167.874C603.987 167.936 604.007 168.008 604.007 168.083C604.007 168.159 603.997 168.23 603.977 168.302C603.926 168.44 603.804 168.579 603.642 168.64L603.624 168.646L603.609 168.651C603.582 168.66 603.551 168.67 603.53 168.674L603.509 168.676C603.475 168.679 603.442 168.683 603.408 168.683C603.375 168.683 603.343 168.677 603.315 168.672L603.296 168.669C603.265 168.665 603.239 168.655 603.21 168.645L603.199 168.64L603.184 168.635C603.154 168.621 603.124 168.607 603.093 168.583L603.083 168.575L603.071 168.566C603.048 168.55 603.027 168.534 603.012 168.516C603.005 168.508 602.997 168.499 602.988 168.49C602.972 168.473 602.954 168.454 602.941 168.436C602.92 168.406 602.9 168.373 602.89 168.341C602.945 168.322 602.999 168.312 603.044 168.304C603.058 168.302 603.071 168.3 603.083 168.297C603.112 168.294 603.131 168.291 603.15 168.287L603.174 168.283C603.184 168.283 603.195 168.283 603.215 168.278C603.219 168.276 603.224 168.275 603.229 168.274C603.234 168.273 603.24 168.272 603.245 168.269C603.254 168.267 603.262 168.266 603.27 168.265C603.288 168.263 603.302 168.261 603.317 168.255C603.327 168.252 603.337 168.25 603.347 168.248C603.357 168.245 603.367 168.243 603.378 168.24C603.387 168.231 603.404 168.227 603.422 168.223L603.428 168.221C603.434 168.221 603.437 168.219 603.44 168.217C603.441 168.216 603.443 168.215 603.445 168.214L603.449 168.212C603.452 168.21 603.456 168.209 603.46 168.208C603.465 168.206 603.469 168.205 603.469 168.202C603.53 168.179 603.591 168.15 603.662 168.098C603.703 168.069 603.743 168.04 603.784 168.002C603.822 167.974 603.854 167.945 603.893 167.911Z" fill="white"/>
<path d="M611.156 166.075C611.156 166.44 610.862 166.737 610.496 166.737C610.131 166.737 609.836 166.44 609.836 166.075C609.836 165.71 610.131 165.414 610.496 165.414C610.862 165.414 611.156 165.71 611.156 166.075Z" fill="white"/>
<path fill-rule="evenodd" clip-rule="evenodd" d="M617.98 161.488L616.508 161.915C616.447 161.544 616.345 161.187 616.203 160.859L617.96 159.64C618.051 159.574 618.082 159.441 618.011 159.341C617.95 159.245 617.808 159.217 617.716 159.288L616.02 160.469C615.797 160.06 615.513 159.702 615.177 159.413L616.335 157.894C616.406 157.799 616.386 157.666 616.295 157.594C616.203 157.523 616.071 157.542 616 157.632L614.832 159.155C614.68 159.055 614.517 158.97 614.355 158.898C612.7 158.194 610.709 158.974 609.348 160.673C609.338 160.678 609.338 160.682 609.338 160.682C609.318 160.709 609.298 160.734 609.277 160.759C609.257 160.784 609.237 160.809 609.217 160.835C609.211 160.84 609.209 160.843 609.206 160.847C609.204 160.851 609.201 160.854 609.196 160.859C609.173 160.889 609.153 160.919 609.132 160.951C609.117 160.973 609.102 160.997 609.084 161.021C609.079 161.026 609.073 161.032 609.067 161.039C609.063 161.044 609.058 161.05 609.054 161.054C609.041 161.077 609.026 161.1 609.011 161.123C608.991 161.155 608.97 161.188 608.952 161.22L608.95 161.223C608.941 161.232 608.932 161.24 608.932 161.25C608.892 161.306 608.851 161.368 608.82 161.43C608.82 161.435 608.82 161.435 608.811 161.44C608.797 161.468 608.78 161.497 608.764 161.525L608.759 161.533C608.742 161.563 608.724 161.594 608.709 161.625C608.709 161.63 608.706 161.633 608.704 161.637C608.701 161.64 608.699 161.644 608.699 161.649C608.658 161.71 608.627 161.772 608.597 161.835C608.592 161.839 608.589 161.845 608.587 161.851C608.584 161.857 608.582 161.863 608.577 161.867C608.563 161.895 608.55 161.922 608.537 161.95C608.52 161.987 608.503 162.023 608.485 162.058C608.485 162.063 608.483 162.068 608.48 162.072C608.478 162.077 608.475 162.082 608.475 162.087C608.435 162.153 608.404 162.22 608.384 162.287V162.292C608.353 162.357 608.323 162.424 608.302 162.491C608.297 162.496 608.295 162.502 608.292 162.508C608.29 162.514 608.287 162.52 608.282 162.525L608.274 162.549C608.256 162.604 608.238 162.661 608.211 162.715C608.211 162.722 608.209 162.728 608.206 162.734C608.204 162.74 608.201 162.746 608.201 162.753C608.186 162.785 608.176 162.818 608.166 162.849C608.156 162.883 608.146 162.916 608.13 162.948V162.962C608.12 162.993 608.109 163.025 608.099 163.057C608.089 163.09 608.079 163.122 608.069 163.152C608.069 163.163 608.069 163.177 608.059 163.186C608.048 163.219 608.04 163.252 608.032 163.285C608.025 163.315 608.017 163.345 608.008 163.376C608.008 163.39 608.008 163.405 607.998 163.419C607.993 163.451 607.985 163.483 607.977 163.516C607.97 163.547 607.962 163.579 607.957 163.609C607.957 163.614 607.955 163.618 607.952 163.621C607.95 163.625 607.947 163.628 607.947 163.633C607.942 163.664 607.937 163.694 607.932 163.724C607.927 163.753 607.922 163.783 607.917 163.814V163.847L607.886 164.034C607.886 164.041 607.884 164.048 607.881 164.055C607.879 164.062 607.876 164.069 607.876 164.076C607.866 164.138 607.856 164.2 607.856 164.261C607.856 164.271 607.856 164.281 607.845 164.29C607.845 164.319 607.843 164.349 607.84 164.379C607.838 164.408 607.835 164.438 607.835 164.466V164.49C607.825 164.552 607.825 164.614 607.825 164.676V164.714C607.825 164.745 607.823 164.776 607.82 164.807C607.818 164.838 607.815 164.868 607.815 164.899V165.123C607.815 165.154 607.818 165.185 607.82 165.216C607.823 165.247 607.825 165.278 607.825 165.308V165.342C607.83 165.373 607.833 165.402 607.835 165.432C607.838 165.462 607.84 165.491 607.845 165.522V165.552C607.856 165.674 607.876 165.797 607.896 165.92L607.896 165.922V165.947C607.901 165.977 607.906 166.007 607.912 166.037C607.917 166.066 607.922 166.096 607.927 166.127C607.927 166.129 607.929 166.133 607.932 166.136C607.934 166.14 607.937 166.144 607.937 166.146C607.967 166.27 607.998 166.389 608.028 166.508V166.518C608.045 166.568 608.061 166.615 608.078 166.662L608.089 166.694V166.703C608.434 167.726 609.105 168.545 610.049 168.944C611.278 169.468 612.689 169.173 613.898 168.288C614.467 167.426 614.802 166.308 614.802 165.085C614.802 162.373 613.106 160.169 611.024 160.169C610.699 160.169 610.394 160.221 610.09 160.316C611.369 159.065 613.014 158.556 614.395 159.145C614.507 159.193 614.619 159.245 614.72 159.307C614.842 159.379 614.964 159.46 615.076 159.545C615.421 159.812 615.695 160.145 615.919 160.536C615.99 160.659 616.061 160.788 616.122 160.92C616.254 161.234 616.366 161.578 616.437 161.939L616.498 162.357V162.368C616.609 163.371 616.447 164.494 615.99 165.589C615.99 165.585 615.99 165.585 616 165.58C616 165.575 616.003 165.568 616.005 165.562C616.008 165.557 616.01 165.551 616.01 165.547C616.477 164.466 616.65 163.357 616.559 162.348L618.102 161.901C618.214 161.867 618.285 161.749 618.254 161.634C618.214 161.52 618.102 161.454 617.98 161.488ZM610.851 161.534C611.207 161.534 611.552 161.625 611.857 161.791C611.848 161.793 611.836 161.795 611.823 161.796C611.805 161.798 611.783 161.8 611.765 161.806C610.973 161.948 610.476 162.863 610.658 163.847C610.831 164.833 611.623 165.518 612.415 165.375C612.943 165.28 613.329 164.847 613.492 164.281C613.543 164.561 613.573 164.852 613.573 165.152C613.573 167.151 612.354 168.768 610.851 168.768C609.359 168.768 608.14 167.151 608.14 165.152C608.14 163.152 609.348 161.534 610.851 161.534Z" fill="white"/>
<path fill-rule="evenodd" clip-rule="evenodd" d="M664.633 184.826C663.719 184.493 662.724 184.659 661.86 185.097C661.799 185.128 661.738 185.16 661.676 185.193C661.315 185.383 660.936 185.582 660.52 185.53C660.052 185.47 659.916 185.009 659.796 184.604L659.78 184.551L659.767 184.507L659.759 184.478C659.346 183.138 659.24 181.747 659.135 180.356C659.074 179.558 659.014 178.76 658.895 177.973C658.621 176.126 657.991 174.198 656.549 172.923C656.082 172.509 655.564 172.19 655.016 171.933C656.752 170.177 657.382 167.588 657.057 165.18C656.864 163.786 656.387 162.444 655.747 161.197C655.457 160.637 655.116 160.104 654.775 159.571C654.366 158.93 653.957 158.289 653.635 157.604C652.995 156.238 653.046 154.776 653.107 153.306C653.168 151.836 653.29 150.365 653.472 148.905C653.818 145.992 654.387 143.103 655.168 140.276C655.778 138.073 657.707 132.59 658.875 130.439C658.933 130.331 658.991 130.222 659.05 130.113C659.507 129.266 659.976 128.398 660.165 127.445C660.347 126.527 660.215 125.504 659.525 124.818C658.895 124.19 657.971 124.005 657.108 124C656.143 123.995 655.168 124.185 654.224 124.4C653.229 124.628 652.244 124.928 651.289 125.299C649.39 126.037 647.593 127.032 645.978 128.265C645.115 128.921 644.312 129.649 643.541 130.411C643.774 129.378 643.846 128.307 643.734 127.251C643.622 126.237 643.429 124.747 642.353 124.286C641.814 124.053 641.205 124.148 640.657 124.291C640.119 124.434 639.59 124.633 639.083 124.866C638.037 125.356 637.082 126.033 636.239 126.812C634.411 128.498 633.122 130.663 632.035 132.861C630.837 135.25 629.821 137.715 629.06 140.276C628.369 142.579 627.821 145.511 627.506 148.119C627.374 147.786 627.171 147.472 626.927 147.21C626.776 147.058 626.607 146.937 626.442 146.818C626.306 146.72 626.173 146.624 626.054 146.515C625.069 145.601 623.424 145.154 622.814 145.226C622.408 144.912 621.921 144.664 621.362 144.488C620.154 144.108 618.833 144.131 617.676 144.155L617.673 144.155C617.004 144.169 616.324 144.184 615.645 144.369C614.982 144.549 614.393 144.882 613.816 145.207L613.715 145.264C613.482 145.402 613.228 145.545 612.984 145.668C612.233 146.063 611.42 146.344 610.588 146.515C610.019 146.629 608.993 146.735 608.496 146.144C608.496 146.144 608.435 145.945 608.445 145.811C608.455 145.699 608.473 145.592 608.492 145.48L608.496 145.459C608.516 145.344 608.546 145.226 608.597 145.116C608.638 145.002 608.678 144.892 608.749 144.788C608.81 144.683 608.882 144.583 608.973 144.492C608.699 144.564 608.435 144.645 608.181 144.759C608.039 144.811 607.917 144.873 607.795 144.935C607.724 144.968 607.664 145.001 607.603 145.035L607.602 145.035C607.541 145.069 607.48 145.102 607.419 145.14C605.884 146.123 605.668 147.895 605.614 148.336L605.612 148.352C605.602 148.345 605.589 148.338 605.576 148.331C605.563 148.323 605.551 148.316 605.541 148.309C605.276 148.177 605.002 148.062 604.728 147.962L604.627 147.923L604.525 147.891C604.474 147.873 604.422 147.859 604.375 147.845L604.322 147.829L604.272 147.816C604.148 147.782 604.03 147.75 603.896 147.729C603.621 147.667 603.337 147.639 603.063 147.615C603.164 147.686 603.256 147.772 603.337 147.862C603.418 147.953 603.489 148.052 603.56 148.152C603.682 148.357 603.774 148.581 603.835 148.81C603.895 149.004 603.936 149.205 603.966 149.409C603.834 149.376 603.733 149.385 603.631 149.427C603.611 149.328 603.57 149.223 603.499 149.128C603.337 148.919 603.053 148.785 602.789 148.814C602.687 148.552 602.484 148.404 602.23 148.276C601.895 148.114 601.458 148.195 601.204 148.466C601.082 148.604 600.818 148.995 601.194 149.628C601.269 149.755 601.422 149.898 601.572 150.039L601.611 150.075C601.629 150.094 601.649 150.113 601.669 150.132C601.702 150.164 601.733 150.194 601.753 150.218C601.753 150.242 601.753 150.27 601.763 150.298C601.763 150.305 601.765 150.315 601.767 150.327C601.77 150.343 601.773 150.363 601.773 150.379C601.793 150.594 601.864 151.127 602.403 151.25C602.403 151.574 602.504 151.888 602.687 152.15L602.686 152.151C602.676 152.17 602.666 152.188 602.656 152.212C602.453 152.764 602.453 153.435 602.687 153.977C603.012 154.758 603.763 155.091 604.576 155.115C604.616 155.205 604.667 155.296 604.718 155.381C604.84 155.557 604.992 155.714 605.155 155.843C604.525 156.766 603.885 157.99 603.57 159.446C602.981 162.144 603.52 165.28 603.723 166.275C603.174 166.513 602.088 167.036 601.692 167.532C601.123 168.25 601.763 169.687 601.895 169.968C602.108 170.453 602.504 170.896 602.951 171.282C603.398 171.662 603.906 171.986 604.352 172.238C605.561 172.918 607.084 173.475 608.618 173.808C609.349 173.927 610.09 173.97 610.811 173.923C610.943 173.916 611.076 173.904 611.208 173.892L611.21 173.892L611.211 173.892C611.26 173.888 611.31 173.883 611.359 173.879C611.412 173.874 611.465 173.867 611.515 173.86C611.553 173.856 611.589 173.851 611.623 173.847L611.887 173.808C612.253 173.756 612.598 173.68 612.954 173.595C613.015 173.58 613.086 173.561 613.157 173.542L613.154 173.585C613.107 174.352 612.888 177.936 613.157 179.681C613.461 181.637 613.959 182.555 613.959 182.555C613.959 182.555 614.944 184.512 616.041 185.125L615.858 189.595V190.408C615.858 190.57 615.736 191.631 615.574 192.202C615.411 192.774 615.127 193.754 614.914 194.362C614.819 194.645 614.487 195.439 614.137 196.274C613.733 197.236 613.306 198.254 613.197 198.603C613.143 198.779 613.055 199.007 612.96 199.253C612.703 199.92 612.394 200.718 612.558 200.968C612.687 201.176 612.842 201.21 613.053 201.256C613.107 201.267 613.166 201.28 613.228 201.296L614.233 201.559C614.051 202.077 613.939 202.515 613.939 202.772V202.848C614.02 203.543 614.345 203.5 614.345 203.5C614.345 203.5 617.046 203.948 618.316 203.99C619.585 204.029 621.017 203.948 621.707 203.828C621.848 203.803 621.974 203.79 622.086 203.779C622.534 203.732 622.774 203.707 622.936 203.053C623.139 202.239 623.424 199.583 623.424 199.136V194.611C623.424 193.592 622.977 188.775 622.855 188.409C622.733 188.043 622.733 187.881 622.733 187.881L622.53 186.577C622.53 186.577 624.287 186.615 625.394 186.453C626.003 186.363 627.201 186.22 628.125 186.111C628.125 186.111 629.192 187.31 629.608 187.839C630.014 188.366 631.405 190.612 631.69 191.712C631.974 192.811 632.056 193.668 632.056 194.443V195.709C632.056 195.709 631.69 197.627 631.152 199.093C630.623 200.563 630.258 201.335 630.258 201.335C630.258 201.335 629.842 202.111 630.705 202.234C631.558 202.358 633.051 202.525 633.051 202.525C632.919 202.839 632.827 203.114 632.827 203.253V203.296C632.878 203.458 633.122 203.581 634.117 203.786C635.112 203.99 640.2 204.029 641.104 203.786C641.943 203.558 642.03 202.965 642.104 202.456L642.105 202.455L642.111 202.412L642.119 202.358C642.2 201.83 641.875 199.297 641.875 199.297C641.875 199.297 641.307 196.319 641.144 195.057C641.022 194.101 640.474 192.44 639.926 190.998C640.271 190.541 640.647 190.089 641.154 189.817C641.672 189.537 642.373 189.485 642.82 189.928C643.019 190.125 643.165 190.36 643.312 190.595C643.486 190.875 643.661 191.156 643.927 191.374C644.394 191.76 645.023 191.979 645.633 191.926C646.252 191.874 646.811 191.584 647.217 191.136C647.958 191.384 648.72 191.564 649.492 191.654C650.649 191.788 651.858 191.698 652.944 191.279C653.483 191.069 653.97 190.779 654.447 190.45L654.577 190.361C654.971 190.089 655.368 189.815 655.798 189.623C656.834 189.166 657.87 189.48 658.814 189.99C659.155 190.172 659.485 190.372 659.815 190.573C660.447 190.957 661.079 191.34 661.779 191.593C662.957 192.017 664.349 192.093 665.455 191.436C666.298 190.926 668.867 186.358 664.633 184.826ZM650.426 126.28C652.132 125.356 654.082 124.924 656.011 124.652C656.824 124.538 657.717 124.485 658.489 124.809C659.332 125.162 659.708 125.975 659.667 126.856C659.629 127.734 659.214 128.523 658.808 129.297C658.672 129.555 658.537 129.811 658.418 130.068C658.373 130.17 658.272 130.359 658.198 130.496L658.197 130.498C658.154 130.578 658.121 130.64 658.113 130.658C656.874 133.314 655.828 136.05 654.985 138.858C654.153 141.652 653.523 144.507 653.097 147.396C652.894 148.838 652.731 150.28 652.63 151.731C652.62 151.856 652.61 151.981 652.601 152.106C652.495 153.456 652.386 154.853 652.599 156.19C652.82 157.553 653.565 158.72 654.297 159.867L654.326 159.912C655.077 161.092 655.737 162.32 656.133 163.667C656.874 166.137 656.702 169.011 655.016 171.077C654.833 171.296 654.64 171.506 654.427 171.7C653.259 171.262 651.98 171.077 650.741 170.924C650.802 170.624 650.832 170.386 650.832 170.386L650.091 170.915L649.725 171.039C649.36 171.162 648.994 171.12 648.537 170.834C648.09 170.548 647.633 169.896 647.146 168.879C646.658 167.86 645.998 167.165 645.633 166.86C645.267 166.555 644.201 166.284 644.201 166.284C644.201 166.284 644.323 165.942 644.445 165.208C644.566 164.476 643.825 163.334 643.825 163.334C643.683 163.981 643.277 164.519 642.799 164.942C641.164 161.007 639.53 156.933 639.59 152.602C639.62 150.349 639.892 148.081 640.16 145.845L640.18 145.682C640.464 143.383 640.779 141.086 641.246 138.815C642.972 130.32 645.034 129.192 650.426 126.28ZM639.814 158.403C640.454 160.769 641.398 163.043 642.353 165.3C641.855 165.647 641.347 165.899 640.982 166.051C640.513 166.247 639.479 166.437 638.508 166.615C637.69 166.764 636.917 166.906 636.564 167.036C635.782 167.322 635 167.893 634.554 168.421C634.238 168.795 634.125 169.13 633.938 169.683C633.861 169.912 633.771 170.179 633.65 170.501C633.243 171.601 633.193 173.528 633.193 173.528C632.431 173.242 631.629 173.047 630.999 172.985C630.075 172.895 628.989 172.999 628.146 173.19C628.684 172.467 628.897 171.529 629.06 170.653C629.193 169.933 629.323 169.213 629.454 168.493L629.454 168.492L629.456 168.482L629.456 168.48C629.584 167.777 629.712 167.073 629.842 166.37C629.999 165.51 630.162 164.651 630.325 163.792C630.708 161.768 631.092 159.743 631.405 157.708C631.431 157.541 631.462 157.306 631.501 157.013C631.819 154.628 632.653 148.37 635.122 142.851L635.182 142.718C636.594 139.548 638.041 136.302 640.535 133.838C640.601 133.773 640.918 133.523 641.248 133.264C641.526 133.045 641.814 132.819 641.967 132.69C641.002 136.669 640.25 140.705 639.722 144.764C639.428 147.082 639.154 149.418 639.042 151.75C638.93 154.006 639.215 156.229 639.814 158.403ZM631.873 134.508C633.721 130.525 636.26 125.98 640.88 124.828C641.469 124.681 642.16 124.619 642.556 125.162C642.901 125.623 643.084 126.256 643.104 126.817C643.111 127.001 643.128 127.22 643.147 127.46C643.241 128.667 643.379 130.428 642.464 131.186C639.476 133.647 638.314 135.453 637.483 136.745L637.468 136.768C636.463 138.348 635.66 140.053 634.939 141.78C634.198 143.565 633.477 145.368 632.898 147.21C631.306 152.282 630.841 156.198 630.523 158.885C630.41 159.831 630.316 160.626 630.197 161.264L628.633 169.782C628.41 170.986 628.085 172.685 627.09 173.537C626.86 173.64 626.614 173.765 626.355 173.897C625.732 174.212 625.034 174.566 624.317 174.75C624.206 174.78 624.094 174.808 623.982 174.827L624.063 174.684C624.301 174.265 624.541 173.842 624.724 173.385C625.008 172.661 625.17 171.895 625.292 171.129C625.487 169.948 625.622 168.757 625.757 167.567L625.757 167.566C625.798 167.207 625.839 166.847 625.881 166.489C627.232 165.823 628.552 164.89 629.324 163.477C630.177 161.93 630.187 159.974 629.374 158.417V158.413C629.336 158.376 629.398 158.091 629.493 157.656C629.723 156.604 630.146 154.672 629.801 153.221C629.476 151.85 628.958 150.737 627.892 149.903C628.298 144.869 629.74 139.081 631.873 134.508ZM622.205 173.181C622.124 172.419 622.073 171.091 622.042 169.901L622.081 169.851C622.429 169.398 623.335 168.219 623.931 167.684C624.388 167.269 624.937 166.955 625.272 166.779C625.235 167.095 625.199 167.411 625.164 167.727C625.042 168.813 624.919 169.901 624.754 170.977C624.632 171.7 624.48 172.424 624.216 173.114C624.037 173.609 623.775 174.059 623.512 174.512C623.431 174.651 623.35 174.791 623.271 174.931C622.703 174.984 622.317 174.951 622.317 174.951C622.317 174.951 622.367 174.784 622.205 173.181ZM603.743 147.981L603.742 147.98C603.681 147.933 603.621 147.886 603.56 147.843C603.641 147.886 603.723 147.929 603.804 147.976C603.901 148.029 603.992 148.088 604.081 148.146L604.149 148.191C604.18 148.21 604.208 148.229 604.236 148.248C604.264 148.266 604.291 148.286 604.322 148.304L604.403 148.362L604.484 148.424C604.698 148.586 604.901 148.762 605.084 148.947C605.175 149.042 605.266 149.138 605.348 149.233C605.398 149.28 605.439 149.328 605.48 149.38C605.489 149.402 605.507 149.424 605.526 149.446L605.53 149.452C605.535 149.458 605.54 149.463 605.544 149.469C605.55 149.475 605.555 149.482 605.561 149.49C605.561 149.495 605.564 149.502 605.567 149.508C605.569 149.512 605.571 149.516 605.571 149.518C605.571 149.52 605.573 149.523 605.576 149.525C605.578 149.527 605.581 149.53 605.581 149.533C605.581 149.618 605.59 149.704 605.6 149.793L605.601 149.808C605.642 150.18 605.713 150.508 605.784 150.788C605.764 150.77 605.744 150.751 605.723 150.732C605.54 150.575 605.338 150.47 605.134 150.37C605.134 150.332 605.124 150.289 605.114 150.251L605.053 150.037C605.053 150.016 605.045 150.002 605.037 149.987L605.033 149.98L605.012 149.928L604.982 149.827C604.967 149.796 604.954 149.764 604.941 149.732C604.929 149.7 604.916 149.668 604.901 149.637C604.851 149.515 604.791 149.394 604.731 149.272L604.728 149.266C604.606 149.023 604.464 148.79 604.302 148.576C604.139 148.357 603.956 148.152 603.743 147.981ZM601.946 149.742C601.946 149.74 601.943 149.737 601.94 149.734C601.938 149.732 601.935 149.73 601.935 149.728C601.814 149.618 601.661 149.466 601.6 149.385C601.519 149.237 601.397 148.967 601.55 148.79C601.661 148.676 601.875 148.633 602.007 148.704C602.24 148.824 602.332 148.905 602.362 149.08L601.946 149.742ZM602.545 150.788C602.332 150.756 602.281 150.613 602.24 150.317C602.24 150.271 602.23 150.234 602.22 150.196L602.22 150.194L602.789 149.304C602.89 149.261 603.042 149.328 603.124 149.427C603.164 149.48 603.174 149.585 603.184 149.699C603.184 149.721 603.187 149.744 603.19 149.766C603.192 149.789 603.195 149.811 603.195 149.832L602.545 150.788ZM602.89 151.127C603.043 150.908 603.794 149.866 603.814 149.866C603.814 149.866 603.865 149.861 604.007 149.947C604.007 149.951 604.022 149.96 604.046 149.975C604.179 150.06 604.59 150.32 604.149 150.813L603.347 152.145C603.022 151.936 602.829 151.517 602.89 151.127ZM603.184 153.711C603.052 153.35 603.053 152.944 603.144 152.574L603.161 152.584C603.194 152.603 603.221 152.618 603.256 152.631C603.266 152.64 603.286 152.645 603.306 152.645C603.306 152.793 603.317 152.94 603.347 153.087C603.479 153.621 603.885 154.064 604.403 154.239C604.393 154.334 604.403 154.434 604.413 154.529C603.875 154.482 603.388 154.254 603.184 153.711ZM604.525 153.778C604.18 153.649 603.895 153.339 603.814 152.983C603.774 152.788 603.774 152.574 603.784 152.359C603.832 152.286 603.931 152.135 604.049 151.954C604.352 151.49 604.783 150.83 604.82 150.788C604.866 150.812 604.921 150.837 604.979 150.863C605.135 150.934 605.312 151.015 605.409 151.098C605.571 151.236 605.744 151.479 605.703 151.717L604.525 153.778ZM605.114 155.12C604.921 154.815 604.84 154.439 604.901 154.078L606.14 151.907V151.897C606.145 151.893 606.148 151.888 606.15 151.883C606.153 151.879 606.155 151.874 606.16 151.869V151.85C606.16 151.846 606.16 151.846 606.17 151.841L606.17 151.817C606.182 151.82 606.19 151.822 606.199 151.825C606.205 151.827 606.212 151.829 606.221 151.831C606.282 151.874 606.353 151.897 606.434 151.897H606.455C606.576 151.936 606.678 151.974 606.79 152.022C606.911 152.069 607.033 152.131 607.135 152.216C607.287 152.355 607.369 152.564 607.409 152.712C607.46 152.896 607.47 153.1 607.48 153.303L607.48 153.306L607.399 153.449C607.145 153.63 606.912 153.82 606.678 154.03C606.444 154.258 605.957 154.748 605.429 155.453C605.307 155.363 605.195 155.248 605.114 155.12ZM640.657 195.305C641.357 198.036 641.357 200.892 641.357 201.873C641.357 202.853 640.697 203.096 639.763 203.257C638.819 203.419 635.793 203.543 635.051 203.462C634.401 203.39 634.193 203.254 633.926 203.082C633.893 203.06 633.858 203.038 633.822 203.015C633.588 202.868 633.607 202.826 633.975 202.035C634.117 201.729 634.312 201.31 634.564 200.73C635.457 198.65 635.417 195.919 635.295 194.406C635.184 193.033 634.426 191.693 633.862 190.695C633.806 190.596 633.752 190.5 633.7 190.408C633.132 189.39 632.431 188.59 632.431 188.59C632.431 188.59 631.162 187.224 629.811 185.473C628.461 183.722 627.679 181.152 627.679 181.152C627.476 182.537 629.161 185.434 629.161 185.434C626.592 186.125 623.342 186.025 622.418 185.977C622.236 185.059 621.86 183.384 621.504 183.151C621.504 183.151 622.367 189.595 622.489 190.736C622.611 191.878 622.774 194.082 622.733 195.101C622.692 196.119 622.652 199.546 622.652 200.159C622.652 200.773 622.367 201.954 622.286 202.282C622.205 202.605 622.043 203.015 621.098 203.176C620.154 203.338 618.072 203.462 617.087 203.301C616.102 203.139 615.371 202.891 615.371 202.891C615.371 202.891 614.954 202.811 615.157 201.873C615.371 200.935 615.98 198.893 616.305 198.489C616.64 198.079 617.168 195.962 617.168 195.962C617.168 195.962 617.696 194.981 617.899 189.271C617.96 187.733 617.859 183.112 617.859 183.112L617.493 184.988C617.493 184.988 616.142 184.907 615.239 183.274C614.335 181.642 614 180.367 613.827 179.357C613.593 177.978 613.807 174.156 613.857 173.338C613.872 173.332 613.887 173.328 613.901 173.323C613.926 173.316 613.95 173.308 613.969 173.299C614.315 173.185 614.65 173.061 614.975 172.928C615.3 172.795 615.624 172.647 615.939 172.486C616.254 172.329 616.569 172.157 616.873 171.971C616.559 172.128 616.234 172.271 615.909 172.4C615.574 172.528 615.249 172.643 614.903 172.747C614.568 172.851 614.233 172.943 613.888 173.024C613.748 173.058 613.607 173.087 613.472 173.114L613.38 173.133C613.208 173.166 613.036 173.195 612.864 173.223L612.862 173.223C612.517 173.276 612.172 173.318 611.826 173.338L611.705 173.347L611.573 173.352C611.481 173.357 611.4 173.361 611.309 173.361C611.267 173.361 611.224 173.361 611.181 173.361C611.057 173.362 610.929 173.363 610.801 173.357C610.11 173.337 609.43 173.237 608.78 173.071C607.988 172.899 607.216 172.671 606.505 172.4C605.794 172.128 605.134 171.823 604.566 171.49C604.616 171.472 604.667 171.453 604.718 171.429C604.921 171.343 605.114 171.234 605.297 171.095C605.48 170.958 605.642 170.792 605.774 170.587C605.896 170.386 605.977 170.154 605.997 169.925C606.008 169.697 605.967 169.473 605.876 169.283C605.858 169.325 605.843 169.368 605.828 169.41C605.807 169.466 605.787 169.521 605.764 169.573C605.723 169.663 605.683 169.748 605.642 169.825C605.637 169.834 605.63 169.843 605.623 169.852C605.615 169.862 605.607 169.872 605.601 169.882C605.586 169.897 605.577 169.911 605.568 169.924L605.565 169.928L605.561 169.935C605.551 169.954 605.54 169.968 605.52 169.986L605.48 170.034C605.46 170.054 605.441 170.074 605.423 170.094C605.385 170.136 605.348 170.175 605.307 170.21C605.053 170.425 604.749 170.587 604.413 170.734C604.273 170.793 604.129 170.85 603.982 170.908L603.981 170.908C603.916 170.934 603.849 170.96 603.784 170.986C603.195 170.554 602.778 170.097 602.585 169.663L602.24 169.811L602.575 169.649C602.332 169.121 602.088 168.26 602.291 168.008C602.565 167.65 603.672 167.112 604.291 166.86C604.474 166.789 604.566 166.603 604.525 166.423C604.515 166.384 603.652 162.639 604.312 159.612C604.586 158.341 605.165 157.166 605.825 156.209C605.774 156.876 606.079 157.561 606.648 157.937C606.688 157.965 606.729 157.975 606.779 157.975C606.85 157.975 606.932 157.937 606.972 157.87C607.043 157.761 607.013 157.613 606.912 157.542C606.455 157.237 606.211 156.638 606.322 156.105L606.678 155.52C607.165 154.715 607.846 154.044 608.658 153.577C608.993 153.687 609.298 153.806 609.42 154.044C609.471 154.139 609.501 154.254 609.531 154.377C609.572 154.572 609.613 154.767 609.623 154.958C609.623 155.277 609.501 155.596 609.288 155.838C609.206 155.938 609.217 156.086 609.308 156.176C609.349 156.214 609.41 156.238 609.471 156.238C609.532 156.238 609.603 156.209 609.643 156.157C609.938 155.829 610.1 155.395 610.09 154.958C610.09 154.72 610.039 154.496 609.989 154.277L609.982 154.247C609.954 154.111 609.921 153.958 609.836 153.815C609.704 153.563 609.481 153.406 609.227 153.288C610.263 152.845 611.471 152.564 612.791 152.469C614.873 152.322 617.036 152.669 618.59 153.397C618.529 153.678 618.478 153.963 618.448 154.249C618.376 154.853 618.366 155.462 618.397 156.062C618.437 155.462 618.499 154.863 618.641 154.282C618.773 153.701 618.955 153.14 619.24 152.625C619.514 152.112 619.88 151.659 620.316 151.294C620.692 150.979 621.108 150.737 621.555 150.555C624.419 153.126 624.703 155.11 624.815 157.818C624.916 160.141 623.535 162.163 623.21 162.611C623.089 162.696 623.028 162.844 623.058 162.996V163.001C623.109 163.262 623.139 163.533 623.139 163.805C623.139 164.081 623.099 164.357 623.048 164.633C622.946 165.185 622.753 165.732 622.51 166.256C622.39 166.513 622.251 166.765 622.111 167.017L622.103 167.031C621.951 167.284 621.799 167.532 621.626 167.774C621.464 168.017 621.281 168.255 621.098 168.483C620.915 168.716 620.722 168.94 620.519 169.154C620.743 168.964 620.966 168.754 621.169 168.545C621.332 168.383 621.494 168.216 621.647 168.045L621.687 169.101L621.728 169.877L622.002 175.559C622.002 175.559 622.601 175.526 623.19 175.483C623.261 175.477 623.335 175.471 623.408 175.466C623.49 175.46 623.572 175.453 623.647 175.446C623.82 175.431 623.972 175.413 624.084 175.398C624.625 175.321 625.361 174.946 626.948 174.137L627.191 174.013C628.948 173.114 631.649 173.565 632.594 173.808C633.528 174.051 635.163 175.564 635.823 176.54C636.473 177.52 636.392 179.353 636.392 179.353C636.291 179.124 636.219 178.958 636.182 178.866C636.175 178.844 636.167 178.822 636.158 178.801C636.163 178.816 636.171 178.837 636.182 178.866C636.386 179.451 636.309 180.429 636.27 180.818C636.229 181.228 635.62 183.916 635.457 184.45C635.366 184.731 635.376 185.116 635.417 185.416C635.447 185.663 635.62 185.873 635.853 185.954C636.605 186.206 637.214 186.934 637.214 186.934C637.214 186.934 637.58 187.548 638.24 188.585C638.524 189.047 638.9 189.884 639.286 190.908L639.428 191.317C639.875 192.53 640.312 193.944 640.657 195.305ZM645.298 191.351C644.668 191.298 644.17 190.912 643.845 190.389L643.808 190.33L643.773 190.276C643.464 189.794 643.161 189.322 642.596 189.119C642.028 188.914 641.357 189.042 640.84 189.332C640.383 189.59 640.017 189.965 639.702 190.37C639.645 190.224 639.588 190.082 639.534 189.946L639.493 189.846L639.438 189.708C638.778 188.119 638.047 187.058 637.671 186.568C637.433 186.248 636.931 185.981 636.521 185.763C636.302 185.646 636.109 185.543 635.996 185.454C635.762 185.263 635.823 185.173 635.874 185.14C638.047 186.501 640.261 187.776 642.535 188.957L642.89 189.142C644.099 189.776 645.342 190.427 646.628 190.912C646.262 191.231 645.785 191.393 645.298 191.351ZM665.11 190.97C664.145 191.517 662.947 191.398 661.932 191.036C661.293 190.807 660.678 190.43 660.06 190.051C658.84 189.302 657.606 188.545 656.143 188.899C655.455 189.067 654.879 189.461 654.302 189.857C654.01 190.056 653.718 190.256 653.412 190.427C652.427 190.984 651.269 191.222 650.152 191.131C647.599 190.928 644.64 189.412 643.417 188.786L643.378 188.766C640.89 187.486 638.463 186.101 636.097 184.611L636.137 184.476C636.204 184.25 636.289 183.962 636.382 183.613C636.493 183.188 636.605 182.67 636.727 182.051C637.098 180.112 636.994 179.504 636.757 178.108C636.734 177.975 636.711 177.836 636.686 177.687C636.595 177.173 636.493 176.769 636.371 176.43C636.371 176.43 637.539 175.36 638.118 175.16C638.687 174.956 639.184 175.321 639.306 175.607C639.428 175.893 639.469 176.34 639.184 176.545C638.89 176.749 638.077 177.402 638.077 177.402C638.413 177.892 639.428 178.096 640.129 178.054C640.819 178.015 641.317 177.483 641.317 177.483C641.154 178.177 640.332 180.052 640.332 180.052C640.9 179.928 642.749 179.071 642.749 179.071L643.48 179.233C644.79 179.315 645.887 178.615 646.262 178.172C646.506 177.893 646.591 177.577 646.658 177.33C646.727 177.073 646.776 176.892 646.963 176.906C649.624 177.111 650.395 175.478 650.395 175.478C650.395 175.478 649.867 175.355 649.299 175.274C648.72 175.193 648.354 174.703 648.029 174.256C647.694 173.808 647.694 173.181 647.694 173.181C647.694 173.181 648.476 172.909 648.882 172.809C649.299 172.709 649.908 172.424 650.314 171.971C650.436 171.848 650.528 171.666 650.599 171.472C652.386 171.691 654.275 171.957 655.778 173.028C657.301 174.122 657.981 175.974 658.296 177.758C658.459 178.676 658.529 179.605 658.599 180.534C658.686 181.686 658.773 182.836 659.037 183.964C659.149 184.459 659.281 184.988 659.515 185.444C659.708 185.844 660.094 186.063 660.53 186.101C661.008 186.144 661.454 185.954 661.871 185.739C662.287 185.525 662.683 185.325 663.15 185.259C664.145 185.12 665.181 185.506 665.841 186.258C667.131 187.719 665.79 190.584 665.11 190.97Z" fill="white"/>
<path d="M412.5 509.523V510.023H413H414.201H414.701V509.523V498.159C414.92 498.387 415.153 498.603 415.399 498.808L415.403 498.811C416.027 499.321 416.694 499.749 417.414 500.094C418.134 500.459 418.883 500.729 419.662 500.916C420.443 501.103 421.216 501.198 421.982 501.198C423.783 501.198 425.336 500.803 426.638 500.013L426.642 500.011C427.905 499.228 428.922 498.232 429.699 497.015L429.7 497.013C430.456 495.812 431.031 494.431 431.41 492.906L431.41 492.905C431.786 491.381 431.98 489.881 431.98 488.407V487.94H431.98L431.98 487.931C431.95 486.312 431.726 484.696 431.32 483.074C430.908 481.425 430.226 479.963 429.269 478.694L429.269 478.694L429.264 478.687C428.437 477.63 427.42 476.78 426.238 476.152C425.029 475.5 423.594 475.18 421.942 475.18C421.125 475.18 420.316 475.285 419.508 475.505L419.508 475.505L419.503 475.506C418.731 475.726 417.977 476.039 417.274 476.449C416.576 476.856 415.919 477.346 415.306 477.928L415.306 477.928L415.303 477.931C415.09 478.136 414.89 478.35 414.701 478.573V476.126V475.626H414.201H413H412.5V476.126V509.523ZM429.275 492.322L429.275 492.322L429.273 492.328C429.007 493.63 428.534 494.792 427.875 495.809L427.874 495.81C427.281 496.728 426.501 497.491 425.527 498.11C424.6 498.686 423.436 498.996 422.012 498.996C421.265 498.996 420.515 498.894 419.748 498.696C418.99 498.489 418.289 498.19 417.623 497.796C416.972 497.405 416.375 496.921 415.842 496.352C415.358 495.795 414.975 495.162 414.701 494.451V482.721C414.971 481.934 415.336 481.221 415.787 480.59C416.287 479.911 416.846 479.335 417.482 478.874L417.482 478.874L417.486 478.871C418.128 478.396 418.826 478.033 419.58 477.782L419.58 477.782L419.588 477.779C420.345 477.511 421.142 477.381 421.962 477.381C423.304 477.381 424.416 477.655 425.309 478.16L425.311 478.161C426.242 478.683 427.01 479.349 427.621 480.162C428.364 481.237 428.904 482.458 429.237 483.848L429.237 483.848L429.239 483.853C429.586 485.235 429.76 486.604 429.76 487.94V488.401C429.73 489.675 429.566 490.981 429.275 492.322ZM440.155 465.5H439.655V466V467.201V467.701H440.155H448.597V498.55H440.155H439.655V499.05V500.251V500.751H440.155H458.774H459.274V500.251V499.05V498.55H458.774H450.798V466V465.5H450.298H440.155ZM475.594 497.025L475.434 497.396L475.235 496.98L475.233 496.977L465.3 475.913L465.165 475.626H464.848H463.438H462.651L462.986 476.339L474.214 500.219L472.639 503.84C472.332 504.511 471.989 505.129 471.612 505.676L471.61 505.677C471.227 506.238 470.803 506.707 470.33 507.089L470.329 507.09C469.848 507.48 469.313 507.78 468.713 507.989L468.713 507.989L468.706 507.991C468.117 508.206 467.453 508.309 466.694 508.309C466.409 508.309 466.115 508.29 465.831 508.254C465.695 508.233 465.569 508.215 465.447 508.197C465.269 508.171 465.102 508.147 464.933 508.117L464.326 508.013L464.348 508.628L464.388 509.769L464.401 510.162L464.786 510.242C465.133 510.313 465.479 510.374 465.815 510.425L465.824 510.426L465.833 510.427C466.186 510.468 466.536 510.5 466.892 510.5C467.923 510.5 468.86 510.344 469.683 510.019C470.487 509.712 471.213 509.286 471.856 508.719C472.478 508.18 473.014 507.549 473.482 506.811C473.967 506.109 474.396 505.319 474.773 504.466C474.773 504.465 474.773 504.464 474.774 504.463L487.456 476.332L487.774 475.626H487H485.551H485.228L485.095 475.921L475.597 497.018L475.597 497.018L475.594 497.025Z" fill="white" stroke="white"/>
<path d="M236.5 190.397V145H245.313C245.299 146.546 245.308 148.094 245.316 149.641C245.339 153.767 245.361 157.892 244.972 162.006C245.542 161.664 246.031 161.092 246.538 160.499C247.208 159.716 247.908 158.898 248.867 158.528C250.561 157.549 252.528 157.163 254.466 157.169C258.332 157.023 262.11 159.162 264.018 162.557C264.71 163.744 265.245 165 265.645 166.293H255.732C254.758 165.056 253.385 164.221 251.642 164.29C249.276 164.146 246.773 165.463 246.072 167.85C245.04 171.03 245.225 174.466 245.576 177.747C245.848 180.254 247.163 183.016 249.84 183.556C252.139 184.251 254.865 183.464 256.063 181.261C256.706 180.138 257.124 178.928 257.368 177.677H266.463C266.434 178.018 266.387 178.354 266.34 178.692L266.336 178.719C265.713 183.568 263.074 188.73 258.215 190.361C253.755 191.845 248.214 190.776 245.313 186.813C244.702 186.616 244.541 187.101 244.38 187.589C244.314 187.785 244.249 187.983 244.154 188.136L243.229 190.397H236.5Z" fill="white"/>
<path d="M282.721 190.891C282.471 190.926 282.218 190.961 281.965 190.979C281.95 190.98 281.935 190.98 281.921 190.979C281.908 190.979 281.896 190.978 281.887 190.979C281.833 190.982 281.779 190.981 281.725 190.98C281.681 190.979 281.638 190.978 281.595 190.979C281.465 190.983 281.331 190.982 281.196 190.98C281.128 190.98 281.059 190.979 280.991 190.979C280.251 190.979 279.53 190.923 278.81 190.838L278.021 185.791C276.58 185.471 275.255 184.911 274.019 184.174L269.715 187.149C268.556 186.256 267.504 185.196 266.579 184.057L269.559 179.946C268.741 178.707 268.089 177.324 267.699 175.847L262.636 174.91C262.509 174.015 262.392 173.111 262.392 172.181C262.392 171.645 262.411 171.136 262.45 170.611L267.426 169.815C267.709 168.171 268.264 166.628 269.062 165.235L266.102 160.926C266.939 159.809 267.913 158.772 268.965 157.868L273.006 160.855C274.389 159.864 275.986 159.126 277.67 158.7L278.625 153.559C279.404 153.457 280.183 153.43 280.991 153.43C281.565 153.43 282.15 153.437 282.705 153.488L283.493 158.513C285.275 158.84 286.921 159.497 288.391 160.445L292.608 157.529C293.669 158.386 294.653 159.353 295.5 160.422L292.52 164.545C292.958 165.215 293.338 165.932 293.659 166.676H281.575C281.38 166.657 281.186 166.641 280.991 166.641C277.875 166.641 275.333 169.186 275.333 172.334C275.333 175.343 277.651 177.825 280.582 178.037V178.049H293.523C293.241 178.663 292.92 179.248 292.559 179.806L295.422 184.034C294.526 185.14 293.513 186.167 292.394 187.043L288.255 184.034C286.979 184.83 285.568 185.422 284.068 185.767L283.153 190.838H283.123C282.99 190.854 282.856 190.872 282.721 190.891Z" fill="white"/>
<path d="M69.8458 174.211C70.1789 177.897 69.3568 184.804 67.1724 190.028C64.5727 189.59 61.7168 189.275 58.5737 189.139C58.0551 189.117 57.5177 189.075 56.975 189.007C59.6291 184.161 62.1763 177.419 61.614 170.772C61.0441 164.036 62.376 160.485 64.2082 158.519C66.0523 156.54 68.4961 156.053 70.4708 155.669L70.4718 155.668C70.6363 155.636 70.7982 155.605 70.9551 155.573C73.4095 155.079 76.9062 153.662 80.3673 151.606C83.6362 149.665 86.9153 147.13 89.276 144.216C90.477 145.88 91.6367 147.783 92.711 149.892C93.2324 150.942 93.9209 152.254 94.7034 153.7C92.0767 156.782 88.2752 159.866 83.604 160.519C78.0867 161.29 74.4119 162.464 72.2348 164.621C70.0232 166.813 69.4569 169.908 69.8458 174.211Z" stroke="white"/>
<path d="M76.0619 192.746C78.1583 188.594 80.0842 182.748 80.0842 175.713C80.0842 169.266 87.7742 165.914 92.9009 166.43C95.1267 166.43 98.5695 165.77 101.569 164.74C99.6185 161.487 97.2027 157.256 95.3051 153.762C92.6381 156.968 88.6532 160.318 83.6728 161.014C72.6504 162.554 69.5744 165.656 70.3434 174.166C70.6915 178.018 69.8107 185.245 67.4766 190.587C70.7303 191.155 73.5707 191.915 76.0619 192.746Z" fill="white"/>
<path d="M92.8495 166.927L92.8744 166.93H92.8995C95.1005 166.93 98.405 166.31 101.347 165.342C102.472 167.211 103.434 168.736 104.029 169.559C104.409 170.085 104.833 170.655 105.283 171.26L105.284 171.262C105.728 171.858 106.198 172.489 106.679 173.15H99.0516C97.4229 173.15 95.0515 173.691 92.9942 175.037C90.9212 176.394 89.1521 178.581 88.8135 181.851C88.2321 187.466 86.17 192.118 84.0269 195.473C82.0113 194.511 79.622 193.441 76.7621 192.456C78.7856 188.285 80.5828 182.554 80.5828 175.713C80.5828 172.716 82.3638 170.406 84.8309 168.886C87.3052 167.362 90.4003 166.681 92.8495 166.927Z" stroke="white"/>
<path d="M93.1685 199.496C95.1604 196.465 97.2852 192.353 98.2835 187.834C99.7124 181.365 107.079 180.296 111.949 180.639C110.746 178.156 109.17 175.767 107.657 173.65H99.0525C95.9765 173.65 89.9526 175.713 89.3118 181.903C88.699 187.821 86.4689 192.682 84.208 196.114C84.696 196.349 85.1618 196.577 85.607 196.795C87.2748 197.61 88.6532 198.285 89.8242 198.665C90.7574 198.968 91.8962 199.261 93.1685 199.496Z" fill="white"/>
<path d="M89.2876 143.389C84.6279 149.522 75.6193 154.125 70.8551 155.083C70.6998 155.114 70.5391 155.146 70.374 155.178C66.4503 155.941 59.9629 157.203 61.1143 170.814C61.6894 177.611 58.9389 184.552 56.1832 189.397C51.299 188.584 46.3767 185.602 50.6044 176.745C51.7123 174.424 52.0906 166.172 50.8602 162.046C50.0143 159.209 50.9635 152.917 56.5003 151.473C62.6524 149.868 67.2151 147.089 70.0861 141.931C71.6241 139.168 74.0849 136 78.8015 136C81.9434 136 85.7782 138.708 89.2876 143.389Z" fill="white"/>
<path d="M104.008 182.147C106.442 181.191 109.283 180.985 111.623 181.119C113.643 185.396 114.423 189.778 111.964 193.489C109.86 196.664 106.677 198.316 103.256 199.038C100.111 199.702 96.7903 199.574 93.9978 199.131C95.8866 196.139 97.8246 192.227 98.7711 187.942C99.4405 184.911 101.49 183.137 104.008 182.147Z" stroke="white"/>
<path d="M304.963 477.144C303.841 475.557 302.46 474.321 301.014 473.609C299.395 472.811 297.863 472.811 296.741 473.577C295.122 474.726 294.885 477.232 295.91 479.913L278.398 482.091C278.398 482.091 278.398 482.091 278.376 482.091C278.225 480.383 277.492 478.501 276.305 476.794C275.959 476.291 275.538 475.787 275.128 475.349C275.096 475.317 275.096 475.317 275.074 475.295C274.125 474.321 273.089 473.522 271.999 473.051C270.262 472.252 268.611 472.285 267.403 473.139L260.184 479.005L257.972 476.466L263.81 471.869L250.333 459L239.456 467.306L250.711 482.211L256.375 477.735L258.62 480.296L254.875 483.327C254.789 483.305 254.724 483.272 254.638 483.24L254.606 483.327C254.347 483.305 254.077 483.272 253.753 483.24C252.545 483.218 251.304 483.48 250.063 483.984L242.877 487.135C242.64 487.19 242.402 487.278 242.197 487.398L233.295 488.46C233.231 488.306 233.144 488.186 233.079 488.044C231.429 485.155 228.602 483.798 226.627 484.925C224.685 486.041 224.447 489.193 226.098 492.082C227.361 494.292 229.314 495.584 231.051 495.584C231.58 495.584 232.087 495.463 232.551 495.201C233.964 494.38 234.472 492.52 234.029 490.462L240.719 489.663C240.579 490.583 240.633 491.666 240.956 492.935C241.517 495.168 242.78 497.762 244.528 500.213C247.301 504.131 251.045 507.425 253.84 507.425C254.465 507.425 255.048 507.249 255.555 506.899C255.814 506.724 256.019 506.483 256.203 506.254L262.946 499.031C263.507 498.44 263.896 497.74 264.047 496.941V496.908C264.047 496.908 264.047 496.908 264.047 496.886L264.22 496.525C264.835 496.022 266.906 494.347 269.259 492.432L271.179 494.61L264.306 499.885L277.459 517L295.209 502.806L279.466 488.219L272.798 493.351L270.856 491.108C271.33 490.725 271.827 490.309 272.302 489.926L276.725 486.369C277.049 486.129 277.308 485.866 277.513 485.571C277.934 485.188 278.16 484.717 278.311 484.181L296.86 481.883C297.011 482.091 297.119 482.331 297.27 482.539C299.104 485.133 301.575 486.665 303.582 486.665C304.283 486.665 304.942 486.479 305.492 486.096C307.704 484.564 307.445 480.646 304.963 477.144ZM250.182 461.714L254.023 465.358L245.466 471.815L242.37 467.689L250.182 461.714ZM246.675 473.467L255.523 466.803L260.681 471.727L251.099 479.3L246.675 473.467ZM231.547 493.406C230.76 493.877 229.012 492.968 227.922 491.053C226.8 489.105 226.864 487.157 227.663 486.72C227.803 486.632 227.954 486.599 228.159 486.599C229.044 486.599 230.404 487.518 231.31 489.072C232.411 490.988 232.346 492.935 231.547 493.406ZM277.837 514.056L272.884 507.6L286.123 497.149L292.08 502.653L277.837 514.056ZM284.591 495.737L271.622 505.958L267.23 500.235L279.369 490.9L284.591 495.737ZM268.644 474.813C269.237 474.43 270.143 474.463 271.179 474.934C271.74 475.196 272.302 475.557 272.83 476.028L266.432 481.215C265.579 480.449 264.511 479.617 263.486 479.005L268.644 474.813ZM261.738 480.416C262.483 480.734 263.367 481.357 264.166 482.003L258.911 486.282C258.263 485.625 257.53 484.98 256.785 484.421L261.738 480.416ZM250.894 485.921C251.833 485.516 252.782 485.33 253.721 485.33C254.228 485.33 254.487 485.417 254.573 485.45C255.674 486.008 257.001 487.245 258.058 488.339L258.501 488.843L252.458 493.494C250.624 491.053 248.445 488.952 246.416 487.836L250.894 485.921ZM246.2 498.998C244.614 496.733 243.459 494.402 242.963 492.399C242.488 490.583 242.726 489.609 243.082 489.28L243.492 489.105C243.546 489.105 243.611 489.105 243.665 489.105C244.614 489.105 246.265 489.959 248.088 491.699C248.067 491.699 248.002 491.732 247.97 491.754C246.88 492.52 247.322 494.993 248.952 497.291C250.484 499.447 252.48 500.683 253.635 500.18C254.228 502.183 254.465 504.131 254.552 504.951L254.314 505.192C253.225 505.838 249.599 503.802 246.2 498.998ZM304.38 484.389C303.377 485.1 300.863 483.951 299.039 481.325C297.216 478.709 296.946 475.962 297.95 475.262C298.155 475.109 298.392 475.054 298.683 475.054C299.104 475.054 299.6 475.174 300.129 475.437C301.251 475.962 302.406 477.024 303.312 478.326C305.114 480.942 305.384 483.688 304.38 484.389Z" fill="white"/>
<defs>
<linearGradient id="paint0_linear" x1="624" y1="233" x2="460" y2="423" gradientUnits="userSpaceOnUse">
<stop stop-color="white" stop-opacity="0.1"/>
<stop offset="1" stop-color="white"/>
</linearGradient>
<linearGradient id="paint1_linear" x1="256" y1="233" x2="92" y2="423" gradientUnits="userSpaceOnUse">
<stop stop-color="white" stop-opacity="0.1"/>
<stop offset="1" stop-color="white"/>
</linearGradient>
<linearGradient id="paint2_linear" x1="348" y1="73" x2="184" y2="263" gradientUnits="userSpaceOnUse">
<stop stop-color="white" stop-opacity="0.1"/>
<stop offset="1" stop-color="white"/>
</linearGradient>
<linearGradient id="paint3_linear" x1="164" y1="73" x2="4.89267e-06" y2="263" gradientUnits="userSpaceOnUse">
<stop stop-color="white" stop-opacity="0.1"/>
<stop offset="1" stop-color="white"/>
</linearGradient>
<linearGradient id="paint4_linear" x1="716" y1="73" x2="552" y2="263" gradientUnits="userSpaceOnUse">
<stop stop-color="white" stop-opacity="0.1"/>
<stop offset="1" stop-color="white"/>
</linearGradient>
<linearGradient id="paint5_linear" x1="532" y1="393" x2="368" y2="583" gradientUnits="userSpaceOnUse">
<stop stop-color="white" stop-opacity="0.1"/>
<stop offset="1" stop-color="white"/>
</linearGradient>
<linearGradient id="paint6_linear" x1="348" y1="393" x2="184" y2="583" gradientUnits="userSpaceOnUse">
<stop stop-color="white" stop-opacity="0.1"/>
<stop offset="1" stop-color="white"/>
</linearGradient>
<linearGradient id="paint7_linear" x1="716" y1="393" x2="552" y2="583" gradientUnits="userSpaceOnUse">
<stop stop-color="white" stop-opacity="0.1"/>
<stop offset="1" stop-color="white"/>
</linearGradient>
</defs>
</svg>
