<svg width="217" height="120" viewBox="0 0 217 120" fill="none" xmlns="http://www.w3.org/2000/svg">
<path d="M221 32L241 20V-2L221 -14L201 -2V20L221 32Z" stroke="#1A1A1A"/>
<path d="M201 66L221 54V32L201 20L181 32V54L201 66Z" stroke="#1A1A1A"/>
<path d="M161 66L181 54V32L161 20L141 32V54L161 66Z" stroke="#1A1A1A"/>
<path d="M121 66L141 54V32L121 20L101 32V54L121 66Z" stroke="#1A1A1A"/>
<path d="M101 100L121 88V66L101 54L81 66V88L101 100Z" stroke="#1A1A1A"/>
<path d="M81 134L101 122V100L81 88L61 100V122L81 134Z" stroke="#1A1A1A"/>
<path d="M121 134L141 122V100L121 88L101 100V122L121 134Z" stroke="#1A1A1A"/>
<path d="M101 32L121 20V-2L101 -14L81 -2V20L101 32Z" stroke="#1A1A1A"/>
<path d="M61 32L81 20V-2L61 -14L41 -2V20L61 32Z" stroke="#1A1A1A"/>
<path d="M81 66L101 54V32L81 20L61 32V54L81 66Z" stroke="#1A1A1A"/>
<path d="M61 100L81 88V66L61 54L41 66V88L61 100Z" stroke="#1A1A1A"/>
<path d="M21 100L41 88V66L21 54L1 66V88L21 100Z" stroke="#1A1A1A"/>
<path d="M221 100L241 88V66L221 54L201 66V88L221 100Z" stroke="#1A1A1A"/>
<path d="M181 100L201 88V66L181 54L161 66V88L181 100Z" stroke="#1A1A1A"/>
<path d="M141 100L161 88V66L141 54L121 66V88L141 100Z" stroke="#1A1A1A"/>
<path d="M161 134L181 122V100L161 88L141 100V122L161 134Z" stroke="#1A1A1A"/>
<path d="M141 32L161 20V-2L141 -14L121 -2V20L141 32Z" stroke="#1A1A1A"/>
<path d="M201 134L221 122V100L201 88L181 100V122L201 134Z" stroke="#1A1A1A"/>
</svg>
