<svg width="1600" height="299" viewBox="0 0 1600 299" fill="none" xmlns="http://www.w3.org/2000/svg">
<g opacity="0.05">
<path d="M53.3333 229.5L106.667 259.74M53.3333 229.5L0 259.74V322M53.3333 229.5V167.241M106.667 259.74V322M106.667 259.74L160 229.5M53.3333 44.5001L106.667 74.7406M53.3333 44.5001L0 74.7406V137L53.3333 167.241M53.3333 44.5001L53.3334 -17.7596L106.667 -48L160 -17.7596M106.667 74.7406V137M106.667 74.7406L160 44.5001M106.667 137L53.3333 167.241M106.667 137L160 167.241M160 229.5L213.333 259.74M160 229.5V167.241M213.333 259.74V322M213.333 259.74L266.667 229.5M160 44.5001L213.333 74.7406M160 44.5001L160 -17.7596M213.333 74.7406V137M213.333 74.7406L266.667 44.5001M213.333 137L160 167.241M213.333 137L266.667 167.241M266.667 229.5L320 259.74M266.667 229.5V167.241M320 259.74V322M320 259.74L373.333 229.5M266.667 44.5001L320 74.7406M266.667 44.5001L266.667 -17.7596M320 74.7406V137M320 74.7406L373.333 44.5001M320 137L266.667 167.241M320 137L373.333 167.241M373.333 229.5L426.667 259.74M373.333 229.5V167.241M426.667 259.74V322M426.667 259.74L480 229.5M480 229.5L533.333 259.74M480 229.5V167.241M533.333 259.74V322M533.333 259.74L586.667 229.5M373.333 44.5001L426.667 74.7406M373.333 44.5001L373.334 -17.7596M426.667 74.7406V137M426.667 74.7406L480 44.5001M426.667 137L373.333 167.241M426.667 137L480 167.241M480 44.5001L533.333 74.7406M480 44.5001L480 -17.7596M533.333 74.7406V137M533.333 74.7406L586.667 44.5001M533.333 137L480 167.241M533.333 137L586.667 167.241M586.667 229.5L640 259.74M586.667 229.5V167.241M640 259.74V322M640 259.74L693.333 229.5M586.667 44.5001L640 74.7406M586.667 44.5001L586.667 -17.7596M640 74.7406V137M640 74.7406L693.333 44.5001M640 137L586.667 167.241M640 137L693.333 167.241M693.333 229.5L746.667 259.74M693.333 229.5V167.241M746.667 259.74V322M746.667 259.74L800 229.5M693.333 44.5001L746.667 74.7406M693.333 44.5001L693.333 -17.7596M746.667 74.7406V137M746.667 74.7406L800 44.5001M746.667 137L693.333 167.241M746.667 137L800 167.241M800 229.5L853.333 259.74M800 229.5V167.241M853.333 259.74V322M853.333 259.74L906.667 229.5M800 44.5001L853.333 74.7406M800 44.5001L800 -17.7596M853.333 74.7406V137M853.333 74.7406L906.667 44.5001M853.333 137L800 167.241M853.333 137L906.667 167.241M906.667 229.5L960 259.74M906.667 229.5V167.241M960 259.74V322M960 259.74L1013.33 229.5M906.667 44.5001L960 74.7406M906.667 44.5001L906.667 -17.7596M960 74.7406V137M960 74.7406L1013.33 44.5001M960 137L906.667 167.241M960 137L1013.33 167.241M1013.33 229.5L1066.67 259.74M1013.33 229.5V167.241M1066.67 259.74V322M1066.67 259.74L1120 229.5M1120 229.5L1173.33 259.74M1120 229.5V167.241M1173.33 259.74V322M1173.33 259.74L1226.67 229.5M1226.67 229.5L1280 259.74M1226.67 229.5V167.241M1280 259.74V322M1280 259.74L1333.33 229.5M1333.33 229.5L1386.67 259.74M1333.33 229.5V167.241M1386.67 259.74V322M1386.67 259.74L1440 229.5M1440 229.5L1493.33 259.74M1440 229.5V167.241M1493.33 259.74V322M1493.33 259.74L1546.67 229.5M1546.67 229.5L1600 259.74V322M1546.67 229.5V167.241M1013.33 44.5001L1066.67 74.7406M1013.33 44.5001L1013.33 -17.7596M1066.67 74.7406V137M1066.67 74.7406L1120 44.5001M1066.67 137L1013.33 167.241M1066.67 137L1120 167.241M1120 44.5001L1173.33 74.7406M1120 44.5001L1120 -17.7596M1173.33 74.7406V137M1173.33 74.7406L1226.67 44.5001M1173.33 137L1120 167.241M1173.33 137L1226.67 167.241M1226.67 44.5001L1280 74.7406M1226.67 44.5001L1226.67 -17.7596M1280 74.7406V137M1280 74.7406L1333.33 44.5001M1280 137L1226.67 167.241M1280 137L1333.33 167.241M1333.33 44.5001L1386.67 74.7406M1333.33 44.5001L1333.33 -17.7596M1386.67 74.7406V137M1386.67 74.7406L1440 44.5001M1386.67 137L1333.33 167.241M1386.67 137L1440 167.241M1440 44.5001L1493.33 74.7406M1440 44.5001L1440 -17.7596M1493.33 74.7406V137M1493.33 74.7406L1546.67 44.5001M1493.33 137L1440 167.241M1493.33 137L1546.67 167.241M1546.67 44.5001L1600 74.7406V137L1546.67 167.241M1546.67 44.5001L1546.67 -17.7596L1493.33 -48L1440 -17.7596M160 -17.7596L213.333 -48L266.667 -17.7596M266.667 -17.7596L320 -48L373.334 -17.7596M373.334 -17.7596L426.667 -48L480 -17.7596M480 -17.7596L533.333 -48L586.667 -17.7596M586.667 -17.7596L640 -48L693.333 -17.7596M693.333 -17.7596L746.667 -48L800 -17.7596M800 -17.7596L853.333 -48L906.667 -17.7596M906.667 -17.7596L960 -48L1013.33 -17.7596M1013.33 -17.7596L1066.67 -48L1120 -17.7596M1120 -17.7596L1173.33 -48L1226.67 -17.7596M1226.67 -17.7596L1280 -48L1333.33 -17.7596M1333.33 -17.7596L1386.67 -48L1440 -17.7596" stroke="#1A1A1A"/>
</g>
<path d="M328 36L358 51.7681V84.2319L388 100" stroke="url(#paint0_linear)"/>
<path d="M1272 36L1242 51.7681V84.2319L1212 100" stroke="url(#paint1_linear)"/>
<path d="M54 229.45L107 259.847L160 229.5V167.5L213 137L213.5 74.5L266.5 44.5L320 75V137L373.5 167L426.5 137L480 167.5V229.5L533 259.5L586.5 229.5L640 259.5L693.5 229.5L747 259.5L800 229.5L853.5 259.5L906.5 229.5L960 259.5L1013.5 229.5L1067 260L1120 229.5V167L1173.5 137L1227 167L1280.5 136.5V74.5L1333.5 45L1387 74.5V136.5L1440 167.5V229.5L1493.5 259.5L1546.5 229.5" stroke="#FFE100" stroke-width="4" stroke-linecap="round" stroke-dasharray="0.01 10"/>
<path d="M640 74.5L693.5 44.5L746.5 74.5L800 44.5L853.5 74.5L906.5 44.5L960 74.5" stroke="#FFE100" stroke-width="4" stroke-linecap="round" stroke-dasharray="0.01 10"/>
<path d="M1333.5 89.7701L1346.33 96.8125V112.188L1333.5 119.23L1320.68 112.188V96.8125L1333.5 89.7701Z" stroke="#1A1A1A" stroke-width="1.35"/>
<path d="M1398 184.413V200.587L1384.5 208L1371 200.587V184.413L1384.5 177L1398 184.413Z" fill="#1A1A1A"/>
<path d="M1384.5 207.118V239.244L1425 262" stroke="url(#paint2_linear)" stroke-width="0.669291"/>
<path d="M1296 184.413V200.587L1282.5 208L1269 200.587V184.413L1282.5 177L1296 184.413Z" fill="#FFE100"/>
<path d="M1282.5 207.472V239.976L1242 263" stroke="url(#paint3_linear)"/>
<path d="M267.5 89.7701L280.325 96.8125V112.188L267.5 119.23L254.675 112.188V96.8125L267.5 89.7701Z" stroke="#1A1A1A" stroke-width="1.35"/>
<path d="M341 184.413V200.587L327.5 208L314 200.587V184.413L327.5 177L341 184.413Z" fill="#1A1A1A"/>
<path d="M327.5 207.118V239.244L368 262" stroke="url(#paint4_linear)" stroke-width="0.669291"/>
<path d="M229 184.413V200.587L215.5 208L202 200.587V184.413L215.5 177L229 184.413Z" fill="#FFE100"/>
<path d="M215.5 207.472V239.976L175 263" stroke="url(#paint5_linear)"/>
<defs>
<linearGradient id="paint0_linear" x1="328" y1="36" x2="382.922" y2="104.095" gradientUnits="userSpaceOnUse">
<stop stop-color="#1A1A1A" stop-opacity="0"/>
<stop offset="0.526042" stop-color="#1A1A1A"/>
<stop offset="1" stop-color="#1A1A1A" stop-opacity="0"/>
</linearGradient>
<linearGradient id="paint1_linear" x1="1272" y1="36" x2="1217.08" y2="104.095" gradientUnits="userSpaceOnUse">
<stop stop-color="#1A1A1A" stop-opacity="0"/>
<stop offset="0.526042" stop-color="#1A1A1A"/>
<stop offset="1" stop-color="#1A1A1A" stop-opacity="0"/>
</linearGradient>
<linearGradient id="paint2_linear" x1="1384.5" y1="207.118" x2="1424.55" y2="262.324" gradientUnits="userSpaceOnUse">
<stop stop-color="#1A1A1A"/>
<stop offset="1" stop-color="#1A1A1A" stop-opacity="0"/>
</linearGradient>
<linearGradient id="paint3_linear" x1="1282.5" y1="207.472" x2="1241.83" y2="262.876" gradientUnits="userSpaceOnUse">
<stop stop-color="#FFE100"/>
<stop offset="1" stop-color="#FFE100" stop-opacity="0"/>
</linearGradient>
<linearGradient id="paint4_linear" x1="327.5" y1="207.118" x2="367.553" y2="262.324" gradientUnits="userSpaceOnUse">
<stop stop-color="#1A1A1A"/>
<stop offset="1" stop-color="#1A1A1A" stop-opacity="0"/>
</linearGradient>
<linearGradient id="paint5_linear" x1="215.5" y1="207.472" x2="174.831" y2="262.876" gradientUnits="userSpaceOnUse">
<stop stop-color="#FFE100"/>
<stop offset="1" stop-color="#FFE100" stop-opacity="0"/>
</linearGradient>
</defs>
</svg>
