<svg width="264" height="416" viewBox="0 0 264 416" fill="none" xmlns="http://www.w3.org/2000/svg">
<g opacity="0.05">
<path d="M133 122L94 144.5V189.5L133 212L172 189.5V144.5L133 122Z" fill="white"/>
<path d="M77 145.078L39 123.154L1 145.078V188.922L39 210.846L77 188.922V145.078Z" stroke="white" stroke-width="2"/>
<path d="M218 227.078L180 205.154L142 227.078V270.922L180 292.846L218 270.922V227.078Z" stroke="white" stroke-width="2"/>
<path d="M218 391.078L180 369.154L142 391.078V434.922L180 456.846L218 434.922V391.078Z" stroke="white" stroke-width="2"/>
<path d="M265 145.078L227 123.154L189 145.078V188.922L227 210.846L265 188.922V145.078Z" stroke="white" stroke-width="2"/>
<path d="M133 286L94 308.5V353.5L133 376L172 353.5V308.5L133 286Z" fill="white"/>
<path d="M265 309.078L227 287.154L189 309.078V352.922L227 374.846L265 352.922V309.078Z" stroke="white" stroke-width="2"/>
<path d="M227 -42L188 -19.5V25.5L227 48L266 25.5V-19.5L227 -42Z" fill="white"/>
<path d="M218 63.0776L180 41.1545L142 63.0776V106.922L180 128.846L218 106.922V63.0776Z" stroke="white" stroke-width="2"/>
<path d="M274 40L235 62.5V107.5L274 130L313 107.5V62.5L274 40Z" fill="white"/>
<path d="M86 204L47 226.5V271.5L86 294L125 271.5V226.5L86 204Z" fill="white"/>
<path d="M274 204L235 226.5V271.5L274 294L313 271.5V226.5L274 204Z" fill="white"/>
<path d="M274 368L235 390.5V435.5L274 458L313 435.5V390.5L274 368Z" fill="white"/>
</g>
</svg>
