<svg width="188" height="336" viewBox="0 0 188 336" fill="none" xmlns="http://www.w3.org/2000/svg">
<path d="M180 123L219 145.5V190.5L180 213L141 190.5V145.5L180 123Z" fill="#1A1A1A"/>
<path d="M95 228.078L133 206.154L171 228.078V271.922L133 293.846L95 271.922V228.078Z" stroke="#1A1A1A" stroke-width="2"/>
<path d="M180 287L219 309.5V354.5L180 377L141 354.5V309.5L180 287Z" fill="#1A1A1A"/>
<path d="M48 310.078L86 288.154L124 310.078V353.922L86 375.846L48 353.922V310.078Z" stroke="#1A1A1A" stroke-width="2"/>
<path d="M180 -41L219 -18.5V26.5L180 49L141 26.5V-18.5L180 -41Z" fill="#1A1A1A"/>
<path d="M48 -17.9224L86 -39.8455L124 -17.9224V25.9224L86 47.8455L48 25.9224V-17.9224Z" stroke="#1A1A1A" stroke-width="2"/>
<path d="M95 64.0776L133 42.1545L171 64.0776V107.922L133 129.846L95 107.922V64.0776Z" stroke="#1A1A1A" stroke-width="2"/>
<path d="M48 146.078L86 124.154L124 146.078V189.922L86 211.846L48 189.922V146.078Z" stroke="#1A1A1A" stroke-width="2"/>
<path d="M39 205L78 227.5V272.5L39 295L0 272.5V227.5L39 205Z" fill="#1A1A1A"/>
</svg>
