<svg width="235" height="336" viewBox="0 0 235 336" fill="none" xmlns="http://www.w3.org/2000/svg">
<path d="M102 123L141 145.5V190.5L102 213L63 190.5V145.5L102 123Z" fill="#1A1A1A"/>
<path d="M158 146.078L196 124.154L234 146.078V189.922L196 211.846L158 189.922V146.078Z" stroke="#1A1A1A" stroke-width="2"/>
<path d="M17 228.078L55 206.154L93 228.078V271.922L55 293.846L17 271.922V228.078Z" stroke="#1A1A1A" stroke-width="2"/>
<path d="M-30 146.078L8 124.154L46 146.078V189.922L8 211.846L-30 189.922V146.078Z" stroke="#1A1A1A" stroke-width="2"/>
<path d="M102 287L141 309.5V354.5L102 377L63 354.5V309.5L102 287Z" fill="#1A1A1A"/>
<path d="M-30 310.078L8 288.154L46 310.078V353.922L8 375.846L-30 353.922V310.078Z" stroke="#1A1A1A" stroke-width="2"/>
<path d="M-30 -17.9224L8 -39.8455L46 -17.9224V25.9224L8 47.8455L-30 25.9224V-17.9224Z" fill="#1A1A1A" stroke="#1A1A1A" stroke-width="2"/>
<path d="M17 64.0776L55 42.1545L93 64.0776V107.922L55 129.846L17 107.922V64.0776Z" stroke="#1A1A1A" stroke-width="2"/>
<path d="M149 205L188 227.5V272.5L149 295L110 272.5V227.5L149 205Z" fill="#1A1A1A"/>
</svg>
