<svg width="420" height="368" viewBox="0 0 420 368" fill="none" xmlns="http://www.w3.org/2000/svg">
<path opacity="0.8" d="M414.3 190.171C416.578 186.372 416.578 181.628 414.3 177.829L312.973 8.82928C310.805 5.21296 306.898 2.99996 302.681 2.99996L117.319 2.99997C113.102 2.99997 109.195 5.21297 107.027 8.82929L5.69977 177.829C3.42227 181.628 3.42227 186.372 5.69977 190.171L107.027 359.171C109.195 362.787 113.102 365 117.319 365L302.681 365C306.898 365 310.805 362.787 312.973 359.171L414.3 190.171Z" stroke="#F2F2F2" stroke-width="6"/>
<path opacity="0.6" d="M362.312 190.162C364.583 186.368 364.583 181.632 362.312 177.838L288.102 53.8377C285.935 50.2166 282.025 48 277.805 48L142.195 48C137.975 48 134.065 50.2166 131.898 53.8377L57.688 177.838C55.4171 181.632 55.4171 186.368 57.688 190.162L131.898 314.162C134.065 317.783 137.975 320 142.195 320L277.805 320C282.025 320 285.935 317.783 288.102 314.162L362.312 190.162Z" fill="#F2F2F2"/>
</svg>
