<svg width="34" height="38" viewBox="0 0 34 38" fill="none" xmlns="http://www.w3.org/2000/svg">
<path d="M4.42184 8.83647C4.59744 9.78423 4.96208 10.7415 5.73827 11.5076L11.8796 18.1515C12.3223 18.6305 12.3223 19.3695 11.8796 19.8485L5.73827 26.4924C4.96208 27.2586 4.59744 28.2158 4.42184 29.1635C4.24906 30.096 4.24956 31.0808 4.24999 31.9364L4.25 31.9613V31.9615V35C4.25 35.4142 4.58579 35.75 5 35.75H29C29.4142 35.75 29.75 35.4142 29.75 35V31.9617V31.9613L29.75 31.9364C29.7504 31.0808 29.7509 30.096 29.5782 29.1635C29.4026 28.2158 29.0379 27.2586 28.2617 26.4924L22.1204 19.8485C21.6777 19.3695 21.6777 18.6305 22.1204 18.1515L28.2617 11.5077C29.0379 10.7415 29.4026 9.78424 29.5782 8.83647C29.7509 7.90403 29.7504 6.91923 29.75 6.06362L29.75 6.03867V6.0383V3C29.75 2.58579 29.4142 2.25 29 2.25H5C4.58579 2.25 4.25 2.58579 4.25 3V6.03854V6.03867L4.24999 6.06359C4.24956 6.91921 4.24906 7.90402 4.42184 8.83647Z" fill="white" stroke="#1A1A1A" stroke-width="1.5" stroke-miterlimit="10" stroke-linecap="round" stroke-linejoin="round"/>
<path d="M5.00002 36V35.5451C4.99758 34.9351 5.24703 34.3369 5.72002 33.8184L14.9648 23.7716C15.18 23.5356 15.4804 23.3409 15.8374 23.2059C16.1944 23.0709 16.5962 23 17.0048 23C17.4134 23 17.8152 23.0709 18.1722 23.2059C18.5292 23.3409 18.8296 23.5356 19.0448 23.7716L28.28 33.8168C28.7534 34.3358 29.0029 34.9346 29 35.5451V36H5.00002Z" fill="#FFA41D"/>
<path d="M23.755 11C23.8903 11 24 11.1097 24 11.2449V11.2449C24.0014 11.5734 23.8559 11.8955 23.58 12.1747L18.1872 17.5845C18.0616 17.7116 17.8864 17.8164 17.6782 17.8891C17.4699 17.9618 17.2355 18 16.9972 18C16.7589 18 16.5245 17.9618 16.3162 17.8891C16.108 17.8164 15.9328 17.7116 15.8072 17.5845L10.42 12.1756C10.1439 11.8961 9.99833 11.5737 10 11.2449V11.2449C10 11.1097 10.1097 11 10.245 11L23.755 11Z" fill="#FFA41D"/>
<path d="M4.42184 8.83647C4.59744 9.78423 4.96208 10.7415 5.73827 11.5076L11.8796 18.1515C12.3223 18.6305 12.3223 19.3695 11.8796 19.8485L5.73827 26.4924C4.96208 27.2586 4.59744 28.2158 4.42184 29.1635C4.24906 30.096 4.24956 31.0808 4.24999 31.9364L4.25 31.9613V31.9615V35C4.25 35.4142 4.58579 35.75 5 35.75H29C29.4142 35.75 29.75 35.4142 29.75 35V31.9617V31.9613L29.75 31.9364C29.7504 31.0808 29.7509 30.096 29.5782 29.1635C29.4026 28.2158 29.0379 27.2586 28.2617 26.4924L22.1204 19.8485C21.6777 19.3695 21.6777 18.6305 22.1204 18.1515L28.2617 11.5077C29.0379 10.7415 29.4026 9.78424 29.5782 8.83647C29.7509 7.90403 29.7504 6.91923 29.75 6.06362L29.75 6.03867V6.0383V3C29.75 2.58579 29.4142 2.25 29 2.25H5C4.58579 2.25 4.25 2.58579 4.25 3V6.03854V6.03867L4.24999 6.06359C4.24956 6.91921 4.24906 7.90402 4.42184 8.83647Z" stroke="#1A1A1A" stroke-width="1.5" stroke-miterlimit="10" stroke-linecap="round" stroke-linejoin="round"/>
<path d="M2 2H32" stroke="#1A1A1A" stroke-width="4" stroke-miterlimit="10" stroke-linecap="round" stroke-linejoin="round"/>
<path d="M2 36H32" stroke="#1A1A1A" stroke-width="4" stroke-miterlimit="10" stroke-linecap="round" stroke-linejoin="round"/>
</svg>
