<svg width="123" height="32" viewBox="0 0 123 32" fill="none" xmlns="http://www.w3.org/2000/svg">
<g clip-path="url(#clip0_1763_4300)">
<path d="M0.00012207 6.40039H6.08787C9.12555 6.40039 11.0171 8.13614 11.0171 10.3882C11.0333 11.0662 10.8654 11.7356 10.5318 12.3233C10.1981 12.9109 9.71166 13.3941 9.12555 13.7201C9.93367 13.9713 10.6407 14.4798 11.142 15.1702C11.6434 15.8607 11.9125 16.6965 11.9096 17.5541C11.9096 20.3256 9.79991 22.1728 6.35699 22.1728H0.00012207V6.40039ZM6.15438 12.8663C7.59743 12.8663 8.42027 12.2385 8.42027 10.8622C8.42027 9.48582 7.59743 8.87847 6.15438 8.87847H2.597V12.8663H6.15438ZM6.80553 19.6948C8.22693 19.6948 9.20444 18.9728 9.20444 17.5306C9.20444 16.0883 8.2192 15.346 6.80553 15.346H2.60164V19.6948H6.80553ZM12.9923 16.5403C12.9923 12.7549 15.4345 10.6817 18.2773 10.6817C19.6693 10.6817 20.8525 11.3534 21.697 12.1428L22.5678 10.9061H24.2274V22.1728H21.6877V20.7792C20.9762 21.5451 19.8657 22.3988 18.2015 22.3988C15.6031 22.3988 12.983 20.3256 12.983 16.5403H12.9923ZM21.697 17.3736V15.7289C21.697 14.1061 20.3421 12.8898 18.698 12.8898C16.9672 12.8898 15.5458 14.0606 15.5458 16.5403C15.5458 19.0199 16.958 20.1907 18.715 20.1907C20.3328 20.1907 21.6877 18.9964 21.6877 17.3736H21.697ZM47.9102 10.9061H44.8014L40.2572 16.1307V6.40039H37.7253V22.1728H40.2572V16.953L44.8014 22.1728H47.9102L42.9794 16.5403L47.9102 10.9061ZM54.2702 10.9061H51.1613L46.246 16.5403L51.1644 22.1728H54.2732L49.3393 16.5403L54.2702 10.9061ZM68.8275 6.40039L64.2107 16.4587L59.583 6.40039H56.799V22.1728H59.3247V11.5119L63.0368 19.6492H65.3908L69.1028 11.5119V22.1728H71.6116V6.40039H68.8275ZM73.166 16.5403C73.166 12.7549 75.6082 10.6817 78.451 10.6817C79.843 10.6817 81.0262 11.3534 81.8707 12.1428L82.7477 10.9061H84.4088V22.1728H81.8738V20.7792C81.1639 21.5451 80.0534 22.3988 78.3876 22.3988C75.7876 22.3988 73.1691 20.3256 73.1691 16.5403H73.166ZM81.8707 17.3736V15.7289C81.8707 14.1061 80.5158 12.8898 78.8732 12.8898C77.141 12.8898 75.7196 14.0606 75.7196 16.5403C75.7196 19.0199 77.141 20.1907 78.8949 20.1907C80.5189 20.1907 81.8738 18.9964 81.8738 17.3736H81.8707ZM86.1968 10.9061H87.8517L88.7241 12.1428C89.4789 11.264 90.2182 10.7304 91.3442 10.7304H93.2187V13.1723H90.3821C89.335 13.1723 88.7287 13.6714 88.7287 14.8689V22.1666H86.1968V10.9061ZM117.959 19.2694V13.1143H115.895V10.9061H117.959V8.72624L120.513 7.22432V10.9061H123V13.1143H120.513V18.8645C120.513 19.6069 120.935 19.9459 121.778 19.9459H122.889V22.1728H121.023C119.203 22.1728 117.959 21.3834 117.959 19.2694ZM112.783 18.3404C112.364 19.4735 111.442 20.2236 109.914 20.2236C108.136 20.2236 106.893 19.0968 106.783 17.2418H115.29V16.4445C115.29 12.8177 113.026 10.677 109.877 10.677C106.924 10.677 104.325 13.0201 104.325 16.5356C104.325 20.051 106.547 22.3941 109.877 22.3941C112.463 22.3941 114.238 21.1166 115.012 18.8065C114.345 18.6684 113.584 18.5067 112.783 18.3372V18.3404ZM109.869 12.7769C111.468 12.7769 112.733 13.7012 112.889 15.3679H106.826C107.137 13.7232 108.359 12.7769 109.869 12.7769V12.7769ZM104.711 10.9061H101.602L97.053 16.1118V6.40039H94.521V22.1728H97.053V16.9687L101.597 22.1728H104.711L99.7751 16.5403L104.711 10.9061ZM31.2741 20.1216C29.4304 20.1216 28.0539 18.8379 28.0539 16.5403C28.0539 14.2427 29.4304 12.9573 31.2741 12.9573C32.8656 12.9573 33.888 13.7609 34.2468 15.0117C34.8252 14.894 36.0038 14.6538 36.5003 14.5409C35.9481 12.124 34.0101 10.6833 31.2509 10.6833C28.0539 10.6833 25.5668 13.0484 25.5668 16.5418C25.5668 20.0353 28.0539 22.4004 31.2509 22.4004C33.9514 22.4004 35.8476 21.0146 36.4879 18.5381C35.9822 18.4235 34.8129 18.185 34.2406 18.0673C33.8292 19.3573 32.8687 20.1216 31.2741 20.1216V20.1216Z" fill="#1A1A1A"/>
</g>
<defs>
<clipPath id="clip0_1763_4300">
<rect width="123" height="32" fill="white"/>
</clipPath>
</defs>
</svg>
