<svg width="125" height="32" viewBox="0 0 125 32" fill="none" xmlns="http://www.w3.org/2000/svg">
<g clip-path="url(#clip0_1763_4225)">
<path d="M60.8776 18.672L60.8071 18.8102L60.6898 19.0093L60.6036 19.1246L60.5094 19.2391L60.3998 19.3619L60.2665 19.4847L60.196 19.5459L60.1253 19.607L60.0393 19.6679L59.9608 19.7218L59.8667 19.7754L59.7805 19.8293L59.6788 19.8753L59.5769 19.9211L59.467 19.9591L59.3572 19.9974L59.2401 20.0281L59.1143 20.0512L58.989 20.0741L58.8559 20.0898L58.7226 20.1051H58.409L58.2525 20.0898L58.0953 20.0666L57.9546 20.0434L57.8133 20.0052L57.6723 19.9672L57.547 19.9136L57.4217 19.8597L57.3043 19.7991L57.1945 19.7377L57.0926 19.6612L56.9907 19.5844L56.8965 19.5079L56.8106 19.4233L56.7244 19.3312L56.6461 19.2391L56.5754 19.1394L56.5049 19.0473L56.4421 18.9398L56.3875 18.8399L56.3325 18.7329L56.2857 18.6255L56.2465 18.5182L56.2077 18.411L56.1763 18.3035L56.1449 18.1966L56.1215 18.0813L56.1058 17.9746L56.0898 17.8671L56.0739 17.7599V17.6603L56.0662 17.5528L56.0739 17.3844L56.0819 17.2161L56.0976 17.0555L56.1289 16.8941L56.1603 16.7333L56.1917 16.5722L56.2388 16.4114L56.2934 16.2579L56.3482 16.1124L56.411 15.9664L56.4817 15.8207L56.5602 15.6828L56.6384 15.5451L56.7244 15.4147L56.8185 15.2917L56.9127 15.1691L57.0223 15.0543L57.1242 14.9469L57.2416 14.8399L57.3592 14.74L57.4847 14.6478L57.6106 14.5635L57.7436 14.487L57.8846 14.4181L58.0256 14.3564L58.1666 14.2952L58.3233 14.2492L58.4723 14.2109L58.6295 14.1805L58.7937 14.1576L58.9581 14.1417L59.1308 14.1342L59.3106 14.1417L59.483 14.1495L59.64 14.1724L59.7967 14.1956L59.9457 14.2336L60.0867 14.2718L60.212 14.3176L60.3378 14.3639L60.4549 14.4178L60.5648 14.4784L60.6667 14.5401L60.7688 14.6013L60.8545 14.6702L60.9409 14.7397L61.0192 14.8089L61.0899 14.8857L61.2155 15.0314L61.3249 15.1774L61.4111 15.3231L61.4736 15.4533L61.5286 15.5761L61.5678 15.6836L61.5912 15.7679L61.6069 15.8293H64.4988L64.5068 15.7218L64.514 15.6071V15.4767L64.5068 15.339L64.4906 15.193L64.4669 15.0395L64.428 14.8787L64.3887 14.7106L64.3341 14.5419L64.2716 14.3655L64.2008 14.1888L64.1146 14.0053L64.013 13.8286L63.9031 13.6447L63.7861 13.4682L63.6448 13.2918L63.4958 13.1151L63.3314 12.9467L63.1507 12.7781L62.9552 12.6175L62.7437 12.464L62.5165 12.3263L62.2733 12.1882L62.015 12.0656L61.7327 11.9508L61.435 11.8436L61.1213 11.759L60.784 11.6825L60.4315 11.6216L60.055 11.5753L59.6554 11.5519L59.2401 11.5449L58.9264 11.5519L58.621 11.5753L58.3233 11.6058L58.0256 11.6594L57.7276 11.7286L57.4454 11.8054L57.1631 11.8972L56.889 12.0047L56.6225 12.1273L56.3639 12.2576L56.1133 12.3956L55.8701 12.5564L55.6352 12.7177L55.408 12.8936L55.1885 13.0857L54.9767 13.2848L54.7809 13.4919L54.5928 13.7141L54.4124 13.9439L54.248 14.1818L54.0913 14.4267L53.9423 14.6799L53.817 14.9479L53.6912 15.2162L53.5893 15.4998L53.4951 15.784L53.4089 16.0828L53.3464 16.3815L53.2913 16.6883L53.2524 17.0027L53.2282 17.317L53.2211 17.6465L53.2282 17.9072L53.2445 18.1755L53.2679 18.4285L53.3067 18.6819L53.3535 18.9268L53.4163 19.1719L53.4789 19.4095L53.5573 19.6398L53.6515 19.8621L53.7457 20.0843L53.855 20.2992L53.9806 20.4983L54.1062 20.6979L54.2472 20.8894L54.3965 21.0734L54.5609 21.2421L54.725 21.4102L54.9067 21.5705L55.0951 21.7165L55.2986 21.8544L55.5024 21.9845L55.7219 22.1076L55.9571 22.2151L56.1925 22.3147L56.4354 22.3988L56.6938 22.4828L56.9603 22.544L57.2346 22.5976L57.5244 22.6437L57.8144 22.6744L58.12 22.6975H58.4337L58.8171 22.6897L59.1856 22.6668L59.5383 22.6208L59.8757 22.5596L60.1891 22.4828L60.4948 22.3988L60.7768 22.2986L61.0511 22.1841L61.3017 22.0615L61.5451 21.9236L61.7723 21.7854L61.9836 21.6324L62.1874 21.4789L62.368 21.318L62.5481 21.157L62.7048 20.9889L62.8544 20.8122L62.9948 20.6438L63.1207 20.4674L63.238 20.2992L63.3399 20.1304L63.4423 19.962L63.5203 19.8014L63.5988 19.6406L63.6693 19.4871L63.7243 19.3413L63.7791 19.2032L63.8262 19.073L63.889 18.8508L63.9279 18.6744H60.8784V18.672H60.8776ZM38.7148 19.4616L38.7228 19.3083L38.7542 19.0783L38.8164 18.7566L38.9106 18.3272L38.9577 18.105L39.0442 17.7147L39.1612 17.1781L39.3105 16.5114L39.4754 15.7525L39.6633 14.9242L39.8588 14.0506L40.0546 13.1539L40.2504 12.2722L40.4388 11.421L40.6107 10.6312L40.7676 9.92599L40.9007 9.32824L41.0026 8.8757L41.0653 8.57722L41.0888 8.47755H38.3852L36.1363 18.6189L36.0972 18.78L36.0738 18.9336L36.0503 19.0944L36.0267 19.2477L36.019 19.4007L36.0033 19.5469L35.9955 19.6927V19.8384L36.0033 20.0369L36.019 20.2365L36.0424 20.4203L36.0738 20.5967L36.1209 20.7653L36.1677 20.9264L36.2305 21.0794L36.2927 21.2251L36.364 21.3633L36.45 21.4934L36.5362 21.6087L36.6303 21.7232L36.7245 21.8307L36.8344 21.9301L36.9363 22.0222L37.0536 22.1063L37.1709 22.1903L37.288 22.2596L37.4133 22.3288L37.5469 22.3902L37.6722 22.4435L37.8055 22.4971L37.9385 22.5354L38.0718 22.5734L38.2128 22.6114L38.3461 22.6348L38.4865 22.658L38.6278 22.6811L38.7608 22.6965L38.8941 22.704L39.0351 22.7116H39.3488L39.5289 22.696L39.7016 22.6882L39.8506 22.6728L40.1009 22.6348L40.2499 22.6114L40.2893 22.4584L40.3444 22.1901L40.4228 21.8377L40.5088 21.4544L40.5873 21.0786L40.6655 20.7492L40.7205 20.5116L40.744 20.4041H40.6575L40.5008 20.4117L40.2813 20.419L40.0384 20.4268L39.858 20.419L39.6936 20.4036L39.5369 20.3807L39.4036 20.35L39.2863 20.312L39.1769 20.2659L39.0828 20.2121L38.9966 20.1507L38.9261 20.0817L38.8633 20.0049L38.8162 19.9287L38.7773 19.8441L38.7459 19.7522L38.7302 19.6601L38.7143 19.5605V19.461H38.7148V19.4616ZM77.2103 11.574H73.4247L68.5736 15.8511L70.2114 8.45413H67.4764L64.3807 22.4899H67.1077L67.86 19.0788L69.5377 17.7753L71.8577 22.4899H74.8983L71.6071 16.1733L77.2103 11.574ZM32.8293 12.325L32.8216 12.1947L32.8056 12.0716L32.7745 11.9571L32.7277 11.834L32.6646 11.7265L32.5941 11.6196L32.5077 11.5274L32.4058 11.4353L32.2802 11.3513L32.1472 11.2748L31.9979 11.2133L31.8332 11.1597L31.6531 11.1134L31.4493 11.083L31.2298 11.0601L31.0026 11.0523H28.2365L27.6095 13.8888H30.635L30.768 13.881L30.9013 13.8731L31.0343 13.8581L31.1596 13.8352L31.2775 13.8193L31.3948 13.7891L31.5118 13.7584L31.6137 13.7277L31.7159 13.697L31.8178 13.659L31.9117 13.6127L31.9982 13.5669L32.0841 13.5208L32.1626 13.475L32.2411 13.4211L32.3116 13.3673L32.3824 13.3058L32.4374 13.2447L32.4999 13.1833L32.5473 13.1224L32.6021 13.0532L32.6409 12.9917L32.6798 12.9228L32.7189 12.846L32.7423 12.7768L32.7737 12.7078L32.7897 12.6311L32.8051 12.5543L32.8211 12.4778L32.8288 12.4016V12.325H32.8293ZM31.9048 17.9822L31.8968 17.8518L31.8809 17.729L31.8497 17.5986L31.8024 17.4685L31.779 17.4071L31.7398 17.3381L31.7085 17.2767L31.6614 17.2158L31.614 17.1544L31.5672 17.101L31.5049 17.0396L31.4421 16.986L31.3796 16.9327L31.3011 16.8793L31.2229 16.833L31.1365 16.7869L31.0425 16.7406L30.9404 16.7024L30.8385 16.6644L30.7212 16.6261L30.6038 16.5951L30.4705 16.5652L30.3372 16.5418L30.1965 16.5189L30.0393 16.5033L29.8828 16.496L29.7182 16.4882H27.0383L26.2856 19.8764H29.2874L29.4516 19.8686L29.616 19.8532L29.7652 19.8373L29.9142 19.822L30.0555 19.7991L30.1965 19.7684L30.3298 19.7301L30.4554 19.6997L30.5807 19.6534L30.698 19.6154L30.8079 19.5618L30.9098 19.5157L31.0114 19.4543L31.1133 19.4004L31.1995 19.3395L31.2857 19.2706L31.3639 19.2011L31.4344 19.1319L31.5055 19.0551L31.5677 18.9786L31.6305 18.9021L31.6776 18.8175L31.7244 18.7337L31.7635 18.6494L31.8026 18.5573L31.8338 18.4652L31.8572 18.373L31.8809 18.2812L31.8886 18.1812L31.8966 18.0813L31.9048 17.9822ZM23.8167 18.1511L23.8797 17.8747L23.9737 17.4458L24.0992 16.8863L24.2482 16.2113L24.4126 15.4603L24.593 14.64L24.7888 13.7891L24.9772 12.9303L25.1653 12.0794L25.3457 11.2589L25.5181 10.5079L25.667 9.83335L25.7844 9.26579L25.8863 8.83693L25.9488 8.55354L25.9648 8.46142H31.4743L31.8034 8.48432L32.1086 8.50722L32.4063 8.54573L32.6886 8.5996L32.9549 8.65295L33.2055 8.72217L33.4407 8.79842L33.6679 8.88299L33.872 8.96757L34.0678 9.06671L34.2559 9.16664L34.428 9.27385L34.5847 9.38888L34.7339 9.51144L34.875 9.63427L35.0005 9.7571L35.1104 9.88748L35.22 10.0176L35.3142 10.1558L35.3927 10.2934L35.4706 10.4238L35.5417 10.5617L35.5962 10.6994L35.6513 10.8373L35.6904 10.9674L35.7292 11.1056L35.7526 11.2357L35.7761 11.3661L35.792 11.4887L35.7995 11.6115V11.7343L35.792 11.9797L35.7681 12.2246L35.7369 12.4471L35.6901 12.6693L35.6271 12.8687L35.5566 13.068L35.4701 13.2522L35.3844 13.4284L35.2823 13.5968L35.1804 13.7503L35.0633 13.896L34.9455 14.0342L34.8281 14.1643L34.7026 14.2791L34.5695 14.3939L34.4442 14.5011L34.3109 14.5932L34.1776 14.6851L34.0446 14.7616L33.919 14.8383L33.6684 14.9685L33.4332 15.0759L33.2289 15.16L33.0568 15.2214L32.9238 15.2594L32.8373 15.2901L32.9078 15.313L33.0094 15.3528L33.135 15.4064L33.2757 15.4832L33.433 15.5753L33.6048 15.6828L33.6913 15.752L33.7772 15.821L33.8714 15.8977L33.9574 15.9745L34.0438 16.0586L34.1295 16.1582L34.208 16.2579L34.2944 16.3578L34.3652 16.4728L34.4434 16.5951L34.5139 16.7182L34.5764 16.8486L34.639 16.9943L34.6861 17.1403L34.7332 17.3011L34.772 17.4622L34.8034 17.6306L34.8271 17.8143L34.8433 17.9986L34.8505 18.1982L34.8433 18.4126L34.8271 18.6348L34.7959 18.842L34.7486 19.0561L34.694 19.2633L34.623 19.4629L34.5451 19.6625L34.4506 19.854L34.3487 20.0455L34.2316 20.229L34.1061 20.4132L33.9728 20.5816L33.8238 20.7502L33.6674 20.9186L33.5027 21.0719L33.3226 21.2179L33.1342 21.3636L32.9384 21.5015L32.7271 21.6319L32.5154 21.7464L32.2882 21.8611L32.0533 21.9686L31.8026 22.0607L31.552 22.1529L31.2932 22.2294L31.0189 22.2983L30.7446 22.3522L30.4548 22.4061L30.1646 22.4441L29.8592 22.467L29.5537 22.4826L29.2324 22.4904H27.6805L27.4142 22.4826L27.1551 22.467L26.9047 22.4441L26.6695 22.4061L26.4343 22.36L26.2071 22.2983L25.9959 22.2294L25.7918 22.1529L25.588 22.0685L25.3999 21.9689L25.2196 21.8692L25.0551 21.7544L24.8905 21.6394L24.7415 21.5093L24.6005 21.3714L24.4672 21.2251L24.3416 21.0794L24.2323 20.9189L24.1301 20.7578L24.0439 20.5897L23.958 20.413L23.8952 20.2287L23.8329 20.0453L23.7858 19.8537L23.7467 19.6539L23.7233 19.4467L23.7076 19.2401V19.0325L23.7151 18.8178L23.7385 18.5955L23.7699 18.3811L23.8167 18.1511ZM84.9765 12.325V12.1947L84.9531 12.0716L84.9217 11.9571L84.8746 11.834L84.8195 11.7265L84.7413 11.6196L84.6551 11.5274L84.5532 11.4353L84.4359 11.3513L84.2949 11.2748L84.1456 11.2133L83.9812 11.1597L83.8008 11.1134L83.597 11.083L83.3775 11.0601L83.1426 11.0523H80.3837L79.7569 13.8888H82.7821L82.9154 13.881L83.0484 13.8731L83.182 13.8581L83.3076 13.8352L83.4246 13.8193L83.5419 13.7891L83.6595 13.7584L83.7617 13.7277L83.8636 13.697L83.9655 13.659L84.0597 13.6127L84.1453 13.5669L84.2318 13.5208L84.31 13.475L84.3885 13.4211L84.4595 13.3673L84.5301 13.3058L84.5849 13.2447L84.6474 13.1833L84.7019 13.1224L84.7493 13.0532L84.7881 12.9917L84.8275 12.9228L84.8663 12.846L84.8977 12.7768L84.9214 12.7078L84.9448 12.6311L84.961 12.5543L84.9685 12.4778L84.9762 12.4016L84.9765 12.325ZM84.052 17.9822L84.044 17.8518L84.0283 17.729L83.9969 17.5986L83.9498 17.4685L83.9264 17.4071L83.8875 17.3381L83.8561 17.2767L83.8091 17.2158L83.762 17.1544L83.7146 17.101L83.6521 17.0396L83.5896 16.986L83.5268 16.9327L83.4486 16.8793L83.3701 16.833L83.2844 16.7869L83.1902 16.7406L83.0883 16.7024L82.9862 16.6644L82.8691 16.6261L82.7513 16.5951L82.6182 16.5652L82.4849 16.5418L82.3442 16.5189L82.1949 16.5033L82.0303 16.496L81.8661 16.4882H79.1857L78.4336 19.8766H81.4426L81.5998 19.8688L81.764 19.8535L81.9132 19.8376L82.0622 19.8222L82.2114 19.7993L82.3447 19.7686L82.4778 19.7306L82.6033 19.6999L82.7289 19.6536L82.8462 19.6156L82.9561 19.562L83.0657 19.516L83.1599 19.4545L83.2618 19.4007L83.3477 19.34L83.4342 19.2708L83.5124 19.2013L83.5832 19.1321L83.654 19.0554L83.7165 18.9788L83.779 18.9023L83.8258 18.8178L83.8732 18.734L83.9203 18.6497L83.9517 18.5575L83.9831 18.4654L84.0067 18.3733L84.0301 18.2814L84.0379 18.1815L84.0453 18.0818L84.052 17.9822ZM75.9641 18.1511L76.0264 17.8747L76.1206 17.4458L76.2464 16.8863L76.3954 16.2113L76.5601 15.4603L76.7404 14.64L76.9283 13.7891L77.1241 12.9303L77.3124 12.0794L77.4926 11.2589L77.6572 10.5079L77.8062 9.83335L77.9321 9.26579L78.034 8.83693L78.0885 8.55354L78.1124 8.46142H83.6215L83.9506 8.48432L84.2643 8.50722L84.5543 8.54573L84.8365 8.5996L85.1034 8.65295L85.3537 8.72217L85.5887 8.79842L85.8158 8.88299L86.0276 8.96757L86.2234 9.06671L86.4038 9.16664L86.576 9.27385L86.7327 9.38888L86.8816 9.51144L87.0229 9.63427L87.1485 9.7571L87.2578 9.88748L87.3677 10.0176L87.4619 10.1558L87.5481 10.2934L87.6266 10.4238L87.6891 10.5617L87.7516 10.6994L87.7987 10.8373L87.8376 10.9674L87.8767 11.1056L87.9078 11.2357L87.9237 11.3661L87.9394 11.4887L87.9474 11.6115L87.9549 11.7343L87.9474 11.9797L87.9237 12.2246L87.8846 12.4471L87.8376 12.6693L87.7753 12.8687L87.704 13.068L87.626 13.2522L87.5319 13.4284L87.4377 13.5968L87.3283 13.7503L87.2185 13.896L87.1014 14.0342L86.9756 14.1643L86.8502 14.2791L86.7167 14.3939L86.5911 14.5011L86.4578 14.5932L86.3251 14.6851L86.1915 14.7616L86.0659 14.8383L85.8153 14.9685L85.5881 15.0759L85.3769 15.16L85.2047 15.2214L85.0715 15.2594L84.9855 15.2901L85.056 15.313L85.1569 15.3528L85.2824 15.4064L85.4232 15.4832L85.5801 15.5753L85.7523 15.6828L85.8379 15.752L85.9244 15.821L86.0186 15.8977L86.1048 15.9745L86.1907 16.0586L86.2772 16.1582L86.3554 16.2579L86.4413 16.3578L86.5198 16.4728L86.5903 16.5951L86.6611 16.7182L86.7239 16.8486L86.7864 16.9943L86.8409 17.1403L86.8883 17.3011L86.9271 17.4622L86.9583 17.6306L86.9817 17.8143L86.9982 17.9986V18.1982L86.9902 18.4126L86.9745 18.6348L86.9431 18.842L86.896 19.0561L86.8412 19.2633L86.7704 19.4629L86.6919 19.6625L86.6058 19.854L86.4961 20.0455L86.3863 20.229L86.2609 20.4132L86.1199 20.5816L85.971 20.7502L85.814 20.9186L85.6496 21.0719L85.4692 21.2179L85.2814 21.3636L85.0855 21.5015L84.8738 21.6319L84.6623 21.7464L84.4351 21.8611L84.1999 21.9686L83.9493 22.0607L83.6987 22.1529L83.4403 22.2294L83.166 22.2983L82.8917 22.3522L82.6015 22.4061L82.3115 22.4441L82.0058 22.467L81.7006 22.4826L81.3792 22.4904H79.8279L79.5611 22.4826L79.3022 22.467L79.0519 22.4441L78.8167 22.4061L78.5815 22.36L78.3543 22.2983L78.1425 22.2294L77.9382 22.1529L77.7347 22.0685L77.5463 21.9689L77.3659 21.8692L77.2015 21.7544L77.0371 21.6394L76.8881 21.5093L76.7468 21.3714L76.6138 21.2251L76.4885 21.0794L76.3786 20.9189L76.2765 20.7578L76.1908 20.5897L76.1043 20.413L76.0418 20.2287L75.9793 20.0453L75.9322 19.8537L75.8933 19.6539L75.8697 19.4467L75.8534 19.2401V19.0325L75.8612 18.8178L75.8848 18.5955L75.9162 18.3811L75.9641 18.1511ZM106.693 11.5813L106.419 11.5891L106.16 11.6045L105.901 11.6274L105.65 11.6581L105.4 11.7041L105.164 11.758L104.93 11.8192L104.702 11.8959L104.475 11.9727L104.264 12.0648L104.052 12.172L103.848 12.2795L103.644 12.4026L103.456 12.5252L103.268 12.6631L103.096 12.8164L102.923 12.9694L102.751 13.138L102.595 13.3144L102.445 13.4987L102.296 13.6899L102.155 13.8898L102.03 14.1042L101.904 14.3187L101.787 14.5487L101.677 14.7866L101.575 15.0392L101.473 15.2924L101.387 15.5529L101.309 15.8293L101.23 16.1129L101.168 16.3966L101.105 16.6878L101.027 17.0482L100.941 17.4622L100.839 17.9226L100.729 18.4131L100.62 18.9187L100.51 19.4402L100.393 19.9542L100.283 20.452L100.181 20.9274L100.087 21.3563L100.001 21.7318L99.9302 22.0462L99.8829 22.2913L99.844 22.4446L99.8366 22.4982H102.54L102.556 22.4446L102.587 22.2983L102.634 22.0685L102.705 21.7701L102.784 21.4094L102.878 20.9954L102.972 20.5431L103.081 20.0606L103.191 19.5698L103.3 19.0642L103.41 18.5661L103.52 18.0907L103.614 17.6389L103.709 17.2246L103.787 16.864L103.858 16.5657L103.897 16.3971L103.944 16.229L103.992 16.0752L104.039 15.9217L104.094 15.7843L104.148 15.6461L104.211 15.516L104.273 15.3929L104.344 15.2784L104.415 15.1631L104.485 15.0559L104.556 14.9638L104.635 14.8644L104.72 14.7798L104.807 14.6952L104.893 14.6262L104.979 14.5497L105.073 14.4886L105.167 14.4274L105.269 14.3738L105.363 14.3278L105.473 14.2814L105.575 14.2354L105.685 14.2049L105.794 14.1742L105.904 14.1435L106.021 14.1206L106.138 14.1053L106.256 14.0894L106.382 14.0821L106.499 14.0743H106.632L106.93 14.0821L107.165 14.0975L107.353 14.1204L107.486 14.1433L107.525 13.9439L107.588 13.6603L107.666 13.3077L107.752 12.9244L107.83 12.541L107.917 12.1809L107.979 11.8897L108.027 11.675L107.909 11.6594L107.776 11.6443L107.627 11.6284L107.47 11.6131L107.289 11.6055L107.101 11.5902H106.906L106.693 11.5813ZM115.909 26.6673L125 11.5813H122.069L117.892 18.6798L116.92 11.5735H113.785L113.457 11.5808L113.135 11.5886L112.822 11.6115L112.524 11.6495L112.234 11.6877L111.951 11.7416L111.677 11.8025L111.411 11.8717L111.16 11.9485L110.917 12.0404L110.682 12.1325L110.455 12.2397L110.236 12.3542L110.031 12.4846L109.827 12.6149L109.64 12.7609L109.459 12.9067L109.279 13.0677L109.114 13.2442L108.957 13.4209L108.808 13.6048L108.667 13.8042L108.534 14.0108L108.409 14.2182L108.292 14.4485L108.182 14.6786L108.08 14.9161L107.994 15.1613L107.9 15.422L107.822 15.6903L107.751 15.9662L107.688 16.2503L107.618 16.5717L107.531 16.9556L107.437 17.3925L107.328 17.8677L107.218 18.373L107.1 18.8945L106.983 19.4233L106.874 19.9448L106.756 20.4504L106.654 20.9183L106.56 21.3553L106.474 21.7308L106.404 22.0524L106.349 22.2903L106.317 22.4435L106.302 22.4971H109.013L109.029 22.4435L109.06 22.2973L109.107 22.0675L109.178 21.769L109.256 21.4011L109.35 20.9797L109.452 20.5189L109.562 20.0286L109.68 19.5149L109.789 18.9934L109.906 18.4646L110.024 17.9507L110.134 17.4601L110.236 16.9923L110.321 16.5707L110.407 16.203L110.447 16.0419L110.485 15.8884L110.54 15.7426L110.588 15.605L110.65 15.4671L110.713 15.3445L110.783 15.2219L110.854 15.1144L110.932 15.0075L111.018 14.9076L111.097 14.8154L111.191 14.7236L111.285 14.6468L111.379 14.5706L111.481 14.5011L111.583 14.4402L111.693 14.3863L111.803 14.3325L111.912 14.2867L112.03 14.2484L112.147 14.2177L112.264 14.187L112.381 14.1641L112.507 14.1487L112.633 14.1409L112.766 14.1334H112.891L113.025 14.1409L113.15 14.1487L113.283 14.1641L113.417 14.187L113.557 14.2099L114.122 11.6347L114.216 12.1559L114.318 12.7843L114.435 13.4896L114.568 14.2716L114.709 15.0993L114.85 15.9581L114.999 16.8241L115.14 17.6826L115.281 18.5182L115.407 19.3L115.524 20.013L115.634 20.6414L115.72 21.1629L115.782 21.5538L115.829 21.807L115.837 21.8991L113.008 26.6665H115.908V26.6673H115.909ZM45.5251 15.0005L45.5802 14.9161L45.6975 14.7702L45.7834 14.6861L45.8853 14.5864L46.0109 14.4868L46.1522 14.3793L46.3086 14.2796L46.489 14.1802L46.5832 14.1336L46.693 14.0876L46.7949 14.0496L46.912 14.0035L47.0293 13.9731L47.1549 13.9348L47.2882 13.9119L47.4215 13.889L47.5625 13.8656L47.7117 13.85L47.8684 13.8424H48.221L48.409 13.8581L48.5732 13.881L48.7382 13.9117L48.8789 13.9421L49.0199 13.9882L49.1372 14.0345L49.2468 14.0878L49.341 14.1492L49.4267 14.2182L49.4975 14.2874L49.5525 14.3642L49.5993 14.4407L49.6307 14.5245L49.6542 14.6015L49.6621 14.6934L49.6542 14.7551L49.6462 14.8087L49.6305 14.8625L49.6071 14.9159L49.5754 14.9695L49.544 15.0158L49.5049 15.0616L49.4581 15.0999L49.403 15.1459L49.3479 15.1839L49.2857 15.2224L49.2149 15.2531L49.0579 15.3221L48.8776 15.3833L48.6735 15.4444L48.4543 15.4978L48.2114 15.5441L47.9451 15.5974L47.3491 15.6895L46.6829 15.7817L46.3852 15.8277L46.0875 15.8738L45.805 15.9277L45.5227 15.9813L45.2561 16.0422L44.9898 16.1036L44.7389 16.1647L44.4886 16.2337L44.2537 16.3105L44.0265 16.387L43.7992 16.4715L43.5875 16.5637L43.3837 16.6558L43.1876 16.7479L42.9995 16.8554L42.8271 16.9623L42.6627 17.0776L42.4977 17.1921L42.357 17.3152L42.216 17.4456L42.0907 17.583L41.9728 17.729L41.8632 17.875L41.769 18.0285L41.6831 18.189L41.6046 18.3577L41.5421 18.5341L41.4947 18.7178L41.4477 18.9021L41.424 19.1017L41.4006 19.3007V19.6687L41.4168 19.8147L41.4325 19.968L41.4639 20.114L41.495 20.2675L41.5424 20.4132L41.5892 20.5592L41.6517 20.6969L41.7145 20.8345L41.7924 20.9727L41.8707 21.1106L41.9648 21.241L42.059 21.3636L42.1609 21.4864L42.2705 21.6095L42.3881 21.724L42.514 21.8315L42.647 21.9384L42.788 22.0381L42.9373 22.1302L43.0862 22.2148L43.2507 22.2983L43.4151 22.3751L43.5875 22.4446L43.7679 22.5057L43.9562 22.5593L44.1518 22.6057L44.3558 22.6437L44.5593 22.6744L44.7711 22.6975L44.9906 22.7131H45.4059L45.5863 22.6975L45.7667 22.6822L45.9391 22.659L46.1035 22.6358L46.2605 22.6054L46.4094 22.5669L46.5584 22.5289L46.6994 22.4826L46.8404 22.4365L46.9737 22.3829L47.0988 22.3293L47.3262 22.2221L47.538 22.0993L47.7261 21.9842L47.8908 21.8697L48.0315 21.7623L48.1571 21.6628L48.3292 21.5018L48.4077 21.425L48.4157 21.6628L48.4391 21.9306L48.4625 22.2148L48.4859 22.4909H51.284L51.2451 22.2913L51.2063 22.0535L51.1829 21.9155L51.1666 21.7701L51.1509 21.6092L51.143 21.4406L51.135 21.2564L51.143 21.0654V20.8582L51.1664 20.6435L51.1898 20.4135L51.2212 20.1762L51.268 19.9227L51.3231 19.6544L51.4016 19.302L51.5037 18.85L51.621 18.3134L51.7543 17.7308L51.8874 17.1328L52.0206 16.535L52.138 15.9755L52.2478 15.4769L52.2867 15.2622L52.3104 15.0556L52.334 14.8485L52.3418 14.6491L52.334 14.4498L52.3266 14.258L52.3032 14.074L52.2718 13.8903L52.2247 13.7214L52.1696 13.5453L52.0989 13.3842L52.0284 13.2234L51.9339 13.0701L51.84 12.9244L51.7304 12.7864L51.6051 12.6561L51.4718 12.5259L51.3308 12.4107L51.1741 12.2962L51.0097 12.1887L50.8373 12.0966L50.6492 12.0047L50.4451 11.9201L50.2336 11.8439L50.0138 11.7825L49.7789 11.7216L49.536 11.6753L49.2772 11.6289L49.0109 11.5985L48.7283 11.5756L48.4386 11.56L48.1332 11.5522L47.741 11.568L47.3723 11.5909L47.012 11.6289L46.6747 11.6828L46.3533 11.752L46.0479 11.8361L45.7576 11.9282L45.4836 12.0279L45.2247 12.1426L44.9744 12.2655L44.7472 12.3883L44.5277 12.5265L44.3159 12.6644L44.1278 12.8101L43.9474 12.9561L43.783 13.1096L43.6263 13.2554L43.4773 13.4084L43.344 13.5622L43.2267 13.7079L43.1094 13.8614L43.0075 13.9991L42.921 14.137L42.8354 14.2674L42.6941 14.5125L42.5922 14.7197L42.5142 14.8883L42.4666 15.0028H45.5248V15.0005H45.5251ZM46.5441 17.8442L46.8104 17.7979L47.1632 17.7519L47.5548 17.6904L47.9624 17.6296L48.3545 17.5684L48.6993 17.5221L48.9659 17.4841L49.1223 17.4612L49.0832 17.6145L49.0364 17.7909L48.9973 17.9751L48.9584 18.1432L48.9196 18.2661L48.8802 18.3892L48.8414 18.5037L48.7863 18.6184L48.7312 18.7334L48.6687 18.8404L48.6057 18.9403L48.5352 19.04L48.4567 19.1399L48.3785 19.232L48.2925 19.3242L48.1983 19.4163L48.1042 19.5001L48.01 19.5768L47.9078 19.6534L47.7979 19.7228L47.6886 19.7918L47.5787 19.861L47.4614 19.9222L47.3441 19.976L47.2265 20.0296L47.1009 20.0757L46.9756 20.122L46.8423 20.16L46.709 20.1983L46.5837 20.2285L46.4427 20.2519L46.3094 20.2748L46.1687 20.2904L46.0279 20.306L45.8867 20.3136H45.7459L45.5738 20.306L45.4091 20.2904L45.2447 20.2675L45.1037 20.229L44.9627 20.1759L44.8371 20.1223L44.7275 20.0609L44.6176 19.9841L44.5317 19.9079L44.4452 19.8233L44.3747 19.7312L44.3196 19.6312L44.2725 19.5316L44.2414 19.4241L44.2255 19.3171L44.2175 19.2021L44.2255 19.11L44.2414 19.0103L44.2725 18.9107L44.3196 18.8185L44.3822 18.7189L44.4604 18.6192L44.562 18.5271L44.6799 18.435L44.8291 18.3431L44.9933 18.2585L45.1816 18.1745L45.3929 18.098L45.6358 18.0212L45.9101 17.9598L46.2078 17.8989L46.5441 17.8442ZM94.24 13.9653H94.4118L94.5691 13.9731L94.7261 13.9884L94.875 14.0113L95.0158 14.042L95.1493 14.0727L95.2821 14.1107L95.4077 14.1492L95.525 14.1953L95.6349 14.2411L95.7368 14.295L95.8387 14.3561L95.9328 14.4178L96.019 14.4784L96.097 14.5479L96.1757 14.6171L96.2462 14.6934L96.3173 14.7702L96.3718 14.8469L96.4266 14.9234L96.4737 15.0002L96.5211 15.0843L96.5602 15.1688L96.5913 15.2534L96.6224 15.3372L96.6461 15.4218L96.6695 15.5058L96.6775 15.5904L96.685 15.6745L96.6929 15.7588V15.9274H91.4734L91.5048 15.8126L91.5596 15.6823L91.6221 15.5365L91.7163 15.3833L91.8181 15.2224L91.9437 15.0611L92.0065 14.977L92.085 14.9005L92.1632 14.816L92.2491 14.7397L92.3351 14.6629L92.4215 14.5862L92.5234 14.5097L92.6256 14.4407L92.735 14.3715L92.8448 14.3103L92.9622 14.2492L93.0795 14.1956L93.2125 14.1417L93.3383 14.0959L93.4794 14.0576L93.6201 14.0272L93.7691 13.9965L93.9183 13.9811L94.0753 13.9655H94.2397V13.9653H94.24ZM95.8466 19.2164L95.8227 19.2703L95.7839 19.3312L95.729 19.4002L95.6668 19.4847L95.5806 19.5768L95.4864 19.669L95.3765 19.7611L95.251 19.8608L95.102 19.9529L94.9455 20.0367L94.7649 20.1213L94.5771 20.1902L94.4672 20.2209L94.3653 20.2514L94.248 20.2743L94.1304 20.2977L94.013 20.313L93.8875 20.3206L93.7544 20.3281L93.6212 20.3354L93.4253 20.3281L93.2373 20.3125L93.0651 20.2894L92.9007 20.2587L92.736 20.2126L92.587 20.1668L92.446 20.1129L92.3207 20.052L92.1949 19.9825L92.0778 19.9133L91.9679 19.8366L91.866 19.7528L91.7719 19.6682L91.6777 19.5761L91.5992 19.4839L91.5284 19.3918L91.4579 19.2997L91.3951 19.2L91.3403 19.1079L91.2858 19.0161L91.2467 18.9159L91.2078 18.824L91.1687 18.7319L91.1453 18.6476L91.098 18.4789L91.0743 18.3257L91.0586 18.1956L91.0663 18.0881H99.3268L99.3502 17.996L99.3816 17.85L99.4205 17.6735L99.4596 17.4667L99.4984 17.2288L99.5298 16.9761L99.5532 16.7078L99.5609 16.4315L99.5532 16.1941L99.5373 15.9568L99.5138 15.719L99.475 15.4889L99.4279 15.2586L99.3728 15.0364L99.3023 14.8066L99.2238 14.5922L99.1376 14.3772L99.0358 14.1628L98.9261 13.9632L98.8088 13.7639L98.6755 13.5645L98.5345 13.3803L98.3855 13.2041L98.2288 13.0274L98.0564 12.859L97.8681 12.7058L97.6802 12.5522L97.4764 12.4146L97.257 12.2842L97.0377 12.1616L96.8023 12.0466L96.5517 11.9469L96.3013 11.8548L96.0347 11.7705L95.7522 11.7013L95.4702 11.6404L95.1725 11.5941L94.8588 11.5634L94.5451 11.5477L94.2078 11.5405L93.9101 11.5477L93.6049 11.5712L93.3144 11.6092L93.017 11.6552L92.7344 11.7242L92.4524 11.8087L92.1781 11.9009L91.9115 12.0081L91.6529 12.1309L91.3938 12.261L91.1509 12.3992L90.9083 12.5598L90.6811 12.7206L90.4616 12.897L90.2421 13.0813L90.0383 13.2806L89.8428 13.4877L89.6621 13.7022L89.4902 13.9244L89.3256 14.1545L89.1689 14.392L89.0276 14.6374L88.902 14.8901L88.7849 15.1511L88.6751 15.4194L88.5891 15.6877L88.5027 15.9714L88.4407 16.2475L88.3936 16.5387L88.3542 16.8301L88.3308 17.1211L88.3233 17.4198L88.3308 17.7037L88.3468 17.9874L88.3702 18.2635L88.409 18.5318L88.4561 18.7923L88.5192 19.0527L88.5897 19.306L88.6679 19.5435L88.7621 19.7814L88.8642 20.0114L88.9736 20.2337L89.0991 20.4481L89.2324 20.6552L89.3732 20.8468L89.5301 21.038L89.6871 21.2147L89.8592 21.3831L90.0473 21.5439L90.2354 21.6972L90.4395 21.8432L90.651 21.9738L90.8702 22.0964L91.0974 22.2036L91.3403 22.3033L91.5835 22.3954L91.8421 22.4719L92.1089 22.5414L92.3827 22.595L92.6652 22.6411L92.963 22.6718L93.2607 22.6949H93.5743L93.9505 22.6871L94.3108 22.6642L94.6555 22.6181L94.9846 22.5643L95.2986 22.488L95.5963 22.4037L95.8786 22.3038L96.1451 22.1963L96.3958 22.0816L96.6309 21.9514L96.8499 21.8211L97.0617 21.6753L97.2575 21.5296L97.4379 21.3836L97.6103 21.2301L97.7667 21.0693L97.9157 20.916L98.0495 20.7625L98.1748 20.6094L98.2847 20.4559L98.3866 20.3021L98.4808 20.1647L98.5667 20.0185L98.638 19.8881L98.7631 19.6505L98.8493 19.4512L98.9043 19.3052L98.9432 19.213H95.8477V19.2164H95.8466ZM6.67711 6.85971L6.6694 6.72881L6.65344 6.5987L6.62231 6.46832L6.5832 6.33795L6.52095 6.20783L6.44964 6.07746L6.40282 6.01657L6.35573 5.95489L6.30066 5.90102L6.24612 5.83987L6.17535 5.78626L6.11283 5.7324L6.03434 5.68633L5.95586 5.64027L5.86993 5.59447L5.77601 5.54841L5.67385 5.5099L5.57222 5.47971L5.46234 5.44146L5.34528 5.41856L5.21971 5.38759L5.08642 5.37198L4.94568 5.35714L4.79669 5.34179L4.64744 5.33398H1.75577L0.979709 8.83719H4.02861L4.22469 8.82938L4.40507 8.81429L4.58492 8.79113L4.7496 8.76823L4.91428 8.73752L5.063 8.70682L5.20401 8.66075L5.3373 8.6225L5.47059 8.5767L5.58792 8.52283L5.69779 8.46142L5.80687 8.40755L5.90105 8.33859L5.99524 8.27744L6.08117 8.20848L6.15965 8.13171L6.23042 8.06249L6.30092 7.98572L6.356 7.90167L6.41107 7.8249L6.45816 7.74084L6.50525 7.65627L6.54462 7.57222L6.57575 7.48036L6.59916 7.39578L6.62284 7.30366L6.64625 7.21935L6.66967 7.03562L6.67711 6.85971ZM14.0206 6.85971L14.0126 6.72881L13.9963 6.5987L13.9652 6.46832L13.9261 6.33795L13.895 6.26899L13.8636 6.20783L13.8322 6.13887L13.7934 6.07746L13.7463 6.01657L13.6986 5.95489L13.6441 5.90102L13.5896 5.83987L13.5191 5.78626L13.4483 5.7324L13.3775 5.68633L13.299 5.64027L13.2131 5.59447L13.1189 5.54841L13.0176 5.51016L12.9157 5.47971L12.8058 5.44146L12.6882 5.41856L12.5629 5.38785L12.4296 5.37224L12.2886 5.35714L12.1476 5.34153L11.9906 5.33398H9.09868L8.33087 8.83693H11.3718L11.5676 8.82912L11.748 8.81403L11.9286 8.79087L12.0928 8.76797L12.2572 8.73726L12.4064 8.70656L12.5475 8.66049L12.6885 8.62224L12.814 8.57644L12.9311 8.52257L13.049 8.46116L13.1503 8.40729L13.2522 8.33833L13.3387 8.27718L13.4246 8.20822L13.5028 8.13145L13.5733 8.06223L13.6441 7.98546L13.6986 7.90141L13.7537 7.82464L13.8011 7.74058L13.8479 7.65601L13.887 7.57196L13.9184 7.48009L13.9418 7.39552L13.9652 7.3034L13.9886 7.21908L14.0123 7.03536L14.0206 6.85971ZM5.68981 12.1335L5.68183 12.0109L5.66613 11.8806L5.64272 11.7427L5.59537 11.6123L5.57195 11.5509L5.54056 11.4819L5.50172 11.4205L5.46234 11.3591L5.41525 11.2982L5.36843 11.2368L5.31336 11.1759L5.25855 11.1223L5.19603 11.0684L5.12553 11.015L5.04704 10.9614L4.96856 10.9154L4.88209 10.8688L4.78818 10.8308L4.694 10.7926L4.58412 10.7543L4.47451 10.7236L4.35691 10.6931L4.23134 10.6702L4.09832 10.6471L3.95758 10.6312L3.81631 10.6159L3.6596 10.6081H0.775916L0.00012207 14.1188H2.83725L3.04104 14.111L3.23686 14.1037L3.42522 14.0878L3.59735 14.0725L3.76975 14.0496L3.92645 14.0189L4.07544 13.9806L4.22469 13.9424L4.35771 13.896L4.48302 13.85L4.60088 13.7961L4.71821 13.7428L4.8201 13.6814L4.92227 13.6202L5.0082 13.551L5.09466 13.4818L5.17288 13.4128L5.25137 13.336L5.31389 13.2593L5.37667 13.1825L5.43121 13.0984L5.4783 13.0141L5.51741 12.9301L5.55626 12.8458L5.58765 12.7617L5.61904 12.6696L5.64246 12.5853L5.65815 12.4932L5.68157 12.3167L5.68981 12.1335ZM13.033 12.1335L13.0253 12.0109L13.0093 11.8806L12.9859 11.7427L12.9388 11.6123L12.9154 11.5509L12.884 11.4819L12.8449 11.4207L12.8061 11.3596L12.759 11.2984L12.7116 11.2365L12.6565 11.1756L12.6015 11.122L12.5392 11.0681L12.4684 11.0148L12.39 10.9612L12.3117 10.9151L12.2258 10.8685L12.1316 10.8305L12.0374 10.7923L11.9281 10.754L11.8182 10.7233L11.7006 10.6924L11.575 10.6695L11.4418 10.6463L11.3085 10.6304L11.1592 10.6151L11.0028 10.6073H8.11909L7.3433 14.1183H10.1804L10.3842 14.1105L10.58 14.1032L10.7679 14.0873L10.94 14.072L11.1124 14.0491L11.2691 14.0184L11.4183 13.9801L11.5673 13.9418L11.7006 13.8955L11.8259 13.8495L11.9518 13.7956L12.0611 13.7423L12.163 13.6808L12.2649 13.6197L12.3588 13.5505L12.4453 13.4812L12.5161 13.4123L12.5945 13.3355L12.6568 13.2587L12.7196 13.182L12.7747 13.0979L12.8217 13.0136L12.8606 12.9296L12.8997 12.8452L12.9308 12.7612L12.9622 12.6691L12.9859 12.5848L13.0013 12.4926L13.025 12.3162L13.033 12.1335ZM20.7135 9.99469V9.86458L20.6975 9.7342L20.6664 9.60357L20.627 9.47345L20.5962 9.40423L20.5648 9.34308L20.5334 9.28192L20.4943 9.22051L20.4472 9.15155L20.3998 9.09768L20.3453 9.03653L20.2822 8.98292L20.22 8.9215L20.149 8.87544L20.0785 8.82158L20 8.77552L19.914 8.72972L19.8199 8.68366L19.7177 8.6454L19.6158 8.61469L19.5059 8.5767L19.3889 8.5538L19.263 8.53064L19.1297 8.50722L18.989 8.49213L18.8397 8.47677L18.6908 8.46897H15.7994L15.0236 11.9724H18.0645L18.2603 11.9649L18.4486 11.9493L18.6208 11.9264L18.7932 11.9035L18.9499 11.8728L19.0989 11.8423L19.2481 11.8041L19.3811 11.7577L19.5067 11.7119L19.6323 11.6581L19.7419 11.6045L19.8441 11.5433L19.946 11.4822L20.0399 11.4129L20.1261 11.344L20.2043 11.275L20.2751 11.1982L20.3376 11.1217L20.4001 11.0374L20.4552 10.9609L20.5023 10.8763L20.5491 10.792L20.5805 10.7077L20.6199 10.6239L20.6433 10.5318L20.6667 10.4475L20.6824 10.3556L20.7058 10.1714L20.7135 9.99469ZM19.6552 15.491V15.3606L19.6392 15.23L19.6078 15.0999L19.561 14.9695L19.5059 14.8394L19.4274 14.709L19.3886 14.6478L19.3412 14.5867L19.2862 14.5328L19.2239 14.4719L19.1611 14.4183L19.0909 14.3639L19.0201 14.3176L18.9339 14.2718L18.848 14.2258L18.7615 14.1797L18.6596 14.1412L18.5577 14.1105L18.4404 14.0725L18.3231 14.0496L18.1975 14.0267L18.0722 14.0035L17.9312 13.9879L17.7822 13.9726L17.6255 13.9647H14.7415L13.9655 17.4685H17.0061L17.2017 17.4609L17.3898 17.4456L17.5704 17.4222L17.7346 17.3993L17.8915 17.3688L18.0485 17.3381L18.1893 17.2998L18.3225 17.2535L18.4481 17.2077L18.5734 17.1539L18.683 17.093L18.7929 17.0391L18.8868 16.9701L18.981 16.909L19.0672 16.8398L19.1457 16.7633L19.2162 16.694L19.2787 16.6173L19.3412 16.5332L19.3963 16.4564L19.4437 16.3724L19.4825 16.2878L19.5219 16.2038L19.5527 16.1116L19.5841 16.0273L19.6076 15.9355L19.6238 15.8509L19.6392 15.7588L19.6472 15.6669L19.6546 15.5748V15.491H19.6552ZM11.9752 17.6296V17.4992L11.959 17.3691L11.9281 17.2387L11.889 17.1083L11.8265 16.9782L11.7557 16.8476L11.7086 16.7867L11.6618 16.7253L11.6067 16.6714L11.5442 16.6108L11.4814 16.5569L11.4109 16.5033L11.3404 16.4572L11.2622 16.4034L11.176 16.3654L11.0818 16.3196L10.9799 16.281L10.878 16.2431L10.7681 16.2121L10.6508 16.1816L10.5255 16.1585L10.3922 16.1434L10.2512 16.1202L10.1105 16.1124L9.95376 16.1049H7.06209L6.28549 19.6076H9.3344L9.52223 19.5998L9.71059 19.5844L9.89044 19.5615L10.0554 19.5383L10.2118 19.5079L10.3688 19.4694L10.5098 19.4314L10.6431 19.3934L10.7764 19.3395L10.8934 19.2935L11.0033 19.2323L11.1129 19.1787L11.2071 19.1092L11.3013 19.0486L11.3872 18.9791L11.4657 18.9026L11.5362 18.8336L11.599 18.7569L11.6615 18.6723L11.7161 18.5955L11.7634 18.5115L11.8105 18.4272L11.8419 18.3434L11.8807 18.2512L11.9042 18.1669L11.9281 18.0748L11.9438 17.9905L11.9595 17.8984L11.9675 17.8063L11.9755 17.7219V17.6296H11.9752Z" fill="black" stroke="#2F2C29" stroke-width="0.265786" stroke-miterlimit="2.613"/>
</g>
<defs>
<clipPath id="clip0_1763_4225">
<rect width="125" height="32" fill="white"/>
</clipPath>
</defs>
</svg>
