<svg width="110" height="32" viewBox="0 0 110 32" fill="none" xmlns="http://www.w3.org/2000/svg">
<g clip-path="url(#clip0_1763_4221)">
<g clip-path="url(#clip1_1763_4221)">
<path d="M35.8354 21.6635H30.6929V10.336H35.8354C39.5396 10.336 41.3945 12.1213 41.3945 15.6906C41.3931 19.6716 39.5396 21.6635 35.8354 21.6635ZM32.8901 19.84H35.5026C37.9639 19.84 39.1931 18.4573 39.1931 15.6893C39.1931 13.333 37.9625 12.1542 35.5026 12.1542H32.8901V19.84ZM43.6963 21.6635H41.4385L46.4751 10.336H48.8387L53.9826 21.6635H51.619L50.1257 18.5744H46.3266L47.0815 16.7523H49.5455L47.604 12.4976L43.6963 21.6635ZM52.741 10.336H61.7418V12.1569H58.3414V21.6635H56.1441V12.1569H52.741V10.336ZM62.872 21.6635H60.6143L65.6509 10.336H68.0145L73.1584 21.6635H70.792L69.2987 18.5744H65.4996L66.2545 16.7523H68.7185L66.7784 12.4976L62.872 21.6635ZM79.7598 21.6635H74.6172V10.336H79.7598C83.4668 10.336 85.3189 12.1213 85.3189 15.6906C85.3189 19.6716 83.4668 21.6635 79.7598 21.6635ZM76.8159 19.84H79.4284C81.8883 19.84 83.1216 18.4573 83.1216 15.6893C83.1216 13.333 81.8896 12.1542 79.4284 12.1542H76.8159V19.84ZM86.808 16.0155C86.808 12.174 88.7949 10.2545 92.7659 10.2545C96.6764 10.2545 98.6289 12.174 98.6289 16.0155C98.6289 19.8348 96.675 21.745 92.7659 21.745C88.9709 21.745 86.9854 19.8348 86.808 16.0155ZM92.7659 19.919C95.1529 19.919 96.3478 18.602 96.3478 15.9656C96.3478 13.3712 95.1529 12.0727 92.7659 12.0727C90.3156 12.0727 89.0905 13.3712 89.0905 15.9656C89.0905 18.602 90.3156 19.919 92.7659 19.919ZM107.802 17.0799V19.7322C107.294 19.8585 106.84 19.9216 106.44 19.9216C103.752 19.9216 102.41 18.5613 102.41 15.8419C102.41 13.3304 103.835 12.0766 106.682 12.0766C107.872 12.0766 108.977 12.2884 110 12.7107V10.8083C108.977 10.44 107.815 10.2545 106.516 10.2545C102.257 10.2545 100.128 12.1161 100.128 15.8419C100.128 19.7756 102.22 21.745 106.407 21.745C107.847 21.745 109.043 21.5451 110 21.1425V15.2157H106.45L105.707 17.0786L107.802 17.0799ZM21.8104 21.599L19.4907 20.1361L17.5561 23.2277L15.3066 22.5989L13.3252 25.4919L13.427 26.4023L24.1974 24.5039L23.5717 18.0653L21.8104 21.599ZM11.766 18.8244L13.4944 18.5968C13.7735 18.7165 13.9687 18.7626 14.3042 18.8441C14.8267 18.9744 15.4304 19.0993 16.3255 18.6678C16.5331 18.5692 16.9676 18.1889 17.1422 17.9732L24.2221 16.7444L24.944 25.1078L12.8151 27.1996L11.766 18.8244ZM24.9165 15.8103L24.218 15.9379L22.876 2.66602L0.00012207 5.20383L2.81887 27.0864L5.496 26.7141C5.28287 26.4221 4.94875 26.0682 4.38087 25.6156C3.59162 24.9894 3.87075 23.9237 4.33687 23.2514C4.9515 22.1161 8.12362 20.6715 7.9435 18.856C7.87887 18.1955 7.76887 17.3364 7.12812 16.747C7.10475 16.9917 7.14737 17.2272 7.14737 17.2272C7.14737 17.2272 6.88475 16.9062 6.75275 16.4681C6.62212 16.2997 6.52037 16.2471 6.3815 16.0221C6.2825 16.2813 6.29625 16.5826 6.29625 16.5826C6.29625 16.5826 6.08175 16.0958 6.046 15.6853C5.91812 15.8695 5.8865 16.2182 5.8865 16.2182C5.8865 16.2182 5.60737 15.4512 5.67062 15.038C5.54275 14.6789 5.16462 13.9658 5.27187 12.345C5.97037 12.8133 7.50762 12.7015 8.10575 11.8569C8.30512 11.5767 8.44125 10.8136 8.00675 9.30987C7.72762 8.34552 7.03737 6.90887 6.76787 6.36289L6.73625 6.38526C6.87787 6.82467 7.17075 7.74429 7.2835 8.19159C7.62312 9.54536 7.71387 10.0164 7.55437 10.64C7.41825 11.182 7.09375 11.5372 6.26875 11.9345C5.44375 12.3331 4.34925 11.3635 4.27912 11.3109C3.4775 10.7005 2.85737 9.70323 2.78862 9.21909C2.71712 8.6889 3.10762 8.37052 3.30562 7.93768C3.02375 8.0153 2.70887 8.15213 2.70887 8.15213C2.70887 8.15213 3.08425 7.77981 3.54762 7.4588C3.74012 7.33776 3.8515 7.26014 4.05362 7.09963C3.76075 7.09569 3.52287 7.10227 3.52287 7.10227C3.52287 7.10227 4.011 6.84967 4.517 6.6668C4.14712 6.65101 3.79237 6.66417 3.79237 6.66417C3.79237 6.66417 4.88137 6.19844 5.74075 5.85638C6.332 5.62483 6.9095 5.69324 7.234 6.14187C7.66025 6.72995 8.10712 7.04964 9.05587 7.2483C9.63887 7.00096 9.81487 6.87466 10.5464 6.6839C11.1899 6.00636 11.6959 5.91821 11.6959 5.91821C11.6959 5.91821 11.4456 6.13792 11.3782 6.48393C11.744 6.20896 12.1441 5.97873 12.1441 5.97873C12.1441 5.97873 11.9887 6.1616 11.8444 6.45235L11.8774 6.49971C12.3036 6.25501 12.8041 6.06293 12.8041 6.06293C12.8041 6.06293 12.6611 6.23659 12.4934 6.46025C12.8151 6.45761 13.4669 6.4734 13.7185 6.50103C15.2117 6.5326 15.5211 4.97492 16.0945 4.78021C16.8122 4.5355 17.1326 4.38684 18.355 5.53537C19.4041 6.52208 20.2236 8.28632 19.8166 8.68232C19.4756 9.00991 18.8019 8.5547 18.0566 7.66403C17.662 7.19304 17.365 6.63654 17.2247 5.92874C17.1065 5.33145 16.6486 4.98544 16.6486 4.98544C16.6486 4.98544 16.914 5.55247 16.914 6.05241C16.914 6.32605 16.9497 7.34697 17.4076 7.91926C17.3622 8.00346 17.3416 8.33368 17.2907 8.39683C16.7586 7.78112 15.6146 7.34039 15.429 7.21015C16.0601 7.70482 17.5107 8.84151 18.0676 9.93084C18.5942 10.961 18.2835 11.9056 18.5502 12.1503C18.6259 12.22 19.6832 13.4804 19.8867 14.1145C20.2415 15.2183 19.9074 16.3787 19.444 17.0983L18.1474 17.2917C17.9576 17.2417 17.8297 17.2154 17.6592 17.122C17.7527 16.9628 17.9397 16.5668 17.9411 16.4852L17.8682 16.3629C17.464 16.9102 16.7889 17.4417 16.2265 17.7469C15.4909 18.1455 14.6439 18.0837 14.0925 17.9206C12.5264 17.4588 11.0455 16.4458 10.6894 16.18C10.6894 16.18 10.6784 16.3918 10.7457 16.4405C11.1404 16.8668 12.0451 17.6377 12.9196 18.1745L11.0565 18.3705L11.9379 24.9341C11.5474 24.988 11.4869 25.0143 11.0592 25.0722C10.6825 23.7987 9.962 22.9659 9.17412 22.4818C8.47975 22.0542 7.52137 21.9582 6.60287 22.1318L6.54375 22.1976C7.18175 22.1345 7.93525 22.2226 8.708 22.691C9.467 23.1501 10.0789 24.3368 10.3044 25.0512C10.5931 25.9642 10.7925 26.9404 10.0156 27.9758C9.46287 28.7112 7.85137 29.1177 6.54787 28.2389C6.89575 28.7744 7.366 29.2125 7.9985 29.294C8.939 29.4164 9.83137 29.2598 10.4446 28.6573C10.9685 28.1416 11.2476 27.0628 11.1734 25.9274L12.0025 25.8129L12.3022 27.8508L26.0357 26.2681L24.9165 15.8103ZM16.5606 10.2742C16.5221 10.3584 16.4616 10.4124 16.5524 10.6847L16.5579 10.7005L16.5716 10.736L16.6087 10.8176C16.7724 11.1359 16.9511 11.4372 17.2495 11.5911C17.3265 11.5793 17.4076 11.5701 17.4901 11.5661C17.7706 11.5543 17.948 11.5964 18.0607 11.6556C18.0704 11.6017 18.0731 11.524 18.0662 11.4083C18.0442 11.0044 18.1501 10.3176 17.3389 9.95583C17.0322 9.82032 16.6032 9.86111 16.4602 10.0321C16.4864 10.0348 16.5097 10.04 16.5276 10.0466C16.7462 10.1177 16.6005 10.1887 16.5606 10.2742ZM18.8349 14.0434C18.729 13.9869 18.2312 14.0092 17.882 14.0487C17.2165 14.1237 16.4974 14.3447 16.3392 14.4618C16.0532 14.6736 16.1825 15.0433 16.3942 15.1946C16.9882 15.6182 17.508 15.9037 18.0566 15.834C18.3935 15.7919 18.6905 15.2814 18.9009 14.817C19.0466 14.4986 19.0466 14.1553 18.8349 14.0434ZM12.9402 10.7741C13.1286 10.6031 12.0052 10.3795 11.1335 10.9478C10.4914 11.3675 10.4707 12.2674 11.0854 12.7765C11.1472 12.8265 11.1981 12.8633 11.2449 12.8923C11.425 12.8107 11.6299 12.7291 11.865 12.6568C12.2637 12.5331 12.5937 12.4687 12.866 12.4358C12.9966 12.2963 13.1479 12.0516 13.1094 11.6082C13.0585 11.0044 12.5814 11.1004 12.9402 10.7741Z" fill="#632CA6"/>
</g>
</g>
<defs>
<clipPath id="clip0_1763_4221">
<rect width="110" height="32" fill="white"/>
</clipPath>
<clipPath id="clip1_1763_4221">
<rect width="110" height="26.6667" fill="white" transform="translate(0.00012207 2.66602)"/>
</clipPath>
</defs>
</svg>
