<svg width="81" height="32" viewBox="0 0 81 32" fill="none" xmlns="http://www.w3.org/2000/svg">
<g clip-path="url(#clip0_1763_4290)">
<path d="M10.1128 3.27734H10.843C13.3779 3.33104 15.8716 4.32435 17.6626 6.08278C17.0013 6.74051 16.3262 7.3714 15.6787 8.02914C14.673 7.14321 13.4606 6.45863 12.138 6.21701C10.1817 5.81432 8.07382 6.17674 6.43436 7.26402C4.64336 8.40498 3.43098 10.3379 3.16922 12.4051C2.87991 14.4454 3.47232 16.5931 4.83623 18.177C6.14504 19.7207 8.1427 20.6872 10.2092 20.7543C12.138 20.8617 14.1495 20.2845 15.5547 18.969C16.6569 18.0428 17.1666 16.6334 17.3319 15.2642C15.045 15.2642 12.758 15.2776 10.471 15.2642V12.499H20.1011C20.5971 15.4656 19.8807 18.8079 17.5661 20.9288C16.0231 22.4322 13.8877 23.3181 11.7109 23.4926C9.60306 23.6939 7.4263 23.3047 5.55264 22.3114C3.30699 21.1435 1.51599 19.1703 0.634263 16.8481C-0.192354 14.7139 -0.206131 12.2977 0.565378 10.15C1.268 8.19021 2.61814 6.45863 4.35404 5.25055C6.02105 4.05589 8.04626 3.39815 10.1128 3.27734Z" fill="#3780FF"/>
<path d="M63.9474 4.34375H67.1448V23.5404C66.0839 23.5404 65.0082 23.5538 63.9474 23.5269C63.9623 17.1415 63.9474 10.7426 63.9474 4.34375V4.34375Z" fill="#38B137"/>
<path d="M26.465 10.861C28.198 10.5317 30.0753 10.9005 31.5063 11.941C32.8061 12.8629 33.7119 14.3117 33.9876 15.8921C34.3421 17.7228 33.8957 19.7248 32.7142 21.1735C31.4407 22.7935 29.3533 23.6628 27.3184 23.5311C25.4542 23.4257 23.6424 22.4906 22.5397 20.9628C21.2925 19.277 20.9905 16.959 21.6732 14.9834C22.3559 12.8629 24.2857 11.2429 26.465 10.861V10.861ZM26.8589 13.3634C26.15 13.5478 25.4935 13.9561 25.0209 14.5356C23.7475 16.0634 23.8262 18.5526 25.231 19.975C26.0318 20.7916 27.2396 21.1735 28.3555 20.9496C29.3927 20.7653 30.2985 20.0672 30.7974 19.1453C31.6639 17.578 31.4144 15.418 30.0885 14.1931C29.2351 13.4029 27.9879 13.0736 26.8589 13.3634Z" fill="#FA3913"/>
<path d="M40.3202 10.862C42.3041 10.4799 44.4719 11.0333 45.9565 12.43C48.3739 14.604 48.6367 18.6755 46.574 21.1789C45.3259 22.7601 43.3026 23.6297 41.3056 23.5375C39.4005 23.4848 37.5218 22.5361 36.3919 20.9681C35.1175 19.242 34.8416 16.8703 35.5642 14.8544C36.2868 12.7989 38.1787 11.2309 40.3202 10.862V10.862ZM40.7144 13.3655C40.0049 13.5499 39.348 13.9584 38.875 14.525C37.6138 16.0271 37.6663 18.4778 39.0195 19.914C39.821 20.7705 41.0691 21.1921 42.2252 20.9549C43.25 20.7573 44.1697 20.0721 44.6689 19.1498C45.5229 17.5687 45.2733 15.4078 43.9332 14.1824C43.0792 13.3918 41.8311 13.0756 40.7144 13.3655Z" fill="#FCBD06"/>
<path d="M53.3104 11.6578C54.8896 10.6756 56.9905 10.4028 58.6932 11.2486C59.2288 11.4805 59.6682 11.8761 60.0939 12.2717C60.1076 11.9034 60.0939 11.5214 60.1076 11.1394C61.0276 11.1531 61.9476 11.1394 62.8814 11.1531V23.1852C62.8677 24.9996 62.4008 26.9231 61.0825 28.2463C59.6407 29.706 57.4299 30.1562 55.4388 29.8561C53.3104 29.5423 51.4567 28.0008 50.6328 26.05C51.4567 25.6544 52.3218 25.3406 53.1731 24.9723C53.6537 26.0909 54.6287 27.0459 55.8508 27.2641C57.0729 27.4824 58.4873 27.1823 59.2837 26.1728C60.1351 25.136 60.1351 23.7172 60.0939 22.4485C59.4622 23.0624 58.7344 23.6081 57.8556 23.8127C55.9469 24.3448 53.846 23.6899 52.3767 22.4076C50.8937 21.1253 50.0149 19.1472 50.0972 17.1828C50.1384 14.9591 51.4017 12.8174 53.3104 11.6578V11.6578ZM56.1529 13.404C55.3153 13.5404 54.5326 14.0042 53.997 14.6454C52.7063 16.1733 52.7063 18.6152 54.0108 20.1158C54.7523 21.0025 55.9469 21.4936 57.1004 21.3708C58.1852 21.2617 59.1876 20.5796 59.7231 19.6383C60.6294 18.0422 60.4784 15.8732 59.2562 14.4817C58.501 13.6222 57.2926 13.1993 56.1529 13.404V13.404Z" fill="#3780FF"/>
<path d="M71.258 12.3059C72.8271 10.831 75.246 10.3307 77.2596 11.1076C79.1686 11.8318 80.3847 13.6622 80.9992 15.5452C78.1618 16.7303 75.3375 17.9022 72.5002 19.0873C72.8924 19.8379 73.4939 20.5227 74.3046 20.7992C75.4421 21.2074 76.802 21.0625 77.7565 20.2988C78.1357 20.0091 78.4364 19.6272 78.7241 19.2585C79.4432 19.7457 80.1624 20.2198 80.8815 20.707C79.8616 22.2477 78.1488 23.3274 76.3051 23.4986C74.2654 23.7488 72.0948 22.9587 70.7742 21.3522C68.6037 18.824 68.8129 14.5839 71.258 12.3059V12.3059ZM72.6571 14.7419C72.2125 15.3872 72.0295 16.1772 72.0425 16.9541C73.9385 16.1641 75.8344 15.374 77.7303 14.5707C77.4165 13.8333 76.6582 13.3856 75.8867 13.2671C74.6445 13.0433 73.3501 13.7148 72.6571 14.7419V14.7419Z" fill="#FA3913"/>
</g>
<defs>
<clipPath id="clip0_1763_4290">
<rect width="81" height="32" fill="white"/>
</clipPath>
</defs>
</svg>
