<svg width="133" height="32" viewBox="0 0 133 32" fill="none" xmlns="http://www.w3.org/2000/svg">
<g clip-path="url(#clip0_1763_4232)">
<path d="M11.7004 4C10.1639 4 8.64242 4.3007 7.22288 4.88492C5.80334 5.46915 4.51351 6.32546 3.42705 7.40496C2.34058 8.48447 1.47874 9.76603 0.89075 11.1765C0.302758 12.5869 0.00012207 14.0986 0.00012207 15.6253C0.00012207 17.1519 0.302758 18.6636 0.89075 20.0741C1.47874 21.4845 2.34058 22.7661 3.42705 23.8456C4.51351 24.9251 5.80334 25.7814 7.22288 26.3656C8.64242 26.9499 10.1639 27.2506 11.7004 27.2506C14.8035 27.2506 17.7795 26.0258 19.9737 23.8456C22.1679 21.6654 23.4006 18.7085 23.4006 15.6253C23.4006 12.5421 22.1679 9.58513 19.9737 7.40496C17.7795 5.2248 14.8035 4 11.7004 4" fill="#E30D24"/>
<path d="M18.4673 20.1599C18.236 20.031 18.3068 20.0732 17.1929 19.4166C17.1929 19.4166 16.3432 19.5784 15.2411 19.8152C15.2572 19.8204 15.273 19.8267 15.2883 19.834C15.3049 19.8444 15.3207 19.8562 15.3355 19.8692C15.3525 19.8818 15.3683 19.8959 15.3827 19.9114C15.4079 19.9423 15.4279 19.9772 15.4417 20.0145C15.4471 20.0322 15.451 20.0502 15.4535 20.0685L15.4582 20.0919V20.1154C15.4587 20.1304 15.4571 20.1454 15.4535 20.1599C15.4526 20.1696 15.4502 20.1791 15.4464 20.1881L15.4369 20.2115H15.4086C15.4057 20.2039 15.4034 20.196 15.4015 20.1881C15.3998 20.1786 15.3974 20.1692 15.3945 20.1599L15.3827 20.1294C15.3779 20.1174 15.3723 20.1057 15.3661 20.0943L15.3473 20.0568L15.3237 20.0192L15.2977 19.9817C15.2906 19.9676 15.2765 19.9583 15.2647 19.9489L15.2316 19.9184C15.2198 19.9067 15.2104 19.8996 15.1986 19.895C15.188 19.8865 15.177 19.8787 15.1655 19.8715C15.1565 19.8654 15.147 19.8599 15.1372 19.8551C15.1296 19.8507 15.1217 19.8468 15.1136 19.8434L14.8776 19.895C14.8848 19.8958 14.8919 19.8974 14.8988 19.8996C14.9159 19.9064 14.9324 19.9142 14.9484 19.9231C14.966 19.9323 14.9826 19.9433 14.998 19.9559C15.0141 19.9687 15.0291 19.9828 15.0428 19.9981C15.0559 20.0144 15.0678 20.0316 15.0782 20.0497C15.0875 20.0662 15.0954 20.0835 15.1018 20.1013C15.1069 20.119 15.1109 20.137 15.1136 20.1552V20.2021C15.1153 20.2162 15.1153 20.2303 15.1136 20.2444C15.1118 20.2549 15.1086 20.2651 15.1042 20.2748C15.1014 20.2828 15.0983 20.2906 15.0947 20.2983H15.0688L15.0593 20.2748C15.0577 20.2653 15.0554 20.2559 15.0522 20.2467L15.0404 20.2162L15.0239 20.181L15.005 20.1435C14.9978 20.1306 14.9899 20.1181 14.9814 20.106L14.9555 20.0685C14.9484 20.0544 14.9342 20.045 14.9248 20.0357L14.8918 20.0052C14.8823 19.9934 14.8682 19.9887 14.8564 19.9817C14.8465 19.9734 14.8363 19.9656 14.8257 19.9583L14.795 19.9419C14.7874 19.9375 14.7795 19.9335 14.7714 19.9301L14.7549 19.9207L14.1271 19.3908L14.1507 19.2313L14.0846 18.8608L14.1483 18.7014V18.1714L13.4639 18.7787L13.445 18.76L15.4535 16.4126L15.4369 16.3704L14.8493 16.2673L14.8516 16.2391H15.9042C16.0128 16.3751 16.2465 16.4126 16.4164 16.3657L16.4235 16.3423L16.2111 16.0046L16.2984 15.946C16.3834 15.8967 16.4589 15.9179 16.5415 16.0374C16.6194 16.15 16.6571 16.2954 16.5651 16.3845L16.5816 16.408C16.7193 16.3895 16.8444 16.319 16.9309 16.211C17.0489 16.0562 17.03 15.8194 16.8837 15.6482C16.7586 15.5075 16.5344 15.2847 16.5344 15.2847C16.558 15.0174 16.4164 14.7852 16.1568 14.6797C15.5904 14.4546 15.1585 14.2928 15.1585 14.2928L13.792 14.2904L13.7872 14.2599L15.1467 14.1005L15.555 13.744L17.0985 13.132C17.1482 13.1126 17.193 13.0827 17.2297 13.0442C17.2664 13.0056 17.2941 12.9596 17.3109 12.9092C17.5115 12.3629 18.1275 10.726 18.1275 10.726L20.0321 8.17236L20.0179 8.14891L18.7671 9.03531L18.7505 9.01655L19.2816 7.96131L19.258 7.94724L18.439 9.11504L18.4154 9.10566L18.5098 7.9402L18.4815 7.93317L18.1841 9.11973H18.1558L17.6743 7.93082L17.646 7.9402L18 9.35658L17.9575 10.0226L17.9316 10.0249L17.8537 9.43865L17.0111 8.01524L16.9875 8.02931L17.6649 9.5348L17.7168 10.644H17.6885L17.5422 9.60984L16.4376 8.21926L16.4164 8.23567L17.3699 9.68956L17.4312 11.2138L17.4053 11.2162L17.2118 9.77398L15.9845 8.49831L15.9633 8.51707L17.0064 9.87013L17.1291 11.6242H17.1008L16.82 9.95924L15.5455 8.87351L15.5266 8.89461L16.6288 10.0788L16.8176 11.9079L16.7893 11.915L16.4164 10.1914L15.1254 9.31671L15.1089 9.34016L16.2134 10.311L16.5132 12.1213L16.4848 12.1284L16.0057 10.4376L14.7785 9.76929L14.762 9.79274L15.8146 10.5572L16.1591 12.3113L16.1332 12.3183L15.5833 10.7096L14.4292 10.2735L14.4174 10.3016L15.385 10.848L15.7862 12.4496L15.7603 12.459L15.149 11.0215L14.0563 10.8245L14.0492 10.8527L14.9531 11.1739L15.4181 12.5716L15.3945 12.5833L14.6959 11.392L13.7778 11.317L13.7731 11.3451L14.4929 11.5796L15.0357 12.7099L15.0121 12.7263L14.2569 11.8165L13.4261 11.8657L13.4238 11.8939L14.0846 12.0158L14.6864 12.8952L14.6676 12.9139L13.8816 12.2691L12.9942 12.466L12.999 12.4965H13.7259L14.3938 13.1226L14.3796 13.1461L13.5701 12.7709L12.6426 12.9116V12.9421L13.4686 12.9749L14.1696 13.4158L14.1601 13.4415L13.3884 13.1789L12.1422 13.4134L12.1446 13.4415L13.3128 13.4158L14.0256 13.7417L14.0162 13.7652L13.2704 13.5916L11.3894 13.9059V13.9316L12.8644 14.0442L12.8691 14.07L11.6867 14.2811V14.3068L12.4939 14.3537V14.3819L11.5711 14.6211H11.5758H11.5711L11.9652 15.1323L11.9416 15.1557L11.0448 14.3983L8.72716 11.2044L6.61958 10.1304L4.94626 8.63432L4.43884 7.25781L4.41051 7.26485L4.5946 8.81957L5.40648 10.114L5.38288 10.1328L4.20282 9.1596L3.64112 8.0809L3.61044 8.08794L3.80869 9.35423L4.38455 10.3931L4.36567 10.4095L3.42635 9.6497L2.94017 8.9251L2.91184 8.93682L3.13841 9.91703L3.73788 10.7941L3.719 10.8128L2.78676 10.2805L2.3761 9.7646L2.34778 9.77867L2.61447 10.5408L3.04637 11.0801L3.03221 11.0989L2.60267 11.0168L2.59087 11.045L3.50659 11.8985L3.49715 11.9243L2.70179 11.8774L2.69471 11.9173L3.83229 12.6161L3.82757 12.6419L3.2989 12.6841L3.29654 12.7123L4.61348 13.2117V13.2352L4.09898 13.4134L4.1037 13.4439L7.28277 13.676V13.6995L5.51269 13.7136L5.47728 14.0747L7.69579 14.0395V14.0677L6.10743 14.2365L6.03663 14.6656L8.19613 14.3702L8.20321 14.396L6.51809 14.7805L6.49213 15.2777L8.71064 14.6727L8.72008 14.7008L6.89099 15.4113L6.90043 15.8639L9.14253 14.9376L9.15198 14.9611L7.34413 15.9296L7.40549 16.3939L9.6004 15.2847L9.61456 15.3082L7.82087 16.4384L7.92236 16.8324L10.0394 15.6763L10.0535 15.6998L8.4109 16.7902L8.56903 17.2099L10.3155 16.1735L10.332 16.1969L9.18502 17.0411L9.38563 17.4397L10.2353 16.9239L10.2494 16.9426L9.93081 17.217L10.0889 17.5335L10.2777 17.4655L10.5444 17.3717L10.6908 17.3178C10.7144 17.3108 10.738 17.2967 10.7616 17.2873C10.7852 17.2779 10.8088 17.2639 10.8324 17.2498C10.8773 17.222 10.9199 17.1906 10.9598 17.156L10.9905 17.1326L11.0165 17.1044C11.0348 17.0866 11.0521 17.0678 11.0684 17.0481C11.0873 17.0317 11.1014 17.0106 11.1156 16.9919L11.1581 16.9356C11.1722 16.9168 11.1817 16.8957 11.1911 16.877L11.2218 16.8207C11.237 16.7878 11.2504 16.7542 11.2619 16.7198C11.2737 16.6894 11.2808 16.6612 11.2855 16.6378L11.2997 16.5838L11.3044 16.5651L11.3327 16.5698V16.5885L11.3233 16.6448C11.3209 16.6682 11.3138 16.6987 11.302 16.7316C11.293 16.7689 11.282 16.8057 11.269 16.8418L11.243 16.9027L11.2124 16.9661C11.2029 16.9895 11.1864 17.0083 11.1722 17.0317L11.1274 17.0974L11.0778 17.1607L11.0495 17.1912L11.0188 17.2193C10.9779 17.2603 10.9337 17.2979 10.8867 17.3319L10.8159 17.3788L10.738 17.421C10.6012 17.4807 10.4643 17.5401 10.3273 17.5992L7.8846 18.5067L6.28444 20.9994L6.37885 21.0628L8.16309 19.0039L8.18669 19.0203L7.12464 20.5727L7.77603 20.4718L8.75784 19.0296L8.78144 19.0437L8.06633 20.4413L8.67995 20.4015L9.34314 19.0508L9.37147 19.0625L8.92068 20.3874L9.54139 20.3452L9.92845 19.0765L9.95913 19.0812L9.742 20.3241L10.3745 20.2021L10.5114 19.0601H10.5421V20.1459L11.0117 19.8832L10.9409 19.0625L10.9693 19.0578L11.1345 19.8082L11.302 19.902L11.4271 20.2397L11.6112 20.303L11.9841 20.6031L12.1257 20.7157L12.1234 20.7227L12.1139 20.7391L11.8708 20.6336C10.9658 20.8799 10.0649 21.141 9.1685 21.4168H9.17322L10.0866 21.9374L10.535 22.1954L10.7427 22.3126L10.7923 22.3408L10.8159 22.3525L10.8277 22.3595L10.8347 22.3619V22.3642L10.8418 22.3689C10.8724 22.3886 10.9009 22.4114 10.9268 22.4369C10.9742 22.4821 11.0091 22.5386 11.0283 22.6011C11.0413 22.6492 11.0445 22.6994 11.0377 22.7488C11.0334 22.7793 11.0255 22.8092 11.0141 22.8379L11.0023 22.8684L10.9716 22.8567L10.9811 22.8262C10.988 22.7993 10.9919 22.7718 10.9929 22.7441C10.9963 22.7012 10.9907 22.6581 10.9763 22.6175C10.9564 22.5666 10.9239 22.5214 10.8819 22.4862C10.8576 22.4649 10.8306 22.4468 10.8017 22.4322L10.7946 22.4275L10.7805 22.4228L10.7569 22.4135L10.7049 22.39C10.6341 22.3595 10.5633 22.3267 10.4854 22.2962L10.0111 22.0852L9.7066 21.9538L9.00565 22.1766C8.70591 22.2704 8.7248 22.6691 9.00801 22.7722C9.43137 22.9331 9.85702 23.0878 10.2848 23.2366C10.4357 23.2947 10.5975 23.3194 10.7589 23.3089C10.9204 23.2984 11.0776 23.2529 11.2194 23.1756L12.3405 22.6691C13.1358 22.2493 14.2569 21.3535 14.2569 21.3535L14.2758 21.3723L13.4025 22.2001C13.9949 21.9351 14.5708 21.6865 14.9531 21.5341C15.405 21.3062 15.8396 21.046 16.2535 20.7556L16.2724 20.7743L15.673 21.3137C16.3527 21.1847 17.469 21.0792 18.0732 21.0792C18.8756 21.0815 18.8921 20.3944 18.4673 20.1599ZM16.4353 15.4231C16.5415 15.5262 16.6524 15.6247 16.761 15.7279C16.7729 15.742 16.784 15.7569 16.794 15.7725C16.8 15.7799 16.8055 15.7878 16.8105 15.7959L16.8223 15.8194C16.8307 15.8352 16.8378 15.8517 16.8436 15.8686C16.8484 15.8855 16.8515 15.9027 16.853 15.9202C16.8564 15.938 16.858 15.956 16.8577 15.9741C16.8583 15.9827 16.8583 15.9913 16.8577 15.9999C16.8577 16.0093 16.853 16.0187 16.8507 16.0257C16.8468 16.0434 16.8412 16.0607 16.8341 16.0773C16.8341 16.0843 16.8271 16.0937 16.8223 16.1008L16.8105 16.1219L16.7869 16.1078L16.7964 16.0843C16.8001 16.0776 16.8033 16.0705 16.8058 16.0632C16.8102 16.0487 16.8134 16.0338 16.8153 16.0187C16.8157 16.0109 16.8157 16.003 16.8153 15.9952V15.9718C16.8143 15.9567 16.8119 15.9418 16.8082 15.9272C16.8041 15.9126 16.7986 15.8985 16.7917 15.885C16.7858 15.8711 16.7787 15.8578 16.7704 15.8452C16.7669 15.8386 16.763 15.8324 16.7586 15.8264C16.7542 15.8199 16.7495 15.8136 16.7444 15.8076C16.7348 15.7969 16.7246 15.7867 16.7138 15.7772C16.5958 15.6904 16.4778 15.5989 16.355 15.5122L16.4353 15.4231ZM15.791 15.137C15.7942 15.1152 15.8022 15.0943 15.8146 15.076C15.8167 15.0727 15.8191 15.0696 15.8216 15.0666C15.8249 15.0614 15.8289 15.0567 15.8334 15.0526L15.8547 15.0361C15.8634 15.0295 15.8729 15.024 15.883 15.0197L15.8901 15.015L15.9231 15.0103H15.9302L15.9491 15.0455L15.9444 15.0502C15.937 15.0578 15.9291 15.0649 15.9208 15.0713C15.9205 15.0738 15.9197 15.0762 15.9184 15.0783L15.9113 15.0901L15.9042 15.1018C15.9046 15.1041 15.9046 15.1065 15.9042 15.1088C15.9029 15.1121 15.9014 15.1152 15.8995 15.1182C15.8992 15.1205 15.8992 15.1229 15.8995 15.1252C15.8997 15.1276 15.8997 15.1299 15.8995 15.1323C15.8991 15.1362 15.8991 15.1401 15.8995 15.144V15.1487C15.8986 15.1533 15.8986 15.1581 15.8995 15.1628C15.9002 15.1685 15.9018 15.174 15.9042 15.1792V15.1839L15.9137 15.1956C15.9143 15.1991 15.916 15.2024 15.9184 15.205C15.9214 15.2065 15.9239 15.209 15.9255 15.212C15.93 15.2144 15.934 15.2175 15.9373 15.2214H15.942L15.9515 15.2284C15.9612 15.2323 15.9716 15.2347 15.9821 15.2355C15.9925 15.2355 16.0029 15.2339 16.0128 15.2308L16.027 15.2261L16.0317 15.2237L16.0411 15.2167C16.0455 15.2142 16.0495 15.211 16.0529 15.2073C16.0552 15.2048 16.0575 15.2025 16.06 15.2003C16.0621 15.1983 16.0637 15.1959 16.0647 15.1933L16.0671 15.1862C16.0697 15.1841 16.0721 15.1817 16.0742 15.1792L16.0789 15.1651C16.0811 15.1598 16.0827 15.1543 16.0836 15.1487V15.1393C16.083 15.1315 16.083 15.1237 16.0836 15.1159V15.1088L16.1167 15.0948L16.1214 15.1018C16.1276 15.1107 16.1331 15.1201 16.1379 15.1299L16.1426 15.1393C16.1461 15.1492 16.1485 15.1594 16.1497 15.1698V15.1933C16.1491 15.2012 16.1476 15.2091 16.145 15.2167V15.2237C16.1402 15.2459 16.1305 15.2667 16.1167 15.2847C16.1014 15.3042 16.0821 15.3202 16.06 15.3316L16.0553 15.3386L16.0459 15.341L16.0411 15.3433L16.0223 15.3504C16.0093 15.3547 15.9958 15.3571 15.9821 15.3574H15.968C15.942 15.3567 15.9164 15.3511 15.8924 15.341L15.883 15.3363C15.8729 15.3311 15.8634 15.3248 15.8547 15.3175C15.8487 15.3134 15.8432 15.3087 15.8382 15.3035C15.8322 15.2985 15.8266 15.293 15.8216 15.287C15.812 15.2758 15.804 15.2631 15.798 15.2495L15.7886 15.2284V15.2214L15.7862 15.2144V15.2073C15.7834 15.1958 15.7818 15.184 15.7815 15.1721C15.7829 15.16 15.7861 15.1482 15.791 15.137ZM15.7508 15.9108C15.7575 15.8889 15.7678 15.8683 15.7815 15.8498C15.7871 15.8415 15.7935 15.8337 15.8004 15.8264L15.8098 15.8194L15.8146 15.8147H15.8193L15.824 15.8076C15.8431 15.7956 15.8637 15.7861 15.8854 15.7795C15.915 15.7695 15.9469 15.7679 15.9774 15.7748C15.9871 15.7759 15.9966 15.7783 16.0057 15.7818L16.0293 15.7912C16.0359 15.7956 16.0422 15.8003 16.0482 15.8053C16.0548 15.8096 16.0611 15.8143 16.0671 15.8194L16.0813 15.8358L16.0931 15.8498C16.0949 15.8537 16.0964 15.8576 16.0978 15.8616L16.1072 15.885L16.086 15.9038C16.0786 15.8995 16.0716 15.8948 16.0647 15.8897C16.0617 15.888 16.0585 15.8864 16.0553 15.885L16.0435 15.8803C16.0351 15.8772 16.0264 15.8749 16.0175 15.8733C16.0099 15.8706 16.002 15.8691 15.9939 15.8686H15.9845C15.979 15.8675 15.9734 15.8675 15.968 15.8686H15.9491C15.9377 15.8713 15.9266 15.8753 15.916 15.8803C15.9053 15.8838 15.895 15.8885 15.8854 15.8944L15.8806 15.8991L15.8712 15.9085C15.8667 15.9118 15.8627 15.9157 15.8594 15.9202C15.8516 15.9282 15.8445 15.9368 15.8382 15.946C15.8358 15.9507 15.8358 15.9577 15.8311 15.9624C15.8283 15.9675 15.8267 15.9731 15.8264 15.9788C15.8223 15.9887 15.8191 15.9989 15.8169 16.0093C15.8158 16.0194 15.8158 16.0297 15.8169 16.0398V16.0515C15.8174 16.0555 15.8182 16.0594 15.8193 16.0632C15.8214 16.0709 15.823 16.0788 15.824 16.0867L15.8075 16.0984C15.8001 16.0934 15.793 16.0879 15.7862 16.082L15.7768 16.0703L15.7674 16.0562L15.7579 16.0398C15.7551 16.0329 15.7527 16.0259 15.7508 16.0187L15.7438 15.9952V15.9694C15.7433 15.9497 15.7457 15.9299 15.7508 15.9108ZM5.21767 9.22995L5.25307 9.2065L6.19476 10.4517L7.74063 11.188L7.71939 11.2302L6.05787 10.5947L5.21767 9.22995ZM3.7072 10.2688L3.73788 10.2359L4.74565 11.1786L6.78951 11.8352L6.77534 11.8774L4.61348 11.3311L3.7072 10.2688ZM3.18798 10.8152L3.2163 10.787L4.30195 11.664L6.7187 12.3206L6.7069 12.3675L4.19574 11.8282L3.18798 10.8152ZM3.38151 12.1143L3.39567 12.0721L6.73994 12.7568L6.7305 12.8037L4.25239 12.4285L3.38151 12.1143ZM6.95235 13.2704L5.19171 13.1109L4.30195 12.853L4.31375 12.8084L6.95707 13.2258L6.95235 13.2704ZM7.02316 11.4647L5.24127 10.8761L4.50256 9.86544L4.53324 9.83964L5.38996 10.7448L7.0444 11.4249L7.02316 11.4647ZM7.24973 12.1002L7.21905 12.0861L7.22141 11.7039L7.25917 11.6992L7.30165 11.929L8.08757 11.5304L8.10645 11.5632L7.24973 12.1002ZM7.35829 12.6935L7.36301 12.3113L7.40077 12.3066L7.44326 12.5364L8.4817 11.99L8.49823 12.0205L7.38897 12.7076L7.35829 12.6935ZM7.68871 13.2375L7.65567 13.2188L7.66275 12.8365L7.69815 12.8318L7.74063 13.064L8.83808 12.4731L8.85696 12.5036L7.68871 13.2375ZM8.12533 13.6831L8.09229 13.669L8.09701 13.2844L8.13477 13.2821L8.17725 13.5142L9.2511 12.9561L9.26998 12.9866L8.12533 13.6831ZM8.67287 14.07L8.64455 14.0536L8.64927 13.6737L8.68703 13.6667L8.72952 13.8988L9.67356 13.4087L9.69716 13.4392L8.67287 14.07ZM9.2629 14.4405L9.23458 14.4264L9.24166 14.0512L9.2747 14.0442L9.31954 14.2717L10.1031 13.873L10.122 13.9035L9.2629 14.4405ZM9.84349 14.7946L9.81281 14.7805L9.81989 14.4147H9.85529L9.89777 14.6258L10.4571 14.3631L10.476 14.3936L9.84349 14.7946ZM10.3202 15.151L10.2943 15.1346L10.3084 14.8298H10.3415L10.3769 14.9892L10.7757 14.8157L10.7923 14.8438L10.3202 15.151ZM10.6813 15.5356L10.653 15.5169L10.686 15.2378L10.7214 15.2425L10.7356 15.3785L11.2218 15.1651L11.2407 15.1956L10.6813 15.5356ZM10.9716 16.4033L10.9457 16.3845L10.9834 16.1641H11.0165L11.0235 16.2485L11.2548 16.1547L11.2737 16.1852L10.9716 16.4033ZM10.8796 15.9413L10.8513 15.9225L10.8867 15.7021H10.9221L10.9339 15.7889L11.2761 15.6247L11.295 15.6529L10.8796 15.9413ZM9.55791 18.5466L9.53903 18.5302L9.59332 18.4293L9.48947 18.3848L9.49419 18.359H9.76324L9.77032 18.3824L9.55791 18.5466ZM10.3131 18.5466L10.2943 18.5302L10.3486 18.4293L10.2447 18.3848L10.2494 18.359H10.5185L10.5279 18.3824L10.3131 18.5466ZM10.5114 22.9083L10.24 22.8145L9.96857 22.7253L9.42575 22.5542L9.42103 22.5518C9.4117 22.5492 9.40302 22.5447 9.39552 22.5385C9.38803 22.5324 9.38188 22.5248 9.37745 22.5163C9.37303 22.5077 9.37042 22.4983 9.3698 22.4887C9.36917 22.4791 9.37054 22.4694 9.37383 22.4604C9.37721 22.4493 9.38328 22.4392 9.39152 22.431C9.39975 22.4229 9.40989 22.4168 9.42103 22.4135L9.98037 22.261L9.98981 22.2845L9.62164 22.4768L9.99926 22.6433C10.0889 22.6808 10.1739 22.723 10.2589 22.7605L10.5185 22.8825L10.5114 22.9083ZM13.3789 18.1901L13.3553 18.1761L13.4049 18.0377L13.2633 18.0025V17.9791L13.5937 17.9228L13.6055 17.9463L13.3789 18.1901ZM12.8031 17.3741V17.3506L13.2987 17.1865L13.3152 17.2052L13.0226 17.6391L12.999 17.6297L13.0438 17.3952L12.8031 17.3741ZM12.5907 18.3871V18.3613L12.855 18.3144L12.8668 18.3379L12.6851 18.5349L12.6615 18.5231L12.6992 18.4153L12.5907 18.3871ZM12.6119 16.5768L12.6095 16.551L13.1122 16.4056L13.1288 16.4267L12.8196 16.8488L12.796 16.8371L12.8479 16.6049L12.6119 16.5768ZM13.9147 17.5781L13.8911 17.564L13.9383 17.428L13.7967 17.3928V17.3647L14.1271 17.3108L14.1389 17.3342L13.9147 17.5781ZM14.3206 16.3048L14.3796 16.1711L14.2404 16.1242L14.2451 16.1008L14.5779 16.0703L14.5897 16.0937L14.3419 16.3212L14.3206 16.3048ZM14.7572 14.8438H15.0263L15.0334 14.8673L14.821 15.0314L14.8021 15.015L14.8564 14.9142L14.7525 14.8673L14.7572 14.8438ZM14.6227 16.7949L14.4386 16.9895L14.415 16.9778L14.4528 16.8699L14.3442 16.8418V16.816L14.6086 16.7714L14.6227 16.7949ZM14.6062 15.3363L14.2758 15.5919L14.2569 15.5755L14.3466 15.4113L14.1743 15.3363L14.179 15.3105H14.5991L14.6062 15.3363ZM13.9902 14.6797H14.3253L14.3324 14.7031L14.0681 14.9072L14.0492 14.8907L14.12 14.7618L13.9831 14.7055L13.9902 14.6797ZM13.9548 16.5721L13.6905 16.8934L13.6669 16.8816L13.7188 16.7034L13.5347 16.6682V16.6378L13.9454 16.5487L13.9548 16.5721ZM13.9194 15.7678L13.9312 15.7889L13.6008 16.1664L13.5772 16.1547L13.648 15.939L13.4238 15.8921V15.8639L13.9194 15.7678ZM13.74 15.1651L13.4096 15.4184L13.386 15.402L13.4804 15.2378L13.3058 15.1651L13.3128 15.1393H13.7329L13.74 15.1651ZM13.1075 14.6797H13.3766L13.3837 14.7031L13.1712 14.8673L13.1524 14.8509L13.2066 14.75L13.1004 14.7031L13.1075 14.6797ZM12.9872 15.6576L12.999 15.681L12.6355 16.0562L12.6119 16.0421L12.6945 15.8194L12.4632 15.7584V15.7326L12.9872 15.6576ZM12.1564 17.8384V17.8103L12.5694 17.7258L12.5812 17.7493L12.3098 18.0659L12.2862 18.0541L12.3405 17.8736L12.1564 17.8384ZM12.3452 15.0338H12.7629L12.7724 15.0572L12.442 15.3128L12.4207 15.2941L12.5104 15.1299L12.3381 15.0596L12.3452 15.0338ZM12.3216 17.0692L12.0691 17.4022L12.0455 17.3905L12.088 17.2076L11.9039 17.1841V17.1537L12.3051 17.0434L12.3216 17.0692ZM12.1942 16.4009L11.9345 16.7058L11.9109 16.6917L11.9605 16.5205L11.7859 16.4853V16.4595L12.18 16.3775L12.1942 16.4009ZM11.7221 15.8029L12.0526 15.749L12.0644 15.7725L11.8378 16.0163L11.8142 16.0023L11.8614 15.8663L11.7198 15.8311L11.7221 15.8029ZM10.856 18.1104L10.8347 18.094L10.8914 17.9932L10.7852 17.9463L10.7923 17.9228H11.0613L11.0684 17.9463L10.856 18.1104ZM11.0755 18.699L11.0566 18.6826L11.1109 18.5841L11.007 18.5372L11.0117 18.5138H11.2808L11.2879 18.5372L11.0755 18.699ZM11.3823 17.7141L11.3587 17.6977L11.4295 17.5664L11.2902 17.5148L11.295 17.4866L11.6301 17.4773L11.6395 17.5007L11.3823 17.7141ZM11.59 18.2722L11.5687 18.2558L11.6395 18.1268L11.505 18.0705L11.5121 18.0448H11.8472L11.8543 18.0682L11.59 18.2722ZM11.9157 18.7506L11.8944 18.7342L11.9511 18.6333L11.8449 18.5864L11.8519 18.563H12.121L12.1281 18.5864L11.9157 18.7506ZM10.7639 21.5153L10.6719 21.5458L10.6011 21.5669L10.535 21.5857L10.4406 21.6138L10.4264 21.574L10.4335 21.5693L10.5161 21.5364L10.6152 21.4966L10.6388 21.4872L10.7403 21.4473C10.8336 21.4111 10.9272 21.376 11.0212 21.3418L11.0566 21.3301L11.1274 21.3043C11.2218 21.2715 11.3209 21.2339 11.4224 21.2011C11.5456 21.161 11.6691 21.1219 11.7929 21.0839L11.8425 21.0674L11.9605 21.0323L12.1163 20.9924L12.3051 20.9455L12.3476 20.9338L12.4372 20.915H12.4443L12.4585 20.9549L12.449 20.9572L12.3641 20.9901L12.3051 21.0112L12.1399 21.0674L11.9888 21.1167L11.9534 21.1284L11.8189 21.1753C11.7009 21.2152 11.5782 21.255 11.4531 21.2926L11.3587 21.3254L11.0873 21.4145L10.9575 21.4544L10.7639 21.5153ZM13.6433 20.9877L13.5512 21.0182L13.3317 21.0956L13.2822 21.112L13.124 21.1659C13.0485 21.1894 12.9706 21.2199 12.8951 21.2457L12.3924 21.4215L12.0691 21.5388L11.8921 21.6021C11.8378 21.6256 11.7859 21.642 11.7339 21.6607L11.6631 21.6842L11.5168 21.7381L11.4554 21.7616C11.3817 21.7879 11.3077 21.8137 11.2336 21.8389L11.1463 21.8718L11.0283 21.9116L11.0188 21.914L11.0023 21.8741L11.0117 21.8694L11.1274 21.8225L11.2124 21.785L11.4295 21.6936L11.472 21.6771L11.6325 21.6115L11.7056 21.5833L11.8614 21.5224L12.0384 21.4544C12.1446 21.4168 12.2508 21.3746 12.3617 21.3371L12.8668 21.1636L12.9848 21.1237L13.0981 21.0885L13.3105 21.0252L13.53 20.9619L13.6244 20.9338L13.7542 20.8963L13.7684 20.9385L13.6433 20.9877ZM12.4868 20.4718L12.4892 20.4437C12.4985 20.4416 12.508 20.44 12.5175 20.439C12.5277 20.4377 12.538 20.4377 12.5482 20.439C12.5615 20.4372 12.575 20.4372 12.5883 20.439H12.5977L12.6119 20.4437C12.6199 20.4456 12.6278 20.4479 12.6355 20.4507C12.6533 20.4557 12.6706 20.4619 12.6874 20.4695C12.7049 20.4789 12.7215 20.4899 12.737 20.5023C12.754 20.5149 12.7698 20.5291 12.7842 20.5445L12.796 20.5609C12.8048 20.5711 12.8127 20.5821 12.8196 20.5938C12.8289 20.6111 12.8368 20.6291 12.8432 20.6477C12.8496 20.6652 12.8543 20.6832 12.8573 20.7016L12.8621 20.7251V20.7485C12.8622 20.7627 12.8606 20.7769 12.8573 20.7907C12.8573 20.8011 12.8557 20.8113 12.8526 20.8212L12.8432 20.8447H12.8149L12.8078 20.8212C12.8055 20.8123 12.8024 20.8037 12.7983 20.7954C12.7951 20.7843 12.7912 20.7733 12.7865 20.7626C12.7819 20.7505 12.7764 20.7387 12.77 20.7274C12.7637 20.7145 12.7566 20.702 12.7488 20.6899L12.7252 20.6547L12.6969 20.6196L12.6733 20.5961C12.6714 20.5926 12.669 20.5895 12.6662 20.5867L12.6331 20.5562C12.6237 20.5469 12.6095 20.5375 12.5977 20.5328C12.5871 20.5252 12.5761 20.5182 12.5647 20.5117L12.534 20.4953L12.5104 20.4835L12.4868 20.4718ZM13.3058 20.2608C13.309 20.2614 13.3121 20.2622 13.3152 20.2631C13.333 20.2688 13.3504 20.2759 13.3671 20.2842C13.3847 20.2935 13.4013 20.3045 13.4167 20.317C13.4336 20.3289 13.4494 20.3422 13.4639 20.3569C13.4775 20.3728 13.4894 20.3901 13.4993 20.4085C13.5086 20.425 13.5165 20.4423 13.5229 20.4601C13.529 20.4777 13.5338 20.4957 13.5371 20.514L13.5418 20.5375V20.5609C13.5423 20.575 13.5415 20.5892 13.5394 20.6031C13.5385 20.6136 13.5361 20.6238 13.5323 20.6336L13.5229 20.6571H13.4969C13.4934 20.6494 13.4902 20.6416 13.4875 20.6336C13.4875 20.6242 13.4828 20.6149 13.4781 20.6055L13.4663 20.575C13.4615 20.563 13.4559 20.5512 13.4497 20.5398C13.4434 20.5269 13.4363 20.5144 13.4285 20.5023L13.4049 20.4671L13.3789 20.4296C13.3695 20.4155 13.3577 20.4062 13.3459 20.3968L13.3128 20.3663C13.3022 20.3579 13.2912 20.3501 13.2798 20.3428C13.2598 20.3284 13.2384 20.3159 13.2161 20.3053C13.2085 20.3002 13.2006 20.2955 13.1925 20.2913C13.1893 20.2907 13.1861 20.2899 13.183 20.2889L12.9801 20.3382L12.9518 20.3452L12.9754 20.3522C12.9932 20.3589 13.0105 20.3667 13.0273 20.3757C13.0439 20.3844 13.0597 20.3946 13.0745 20.4062C13.0917 20.4185 13.1075 20.4327 13.1217 20.4484C13.1349 20.4637 13.1467 20.4802 13.1571 20.4976C13.1673 20.5148 13.176 20.5328 13.183 20.5515C13.1889 20.5692 13.1937 20.5872 13.1972 20.6055L13.2019 20.6289V20.6524C13.2023 20.6657 13.2015 20.6791 13.1996 20.6922C13.1981 20.7026 13.1958 20.7128 13.1925 20.7227C13.19 20.7308 13.1868 20.7386 13.183 20.7462H13.1547L13.1476 20.7227C13.1451 20.7139 13.1419 20.7053 13.1382 20.6969L13.1264 20.6665L13.1099 20.6289L13.091 20.5938L13.0674 20.5562C13.0603 20.5422 13.0462 20.5328 13.0391 20.5211C13.0288 20.5095 13.0177 20.4985 13.006 20.4882L12.973 20.4577C12.9636 20.446 12.9494 20.4413 12.94 20.4343L12.9069 20.4132L12.8762 20.3968L12.8526 20.3851L12.8314 20.3757L12.4679 19.9583L12.2886 18.9593L12.324 18.9429L13.0178 19.7824L13.2586 19.7777L13.8769 20.1201L13.3058 20.2608ZM14.4056 20.0005L14.4079 19.977L14.4363 19.9747C14.4465 19.9735 14.4567 19.9735 14.4669 19.9747C14.4803 19.9736 14.4937 19.9736 14.5071 19.9747H14.5094L14.5307 19.9794L14.5543 19.9864C14.5907 19.9985 14.6244 20.0176 14.6534 20.0427C14.6663 20.0524 14.6782 20.0634 14.6888 20.0755L14.6982 20.0849C14.7116 20.1001 14.7234 20.1166 14.7336 20.1341C14.7428 20.1515 14.7507 20.1695 14.7572 20.1881C14.7627 20.2057 14.7666 20.2237 14.769 20.242L14.7714 20.2655V20.2889C14.7724 20.303 14.7717 20.3172 14.769 20.3311C14.7679 20.3415 14.7656 20.3518 14.762 20.3616L14.7502 20.3851H14.7266L14.7171 20.3616C14.7147 20.352 14.7116 20.3426 14.7077 20.3335L14.6959 20.303L14.6817 20.2678L14.6605 20.2303L14.6369 20.1928C14.6289 20.1798 14.6203 20.1673 14.6109 20.1552L14.5802 20.1224C14.5752 20.1172 14.5697 20.1124 14.5637 20.1083C14.558 20.1031 14.5525 20.0976 14.5472 20.0919L14.5141 20.0685L14.4811 20.045L14.4504 20.0286L14.4268 20.0169L14.4032 20.0052L14.4056 20.0005ZM15.2694 20.5539L15.2269 20.568L15.1939 20.5773L15.1136 20.6008C15.0004 20.6314 14.8862 20.6588 14.7714 20.6829L14.7384 20.6899C14.6311 20.7155 14.5233 20.739 14.415 20.7603L14.3301 20.772L14.297 20.7767L14.2522 20.7837H14.2451L14.2357 20.7415L14.2427 20.7391L14.2852 20.7251L14.3088 20.7157L14.3985 20.6876C14.5023 20.6547 14.6298 20.6196 14.7431 20.5938L14.9319 20.5562L15.0971 20.5281L15.1821 20.5187L15.2151 20.514L15.2623 20.5093H15.2694L15.2765 20.5515L15.2694 20.5539ZM15.6706 20.1576H15.6635L15.6541 20.1154H15.6612L15.7178 20.099C15.7665 20.0861 15.8153 20.0736 15.8641 20.0614C16.0121 20.027 16.1608 19.9957 16.3102 19.9676H16.3149L16.5509 19.9254L16.7468 19.8973H16.761L16.8743 19.8832L16.9097 19.8785L16.9663 19.8738H16.9757L16.9828 19.9161H16.9734L16.9191 19.9325L16.879 19.9419L16.7728 19.9653L16.6595 19.9888L16.5651 20.0099L16.3645 20.0497L16.3267 20.0568C16.1411 20.0914 15.9546 20.1211 15.7674 20.1459L15.7272 20.1506L15.6706 20.1599V20.1576ZM17.5115 20.2115L17.436 20.2232L17.3062 20.2467C17.2096 20.2636 17.1128 20.2793 17.0159 20.2936L16.8507 20.317L16.8176 20.3217L16.6831 20.3428L16.5533 20.3593L16.3503 20.3897L16.2347 20.4062L16.1969 20.4108L16.06 20.4296L15.9184 20.4484L15.8547 20.4554L15.7674 20.4648L15.7603 20.4226L15.8452 20.4038L15.9042 20.3897L16.0482 20.3616L16.1237 20.3452L16.1851 20.3335L16.2465 20.3217L16.3361 20.3053C16.3857 20.2959 16.4424 20.2842 16.5014 20.2772L16.6689 20.2514L16.8389 20.2279L17.0041 20.2045L17.1976 20.1857L17.2944 20.174L17.4784 20.1599L17.502 20.1576L17.5823 20.1529H17.5894L17.5941 20.1951L17.5115 20.2115Z" fill="white"/>
<path d="M27.924 11.0528L28.3329 11.1346C29.2979 11.3145 29.4124 11.8869 29.4124 12.4103V19.0667C29.4124 19.6064 29.2816 20.1461 28.3329 20.3424L27.924 20.4241V20.6368H32.6674V20.4241L32.2585 20.3424C31.3098 20.1461 31.1789 19.6064 31.1789 19.0667V12.4103C31.1789 11.8869 31.3098 11.3145 32.2585 11.1346L32.6674 11.0528V10.8402H27.924V11.0528ZM124.314 10.8402V14.1275H124.51L125.001 12.9173C125.491 11.707 125.982 11.0528 127.258 11.0528H127.781V19.0667C127.781 19.59 127.667 20.2115 126.702 20.3587L126.293 20.4241V20.6368H131.036V20.4241L130.611 20.3587C129.662 20.1952 129.531 19.59 129.531 19.0503V11.0692H130.055C131.331 11.0692 131.838 11.7234 132.312 12.9336L132.803 14.1439H132.999V10.8402H124.314ZM120.077 11.0528L120.47 11.1019C121.189 11.2 121.86 11.5598 121.876 13.4243L121.909 17.8891L118.114 13.3916C116.969 12.0505 116.511 11.478 116.184 10.8729L116.152 10.8402H112.684V11.0528H112.749C113.469 11.1837 113.911 11.478 114.663 12.2958L114.81 12.4593V17.5948C114.81 19.7863 114.123 20.1461 113.289 20.3587L112.995 20.4241V20.6368H116.888V20.4241L116.61 20.3587C115.874 20.1625 115.105 19.9499 115.088 17.5784L115.039 12.7047L121.909 20.8167L121.942 20.833H122.155V13.4243C122.155 11.5598 122.858 11.2 123.561 11.1019L123.937 11.0528V10.8402H120.077V11.0528ZM80.2488 18.8704C79.5946 19.9989 78.7931 20.4078 77.3046 20.4078H76.8793C76.0615 20.4078 75.6853 19.9989 75.6853 19.0994V15.6976L76.2905 15.7139C77.779 15.7467 78.1879 15.8121 78.6622 17.2513L78.8258 17.7747H79.0384V13.3752H78.8258L78.6622 13.9149C78.2042 15.3541 77.7626 15.4196 76.2905 15.4523H75.6853V11.0692H76.7321C78.4987 11.0692 79.2838 11.4453 79.8726 12.5248L80.5432 13.735H80.7395V10.8402H72.4467V11.0528L72.8556 11.1346C73.7552 11.2981 73.9352 11.7397 73.9352 12.3776V19.0667C73.9352 19.59 73.8043 20.2115 72.8556 20.3587L72.4467 20.4241V20.6368H81.1157V17.7419H80.9194L80.2488 18.8868V18.8704ZM111.261 18.8868C110.607 19.9989 109.805 20.4078 108.317 20.4078H107.908C107.074 20.4078 106.697 19.9989 106.697 19.0994V15.6976L107.303 15.7139C108.807 15.7467 109.216 15.8121 109.674 17.2513L109.838 17.7747H110.051V13.3752H109.822L109.658 13.9149C109.2 15.3541 108.758 15.4196 107.286 15.4523H106.714V11.0692H107.777C109.527 11.0692 110.312 11.4453 110.917 12.5248L111.572 13.735H111.768V10.8402H103.475V11.0528L103.884 11.1346C104.784 11.2981 104.964 11.7397 104.964 12.3776V19.0667C104.964 19.59 104.849 20.2115 103.884 20.3587L103.475 20.4241V20.6368H112.144V17.7419H111.948L111.294 18.8868H111.261ZM47.2738 19.0503V11.0528H48.5169C51.0032 11.0528 52.4753 12.8028 52.4753 15.7303C52.4753 18.7069 51.0849 20.4078 48.6478 20.4078H48.3207C47.4374 20.4078 47.2575 19.8681 47.2575 19.0503H47.2738ZM48.9259 10.8402H40.1751V11.0528L40.5676 11.1019C41.4509 11.2327 41.9579 11.5925 41.9743 13.1462L42.007 17.8891L38.2123 13.3916C37.1 12.0995 36.6093 11.478 36.2822 10.8729L36.2495 10.8402H32.7819V11.0528H32.8473C33.5506 11.1837 33.9923 11.478 34.761 12.2958L34.9082 12.4593V17.5948C34.9082 19.7863 34.2049 20.1461 33.3707 20.3587L33.0926 20.4241V20.6368H36.9855V20.4241L36.7075 20.3587C35.9714 20.1625 35.2027 19.9499 35.1863 17.5784L35.1372 12.7047L42.0397 20.833H42.2524V12.9173C42.2524 11.6907 42.7921 11.0692 43.888 11.0692C44.9512 11.0692 45.5073 11.6907 45.5073 12.9173V19.0667C45.5073 19.6391 45.3765 20.1952 44.4114 20.3587L44.0189 20.4241V20.6368H48.9259C50.6106 20.6368 52.0336 20.1134 53.015 19.1158C53.4632 18.6642 53.8169 18.128 54.0556 17.5383C54.2943 16.9486 54.4132 16.3173 54.4053 15.6812C54.4053 14.3729 53.9146 13.1626 53.015 12.2958C51.8985 11.2868 50.4294 10.758 48.9259 10.8239V10.8402ZM96.1311 19.0503V11.0528H97.3742C99.8604 11.0528 101.333 12.8028 101.333 15.7303C101.333 18.7069 99.9422 20.4078 97.5051 20.4078H97.1943C96.311 20.4078 96.1311 19.8681 96.1311 19.0503ZM97.7995 10.8402H89.0487V11.0528L89.4412 11.1019C90.3245 11.2327 90.8316 11.5925 90.8479 13.1462L90.8806 17.8891L87.0859 13.3916C85.9409 12.0505 85.4829 11.478 85.1558 10.8729L85.1231 10.8402H81.6555V11.0528H81.7209C82.4406 11.1837 82.8822 11.478 83.6346 12.2958L83.7818 12.4593V17.5948C83.7818 19.7863 83.0785 20.1461 82.2443 20.3587L81.9663 20.4241V20.6368H85.8591V20.4241L85.5811 20.3587C84.845 20.1625 84.0763 19.9499 84.0599 17.5784L84.0272 12.7047L90.897 20.8167L90.9133 20.833H91.126V12.9173C91.126 11.6907 91.6657 11.0692 92.7616 11.0692C93.8248 11.0692 94.3973 11.6907 94.3973 12.9173V19.0667C94.3973 19.6391 94.2501 20.1952 93.285 20.3587L92.8925 20.4241V20.6368H97.7995C99.4842 20.6368 100.907 20.1134 101.889 19.1158C102.337 18.6642 102.691 18.128 102.929 17.5383C103.168 16.9486 103.287 16.3173 103.279 15.6812C103.279 14.3729 102.788 13.1626 101.889 12.2958C100.772 11.2868 99.303 10.758 97.7995 10.8239V10.8402ZM68.4393 10.8402H64.203V11.0692L64.6119 11.1509C65.5606 11.3309 65.6914 11.8706 65.6914 12.4103V19.083C65.6914 19.6391 65.5606 20.1625 64.6119 20.3587L64.203 20.4405V20.6531H69.1099V20.4405L68.7828 20.3751C67.6706 20.1461 67.4743 19.9171 67.4743 18.9522V11.0692H67.8832C69.388 11.0692 70.2876 12.0832 70.2876 13.7841C70.2876 15.5013 69.388 16.5153 67.8832 16.5153H67.7687V16.7607H68.4393C70.6475 16.7607 72.2014 15.534 72.2014 13.7841C72.2014 12.0505 70.6475 10.8402 68.4393 10.8402ZM62.3874 18.8704C61.7331 19.9826 60.9316 20.4078 59.4432 20.4078H59.0179C58.2001 20.4078 57.8239 19.9989 57.8239 19.0994V15.6976L58.4291 15.7139C59.9175 15.7467 60.3264 15.8121 60.8008 17.2513L60.9643 17.7747H61.1606V13.3752H60.9643L60.8008 13.9149C60.3428 15.3541 59.9012 15.4196 58.4291 15.4523H57.8239V11.0692H58.8707C60.6209 11.0692 61.4223 11.4453 62.0112 12.5248L62.6818 13.735H62.8781V10.8402H54.5853V11.0528L54.9942 11.1346C55.8938 11.2981 56.0737 11.7397 56.0737 12.3776V19.0667C56.0737 19.59 55.9429 20.2115 54.9942 20.3587L54.5853 20.4241V20.6368H63.2543V17.7419H63.0416L62.371 18.8868" fill="#1C1B19"/>
</g>
<defs>
<clipPath id="clip0_1763_4232">
<rect width="133" height="32" fill="white"/>
</clipPath>
</defs>
</svg>
