<svg width="133" height="32" viewBox="0 0 133 32" fill="none" xmlns="http://www.w3.org/2000/svg">
<g clip-path="url(#clip0_1763_4263)">
<path d="M82.026 15.998H82.8979L83.3348 16.7407L82.8979 17.4833H82.026L81.59 16.7407L82.026 15.998Z" fill="#0101D7"/>
<path fill-rule="evenodd" clip-rule="evenodd" d="M21.2844 4.07031H7.09488L0.00012207 16.0001L7.09488 27.9299H21.2844L28.3791 16.0001L21.2844 4.07031ZM17.6362 10.2052H10.7431L7.29726 16.0001L10.7431 21.795H17.6362L21.082 16.0001L17.6362 10.2052Z" fill="#0078FB"/>
<path d="M12.1206 12.5195H16.234L18.2908 15.9777L16.234 19.4358H12.1206L10.0646 15.9777L12.1206 12.5195Z" fill="#737373"/>
<path d="M16.2386 19.4386L14.208 15.9805L12.1251 19.4386H16.2386Z" fill="#464646"/>
<path d="M16.2386 12.5195H12.1251L14.2087 15.9777L16.2386 12.5195Z" fill="#C7C7C7"/>
<path d="M16.234 12.5195L14.2042 15.9784H18.3012L16.234 12.5203V12.5195ZM14.2042 15.9784L12.1206 12.5203L10.0646 15.9784H14.2042Z" fill="#989898"/>
<path d="M21.2831 27.9278L28.3778 15.998H21.0814L17.6349 21.7929L21.2831 27.9278Z" fill="#0058FB"/>
<path d="M21.2823 27.931L24.9313 21.7969H17.6349L21.2816 27.931H21.2823Z" fill="#0078FB"/>
<path d="M24.9461 10.2087H17.6348L21.0798 16.0021L24.9453 10.2072L24.9461 10.2087Z" fill="#4CBAFB"/>
<path d="M24.9448 10.2128L21.08 16.0002H28.3764L24.9448 10.2143V10.2128Z" fill="#9DDAFB"/>
<path d="M14.1876 27.931L17.6342 21.7969L21.2824 27.931H14.1876Z" fill="#0069E4"/>
<path d="M0.00012207 15.998H7.29652L3.44668 21.7929H10.7431L14.2949 27.9278H7.09488L3.44668 21.7929L0.00012207 15.998Z" fill="#0101D7"/>
<path fill-rule="evenodd" clip-rule="evenodd" d="M7.29652 16.0028L3.46087 10.2072L0.00012207 16.0028H7.29652L10.7431 21.7977H3.46012L7.29652 16.0013V16.0028Z" fill="#0035FB"/>
<path d="M17.6329 10.2052L14.2917 4.07031L10.7406 10.2052H17.6337H17.6329Z" fill="#0027FB"/>
<path d="M21.283 4.07031L17.6348 10.2052H24.9461L21.2837 4.07031H21.283Z" fill="#37A0FB"/>
<path d="M37.84 20.3865V11.2931H39.0126V20.3865H37.84ZM49.7823 13.2016C49.5652 12.9618 49.2312 12.7444 48.7794 12.5485C48.3004 12.3463 47.7859 12.2458 47.2674 12.2532C46.5554 12.2532 46.0307 12.3856 45.6922 12.6505C45.3529 12.9153 45.1842 13.2777 45.1842 13.7394C45.1842 14.0633 45.2703 14.3201 45.4444 14.508C45.6184 14.6959 45.883 14.8489 46.239 14.9688C46.6038 15.0887 47.0644 15.2121 47.6199 15.3401C48.2625 15.477 48.8189 15.6434 49.2874 15.8393C49.7568 16.0362 50.1163 16.301 50.3686 16.6339C50.6209 16.9587 50.7466 17.3944 50.7466 17.9402C50.7466 18.5218 50.5989 18.9987 50.3036 19.3745C50.0082 19.7503 49.6039 20.0277 49.0923 20.2066C48.5886 20.3865 48.0199 20.4768 47.3852 20.4768C45.9436 20.4768 44.6884 20.0491 43.6204 19.1955L44.1812 18.2221C44.372 18.41 44.6278 18.5979 44.9495 18.7857C45.2791 18.9736 45.6527 19.1311 46.0693 19.26C46.4957 19.379 46.9422 19.4389 47.4116 19.4389C48.0709 19.4389 48.5842 19.3235 48.949 19.0935C49.3129 18.8538 49.4958 18.5084 49.4958 18.0556C49.4958 17.7138 49.3912 17.4409 49.1828 17.236C48.9833 17.0303 48.6835 16.8603 48.2845 16.7234C47.8045 16.564 47.3176 16.4273 46.8253 16.3136C46.2882 16.1882 45.7613 16.0213 45.2492 15.8143C44.8238 15.6264 44.5021 15.383 44.2849 15.0842C44.0766 14.7853 43.9729 14.397 43.9729 13.9183C43.9729 13.3376 44.1162 12.8473 44.4027 12.4456C44.6884 12.0438 45.084 11.7414 45.5876 11.5365C46.0913 11.3307 46.66 11.2287 47.2938 11.2287C47.9109 11.2287 48.4717 11.3227 48.9745 11.5106C49.487 11.6985 49.9388 11.9499 50.3291 12.2666L49.7823 13.2007V13.2016ZM59.1667 20.4509C58.5154 20.4509 57.9247 20.3229 57.3946 20.0661C56.8724 19.8152 56.4036 19.4626 56.0146 19.0282C55.6357 18.59 55.3357 18.0872 55.1285 17.5429C54.9221 16.9995 54.816 16.422 54.8156 15.8393C54.8156 15.2336 54.9246 14.6574 55.1408 14.1107C55.3667 13.556 55.6753 13.0638 56.0664 12.6379C56.4602 12.2063 56.9336 11.8579 57.4597 11.6126C58.0015 11.3538 58.5937 11.2226 59.1922 11.2287C59.8444 11.2287 60.4343 11.3611 60.9643 11.626C61.4853 11.8839 61.9504 12.2453 62.3321 12.6889C62.7144 13.1327 63.0089 13.6284 63.2181 14.1742C63.6388 15.2748 63.6341 16.4968 63.2049 17.5939C62.9889 18.1391 62.6753 18.6388 62.2802 19.0676C61.8898 19.4939 61.4205 19.8375 60.8993 20.0787C60.3553 20.3297 59.764 20.4567 59.1667 20.4509ZM56.0014 15.8393C56.0014 16.301 56.0743 16.7493 56.222 17.185C56.3785 17.6118 56.5956 17.9912 56.8742 18.325C57.151 18.657 57.4921 18.9272 57.8763 19.1186C58.2675 19.3154 58.7026 19.4139 59.1799 19.4139C59.6748 19.4139 60.1178 19.311 60.5081 19.1061C60.8993 18.9003 61.2289 18.6274 61.4988 18.2865C61.7759 17.9452 61.9876 17.554 62.1229 17.1332C62.2714 16.7064 62.3453 16.2751 62.3453 15.8393C62.3453 15.3786 62.2661 14.9348 62.1106 14.508C61.9674 14.0889 61.7462 13.7019 61.4592 13.3681C61.187 13.0307 60.8444 12.7593 60.4562 12.5735C60.0598 12.3735 59.6223 12.2723 59.1799 12.2783C58.6841 12.2783 58.242 12.3812 57.8508 12.586C57.4597 12.7829 57.1256 13.0513 56.8479 13.3931C56.5764 13.7386 56.3647 14.1286 56.222 14.5464C56.0743 14.9643 56.0014 15.3964 56.0014 15.8393ZM68.1899 11.2931L71.2515 18.9396L74.2999 11.2931H75.5376L71.785 20.3865H70.717L66.9531 11.2931H68.1907H68.1899ZM81.9738 11.2931H82.9635L86.7416 20.3865H85.4081L84.3963 17.7228L82.4686 12.6245L79.4334 20.3865H78.1825L81.9738 11.2931ZM91.1015 20.3865V11.2931H92.2741V19.362H97.4331V20.3865H91.1015ZM108.115 19.362V20.3865H101.836V11.2931H107.997V12.3176H103.008V15.2631H107.346V16.2241H103.008V19.362H108.115ZM114.022 13.4191V20.3865H112.849V11.2931H113.84L119.493 18.4019V11.3057H120.666V20.3873H119.598L114.022 13.4191ZM132.67 12.3176H129.479V20.3865H128.306V12.3176H125.114V11.2931H132.67V12.3176Z" fill="#0A0B0F"/>
</g>
<defs>
<clipPath id="clip0_1763_4263">
<rect x="0.00012207" width="133" height="32" fill="white"/>
</clipPath>
</defs>
</svg>
