<svg width="86" height="32" viewBox="0 0 86 32" fill="none" xmlns="http://www.w3.org/2000/svg">
<g clip-path="url(#clip0_1763_4287)">
<path d="M82.7757 23.5114H79.5465V18.5611C79.5465 17.3806 79.525 15.861 77.867 15.861C76.1852 15.861 75.9278 17.1472 75.9278 18.4752V23.5111H72.6987V13.3312H75.7987V14.7224H75.842C76.1523 14.2032 76.6006 13.776 77.1392 13.4864C77.6778 13.1968 78.2866 13.0557 78.9007 13.078C82.1736 13.078 82.777 15.1854 82.777 17.9269L82.7757 23.5114ZM69.0551 11.9397C68.6845 11.9398 68.3221 11.8323 68.0139 11.6307C67.7057 11.4292 67.4655 11.1428 67.3236 10.8076C67.1817 10.4724 67.1445 10.1036 67.2168 9.74777C67.289 9.39192 67.4674 9.06503 67.7295 8.80844C67.9915 8.55185 68.3254 8.37708 68.6888 8.30624C69.0523 8.23539 69.4291 8.27165 69.7716 8.41043C70.114 8.54921 70.4067 8.78428 70.6127 9.08591C70.8186 9.38754 70.9286 9.74218 70.9287 10.105C70.9287 10.3459 70.8803 10.5844 70.7862 10.807C70.692 11.0296 70.554 11.2318 70.3801 11.4022C70.2061 11.5726 69.9995 11.7077 69.7722 11.7999C69.5449 11.8922 69.3012 11.9397 69.0551 11.9397ZM70.6697 23.5114H67.4371V13.3312H70.6697V23.5114ZM84.3855 5.33544H65.8145C65.393 5.33078 64.9868 5.49013 64.6853 5.77847C64.3837 6.0668 64.2114 6.46054 64.2063 6.87315V25.1278C64.2113 25.5406 64.3834 25.9347 64.685 26.2233C64.9865 26.5119 65.3928 26.6716 65.8145 26.6672H84.3855C84.8081 26.6724 85.2155 26.5132 85.5182 26.2245C85.8209 25.9359 85.9943 25.5415 86.0001 25.1278V6.87183C85.9941 6.4584 85.8207 6.06422 85.5179 5.77589C85.2152 5.48756 84.8079 5.32867 84.3855 5.33412V5.33544ZM55.4173 15.7883C53.8027 15.7883 52.8339 16.8436 52.8339 18.3813C52.8339 19.919 53.8023 20.9753 55.4173 20.9753C57.0322 20.9753 58.0029 19.9217 58.0029 18.3813C58.0029 16.841 57.0339 15.7883 55.4173 15.7883ZM60.9758 23.5055H58.0029V22.1555H57.9589C57.5859 22.6465 57.1022 23.0466 56.5453 23.3247C55.9885 23.6027 55.3736 23.7511 54.7486 23.7584C51.6459 23.7584 49.6021 21.5664 49.6021 18.4666C49.6021 15.6197 51.4107 13.0056 54.3839 13.0056C55.7203 13.0056 56.9686 13.3635 57.7009 14.3556H57.7433V8.48759H60.9755L60.9758 23.5055ZM45.456 17.2335C45.4622 16.977 45.4151 16.722 45.3176 16.4839C45.2201 16.2457 45.0743 16.0295 44.889 15.8481C44.7036 15.6668 44.4826 15.5242 44.2392 15.429C43.9959 15.3337 43.7354 15.2878 43.4734 15.294C42.9092 15.2597 42.3538 15.4437 41.9269 15.8065C41.5 16.1693 41.2359 16.6818 41.1915 17.2335H45.456ZM48.1913 21.7445C47.6547 22.3815 46.9801 22.8937 46.2164 23.244C45.4526 23.5943 44.6189 23.7739 43.7755 23.7699C40.5463 23.7699 37.9609 21.6599 37.9609 18.3925C37.9609 15.1251 40.546 13.0161 43.7755 13.0161C46.7937 13.0161 48.6865 15.1235 48.6865 18.3925V19.3836H41.1915C41.2848 19.9457 41.5825 20.4559 42.0297 20.8201C42.4769 21.1843 43.0435 21.378 43.6251 21.3655C44.0847 21.3627 44.5363 21.2475 44.9388 21.0302C45.3413 20.8129 45.6819 20.5006 45.9296 20.1215L48.1913 21.7445ZM16.0901 13.3286H19.1911V14.7198H19.2352C19.5449 14.2003 19.993 13.7729 20.5315 13.4833C21.07 13.1937 21.6788 13.0527 22.2928 13.0754C25.5674 13.0754 26.1701 15.1844 26.1701 17.9243V23.5068H22.941V18.5575C22.941 17.376 22.9188 15.8574 21.2591 15.8574C19.5806 15.8574 19.3216 17.1439 19.3216 18.4715V23.5055H16.0925L16.0901 13.3286ZM27.8076 8.48858H31.0367V17.4663L34.6965 13.323H38.6556L34.4173 18.0359L38.5664 23.5117H34.5078L31.0798 18.4798H31.0374V23.5111H27.8083L27.8076 8.48858ZM11.0704 13.3276H14.2996V23.5075H11.0704V13.3276ZM12.685 8.26664C13.0555 8.26671 13.4176 8.37431 13.7256 8.57584C14.0337 8.77738 14.2737 9.06379 14.4154 9.39887C14.5572 9.73394 14.5942 10.1026 14.5219 10.4583C14.4496 10.814 14.2711 11.1407 14.0091 11.3971C13.7472 11.6536 13.4134 11.8282 13.05 11.8989C12.6866 11.9696 12.31 11.9333 11.9677 11.7945C11.6255 11.6557 11.3329 11.4207 11.1271 11.1191C10.9213 10.8176 10.8114 10.463 10.8114 10.1004C10.8114 9.85954 10.8599 9.62106 10.9541 9.39856C11.0482 9.17606 11.1862 8.9739 11.3602 8.80362C11.5342 8.63333 11.7407 8.49827 11.968 8.40613C12.1954 8.314 12.439 8.2666 12.685 8.26664ZM0.00012207 8.49088H3.36148V20.4765H9.58434V23.5131H0.00012207V8.49088Z" fill="#0A66C2"/>
</g>
<defs>
<clipPath id="clip0_1763_4287">
<rect width="86" height="32" fill="white"/>
</clipPath>
</defs>
</svg>
