<svg width="141" height="32" viewBox="0 0 141 32" fill="none" xmlns="http://www.w3.org/2000/svg">
<g clip-path="url(#clip0_1763_4284)">
<path d="M4.62031 16.85C5.43312 17.9054 6.41705 18.9186 7.40098 19.8895C9.11216 21.5782 11.0372 23.098 13.0051 24.2378H7.27264C4.32085 22.127 1.7113 19.2985 0.00012207 16.47C1.7113 13.6837 4.32085 10.8552 7.27264 8.74442H13.0051C11.0372 9.92648 9.11216 11.4041 7.40098 13.0927C6.41705 14.0637 5.43312 15.1191 4.62031 16.1323C4.53475 16.2167 4.49197 16.3434 4.49197 16.47C4.49197 16.6389 4.53475 16.7655 4.62031 16.85ZM33.582 16.85C32.7692 17.9054 31.7853 18.9186 30.8014 19.8895C29.0902 21.5782 27.1651 23.098 25.1973 24.2378H30.9297C33.8815 22.127 36.4911 19.2985 38.2022 16.47C36.4911 13.6415 33.8815 10.813 30.9297 8.70221H25.1973C27.1651 9.92648 29.0902 11.4041 30.8014 13.0927C31.7853 14.0637 32.7692 15.1191 33.582 16.1323C33.6676 16.2167 33.7104 16.3434 33.7104 16.47C33.7104 16.6389 33.6676 16.7655 33.582 16.85ZM19.0798 19.8473C20.9621 19.8473 22.4594 18.3698 22.4594 16.5122C22.4594 14.6547 20.9621 13.1771 19.0798 13.1771C17.1975 13.1771 15.7002 14.6547 15.7002 16.5122C15.743 18.3275 17.2403 19.8473 19.0798 19.8473ZM19.0798 8.74442C23.4433 8.74442 26.9512 12.2062 26.9512 16.5122C26.9512 20.8183 23.4433 24.28 19.0798 24.28C14.7163 24.28 11.2084 20.8183 11.2084 16.5122C11.2511 12.2062 14.7591 8.74442 19.0798 8.74442ZM98.6497 13.8526H100.831L96.5535 24.28H95.0562L92.1044 16.9766L89.1526 24.28H87.6554L83.3774 13.8526H85.5592L88.4682 20.9872L91.3772 13.8526H92.8745L95.7835 20.9872L98.6497 13.8526ZM124.018 17.7365C124.36 16.3856 125.601 15.4568 126.97 15.4568C128.21 15.4568 129.451 16.3856 129.75 17.7365H124.018ZM131.975 19.5096C132.018 19.2985 132.018 19.1719 132.018 19.0452C132.018 15.9634 129.879 13.5993 126.927 13.5993C123.932 13.5993 121.793 15.9212 121.793 19.0452C121.793 22.1692 124.189 24.4911 127.269 24.4911C129.408 24.4911 130.948 23.5201 131.718 22.5492L130.307 21.2405C129.708 21.9159 128.852 22.6758 127.269 22.6758C125.43 22.6758 123.975 21.2827 123.847 19.5096H131.975ZM135.953 15.0769C136.467 14.3592 137.579 13.6415 139.119 13.6415C139.333 13.6415 139.718 13.6837 139.932 13.726L139.675 15.7523C139.419 15.6679 139.162 15.6679 138.862 15.6679C137.75 15.6679 136.595 16.4278 135.996 17.3988V24.28H133.857V13.8526H135.911V15.0769H135.953ZM109.387 21.0294C108.66 22.0004 107.548 22.507 106.478 22.507C104.425 22.507 102.97 20.9449 102.97 19.0874C102.97 17.2721 104.339 15.6679 106.35 15.6679C107.633 15.6679 108.703 16.3012 109.345 17.1455V21.0294H109.387ZM109.473 14.8236C108.489 14.0215 107.377 13.6415 106.179 13.6415C105.195 13.6415 104.297 13.8948 103.612 14.317C102.029 15.2457 100.874 17.0188 100.874 19.0874C100.874 21.156 101.987 22.8869 103.569 23.8157C104.297 24.2378 105.281 24.4911 106.222 24.4911C107.462 24.4911 108.617 24.069 109.473 23.3091V24.28H111.526V13.8526H109.473V14.8236ZM61.346 17.7365C61.6882 16.3856 62.9288 15.4568 64.2977 15.4568C65.5384 15.4568 66.779 16.3856 67.0784 17.7365H61.346ZM69.3029 19.0452C69.3029 15.9634 67.164 13.5993 64.2122 13.5993C61.2176 13.5993 59.0786 15.9212 59.0786 19.0452C59.0786 22.1692 61.4743 24.4911 64.5544 24.4911C66.6934 24.4911 68.2335 23.5201 69.0035 22.5492L67.5918 21.2405C66.9929 21.9159 66.1373 22.6758 64.5544 22.6758C62.7149 22.6758 61.2604 21.2827 61.1321 19.5096H69.2602C69.3029 19.2985 69.3029 19.1719 69.3029 19.0452ZM73.4098 24.28H71.2708V8.53334H73.4098V24.28ZM55.6135 8.74442H57.1963V24.28H54.929V13.8526L50.3088 20.9872H48.7688L44.1486 13.8526V24.28H41.8813V8.74442H43.4641L49.5816 18.2431L55.6135 8.74442ZM79.0139 10.9819V13.8526H82.3935V15.7523H79.0139V20.6494C79.0139 21.1982 79.0567 21.6626 79.3134 22.0004C79.6128 22.3381 80.2117 22.5492 80.7679 22.5492C81.0673 22.5492 81.6235 22.507 81.9229 22.4225L82.3507 24.3223C81.9657 24.4489 81.2812 24.5333 80.6823 24.5333C79.3561 24.5333 78.3722 24.069 77.6877 23.3091C77.046 22.6336 76.8321 21.6626 76.8321 20.5228V15.7523H75.2921V13.8526H76.8321V10.9819H79.0139ZM115.077 10.9819V13.8526H113.537V15.7523H115.077V20.5228C115.077 21.6626 115.291 22.5914 115.933 23.3091C116.617 24.069 117.601 24.5333 118.927 24.5333C119.526 24.5333 120.168 24.4489 120.596 24.3223L120.168 22.4225C119.868 22.507 119.312 22.5492 119.013 22.5492C118.457 22.5492 117.858 22.3381 117.558 22.0004C117.302 21.7048 117.259 21.2405 117.259 20.6494V15.7946H120.638V13.8948H117.216V10.9819H115.077Z" fill="#202020"/>
</g>
<defs>
<clipPath id="clip0_1763_4284">
<rect width="141" height="32" fill="white"/>
</clipPath>
</defs>
</svg>
