<svg width="78" height="32" viewBox="0 0 78 32" fill="none" xmlns="http://www.w3.org/2000/svg">
<path d="M2.73191 18.7883C2.73191 19.7694 2.92842 20.5226 3.18526 20.9783C3.52202 21.5752 4.02429 21.8281 4.53635 21.8281C5.19681 21.8281 5.80101 21.6485 6.96537 19.8838C7.89816 18.4693 8.9973 16.4838 9.73685 15.2391L10.9893 13.1304C11.8593 11.6658 12.8663 10.0378 14.0209 8.93428C14.9634 8.03359 15.9802 7.5332 17.0035 7.5332C18.7215 7.5332 20.358 8.62422 21.6104 10.6704C22.9811 12.9114 23.6464 15.7341 23.6464 18.6471C23.6464 20.3788 23.3349 21.6512 22.805 22.6564C22.2929 23.6286 21.2949 24.5999 19.616 24.5999V21.8281C21.0535 21.8281 21.4123 20.3806 21.4123 18.7239C21.4123 16.3632 20.91 13.7433 19.8035 11.8714C19.0183 10.5435 18.0007 9.73221 16.8812 9.73221C15.6704 9.73221 14.696 10.733 13.6009 12.5174C13.0188 13.4654 12.4211 14.6208 11.75 15.9245L11.0113 17.3586C9.5273 20.2421 9.1514 20.8988 8.40941 21.9827C7.10888 23.8806 5.99833 24.5999 4.53635 24.5999C2.80204 24.5999 1.70535 23.7769 1.02614 22.5367C0.471678 21.5261 0.199341 20.2001 0.199341 18.6891L2.73191 18.7883Z" fill="#0081FB"/>
<path d="M2.33221 10.8661C3.48603 8.90479 5.15111 7.5332 7.0609 7.5332C8.1669 7.5332 9.26643 7.89419 10.4146 8.92802C11.6705 10.0584 13.009 11.9196 14.679 14.9871L15.2778 16.088C16.7233 18.7436 17.5457 20.1098 18.027 20.7541C18.646 21.5815 19.0795 21.8281 19.6426 21.8281C21.0711 21.8281 21.4276 20.3806 21.4276 18.7239L23.6477 18.6471C23.6477 20.3788 23.3382 21.6512 22.8116 22.6564C22.3027 23.6286 21.311 24.5999 19.6426 24.5999C18.6055 24.5999 17.6867 24.3515 16.6706 23.2944C15.8895 22.4831 14.9763 21.0418 14.2738 19.7461L12.1842 15.8968C11.1357 13.9649 10.1739 12.5245 9.61727 11.8722C9.01849 11.1708 8.24874 10.3237 7.02038 10.3237C6.02619 10.3237 5.1819 11.0931 4.47535 12.2699L2.33221 10.8661Z" fill="url(#paint0_linear_1763_4255)"/>
<path d="M6.55541 10.3107C5.60837 10.3107 4.80411 11.0764 4.13107 12.2477C3.1794 13.9028 2.59666 16.3682 2.59666 18.7356C2.59666 19.7122 2.78268 20.4619 3.0258 20.9155L0.981982 22.4665C0.457134 21.4607 0.199341 20.1408 0.199341 18.6369C0.199341 15.9021 0.85077 13.0517 2.08957 10.8505C3.18866 8.89838 4.77478 7.5332 6.594 7.5332L6.55541 10.3107Z" fill="url(#paint1_linear_1763_4255)"/>
<path d="M28.9747 8.59961H31.9103L36.9014 18.1664L41.8934 8.59961H44.7652V24.3191H42.3705V12.2715L37.9929 20.6143H35.7461L31.3694 12.2715V24.3191H28.9747V8.59961ZM52.2686 14.4607C50.5512 14.4607 49.5169 15.8301 49.2694 17.5258H55.0979C54.9778 15.779 54.0268 14.4607 52.2686 14.4607ZM46.8951 18.4918C46.8951 14.9238 49.0716 12.3269 52.3103 12.3269C55.4958 12.3269 57.3978 14.8909 57.3978 18.6823V19.3791H49.2694C49.5578 21.2237 50.713 22.4667 52.5758 22.4667C54.062 22.4667 54.9909 21.9863 55.8716 21.1077L57.1437 22.7584C55.9452 23.9262 54.4206 24.5996 52.4908 24.5996C48.985 24.5996 46.8951 21.8911 46.8951 18.4918ZM60.3015 14.6857H58.0972V12.6083H60.3015V9.17265H62.612V12.6083H65.9609V14.6857H62.612V19.9513C62.612 21.7491 63.1545 22.388 64.4879 22.388C65.0965 22.388 65.4454 22.3326 65.9609 22.2417V24.2966C65.3188 24.4888 64.706 24.5771 64.0426 24.5771C61.5483 24.5771 60.3015 23.1333 60.3015 20.243V14.6857ZM75.6899 16.7061C75.2259 15.4648 74.1907 14.5507 72.6694 14.5507C70.6923 14.5507 69.4267 16.037 69.4267 18.4581C69.4267 20.8186 70.5918 22.3767 72.5747 22.3767C74.1335 22.3767 75.2463 21.4159 75.6899 20.2205V16.7061ZM78.0005 24.3191H75.7324V22.6797C75.0984 23.6448 73.9448 24.5996 72.0763 24.5996C69.0713 24.5996 67.0631 21.9344 67.0631 18.4581C67.0631 14.9489 69.1195 12.3269 72.2037 12.3269C73.7283 12.3269 74.9244 12.9727 75.7324 14.1127V12.6083H78.0005V24.3191Z" fill="#192830"/>
<defs>
<linearGradient id="paint0_linear_1763_4255" x1="5.29048" y1="17.9877" x2="21.3409" y2="18.7227" gradientUnits="userSpaceOnUse">
<stop stop-color="#0064E1"/>
<stop offset="0.4" stop-color="#0064E1"/>
<stop offset="0.83" stop-color="#0073EE"/>
<stop offset="1" stop-color="#0082FB"/>
</linearGradient>
<linearGradient id="paint1_linear_1763_4255" x1="3.6726" y1="19.8954" x2="3.6726" y2="13.403" gradientUnits="userSpaceOnUse">
<stop stop-color="#0082FB"/>
<stop offset="1" stop-color="#0064E0"/>
</linearGradient>
</defs>
</svg>
