<svg width="78" height="32" viewBox="0 0 78 32" fill="none" xmlns="http://www.w3.org/2000/svg">
<path d="M19.0126 8.36354H23.8445C25.6365 8.36354 26.8057 8.4397 27.818 9.50141C28.5194 10.2603 28.9088 11.1706 28.9088 12.2332C28.9088 13.2949 28.5194 14.2061 27.7405 14.9641C26.9608 15.723 25.9485 16.179 23.3766 16.179H21.0401V22.4758H19.0136V8.36354H19.0126ZM21.0391 14.5851H23.3766C24.7017 14.5851 26.7273 14.5089 26.7273 12.157C26.7273 9.95656 24.8568 9.95656 23.766 9.95656H21.0401V14.5851H21.0391ZM35.3767 22.4758C35.2208 22.0207 35.2208 21.4894 35.2208 21.0342C34.285 22.6272 32.9618 22.7795 32.1035 22.7795C29.7661 22.7795 28.5194 21.4894 28.5194 19.8963C28.5194 19.1375 28.8313 17.8473 30.3115 17.0131C31.4022 16.4057 32.9608 16.4057 33.8181 16.4057C34.286 16.4057 34.597 16.4057 35.1433 16.4818C35.1433 15.2678 35.1433 14.7365 34.7529 14.2814C34.3635 13.8262 33.5847 13.6739 33.0393 13.6739C31.1687 13.6739 31.0128 14.965 31.0128 15.344H29.1432C29.2207 14.8127 29.2992 14.1299 29.8445 13.5234C30.6234 12.6892 32.026 12.4608 33.1168 12.4608C34.5969 12.4608 36.1556 12.9159 36.7009 13.9024C37.0129 14.5098 37.0129 14.965 37.0129 15.4201L36.9354 20.1239C36.9354 20.2753 36.9354 21.5655 37.0913 22.552H35.3767V22.4758ZM34.0516 17.6188C33.2727 17.6188 30.3899 17.6188 30.3899 19.5917C30.3899 20.1992 30.7793 21.2609 32.4939 21.2609C33.4287 21.2609 34.2075 20.8819 34.6754 20.1983C35.0648 19.5155 35.1433 18.9851 35.1433 17.6188C34.8314 17.695 34.5194 17.6188 34.0516 17.6188ZM38.649 8.36354H40.5195V22.4758H38.649V8.36354ZM48.6236 22.4758C48.4676 22.0207 48.4676 21.4894 48.4676 21.0342C47.5319 22.6272 46.2086 22.7795 45.3504 22.7795C43.0129 22.7795 41.7662 21.4894 41.7662 19.8963C41.7662 19.1375 42.0781 17.8473 43.5583 17.0131C44.6491 16.4057 46.2077 16.4057 47.065 16.4057C47.5328 16.4057 47.8438 16.4057 48.3901 16.4818C48.3901 15.2678 48.3901 14.7365 47.9998 14.2814C47.6103 13.8262 46.8315 13.6739 46.2861 13.6739C44.4156 13.6739 44.2596 14.965 44.2596 15.344H42.39C42.4676 14.8127 42.5451 14.1299 43.0914 13.5234C43.8702 12.6892 45.2729 12.4608 46.3636 12.4608C47.8438 12.4608 49.4024 12.9159 49.9478 13.9024C50.2597 14.5098 50.2597 14.965 50.2597 15.4201L50.1822 20.1239C50.1822 20.2753 50.1822 21.5655 50.3382 22.552H48.6236V22.4758ZM47.3759 17.6197C46.5971 17.6197 43.7143 17.6197 43.7143 19.5926C43.7143 20.2001 44.1037 21.2618 45.8183 21.2618C46.754 21.2618 47.5328 20.8828 47.9998 20.1992C48.3901 19.5164 48.4676 18.986 48.4676 17.6197C48.0782 17.6959 47.8438 17.6197 47.3769 17.6197H47.3759ZM51.9743 13.8262V12.6883H53.8439V14.2814C54.0783 13.9024 54.7796 12.5369 57.0386 12.5369C57.9744 12.5369 60.7012 12.8398 60.7012 15.8753V22.552H58.7532V16.3304C58.7532 15.723 58.6757 15.1155 58.2078 14.6613C57.74 14.2061 57.0386 13.9785 56.4157 13.9785C55.0131 13.9785 53.7664 14.9641 53.7664 16.937V22.552H51.8958V13.8262H51.9743ZM61.3251 12.6883H63.1171V10.564L64.9867 9.95656V12.6131H67.2467V13.9785H64.9877V19.8202C64.9877 20.2753 64.9877 21.1104 66.3109 21.1104C66.7013 21.1104 67.0907 21.0342 67.2467 21.0342V22.4758C66.9348 22.552 66.3894 22.6272 65.6881 22.6272C63.896 22.6272 63.1171 22.0959 63.1171 20.5029V13.9776H61.3241V12.6883H61.3251ZM68.5709 8.36354H70.8308V10.4126H68.5718V8.36354H68.5709ZM68.7269 12.6883H70.5974V22.4758H68.7269V12.6883ZM72.3895 14.6613C72.3895 13.9785 72.312 13.2949 72.312 12.6883H74.1815L74.26 14.5851C74.6494 13.2197 75.8177 12.7645 76.675 12.6883C77.1141 12.6312 77.557 12.6058 78.0001 12.6122V14.4337C77.9217 14.4337 77.7657 14.3575 77.6107 14.3575H77.0644C74.8054 14.3575 74.3375 15.6468 74.3375 17.316V22.5511H72.4679V14.6603H72.3895V14.6613ZM7.40286 6.4668C3.50678 6.4668 0.312035 9.57757 0.312035 13.3711C0.312035 17.1646 3.50678 20.2753 7.40286 20.2753C11.2989 20.2753 14.4937 17.1655 14.4937 13.3711C14.4937 9.57757 11.2989 6.4668 7.40286 6.4668ZM7.40286 18.151C4.67504 18.151 2.49354 16.0267 2.49354 13.3711C2.49354 10.7154 4.67504 8.59112 7.40286 8.59112C10.1297 8.59112 12.3122 10.7154 12.3122 13.3711C12.2337 16.0267 10.0522 18.151 7.40286 18.151ZM13.7139 19.6688L7.40286 22.3235L1.09087 19.6688L0.00012207 21.5655L7.40286 24.6001L14.8056 21.5655L13.7139 19.6688Z" fill="#1A1A1A"/>
</svg>
