<svg width="117" height="32" viewBox="0 0 117 32" fill="none" xmlns="http://www.w3.org/2000/svg">
<g clip-path="url(#clip0_1763_4238)">
<path d="M8.83291 7.15299H2.29504V21.2807H4.16381V15.8354H8.83291C11.2829 15.8354 13.2767 13.8882 13.2767 11.4942C13.2767 9.10026 11.2829 7.15299 8.83291 7.15299ZM8.83291 14.0092H4.16381V8.97922H8.83291C10.2525 8.97922 11.4072 10.1073 11.4072 11.4942C11.4072 12.8811 10.2525 14.0092 8.83291 14.0092ZM18.6033 10.77C15.5728 10.77 13.1072 13.1773 13.1072 16.139C13.1072 19.1007 15.5728 21.5074 18.6033 21.5074C21.6339 21.5074 24.098 19.1001 24.098 16.1397C24.098 13.1794 21.6311 10.77 18.6033 10.77ZM22.2286 16.1397C22.2286 18.093 20.6042 19.6838 18.6033 19.6838C16.6025 19.6838 14.9767 18.095 14.9767 16.1397C14.9767 14.1844 16.6011 12.5956 18.6033 12.5956C20.6056 12.5956 22.2264 14.1864 22.2264 16.1397H22.2286ZM27.3059 7.15299H25.4371V21.2814H27.3059V7.15299ZM37.8214 10.996V12.1141C36.8332 11.2523 35.5397 10.7727 34.1962 10.77C31.1663 10.77 28.7008 13.1773 28.7008 16.139C28.7008 19.1007 31.1663 21.5074 34.1962 21.5074C35.5397 21.5047 36.8332 21.0251 37.8214 20.1633V21.2814H39.6909V10.996H37.8214ZM37.8214 16.139C37.8214 18.0923 36.197 19.6832 34.1962 19.6832C32.1953 19.6832 30.5695 18.0943 30.5695 16.139C30.5695 14.1837 32.1939 12.5949 34.1962 12.5949C36.1984 12.5949 37.8214 14.1858 37.8214 16.139ZM47.2316 10.7948C46.4748 10.8639 45.7417 11.0826 45.0797 11.4367C44.4177 11.7908 43.8414 12.2723 43.3882 12.8503V10.996H41.5187V21.282H43.3882V16.5108C43.3882 14.4379 45.1171 12.7133 47.2415 12.6611H47.3249V10.7887L47.2316 10.7948ZM59.7261 13.511L55.3473 12.3415C54.4842 12.0459 54.2879 11.3043 54.391 10.7092C54.5669 9.70142 55.6369 8.68365 57.6306 8.68365C58.8073 8.68365 59.6873 8.97588 60.2438 9.55297C60.859 10.1876 60.967 11.0502 60.9854 11.3919L60.9903 11.4882L62.8372 11.1351L62.8301 11.0596C62.7546 10.3053 62.4827 9.21661 61.6189 8.31787C60.6923 7.34758 59.3497 6.85742 57.6292 6.85742C54.5443 6.85742 52.8535 8.63818 52.5441 10.4016C52.2574 12.0472 53.1565 13.5251 54.7872 14.0794L59.248 15.2731C60.6605 15.6208 61.4805 16.5376 61.3442 17.6135C61.2029 18.7196 60.0545 19.8356 57.803 19.8356C56.4321 19.8356 55.4017 19.4906 54.7441 18.8105C54.3204 18.3738 54.0449 17.7988 53.9256 17.102L53.9115 17.017L52.0801 17.3688L52.0942 17.4497C52.28 18.4848 52.7101 19.3595 53.3712 20.0496C54.396 21.1195 55.8876 21.6632 57.8051 21.6632C61.1789 21.6632 62.9671 19.6812 63.2009 17.8396C63.4156 16.1651 62.4233 14.1744 59.7261 13.511ZM66.0719 7.15566C65.4052 7.15566 64.8635 7.68528 64.8635 8.3366C64.8635 8.98791 65.4052 9.51753 66.0719 9.51753C66.7386 9.51753 67.281 8.98791 67.281 8.3366C67.281 7.68528 66.7386 7.15566 66.0719 7.15566ZM67.007 10.996H65.1375V21.2814H67.007V10.996ZM77.8029 10.996V12.1141C76.8147 11.2523 75.5211 10.7727 74.1776 10.77C71.1478 10.77 68.6822 13.1773 68.6822 16.1384C68.6822 19.0994 71.1478 21.5074 74.1776 21.5074C75.5212 21.5045 76.8148 21.0246 77.8029 20.1626V22.8602C77.8036 22.9193 77.7923 22.978 77.7697 23.0329C77.7466 23.0879 77.7123 23.138 77.6687 23.1804C77.6252 23.2227 77.5734 23.2566 77.5161 23.2801C77.4589 23.3035 77.3968 23.316 77.3346 23.3169H70.7346V25.1431H77.3346C78.6236 25.1431 79.6724 24.1194 79.6724 22.8602V10.996H77.8029ZM77.8029 16.1384C77.8029 18.0923 76.1785 19.6825 74.1776 19.6825C72.1768 19.6825 70.5517 18.0937 70.5517 16.1384C70.5517 14.1831 72.1761 12.5942 74.1776 12.5942C76.1792 12.5942 77.8029 14.1858 77.8029 16.1384ZM86.6283 10.77C85.9375 10.7733 85.2571 10.9298 84.6417 11.2271C84.0264 11.5244 83.4932 11.9542 83.085 12.4819V10.996H81.2155V21.2807H83.085V15.6241C83.085 13.9845 84.4502 12.6504 86.129 12.6504C87.8078 12.6504 89.173 13.9878 89.173 15.6241V21.2807H91.0975V15.1353C91.0961 12.728 89.0918 10.77 86.6283 10.77ZM101.478 10.996V12.1141C100.49 11.2521 99.196 10.7724 97.8522 10.77C94.8224 10.77 92.3568 13.1773 92.3568 16.139C92.3568 19.1007 94.8224 21.5074 97.8522 21.5074C99.196 21.505 100.49 21.0253 101.478 20.1633V21.2814H103.347V10.996H101.478ZM101.478 16.139C101.478 18.0923 99.8538 19.6832 97.8522 19.6832C95.8507 19.6832 94.2256 18.0943 94.2256 16.139C94.2256 14.1837 95.85 12.5949 97.8522 12.5949C99.8545 12.5949 101.478 14.1858 101.478 16.139ZM106.992 7.15299H105.122V21.2814H106.992V7.15299ZM114.315 15.138L111.237 14.3355C110.71 14.159 110.702 13.7411 110.743 13.5084C110.847 12.9232 111.511 12.3334 112.761 12.3334C113.514 12.3334 114.069 12.5073 114.411 12.8503C114.694 13.1366 114.8 13.5043 114.835 13.7625L114.859 13.925L116.708 13.6876L116.686 13.5224C116.582 12.7701 116.279 12.1328 115.785 11.63C115.079 10.9091 114.06 10.5433 112.764 10.5433C110.422 10.5433 109.135 11.8807 108.898 13.2081C108.672 14.4786 109.388 15.6154 110.684 16.0494L113.844 16.8719C114.697 17.0779 115.197 17.5955 115.12 18.1913C115.035 18.8373 114.313 19.4892 112.89 19.4892C111.997 19.4892 111.336 19.2793 110.926 18.8647C110.665 18.6025 110.495 18.2535 110.421 17.8262L110.364 17.4992L108.522 17.8429L108.58 18.1572C108.722 18.9229 109.048 19.5722 109.554 20.0871C110.331 20.8801 111.461 21.282 112.89 21.282C115.443 21.282 116.799 19.7948 116.979 18.4133C117.144 17.1408 116.385 15.6348 114.315 15.138Z" fill="#1A1A1A"/>
</g>
<defs>
<clipPath id="clip0_1763_4238">
<rect width="117" height="32" fill="white"/>
</clipPath>
</defs>
</svg>
