<svg width="86" height="32" viewBox="0 0 86 32" fill="none" xmlns="http://www.w3.org/2000/svg">
<g clip-path="url(#clip0_1763_4321)">
<path d="M31.7586 8C29.7513 8.00223 27.827 8.78591 26.4076 10.1791C24.9883 11.5723 24.1899 13.4612 24.1876 15.4315C24.1876 17.9119 25.2496 20.1219 27.2587 21.8232C29.1402 23.4162 31.8384 24.5144 34.9536 25.0232C35.3991 24.783 36.2415 23.9725 36.5097 23.4173C34.2145 23.0287 33.1618 22.643 33.1618 22.643C33.4617 22.6151 33.7579 22.5567 34.0456 22.4689C37.1119 21.6247 39.3597 18.6519 39.3295 15.4316C39.2912 11.334 35.9333 8 31.7586 8ZM31.7586 20.7236C30.6923 20.7235 29.6499 20.4131 28.7633 19.8316C27.8767 19.2501 27.1857 18.4236 26.7777 17.4566C26.3697 16.4896 26.2629 15.4256 26.4709 14.399C26.679 13.3725 27.1925 12.4295 27.9465 11.6894C28.7005 10.9493 29.6611 10.4453 30.7069 10.2411C31.7527 10.037 32.8368 10.1418 33.8219 10.5423C34.807 10.9428 35.649 11.6211 36.2414 12.4914C36.8338 13.3617 37.15 14.3848 37.15 15.4315C37.1484 16.8346 36.5799 18.1797 35.5691 19.1718C34.5584 20.1639 33.188 20.722 31.7586 20.7236ZM73.6271 18.8459L71.07 12.1858H68.7915L72.5225 21.4823L70.8726 25.3333C71.9586 25.3333 73.1465 25.2581 73.6108 24.1349C74.7009 21.5006 78.4972 12.186 78.4972 12.186H76.2184L73.6271 18.8459ZM65.0803 22.1684C65.0803 22.1684 67.1957 22.1299 67.1957 20.7213V8.06957H65.0803V22.1684ZM60.6941 13.497C60.1052 12.6907 58.9546 11.9082 57.2611 11.9082C54.3704 11.9082 52.1905 14.115 52.1905 17.0413C52.1905 18.4091 52.6669 19.6802 53.5321 20.6203C54.4679 21.6373 55.7574 22.1747 57.2611 22.1747C58.7179 22.1747 59.9654 21.5914 60.6941 20.5922V22.1681C60.6941 22.1681 62.8095 22.1352 62.8095 20.7221V12.1855H60.6941V13.497ZM57.5264 20.2205C56.2477 20.2205 54.3351 19.3828 54.305 17.0754V17.0588C54.305 15.2366 55.6745 13.8625 57.4906 13.8625C58.8471 13.8625 59.9496 14.5581 60.4421 15.7293C60.6407 16.1488 60.7331 16.6092 60.7115 17.0714C60.6988 17.5405 60.5883 18.0021 60.3869 18.4278C59.8894 19.5503 58.8199 20.2205 57.5264 20.2205ZM48.337 17.5969C48.337 19.2728 47.4501 20.2051 45.8411 20.2205C44.2089 20.2205 43.4157 19.3112 43.4157 17.4407V12.1858H41.3008V17.8571C41.3008 18.6758 41.4414 19.8431 42.1113 20.7563C42.7959 21.6896 43.878 22.1668 45.3268 22.1749H45.3862C47.1191 22.1749 48.0115 21.4039 48.4431 20.8047V22.168C48.4431 22.168 50.4519 22.1344 50.4519 20.7912V12.1858H48.3365L48.337 17.5969ZM83.5678 16.1309C82.4687 15.6646 81.6697 15.2613 81.6838 14.6357C81.6931 14.2218 82.2485 13.8255 82.826 13.8452C83.4441 13.8663 83.9023 14.2845 84.1575 14.6193C84.1575 14.6193 85.3129 13.6496 85.4527 13.546C85.167 13.0781 84.7635 12.6902 84.2809 12.4196C83.7983 12.149 83.253 12.0049 82.6972 12.0011C81.921 11.9802 81.168 12.2622 80.6033 12.7854C80.0386 13.3086 79.7083 14.0303 79.6848 14.7921C79.6542 16.1557 80.4678 16.7185 81.5349 17.3126L83.2914 18.2823C83.6966 18.5605 83.8878 18.7681 83.8781 19.1961C83.8631 19.8666 83.2917 20.3013 82.5517 20.3442C82.0074 20.3758 81.5604 20.0669 81.1369 19.6318C80.3125 18.785 79.0473 19.1921 78.6602 19.3145C79.4655 21.1317 80.9882 22.1898 82.5096 22.2227C84.4257 22.2641 85.9585 20.876 85.9995 19.0624C86.0182 18.189 85.6284 17.1042 83.5678 16.1309Z" fill="#262626"/>
<path d="M8.80798 5.33398C14.5446 5.33398 17.429 8.37822 17.429 8.37822C17.429 8.37822 17.7587 10.6316 17.5483 15.1688C17.2303 22.0227 8.81005 26.1389 8.80927 26.1393C8.80848 26.1397 0.388379 22.0227 0.0703399 15.1688C-0.140136 10.6316 0.18964 8.37822 0.18964 8.37822C0.18964 8.37822 3.07146 5.33398 8.80798 5.33398V5.33398Z" fill="#ED2E26"/>
<path d="M4.50722 14.3456C4.50722 11.9221 6.43886 9.95055 8.81314 9.95055C9.95569 9.95183 11.0511 10.4026 11.859 11.2039C12.6669 12.0052 13.1213 13.0916 13.1226 14.2248C13.1226 16.1063 11.4919 17.6543 10.2351 18.4498C10.7227 18.7257 11.7987 19.0155 12.829 19.1092C13.5825 18.533 14.1926 17.7931 14.6125 16.9463C15.0324 16.0995 15.2508 15.1685 15.251 14.2249C15.2538 13.3846 15.0894 12.552 14.7671 11.7748C14.4449 10.9977 13.9711 10.2913 13.373 9.69609C12.7749 9.1009 12.0643 8.62867 11.2818 8.30645C10.4993 7.98422 9.66041 7.81836 8.81317 7.81836C7.96593 7.81836 7.12703 7.98422 6.34455 8.30645C5.56207 8.62867 4.85142 9.1009 4.25333 9.69609C3.65524 10.2913 3.18148 10.9977 2.85922 11.7748C2.53695 12.552 2.37252 13.3846 2.37534 14.2249C2.37534 16.3513 3.26806 18.2404 4.95687 19.6879C6.53583 21.0411 8.84548 21.9444 11.4752 22.3721C12.0448 22.0598 13.0193 21.1379 13.3846 20.5983C11.1884 20.3181 9.10985 19.7869 7.7166 19.0619C5.58701 17.9539 4.50722 16.3672 4.50722 14.3456Z" fill="white"/>
</g>
<defs>
<clipPath id="clip0_1763_4321">
<rect width="86" height="32" fill="white"/>
</clipPath>
</defs>
</svg>
