<svg width="127" height="32" viewBox="0 0 127 32" fill="none" xmlns="http://www.w3.org/2000/svg">
<g clip-path="url(#clip0_1763_4247)">
<path fill-rule="evenodd" clip-rule="evenodd" d="M8.68801 20.8912C8.47011 20.9661 8.25498 21.04 8.03602 21.117C4.16369 22.4763 2.86191 20.0149 3.02764 18.8344C3.17322 17.793 4.06907 16.8942 5.0965 16.8942C5.55563 16.8942 6.03995 17.0362 6.38709 17.2757C6.64409 17.4706 6.81654 17.7284 6.81654 18.0653C6.81643 18.2192 6.77042 18.3695 6.68434 18.4974C6.59827 18.6252 6.47599 18.7247 6.33299 18.7834C6.18999 18.8421 6.03271 18.8572 5.88104 18.8269C5.72938 18.7967 5.59017 18.7223 5.48102 18.6133C5.37188 18.5043 5.29771 18.3655 5.26792 18.2145C5.23812 18.0636 5.25403 17.9072 5.31364 17.7652C5.37324 17.6233 5.47386 17.5021 5.60275 17.417C5.73165 17.3319 5.88302 17.2868 6.03771 17.2874C6.03883 17.2462 5.71744 17.1265 5.40165 17.1265C4.55843 17.1265 3.68441 17.905 4.13906 19.1278C4.75944 20.7951 6.46772 20.4008 6.99011 20.2238C7.26668 20.1297 7.63214 19.9946 8.04927 19.8404C8.40992 19.7071 8.80919 19.5595 9.22303 19.4118C9.55953 19.697 10.0265 20.0862 10.3798 20.2872C9.74106 20.5292 9.20672 20.7129 8.68801 20.8912ZM5.32103 22.1093C4.44085 22.1093 3.84735 22.5515 4.003 23.0922C4.15753 23.6329 5.00356 24.0221 5.88093 23.957L13.0086 23.428C13.8871 23.3628 15.3227 23.3628 16.2017 23.428L23.3702 23.957C24.2482 24.0221 25.0925 23.6323 25.2493 23.0922C25.4044 22.5515 24.8109 22.1093 23.9307 22.1093H5.32103ZM15.8764 4.60975C15.3697 4.60696 14.9274 5.28077 15.6749 6.35887L15.6743 6.35831C14.8434 6.18123 14.3585 6.14949 13.4963 6.35831C14.2857 5.2184 13.8479 4.60696 13.3412 4.60975C12.5377 4.61476 12.2432 5.06582 12.2477 5.78864C11.8171 5.53916 11.4162 4.88484 11.4128 4.27062C11.4089 3.6575 11.8904 3.0856 12.5063 3.0817C13.2695 3.07669 13.6564 3.31726 14.0063 3.72099C13.9453 3.59569 13.882 3.47374 13.8182 3.3568C13.6849 3.10509 13.5287 2.79993 13.527 2.52595C13.5254 2.1974 13.6765 1.83543 13.8949 1.44006C14.1021 1.05526 14.3955 0.483918 14.5909 0C14.7919 0.481133 15.0931 1.04914 15.3048 1.43115C15.527 1.8243 15.6838 2.18459 15.6855 2.51314C15.6872 2.78656 15.5349 3.09451 15.4044 3.34733C15.344 3.46316 15.2824 3.58288 15.2247 3.70539C15.5707 3.31169 15.9582 3.07613 16.7118 3.0817C17.3283 3.0856 17.8092 3.6575 17.8059 4.27062C17.8014 4.88484 17.4011 5.53916 16.9699 5.78864C16.9744 5.06582 16.6805 4.61476 15.8764 4.60975ZM23.8299 16.995C24.8579 16.995 25.7521 17.8938 25.8982 18.9352V18.9346C26.0634 20.1152 24.7622 22.5765 20.8898 21.2178C20.282 21.0045 18.6878 20.4316 17.6356 20.0436C16.7044 20.4961 15.6557 20.7505 14.5466 20.7505C10.6916 20.7505 7.56729 17.6777 7.56729 13.8899C7.56729 10.1004 10.6916 7.0293 14.5466 7.0293C18.4015 7.0293 21.5264 10.1004 21.5264 13.8899C21.5264 16.0405 20.5191 17.9605 18.9428 19.2186C19.2857 19.3455 19.6755 19.4907 20.06 19.6341C20.8722 19.9368 21.6611 20.2309 21.9358 20.324C22.4576 20.5016 24.1664 20.8959 24.7868 19.2275C25.2415 18.0052 24.368 17.2267 23.5248 17.2267C23.209 17.2267 22.887 17.3459 22.8887 17.3882C23.0434 17.3877 23.1948 17.433 23.3236 17.5182C23.4525 17.6033 23.553 17.7246 23.6125 17.8667C23.672 18.0087 23.6878 18.1651 23.6578 18.3161C23.6279 18.467 23.5535 18.6057 23.4443 18.7147C23.335 18.8236 23.1957 18.8978 23.0439 18.9279C22.8922 18.958 22.7349 18.9427 22.592 18.8838C22.449 18.825 22.3269 18.7252 22.2409 18.5973C22.155 18.4693 22.1092 18.3189 22.1093 18.165C22.1093 17.8287 22.2818 17.5714 22.5393 17.3754C22.8865 17.1365 23.3702 16.995 23.8299 16.995ZM17.7927 18.8586C19.0034 17.697 19.7817 15.889 19.7817 13.8582C19.7817 10.3538 17.4637 7.51266 14.6048 7.51266C11.7464 7.51266 9.42898 10.3538 9.42898 13.8582C9.42898 15.8555 10.1816 17.6372 11.358 18.8005C11.6817 18.2141 12.5197 17.4439 14.6592 17.8855C15.615 18.0825 15.9783 18.2031 17.7927 18.8586ZM11.5369 18.9697C12.3954 19.7457 13.4565 20.2042 14.6048 20.2042C15.3531 20.2042 16.0644 20.0096 16.7067 19.6593C16.6619 19.6409 16.618 19.6228 16.5748 19.605C14.9282 18.9277 14.4175 18.7176 13.6043 18.6361C12.4857 18.522 11.8704 18.7412 11.5369 18.9697ZM2.75151 15.3706C5.05106 11.0727 0.00012207 7.52268 0.00012207 7.52268V7.52324L2.57626 17.7362C2.57626 17.7362 2.78007 16.4676 4.42788 16.1458C6.31309 15.7777 7.28957 17.2506 7.28957 17.2506C6.15016 10.7503 2.75151 15.3706 2.75151 15.3706ZM26.1546 15.3706C23.855 11.0727 28.906 7.52268 28.906 7.52268V7.52324L26.3298 17.7362C26.3298 17.7362 26.1255 16.4676 24.4782 16.1458C22.593 15.7777 21.6165 17.2506 21.6165 17.2506C22.7559 10.7503 26.1546 15.3706 26.1546 15.3706Z" fill="#1A1A1A"/>
<path d="M122.741 18.9817H122.7L119.786 10.4063H118.44L122.129 20.786C121.539 22.9558 120.6 23.7058 119.744 23.7058C119.275 23.7058 118.889 23.6045 118.521 23.5639V24.5567C118.806 24.6372 119.133 24.6777 119.663 24.6777C121.579 24.6777 122.333 23.7655 123.046 21.6977L127.001 10.4063H125.696L122.741 18.9817Z" fill="#1A1A1A"/>
<path fill-rule="evenodd" clip-rule="evenodd" d="M40.8217 16.7551C41.9835 16.9578 42.9416 17.6071 43.6754 18.7019C44.4703 17.6071 44.8984 16.005 44.8984 13.9372C44.8984 9.82183 43.1454 7.51074 40.4344 7.51074C37.7234 7.51074 35.9704 9.82183 35.9704 13.9372C35.9704 18.0531 37.7234 20.3636 40.4344 20.3636C41.3109 20.3636 42.1058 20.1204 42.7581 19.6344C42.1262 18.5594 41.6574 18.1951 40.8217 18.0722V16.7545V16.7551ZM46.7736 22.4726C45.4895 22.4726 44.1034 22.0057 43.3288 20.6278C42.5135 21.1751 41.5351 21.4584 40.4344 21.4584C36.745 21.4584 34.6251 18.2559 34.6251 13.9372C34.6251 9.6191 36.745 6.41602 40.4344 6.41602C44.1238 6.41602 46.2437 9.6191 46.2437 13.9372C46.2437 16.4111 45.5506 18.5188 44.2461 19.8568C44.878 20.9516 45.4895 21.2556 46.7736 21.2556V22.4726ZM55.2729 10.7138V21.2556H54.0499V19.5939C52.9091 20.7691 51.9708 21.4584 50.4223 21.4584C48.2209 21.4584 47.2832 20.2015 47.2832 17.9106V10.7138H48.5062V17.7896C48.5062 19.5331 49.0356 20.4865 50.6669 20.4865C51.9708 20.4865 52.7052 19.6958 54.0505 18.4783V10.715H55.2735L55.2729 10.7138ZM63.6301 15.0522C63.3861 12.8836 62.4275 11.5045 60.5726 11.4848C58.412 11.4639 57.4947 13.6534 57.4744 15.0522H63.6301ZM57.4744 16.0259C57.4744 18.4181 58.4731 20.4859 60.8784 20.4859C62.2441 20.4859 62.9167 20.0196 63.9767 18.3572L64.9755 18.8843C63.8346 20.7488 62.7944 21.4578 60.7765 21.4578C58.0043 21.4578 56.2513 19.6952 56.2513 15.9841C56.2513 12.7202 57.9228 10.5111 60.6134 10.5111C63.4881 10.5111 64.8532 12.7614 64.8532 16.0253H57.4744V16.0259ZM73.2104 15.0522C72.9664 12.8836 72.0077 11.5045 70.1528 11.4848C67.9928 11.4639 67.0756 13.6534 67.0546 15.0522H73.2104ZM67.0546 16.0259C67.0546 18.4181 68.0534 20.4859 70.4586 20.4859C71.8243 20.4859 72.4969 20.0196 73.5569 18.3572L74.5557 18.8843C73.4148 20.7488 72.3746 21.4578 70.3567 21.4578C67.5851 21.4578 65.8316 19.6952 65.8316 15.9841C65.8316 12.7202 67.503 10.5111 70.1942 10.5111C73.0683 10.5111 74.434 12.7614 74.434 16.0253H67.054L67.0546 16.0259ZM75.5347 21.2556V10.7138H76.7571V12.3762C77.8985 11.201 78.8368 10.5111 80.3859 10.5111C82.5873 10.5111 83.525 11.768 83.525 14.0588V21.2556H82.3014V14.1811C82.3014 12.4376 81.772 11.4842 80.1413 11.4842C78.8368 11.4842 78.1024 12.2742 76.7571 13.4918V21.255H75.5341L75.5347 21.2556ZM89.8432 21.2556V6.61874H92.2077L96.2646 19.0262H96.3048L100.381 6.61815H102.746V21.2556H101.401V7.71407H101.36L96.9367 21.255H95.6525L91.2299 7.71407H91.1886V21.255L89.8432 21.2556ZM110.41 15.2955C105.559 16.3502 104.907 17.3436 104.907 18.681C104.907 19.8371 105.702 20.4859 106.802 20.4859C107.944 20.4859 109.35 19.8163 110.411 18.7424V15.2955H110.41ZM110.614 21.2556L110.451 19.9785C109.187 20.9724 108.229 21.4584 106.599 21.4584C104.948 21.4584 103.684 20.4447 103.684 18.7019C103.684 15.8231 106.049 15.2955 110.472 14.323V13.5932C110.472 12.1943 109.86 11.4842 108.046 11.4842C106.781 11.4842 105.742 12.1741 104.968 13.3904L104.153 12.9033C105.07 11.201 106.375 10.5117 108.086 10.5117C110.492 10.5117 111.633 11.4836 111.633 13.8162V19.3303C111.633 19.8568 111.674 20.5467 111.797 21.2556H110.614ZM112.897 21.2556V10.7138H114.12V12.7208H114.161C114.731 11.4234 115.873 10.5111 117.218 10.5111H117.769V11.6869H117.218C115.873 11.6869 114.12 13.2682 114.12 15.2955V21.2556H112.897Z" fill="#1A1A1A"/>
</g>
<defs>
<clipPath id="clip0_1763_4247">
<rect width="127" height="32" fill="white"/>
</clipPath>
</defs>
</svg>
