<svg width="127" height="32" viewBox="0 0 127 32" fill="none" xmlns="http://www.w3.org/2000/svg">
<g clip-path="url(#clip0_1763_4241)">
<path fill-rule="evenodd" clip-rule="evenodd" d="M12.4627 5.37645C11.7488 5.48941 11.038 5.6211 10.3311 5.77139C9.86325 5.86907 9.396 5.96017 8.93421 6.07463C8.50812 6.18071 8.07114 6.2748 7.65353 6.40545C7.25058 6.52812 6.85154 6.66302 6.45697 6.80997C5.68516 7.10368 4.96636 7.51895 4.32836 8.03974C3.941 8.35977 3.57968 8.70736 3.27645 9.10829C3.06729 9.39391 2.8786 9.6937 2.71177 10.0054C2.55017 10.3033 2.43941 10.6563 2.43578 10.9979C2.43033 12.0023 3.07854 12.8437 3.8248 13.4682C4.06992 13.672 4.33078 13.8601 4.59526 14.0393C5.38026 14.5727 6.23485 15.0414 7.10276 15.4495C7.99851 15.869 8.90032 16.2717 9.81301 16.6553C10.6761 17.0167 11.5579 17.3223 12.4482 17.6142C12.7042 17.6969 12.9633 17.7796 13.2193 17.8629C14.0261 18.1266 14.8504 18.3705 15.6511 18.6563C16.1498 18.8337 16.6812 18.9997 17.1793 19.2215C17.6968 19.4516 18.2343 19.6811 18.6906 20.012C18.9978 20.2274 19.258 20.502 19.4556 20.8192C19.6475 21.132 19.7673 21.4904 19.7758 21.856C19.7847 22.207 19.6854 22.5523 19.4914 22.846C18.9908 23.6161 18.1199 24.1411 17.2798 24.4911C16.0233 25.0124 14.7382 25.4632 13.4305 25.8413C12.6849 26.0565 11.9392 26.2698 11.1881 26.4622C10.434 26.6552 9.66533 26.8578 8.90334 27.0459C8.14377 27.2341 7.3842 27.4037 6.6216 27.5655C6.18462 27.6572 5.74461 27.7477 5.31065 27.837C5.04919 27.8886 4.79318 27.9431 4.53111 27.9988C3.98579 28.1157 3.44047 28.2314 2.89273 28.3464C2.26934 28.4819 1.64595 28.6131 1.02255 28.7474C0.840981 28.7863 0.66062 28.8337 0.479654 28.8732C0.318056 28.9098 -0.285365 29.0476 0.16251 29.0212C0.785904 28.9877 2.4503 28.8444 6.00607 28.3764C7.29523 28.1666 8.58862 27.9868 9.87959 27.7795C11.4876 27.5247 13.086 27.2139 14.6719 26.8476C15.1258 26.7421 15.5761 26.6294 16.0276 26.5084C16.3254 26.4269 16.6201 26.3424 16.9124 26.2525C18.1592 25.8725 20.1595 25.2013 20.6328 24.9987C22.4419 24.2196 23.5682 23.6335 24.1559 22.2372C24.3562 21.7415 24.4507 21.1866 24.3895 20.655C24.3278 20.1595 24.1621 19.6822 23.9029 19.2538C23.6548 18.8493 23.3158 18.5041 22.9618 18.1853C22.3021 17.5944 21.5625 17.1173 20.772 16.7128C20.5479 16.5978 20.3207 16.4889 20.0905 16.3862C19.8048 16.2584 19.517 16.1349 19.2275 16.0158C18.8197 15.8516 18.4067 15.7005 17.9892 15.5628C16.904 15.1972 15.8018 14.8712 14.7112 14.5212C14.0935 14.3262 13.4843 14.1056 12.8852 13.8601C12.6327 13.7566 12.3832 13.6459 12.1371 13.5281C11.8478 13.3903 11.5664 13.2393 11.288 13.0775C10.946 12.8743 10.3862 12.5249 10.5423 12.0497C10.6513 11.7111 11.0265 11.5792 11.3328 11.4575C11.6166 11.3449 11.9168 11.2658 12.2122 11.1897C13.114 10.9619 14.0345 10.8085 14.9448 10.6179C15.2125 10.5625 15.4796 10.5045 15.7461 10.4441C16.4561 10.2805 17.1878 10.1583 17.8645 9.89397C18.4455 9.66924 19.1912 9.31025 19.4084 8.68339C19.7201 7.77065 19.3661 6.78361 18.8577 6.01351C18.6736 5.73737 18.4843 5.46464 18.29 5.19546C18.0224 4.82809 17.7271 4.48229 17.4384 4.1323C17.3077 3.97349 17.1485 3.98547 17.0147 4.02623C16.8368 4.08616 16.3502 4.6459 12.4627 5.37645Z" fill="#CC0000"/>
<path fill-rule="evenodd" clip-rule="evenodd" d="M72.0666 13.3766L72.1193 13.2567L72.1804 13.153L72.2337 13.0577L72.2863 12.9762L72.3227 12.8959L72.3614 12.836L72.3917 12.7773L72.431 12.7413L72.5254 12.5789L72.5811 12.4818L72.6477 12.3865L72.7899 12.1504L72.8765 12.0234L72.9654 11.8915L72.9878 11.8693L73.0181 11.8615L73.0847 11.8849L73.1179 11.9065L73.1627 11.958L73.2517 12.0839L73.3437 12.2517L73.4466 12.4818L73.5555 12.7557L73.6748 13.0877L73.6972 13.1458L73.7359 13.2429L73.7861 13.3688L73.8557 13.5306L73.8642 13.5606L73.8781 13.5977L73.9005 13.6714L73.9169 13.7302L73.9308 13.7901V13.8338L73.9393 13.8788L73.9308 13.892V13.9519L73.8866 14.0106L73.8563 14.0472L73.7807 14.0772L73.6802 14.1071L73.5555 14.1221H73.4768L73.4024 14.1287L72.6616 14.1874H72.52L72.4086 14.1958H72.2918L72.2028 14.2024L72.1108 14.1958H71.9383L71.8548 14.1808L71.8022 14.1659L71.758 14.1371L71.7319 14.0993L71.7102 14.0472L71.7211 13.9969L71.7319 13.9285L71.7713 13.8554L71.827 13.7601L71.8772 13.6786L71.9214 13.6049L71.9662 13.545L71.9995 13.4862L72.0303 13.4419L72.0443 13.3981L72.0666 13.3766ZM67.324 16.8621C67.324 16.8621 67.4305 16.8891 67.4305 16.8903C67.8336 17.0041 68.0315 17.2702 67.7229 17.619C67.6254 17.7305 67.5473 17.8551 67.4687 17.9768L67.4021 18.0871C67.3355 18.1961 67.2859 18.2974 67.275 18.4263L67.2798 18.494C67.2992 18.672 67.4445 18.8626 67.5334 19.0154C67.7192 19.3282 67.9147 19.6069 68.132 19.894C68.1647 19.9407 68.6404 19.1688 68.6713 19.1251C68.8413 18.8937 69.0386 18.6888 69.2142 18.4622C69.4333 18.1782 69.6735 17.9091 69.9907 17.7275C70.3078 17.5453 70.6722 17.4728 71.0371 17.435C71.3985 17.3955 71.7604 17.3793 72.1193 17.3601C72.8589 17.3218 73.5943 17.2403 74.3284 17.1695C74.6129 17.142 75.0329 17.0731 75.2889 17.2103C75.5371 17.3421 75.7259 17.5711 75.9178 17.767C76.1484 18.0056 76.3741 18.2489 76.5914 18.4976C76.8504 18.7918 77.081 19.1065 77.3673 19.3786C77.5483 19.5524 77.7353 19.7052 77.9411 19.852L78.047 19.9191C78.4113 20.0971 78.6674 19.8628 78.7454 19.5008C78.8568 18.9662 78.5475 18.4461 78.2945 17.996C78.1558 17.7498 78.0278 17.4979 77.9108 17.2409C77.8103 17.0311 77.7099 16.7069 77.8884 16.5055C78.0276 16.3515 78.3133 16.3437 78.5033 16.2946C78.7279 16.2358 78.9488 16.1687 79.1739 16.1244C79.6248 16.0333 80.0721 15.9146 80.5315 15.8577C80.7875 15.8277 81.2075 15.6413 81.4278 15.8613C81.7171 16.1459 81.4418 16.6823 81.3304 16.9868C81.1494 17.495 80.966 18.0211 80.9079 18.5593C80.8571 19.0489 80.9794 19.5757 81.2971 19.9665C81.5307 20.2541 81.9235 20.5017 82.2903 20.2931C82.5826 20.1253 82.7969 19.7681 82.9276 19.4715C83.1727 18.9051 83.3422 18.3172 83.5371 17.7341C83.7126 17.2091 83.8942 16.6853 84.0939 16.1663C84.241 15.7888 84.4104 15.4166 84.5587 15.0396C84.6531 14.7945 84.7839 14.5662 84.8874 14.3247C84.9703 14.1209 84.9987 13.8554 85.2039 13.7272C85.4545 13.5737 85.7632 14.0184 85.883 14.1736C86.1112 14.4637 86.3145 14.767 86.5233 15.0696C86.7533 15.3962 86.9627 15.8289 87.3356 16.0153C87.9783 16.3389 88.5545 15.5826 88.9164 15.1763C89.167 14.8994 89.42 14.6135 89.679 14.3355C89.9538 14.0376 90.2353 13.7421 90.5082 13.4443C90.6861 13.2537 90.9198 12.8798 91.2121 12.8738C91.4651 12.8702 91.5238 13.1411 91.5462 13.3352C91.6582 14.2653 91.6993 15.211 91.8409 16.1435C91.8966 16.4899 91.9662 16.8345 92.0274 17.1791L92.1163 17.6664C92.1611 17.8977 92.2083 18.129 92.2586 18.3592C92.3669 18.8368 92.4813 19.3144 92.629 19.7819C92.7591 20.1774 92.9261 20.6059 93.2608 20.884C93.6579 21.2136 94.3872 21.1033 94.6432 20.6431C94.6958 20.5466 94.7188 20.4291 94.7406 20.3207C94.7854 20.0917 94.763 19.852 94.7437 19.6219C94.6771 18.8014 94.4435 17.9996 94.4289 17.1719C94.4259 16.8303 94.4544 16.4917 94.4816 16.1513C94.5403 15.3579 94.6432 14.5668 94.6874 13.7721C94.7437 12.8006 94.8326 11.7728 94.5463 10.8254C94.4661 10.5526 94.3508 10.2911 94.2032 10.0475C94.0732 9.82932 93.9173 9.62732 93.739 9.44577C93.5572 9.25363 93.346 9.09103 93.1132 8.96393C92.8904 8.84527 92.6005 8.75178 92.3475 8.73919C91.7387 8.70923 91.1068 9.04004 90.6305 9.38584C90.2237 9.67949 89.857 10.0145 89.509 10.3723C88.8916 11.0147 88.2707 11.6782 87.7223 12.3829C87.5637 12.5885 87.3713 12.9595 87.0517 12.9205C86.6734 12.8714 86.4725 12.3134 86.3557 12.0192C86.2403 11.7418 86.116 11.4682 85.9829 11.1987C85.811 10.8553 85.6354 10.5155 85.4714 10.1679C85.3346 9.88026 85.1954 9.58061 84.9842 9.33909C84.7421 9.06461 84.4304 8.93157 84.0854 8.8195C83.8409 8.74099 83.4923 8.64151 83.2538 8.78174C82.9331 8.96932 82.9948 9.44037 82.9754 9.74482C82.9555 10.0175 82.9252 10.2812 82.8998 10.5539C82.8302 11.2107 82.789 11.8873 82.6383 12.5322C82.5717 12.818 82.4743 13.1776 82.2231 13.3616C82.0288 13.503 81.7837 13.4839 81.5586 13.4934C81.3746 13.5012 81.1888 13.4958 81.0018 13.4904C80.5787 13.4815 80.1562 13.4647 79.7332 13.4755C79.3713 13.4862 79.0069 13.5084 78.6425 13.5216C78.3194 13.5354 77.9937 13.5666 77.6681 13.5666C77.3038 13.5869 76.8583 13.6445 76.5163 13.4862C76.2464 13.3604 76.1012 13.0745 75.9813 12.821C75.8088 12.4608 75.5897 12.1228 75.3833 11.7794C75.1969 11.4738 75.0166 11.1658 74.8271 10.8625C74.5548 10.425 74.2842 9.98993 74.0058 9.55724C73.8243 9.27023 73.636 8.98749 73.4411 8.70923C73.2826 8.48329 73.0816 8.18005 72.8032 8.08596C72.5484 7.99906 72.2972 8.16386 72.2446 8.41138C72.2083 8.57199 72.247 8.7362 72.2137 8.89681C72.1774 9.06701 72.1084 9.23481 72.0358 9.39423C71.8942 9.71485 71.7047 10.0145 71.5129 10.3082C70.8671 11.291 70.3853 12.3817 69.8097 13.4035C69.7008 13.5941 69.587 13.7805 69.4781 13.9711C69.331 14.2378 69.2341 14.4583 68.9109 14.5428C68.6204 14.6177 68.3099 14.5794 68.0176 14.6501C67.6563 14.7388 67.5498 15.0438 67.4886 15.3746C67.4384 15.6545 67.4305 15.9404 67.3857 16.2226C67.3525 16.4264 67.3022 16.6559 67.324 16.8621ZM27.8668 22.6166C27.569 22.6262 27.2737 22.6807 26.9795 22.6645C26.6345 22.6447 26.4167 22.4398 26.2896 22.1401C26.1389 21.7818 26.0529 21.3766 25.9609 21.0009C25.8774 20.6455 25.8102 20.2961 25.8496 19.9329C25.8744 19.7351 25.9052 19.5913 26.0693 19.4547C26.3283 19.2449 26.6896 19.3816 26.9626 19.2317C27.2077 19.0969 27.2882 18.8038 27.3106 18.5497C27.3493 18.1224 27.3021 17.664 27.2803 17.2349C27.2132 16.1322 27.2882 15.0079 27.146 13.9123C27.1157 13.6594 27.0322 13.3694 26.7453 13.2945C26.1776 13.1458 26.1721 12.5951 26.1364 12.1198C26.114 11.822 26.111 11.4708 26.2333 11.1909C26.3973 10.8068 26.8349 10.6078 27.2186 10.4921C27.5914 10.3795 27.9703 10.2764 28.3486 10.1751C28.7323 10.0732 29.1305 10.0175 29.5227 9.95158C29.9264 9.88505 30.3301 9.82812 30.7362 9.76639C31.1315 9.70586 31.5267 9.65253 31.9273 9.61057C32.3002 9.56922 32.6754 9.52428 33.0513 9.5027C33.4913 9.47693 33.9361 9.45116 34.3761 9.43498C34.7714 9.4182 35.166 9.42659 35.5588 9.42899C35.9516 9.43198 36.3407 9.44816 36.7305 9.46015C37.1312 9.47393 37.5373 9.5069 37.9325 9.55963C38.5087 9.63634 39.0564 9.73403 39.5521 10.0511C40.0666 10.3843 40.4091 11.0663 39.9001 11.5703C39.3851 12.0803 38.5559 11.9958 37.8883 11.9958C37.3409 11.9972 36.7935 12.0068 36.2463 12.0246C35.7198 12.0413 35.1938 12.0941 34.6654 12.1264C34.1752 12.1564 33.6886 12.1906 33.1965 12.2277C32.6899 12.2655 32.1803 12.3134 31.6738 12.3626C31.2701 12.4003 30.8645 12.4387 30.4663 12.5106C30.1322 12.5705 29.74 12.6292 29.484 12.869C29.2946 13.047 29.2861 13.3448 29.3642 13.5779C29.5173 14.0274 30.2133 13.9135 30.5807 13.9046C31.4153 13.88 32.2415 13.7451 33.0737 13.6906C33.4574 13.6648 33.8393 13.6511 34.22 13.6295C34.6824 13.6025 35.1412 13.5875 35.606 13.6091C36.0121 13.6283 36.4103 13.6744 36.808 13.7547C37.2952 13.8542 37.7491 14.0376 38.197 14.2402C38.7702 14.4349 38.6788 15.1445 38.5837 15.6006C38.5335 15.8397 38.453 16.0501 38.2327 16.1843C37.7322 16.4863 37.0222 16.4102 36.463 16.4246C35.9122 16.4402 35.3584 16.4875 34.8107 16.5367C33.9452 16.617 33.0797 16.7009 32.2166 16.8064C31.6877 16.8717 31.1593 16.9616 30.6309 17.0161C30.2738 17.0539 29.8066 17.0185 29.5149 17.2648L29.4616 17.3098L29.4229 17.3314L29.395 17.3829L29.3611 17.4512C29.3224 17.6688 29.0942 18.3861 29.3224 18.5581L29.3696 18.5797H29.4447C29.7346 18.5809 30.0208 18.5647 30.3102 18.5521C30.7502 18.5336 31.1896 18.5162 31.632 18.4802C32.4781 18.4125 33.3242 18.3442 34.1704 18.2723C34.7211 18.2243 35.2888 18.1943 35.845 18.1452C36.6787 18.0753 37.514 18.0254 38.3501 17.9954C38.8561 17.9756 39.3433 17.9834 39.819 17.7778C40.3698 17.5369 40.8267 17.1156 41.3666 16.8417C42.0481 16.4971 42.7466 16.1897 43.4365 15.8649C44.2826 15.4657 45.1094 15.0067 45.9694 14.6363C46.6316 14.3522 47.2967 14.0706 47.9589 13.7871C48.2796 13.6511 48.6071 13.5234 48.9133 13.352C49.1251 13.2309 49.6729 12.9685 49.5337 12.6424C49.4617 12.474 49.242 12.4495 49.0804 12.4303C48.4461 12.3554 46.8543 12.471 45.8799 12.6179C44.302 12.8875 44.0823 13.0901 43.6429 12.6646C43.3088 12.3146 43.3923 11.8208 43.4426 11.3881C43.4922 10.9428 43.7101 10.2692 43.8626 10.1014C44.319 9.51648 45.8242 9.44816 46.5257 9.39782C46.8876 9.37205 47.255 9.36186 47.6193 9.35827C48.1313 9.35467 48.641 9.38823 49.15 9.38823C49.5913 9.40601 50.0321 9.43599 50.4718 9.47813C50.9729 9.52727 51.5213 9.53926 52.0079 9.69208C52.1671 9.74242 52.325 9.79396 52.4757 9.86348C52.9793 10.0936 53.4381 10.3945 53.7806 10.8242C53.984 11.0789 54.1171 11.3713 54.1843 11.686C54.2176 11.837 54.24 11.9856 54.2176 12.139C54.2007 12.2523 54.1674 12.4782 54.0954 12.5681L54.0651 12.6059C53.9949 12.7557 53.8611 12.8905 53.7389 12.9978C53.1433 13.5096 52.2754 13.696 51.557 13.9861C51.2011 14.1299 50.8507 14.2965 50.4996 14.4529C49.5143 14.8928 48.5381 15.3495 47.5328 15.7486C46.7066 16.0794 45.8829 16.4186 45.09 16.8225C44.8721 16.934 44.5556 17.0934 44.4243 17.3098C44.2941 17.5381 44.578 17.5375 44.7614 17.5411C44.9617 17.5477 45.1651 17.5357 45.3684 17.5207C45.9773 17.4728 46.5868 17.4159 47.1993 17.3505C47.8227 17.2822 48.4515 17.2277 49.0755 17.1504C49.6626 17.0767 50.2497 17.0023 50.8337 16.9394C51.4662 16.8765 52.1015 16.8461 52.7372 16.8483C53.38 16.8483 54.0058 16.8561 54.6407 16.9598L54.7351 16.9748L54.9021 16.9832C55.1696 16.9832 55.4505 16.9478 55.5867 16.6853C55.8094 16.2598 55.9377 15.7474 56.0987 15.2967C56.3045 14.713 56.5187 14.1305 56.733 13.5492C56.7608 13.4689 56.7917 13.3886 56.8225 13.3083C57.0671 12.6508 57.3067 11.9904 57.573 11.3414C57.679 11.0789 57.7909 10.8188 57.8769 10.5479C57.941 10.3453 57.9713 10.1398 58.0687 9.94618C58.2303 9.63634 58.5227 9.43618 58.8507 9.66211C59.1158 9.8443 59.2962 10.1613 59.4493 10.4364C59.6078 10.7265 59.7446 11.0147 59.8191 11.3378C59.8947 11.6626 59.8142 11.9514 59.7138 12.2631C59.6109 12.5831 59.4771 12.9001 59.3912 13.225C59.2042 13.9237 59.9056 14.4871 60.4455 14.8053C60.9327 15.0936 61.4919 15.2889 62.0149 15.5047C62.4071 15.6665 62.7999 15.8373 63.2145 15.917C63.4626 15.9638 63.7767 16.0129 63.9964 15.8589C64.3523 15.606 64.4606 15.1115 64.5811 14.722C64.7257 14.2432 64.8335 13.7517 64.9424 13.2633C65.0368 12.8588 65.101 12.4483 65.1458 12.0353C65.1821 11.7105 65.2123 11.3839 65.2323 11.0585C65.2535 10.6348 65.2208 10.2267 65.2148 9.80475C65.2148 9.53267 65.265 9.18028 65.4605 8.96812C65.7104 8.68705 66.145 8.83148 66.3562 9.09817C66.3623 9.10417 66.4337 9.19526 66.4337 9.19526C66.5626 9.40741 66.6564 9.64054 66.7285 9.87666C66.8537 10.3016 66.924 10.7385 66.9687 11.1771C67.0075 11.5385 67.0323 11.9005 67.0462 12.2643C67.0904 13.518 67.002 14.7741 66.8289 16.0153C66.7345 16.6853 66.5844 17.3367 66.4398 17.996C66.3562 18.358 66.2921 18.7307 66.1335 19.0711C66.0247 19.2976 65.8832 19.5071 65.7135 19.6932C65.6324 19.7819 65.544 19.8562 65.4429 19.9191C65.0955 20.1331 64.6416 20.1247 64.247 20.0863C63.6962 20.036 63.1672 19.897 62.6492 19.7106C62.3231 19.5971 62.0027 19.4681 61.6893 19.324C61.3691 19.1742 61.0465 19.0244 60.7378 18.853C60.4264 18.68 60.1244 18.491 59.833 18.2866C59.5546 18.0949 59.2822 17.8815 59.0462 17.6436C58.8368 17.4338 58.6812 17.1642 58.4863 16.9424C58.2775 16.7081 58.1165 16.6296 57.9798 16.952C57.8968 17.1618 57.8521 17.3817 57.8018 17.6022C57.7183 17.9876 57.6015 18.3693 57.4792 18.7457C57.3624 19.1173 56.8583 20.1487 56.3099 19.6686C56.1326 19.5128 56.0043 19.3132 55.7368 19.3162C55.4644 19.3198 55.2054 19.4289 54.9409 19.4858C54.6625 19.5476 54.3732 19.5799 54.0893 19.6357C53.5525 19.7429 53.015 19.8658 52.4812 19.9713C52.1247 20.0384 51.7688 20.0875 51.4148 20.1475C51.0734 20.205 50.7278 20.2481 50.3828 20.2991C50.027 20.3506 49.6729 20.4064 49.3194 20.4471C48.7632 20.5148 48.2094 20.5802 47.655 20.6377C47.2102 20.6952 46.7684 20.7384 46.3253 20.7887C45.9555 20.8283 45.5881 20.866 45.2177 20.902C44.5999 20.9651 43.9803 21.0091 43.3597 21.0338C42.4215 21.0662 41.4501 21.1207 40.5259 20.9379C40.3202 20.899 40.0139 20.8744 39.8584 20.7246C39.747 20.6185 39.836 20.4369 39.7525 20.3123L39.7385 20.2901L39.7022 20.2523L39.6689 20.2296L39.6326 20.214H39.5576L39.5188 20.2296L39.474 20.2446L39.4353 20.2745L39.3566 20.3273L39.307 20.3854L39.2683 20.4525L39.2459 20.5274C39.0455 21.1603 38.3665 21.3982 37.7491 21.4761L27.8668 22.6166ZM120.126 17.7059C118.829 17.797 117.607 18.0116 116.291 17.8893C115.865 17.8485 115.133 17.8144 114.775 17.5849C113.723 16.9071 117.407 15.6995 117.861 15.5412C119.138 15.0954 121.712 14.3684 121.712 14.3684C121.712 14.3684 124.13 13.7805 124.203 12.5064C124.291 10.9602 122.666 10.2608 121.423 9.87427C120.91 9.76042 120.392 9.67677 119.869 9.62376C119.514 9.59129 119.158 9.5705 118.801 9.56143C118.131 9.53806 117.476 9.60218 116.808 9.68129C116.124 9.7616 114.669 9.80355 114.457 10.645C114.351 11.0735 113.856 11.9568 114.27 12.3446C114.71 12.7569 115.426 12.5855 115.966 12.534C116.711 12.462 117.449 12.3254 118.191 12.2535C118.74 12.2001 119.455 12.0821 119.906 12.4752C120.46 12.9643 118.99 13.4269 118.698 13.5492C117.588 14.0118 116.428 14.3438 115.314 14.7975C114.27 15.2218 113.224 15.6305 112.206 16.1064C111.738 16.3239 111.302 16.5924 110.862 16.8537L110.65 16.7123L109.367 16.8453L108.082 16.949C107.222 17.0185 106.351 17.0425 105.488 17.0826C105.057 17.097 104.381 17.1138 104.041 16.7992C103.299 16.11 103.713 15.1541 104.202 14.4871C104.739 13.7619 105.493 13.2238 106.267 12.7671C106.788 12.4608 107.363 12.2097 107.948 12.0383C108.343 11.9215 108.753 11.8244 109.165 11.7651C109.223 11.8765 109.289 11.988 109.353 12.0971C109.387 12.1594 110.347 11.7651 110.439 11.7183C110.733 11.5685 111.146 11.2682 111.154 10.9045C111.168 10.4622 110.778 10.0211 110.425 9.80055C110.03 9.55484 109.582 9.47274 109.117 9.46854C108.613 9.46195 108.107 9.49191 107.611 9.55604C107.26 9.60406 106.913 9.67717 106.573 9.77478C106.006 9.93659 105.465 10.1559 104.951 10.4376C104.253 10.8195 103.616 11.3026 103.062 11.8711C102.804 12.1373 102.576 12.4302 102.382 12.7449C102.134 13.1446 101.954 13.5869 101.809 14.0322C101.417 15.2644 101.536 16.798 102.105 17.9606C102.494 18.7589 103.098 19.4523 103.871 19.9173C104.846 20.504 106.078 20.6976 107.194 20.4879C107.644 20.4066 108.084 20.2801 108.507 20.1103C108.964 19.9299 109.409 19.7963 109.835 19.5554C109.918 19.5116 110.828 19.0016 110.88 19.0699C111.023 19.2509 111.106 19.4727 111.259 19.6453C111.407 19.8131 111.593 19.9653 111.771 20.0959C112.148 20.3716 112.573 20.4807 113.032 20.534C114.181 20.6689 115.348 20.7372 116.506 20.7522C117.429 20.7641 118.364 20.7024 119.282 20.6185C119.879 20.5646 120.473 20.4879 121.066 20.4171C122.575 20.2362 123.822 19.9077 125.455 19.2185C126.047 18.9497 126.574 18.5576 126.999 18.0691C126.82 17.9622 126.632 17.8708 126.437 17.7958C125.249 17.3284 123.894 17.3098 122.63 17.468C122.048 17.5399 121.467 17.5956 120.886 17.646C120.633 17.6688 120.379 17.6879 120.126 17.7059ZM99.9977 19.0262C100.012 18.8104 99.9868 18.5929 99.9227 18.4263C99.7526 17.99 99.2823 17.5477 98.8151 17.4632C98.3914 17.3889 97.883 17.468 97.5374 17.7329C97.351 17.8773 97.1483 18.1104 97.0508 18.3262C96.836 18.8014 96.8584 19.5068 97.1731 19.9269C97.7045 20.6389 98.829 20.6389 99.4548 20.0618C99.755 19.7861 99.9669 19.4361 99.9977 19.0262Z" fill="#1A1919"/>
</g>
<defs>
<clipPath id="clip0_1763_4241">
<rect width="127" height="32" fill="white"/>
</clipPath>
</defs>
</svg>
