<svg width="88" height="32" viewBox="0 0 88 32" fill="none" xmlns="http://www.w3.org/2000/svg">
<g clip-path="url(#clip0_1763_4303)">
<path d="M81.5703 20.5801C82.0795 20.5881 82.5848 20.4907 83.054 20.2939C83.5231 20.0971 83.9457 19.8054 84.2949 19.4373C84.6616 19.0744 84.9508 18.6418 85.1451 18.1654C85.3395 17.689 85.435 17.1785 85.4259 16.6646C85.4361 16.1483 85.3412 15.6353 85.1468 15.1563C84.9525 14.6772 84.6627 14.2421 84.2949 13.877C83.9457 13.5089 83.5231 13.2171 83.054 13.0204C82.5848 12.8236 82.0795 12.7261 81.5703 12.7342C81.0611 12.7258 80.5558 12.8231 80.0867 13.0198C79.6176 13.2166 79.1951 13.5086 78.8464 13.877C78.4789 14.2424 78.1894 14.6776 77.9951 15.1565C77.8008 15.6355 77.7056 16.1484 77.7153 16.6646C77.7067 17.1785 77.8024 17.6888 77.9967 18.1652C78.1911 18.6415 78.48 19.0742 78.8464 19.4373C79.1952 19.8056 79.6177 20.0975 80.0867 20.2943C80.5558 20.4911 81.0611 20.5884 81.5703 20.5801ZM56.9544 20.5801C57.4636 20.5882 57.9689 20.4907 58.4381 20.2939C58.9072 20.0972 59.3298 19.8054 59.6789 19.4373C60.0456 19.0744 60.3348 18.6418 60.5292 18.1654C60.7235 17.689 60.819 17.1785 60.81 16.6646C60.8201 16.1483 60.7251 15.6353 60.5308 15.1563C60.3364 14.6773 60.0467 14.2422 59.6789 13.877C59.3298 13.5089 58.9071 13.2172 58.438 13.0204C57.9689 12.8236 57.4636 12.7262 56.9544 12.7342C56.4452 12.7258 55.9399 12.8231 55.4708 13.0199C55.0017 13.2167 54.5792 13.5086 54.2304 13.877C53.8631 14.2425 53.5737 14.6777 53.3794 15.1566C53.1851 15.6355 53.0898 16.1484 53.0994 16.6646C53.0908 17.1785 53.1866 17.6888 53.3809 18.1651C53.5752 18.6415 53.8641 19.0741 54.2304 19.4373C54.5793 19.8057 55.0019 20.0976 55.4711 20.2944C55.9403 20.4912 56.4457 20.5885 56.955 20.5801H56.9544ZM37.9654 20.5801C38.4746 20.5882 38.98 20.4908 39.4491 20.2941C39.9183 20.0973 40.3409 19.8055 40.6899 19.4373C41.0567 19.0745 41.3459 18.6419 41.5402 18.1654C41.7346 17.689 41.8301 17.1785 41.821 16.6646C41.8311 16.1483 41.7361 15.6353 41.5418 15.1563C41.3474 14.6773 41.0577 14.2422 40.6899 13.877C40.3408 13.5088 39.9182 13.2171 39.4491 13.0203C38.9799 12.8235 38.4746 12.7261 37.9654 12.7342C37.4561 12.7257 36.9507 12.823 36.4815 13.0198C36.0123 13.2166 35.5897 13.5086 35.2408 13.877C34.8735 14.2425 34.584 14.6776 34.3897 15.1566C34.1954 15.6355 34.1002 16.1484 34.1098 16.6646C34.1013 17.1785 34.1971 17.6887 34.3914 18.1651C34.5857 18.6414 34.8746 19.0741 35.2408 19.4373C35.5898 19.8057 36.0125 20.0977 36.4818 20.2944C36.9511 20.4912 37.4566 20.5885 37.966 20.5801H37.9654ZM66.7442 19.9956C67.0121 19.9967 67.2754 20.0651 67.5095 20.1946C67.7607 20.3296 67.9678 20.5331 68.1065 20.7809C68.2452 21.0189 68.3188 21.2888 68.3201 21.5638C68.3181 21.8348 68.2463 22.1009 68.1115 22.3366C67.9749 22.5821 67.7713 22.7843 67.524 22.9198C67.2867 23.0554 67.0179 23.1272 66.7442 23.1282C66.4687 23.1283 66.198 23.0564 65.9594 22.9198C65.7131 22.7836 65.5102 22.5816 65.3737 22.3366C65.2384 22.101 65.1664 21.8349 65.1645 21.5638C65.1661 21.2905 65.2379 21.0221 65.3731 20.784C65.5098 20.5332 65.7181 20.3281 65.9719 20.1946C66.208 20.0665 66.4727 19.9992 66.7417 19.9987L66.7442 19.9956ZM81.5734 10.1748C82.422 10.1651 83.2634 10.3297 84.0448 10.6583C84.8262 10.9869 85.5306 11.4724 86.114 12.0842C86.7233 12.6819 87.2044 13.3958 87.5284 14.183C87.8524 14.9702 88.0125 15.8144 87.999 16.6646C88.0125 17.5132 87.8524 18.3557 87.5284 19.141C87.2043 19.9264 86.7232 20.6384 86.114 21.2338C85.529 21.8425 84.8239 22.3249 84.0426 22.6509C83.2614 22.9768 82.4208 23.1393 81.5734 23.1282C80.7265 23.1399 79.8864 22.9777 79.1056 22.6516C78.3249 22.3256 77.6205 21.8429 77.0367 21.2338C76.428 20.638 75.9471 19.926 75.6232 19.1407C75.2992 18.3554 75.1388 17.5131 75.1516 16.6646C75.1389 15.8145 75.2993 14.9705 75.6233 14.1834C75.9472 13.3963 76.428 12.6823 77.0367 12.0842C77.6185 11.4723 78.3218 10.9868 79.102 10.6581C79.8823 10.3295 80.7228 10.1649 81.5703 10.1748H81.5734ZM72.1204 10.1748C72.2884 10.1727 72.4551 10.2048 72.6101 10.2691C72.7651 10.3335 72.9051 10.4288 73.0215 10.5491C73.1456 10.6651 73.2439 10.8055 73.3104 10.9613C73.3768 11.1172 73.4098 11.285 73.4073 11.4542V21.8601C73.4099 22.028 73.3773 22.1946 73.3114 22.3492C73.2455 22.5039 73.1478 22.6432 73.0246 22.7583C72.907 22.8776 72.7661 22.9719 72.6105 23.0352C72.4549 23.0986 72.2879 23.1298 72.1198 23.1269C71.9514 23.1298 71.7841 23.0988 71.6282 23.0356C71.4722 22.9725 71.3308 22.8785 71.2124 22.7595C71.0901 22.6437 70.993 22.5041 70.927 22.3495C70.8611 22.1949 70.8278 22.0285 70.8291 21.8607V11.4561C70.8274 11.2882 70.8602 11.1217 70.9257 10.9669C70.9912 10.8121 71.0879 10.6723 71.2099 10.556C71.3268 10.434 71.4678 10.3372 71.624 10.2716C71.7802 10.2061 71.9483 10.1731 72.1179 10.1748H72.1204ZM72.1204 5.97431C72.3886 5.97529 72.6521 6.04375 72.8864 6.1733C73.1373 6.30869 73.3442 6.51231 73.4827 6.76027C73.6215 6.99823 73.6952 7.26813 73.6963 7.54311C73.6945 7.81428 73.6225 8.08043 73.4871 8.31597C73.351 8.56157 73.1475 8.7638 72.9002 8.89921C72.6627 9.03481 72.3937 9.10662 72.1198 9.10755C71.8443 9.10762 71.5737 9.03577 71.335 8.89921C71.0884 8.76306 70.8853 8.56099 70.7487 8.31597C70.6137 8.08032 70.5419 7.81421 70.5401 7.54311C70.5417 7.2699 70.6133 7.00158 70.7481 6.76339C70.8851 6.51244 71.0936 6.30718 71.3475 6.1733C71.5835 6.04405 71.8484 5.97563 72.1179 5.97431H72.1204ZM56.9575 10.1748C57.8061 10.165 58.6475 10.3296 59.4289 10.6582C60.2103 10.9868 60.9148 11.4723 61.498 12.0842C62.1074 12.6819 62.5885 13.3958 62.9125 14.183C63.2365 14.9702 63.3965 15.8144 63.3831 16.6646C63.3966 17.5132 63.2366 18.3557 62.9125 19.1411C62.5885 19.9265 62.1073 20.6384 61.498 21.2338C60.9133 21.8427 60.2082 22.3253 59.4269 22.6512C58.6456 22.9772 57.8049 23.1396 56.9575 23.1282C56.1106 23.1399 55.2704 22.9777 54.4897 22.6517C53.709 22.3257 53.0046 21.8429 52.4208 21.2338C51.812 20.6381 51.3311 19.9261 51.0071 19.1408C50.6831 18.3555 50.5227 17.5131 50.5357 16.6646C50.5229 15.8145 50.6833 14.9705 51.0073 14.1834C51.3312 13.3963 51.812 12.6823 52.4208 12.0842C53.0027 11.4723 53.706 10.9867 54.4864 10.6581C55.2668 10.3295 56.1073 10.1649 56.955 10.1748H56.9575ZM47.4693 5.95123C47.639 5.94953 47.8073 5.98242 47.9637 6.04787C48.1201 6.11332 48.2613 6.20994 48.3785 6.33174C48.4983 6.44929 48.5929 6.58968 48.6567 6.74448C48.7204 6.89928 48.7519 7.06527 48.7493 7.23247V21.8619C48.7507 22.0296 48.718 22.1959 48.6532 22.3507C48.5885 22.5056 48.4929 22.6459 48.3722 22.7633C48.2534 22.8808 48.1122 22.9736 47.9569 23.0364C47.8015 23.0992 47.6351 23.1306 47.4674 23.1288C47.2977 23.1309 47.1292 23.0994 46.9719 23.0361C46.8146 22.9728 46.6716 22.879 46.5513 22.7602C46.4312 22.6433 46.3364 22.5034 46.2726 22.349C46.2089 22.1945 46.1775 22.0288 46.1805 21.8619V7.23247C46.1772 7.06509 46.2084 6.89879 46.2721 6.74379C46.3359 6.58879 46.4309 6.44836 46.5513 6.33112C46.6696 6.20973 46.8116 6.11347 46.9685 6.04817C47.1254 5.98287 47.2941 5.94989 47.4643 5.95123H47.4693ZM37.971 10.1748C38.8196 10.1651 39.661 10.3296 40.4424 10.6582C41.2238 10.9868 41.9283 11.4723 42.5115 12.0842C43.1209 12.6819 43.602 13.3958 43.926 14.183C44.25 14.9702 44.4101 15.8144 44.3966 16.6646C44.4102 17.5132 44.2501 18.3557 43.9261 19.1411C43.602 19.9265 43.1208 20.6384 42.5115 21.2338C41.9268 21.8427 41.2217 22.3253 40.4404 22.6512C39.6591 22.9772 38.8184 23.1396 37.971 23.1282C37.1241 23.1399 36.284 22.9776 35.5032 22.6516C34.7225 22.3256 34.0181 21.8429 33.4343 21.2338C32.8255 20.6381 32.3445 19.9261 32.0205 19.1408C31.6966 18.3555 31.5362 17.5131 31.5492 16.6646C31.5364 15.8144 31.6968 14.9705 32.0207 14.1834C32.3446 13.3963 32.8254 12.6823 33.4343 12.0842C34.0159 11.4726 34.7188 10.9871 35.4988 10.6585C36.2787 10.3299 37.1188 10.1652 37.966 10.1748H37.971ZM26.621 23.1282C25.7166 23.1237 24.8347 22.8478 24.0912 22.3366C23.4465 21.9137 22.9022 21.3567 22.4958 20.7042C22.4059 20.5643 22.346 20.4076 22.3198 20.2437C22.2936 20.0798 22.3018 19.9123 22.3438 19.7517C22.379 19.5868 22.4471 19.4306 22.5443 19.2924C22.6414 19.1542 22.7656 19.0367 22.9093 18.947C23.0528 18.8585 23.2127 18.7997 23.3796 18.774C23.5466 18.7482 23.717 18.7562 23.8807 18.7973C24.046 18.8337 24.202 18.9032 24.3391 19.0017C24.4762 19.1002 24.5916 19.2255 24.6781 19.3699C24.8889 19.698 25.1673 19.9779 25.495 20.1914C25.8208 20.4308 26.2121 20.5663 26.6172 20.5801C27.0271 20.5908 27.4255 20.4453 27.7307 20.1734C27.8718 20.064 27.9859 19.924 28.0641 19.7641C28.1423 19.6041 28.1826 19.4286 28.1818 19.2508C28.1946 19.1014 28.1707 18.9512 28.1122 18.813C28.0536 18.6748 27.9622 18.5528 27.8457 18.4573C27.3492 18.1877 26.817 17.9887 26.2647 17.866C25.4081 17.6667 24.5912 17.3261 23.848 16.8586C23.4024 16.5409 23.0437 16.1178 22.8046 15.6276C22.5655 15.1374 22.4535 14.5957 22.4789 14.0516C22.4745 13.5335 22.5814 13.0203 22.7924 12.5464C23.0035 12.0725 23.3139 11.6487 23.7029 11.3032C24.4863 10.56 25.5338 10.154 26.6172 10.1736C27.4178 10.168 28.2037 10.387 28.8843 10.8055C29.5496 11.2076 30.0784 11.7984 30.4025 12.5015C30.4762 12.6534 30.518 12.8187 30.5251 12.9872C30.5322 13.1558 30.5046 13.3239 30.4439 13.4815C30.3866 13.6396 30.2973 13.7844 30.1814 13.9069C30.0656 14.0294 29.9257 14.1271 29.7703 14.1938C29.6187 14.2641 29.4544 14.3037 29.2872 14.3101C29.1199 14.3165 28.953 14.2897 28.7964 14.2313C28.6362 14.1745 28.4892 14.0862 28.3642 13.9716C28.2393 13.857 28.139 13.7185 28.0694 13.5644C27.9508 13.309 27.7563 13.0957 27.512 12.9531C27.2399 12.7979 26.931 12.7176 26.6172 12.7205C26.2052 12.7106 25.8045 12.8551 25.495 13.1253C25.3566 13.2372 25.2453 13.3784 25.1692 13.5386C25.0931 13.6988 25.0541 13.8739 25.0551 14.051C25.0423 14.194 25.0636 14.338 25.1174 14.4713C25.1711 14.6046 25.2557 14.7234 25.3643 14.8182C25.8656 15.0793 26.3986 15.2753 26.9503 15.4015C27.8103 15.6027 28.6306 15.9447 29.3776 16.4132C29.8238 16.737 30.1823 17.1654 30.4211 17.6602C30.6599 18.155 30.7716 18.7008 30.7462 19.2489C30.7521 19.7668 30.647 20.28 30.4379 20.7544C30.2288 21.2289 29.9205 21.6538 29.5334 22.001C28.7483 22.7437 27.6997 23.149 26.6153 23.1288L26.621 23.1282Z" fill="#35393B"/>
<path d="M5.34705 5.91145C5.73264 5.36072 6.1052 5.1687 6.34753 5.48976C6.70385 5.97202 7.16271 6.36947 7.69115 6.65354C8.2196 6.93761 8.80449 7.10126 9.4038 7.13272C10.0031 7.10126 10.588 6.93761 11.1164 6.65354C11.6449 6.36947 12.1038 5.97202 12.4601 5.48976C12.7024 5.1687 13.0746 5.36072 13.4605 5.91145C15.2332 8.44436 15.4735 10.9447 14.3603 12.662C16.5473 14.8796 15.9396 17.9167 15.1534 19.3814C14.8158 20.0105 14.6838 19.9632 14.3106 19.6254C14.1944 19.521 14.0604 19.3988 13.9092 19.2612C13.7409 19.9482 13.4996 20.6154 13.1894 21.2513C12.7353 22.2096 11.741 22.3705 11.6851 21.2424H7.12316C7.06729 22.3719 6.07299 22.2083 5.61885 21.2513C5.3087 20.6154 5.06741 19.9482 4.89908 19.2612C4.74793 19.3981 4.61357 19.521 4.49772 19.6254C4.12447 19.9626 3.99251 20.0105 3.65491 19.3814C2.86899 17.9167 2.2613 14.88 4.44837 12.662C3.33478 10.9447 3.57505 8.4447 5.34773 5.91145" fill="#0EB1E4"/>
<path d="M9.40404 7.13272C10.0033 7.10126 10.5882 6.93762 11.1167 6.65354C11.6451 6.36947 12.104 5.97202 12.4603 5.48976C12.7026 5.1687 13.0749 5.36072 13.4608 5.91145C15.2335 8.44436 15.4737 10.9447 14.3605 12.662C16.5476 14.8796 15.9399 17.9167 15.1536 19.3814C14.816 20.0105 14.6841 19.9632 14.3108 19.6254C14.1946 19.521 14.0606 19.3988 13.9094 19.2612C13.7411 19.9482 13.4998 20.6154 13.1897 21.2513C12.7355 22.2096 11.7412 22.3705 11.6854 21.2424H9.40438V14.665C9.40438 14.4703 9.52331 14.3193 8.81451 14.2337C7.14705 14.0318 5.58618 13.0056 5.06006 11.5413C4.95345 11.2459 4.89883 10.9343 4.89863 10.6203C4.89603 10.3187 4.96603 10.0208 5.10274 9.7519C5.23946 9.48296 5.43887 9.25075 5.68421 9.07484C5.90955 8.9108 6.16615 8.79459 6.43819 8.73337C6.71022 8.67215 6.99193 8.66722 7.26595 8.71888C7.53997 8.77055 7.80049 8.87771 8.03145 9.03376C8.26241 9.18982 8.45892 9.39146 8.60886 9.62626C8.94613 10.1938 8.9948 10.8968 9.06437 11.5369C9.09042 11.7765 9.10962 12.0277 9.15143 12.2629C9.17063 12.3734 9.20113 12.5278 9.31389 12.5805C9.37525 12.6093 9.33549 12.5997 9.40472 12.5997L9.40404 7.13272Z" fill="#158BC2"/>
<path d="M8.46057 24.6081C8.40847 24.7241 8.26486 25.4775 8.08937 25.5905C7.45461 25.9985 5.60446 21.4605 5.4845 20.9553C8.09561 20.7456 10.7193 20.7441 13.3307 20.9508C13.2121 21.4471 11.3657 26.0039 10.7234 25.5908C10.5479 25.4779 10.4039 24.7245 10.3522 24.6085C10.2596 24.8864 9.87063 26.6115 9.35822 26.4937C8.85747 26.3787 8.58087 24.9668 8.46125 24.6085" fill="#0EB1E4"/>
<path d="M9.4056 20.7969C10.8109 20.7969 12.2161 20.8465 13.3297 20.9506C13.2025 21.3493 13.055 21.7412 12.8879 22.1249L12.8852 22.1321L12.8821 22.1397L12.879 22.1472L12.8759 22.1547L12.8728 22.1622L12.8697 22.1701L12.8667 22.1776L12.8601 22.1934L12.8571 22.2013L12.854 22.2088L12.8509 22.2167L12.8475 22.2242L12.8454 22.2293V22.2321L12.842 22.2399L12.8389 22.2478L12.8358 22.2557L12.8327 22.2636L12.8293 22.2714L12.8259 22.2793L12.8228 22.2872L12.8163 22.3029L12.8128 22.3108L12.8094 22.3187L12.8063 22.3265V22.3293L12.8043 22.3344L12.8008 22.3423L12.7974 22.3502L12.7909 22.3659L12.7875 22.3738L12.7806 22.3899L12.7769 22.3977L12.7738 22.4056L12.77 22.4135L12.7666 22.4217L12.7631 22.4296L12.7601 22.4371L12.7566 22.445L12.7532 22.4532L12.7217 22.5264L12.7189 22.5329V22.535L12.7152 22.5432L12.7117 22.5514L12.6973 22.5857L12.6936 22.5939L12.6792 22.6281L12.6757 22.6363C12.0465 24.0773 11.1399 25.8565 10.7276 25.5912C10.5521 25.4783 10.4081 24.7249 10.356 24.6089C10.2666 24.8779 9.89881 26.5034 9.4104 26.4997V22.5826C9.4104 22.3365 9.38126 22.0007 8.777 22.0144C7.84393 22.052 6.91334 22.1365 5.98876 22.2673C5.91061 22.0887 5.77145 21.7293 5.70325 21.5656C6.93201 21.4239 8.16798 21.3535 9.40491 21.3548H9.41074L9.4056 20.7969Z" fill="#158BC2"/>
<path d="M9.40472 13.7488C9.64556 13.7486 9.88608 13.7315 10.1245 13.6975C11.8766 13.4476 13.9105 12.1681 13.9105 10.2024C13.9131 9.90083 13.8432 9.60304 13.7065 9.3341C13.5699 9.06515 13.3705 8.83294 13.1252 8.65699C12.8999 8.49295 12.6433 8.37673 12.3713 8.31551C12.0992 8.25429 11.8175 8.24936 11.5435 8.30103C11.2695 8.35269 11.009 8.45985 10.778 8.61591C10.547 8.77197 10.3505 8.97361 10.2006 9.20841C9.86332 9.77591 9.8143 10.4786 9.74473 11.119C9.71902 11.3586 9.69948 11.6099 9.65801 11.8454C9.63848 11.9556 9.60831 12.1099 9.49555 12.163C9.4342 12.1918 9.47396 12.1822 9.40472 12.1822C9.33549 12.1822 9.37525 12.1918 9.31389 12.163C9.20113 12.1099 9.17063 11.9556 9.15143 11.8454C9.10962 11.6099 9.09042 11.3573 9.06437 11.119C8.99582 10.4786 8.94613 9.77591 8.60886 9.20841C8.45892 8.97361 8.26241 8.77197 8.03145 8.61591C7.80049 8.45985 7.53997 8.35269 7.26595 8.30103C6.99193 8.24936 6.71022 8.25429 6.43819 8.31551C6.16615 8.37673 5.90955 8.49295 5.6842 8.65699C5.43887 8.8329 5.23946 9.0651 5.10274 9.33404C4.96603 9.60299 4.89603 9.9008 4.89863 10.2024C4.89883 10.5164 4.95345 10.8281 5.06006 11.1235C5.66364 12.8024 7.70641 13.7491 9.40438 13.7491" fill="white"/>
<path d="M9.40672 13.749C9.64755 13.7488 9.88807 13.7316 10.1265 13.6976C11.8786 13.4474 13.9125 12.1683 13.9125 10.2025C13.9151 9.90095 13.8451 9.60314 13.7083 9.33419C13.5716 9.06525 13.3722 8.83305 13.1269 8.65714C12.9016 8.49305 12.645 8.37679 12.3729 8.31554C12.1009 8.2543 11.8191 8.24935 11.5451 8.30102C11.2711 8.35269 11.0105 8.45987 10.7796 8.61595C10.5486 8.77204 10.3521 8.97372 10.2022 9.20856C9.86497 9.77606 9.81595 10.4788 9.74638 11.1192C9.72067 11.3588 9.70113 11.61 9.65966 11.8455C9.64013 11.9557 9.60996 12.1101 9.4972 12.1632C9.43585 12.1919 9.47561 12.1823 9.40637 12.1823L9.40672 13.749Z" fill="#DDF4F9"/>
<path d="M7.34812 9.44922C7.57664 9.44922 7.79581 9.53988 7.95741 9.70125C8.119 9.86263 8.20978 10.0815 8.20978 10.3097C8.20978 10.5379 8.119 10.7568 7.95741 10.9182C7.79581 11.0796 7.57664 11.1702 7.34812 11.1702C7.11959 11.1702 6.90042 11.0796 6.73883 10.9182C6.57723 10.7568 6.48645 10.5379 6.48645 10.3097C6.48645 10.0815 6.57723 9.86263 6.73883 9.70125C6.90042 9.53988 7.11959 9.44922 7.34812 9.44922ZM11.4611 9.44922C11.5742 9.44922 11.6863 9.47148 11.7908 9.51472C11.8954 9.55796 11.9904 9.62135 12.0704 9.70125C12.1504 9.78116 12.2139 9.87602 12.2572 9.98042C12.3005 10.0848 12.3227 10.1967 12.3227 10.3097C12.3227 10.4227 12.3005 10.5346 12.2572 10.639C12.2139 10.7434 12.1504 10.8383 12.0704 10.9182C11.9904 10.9981 11.8954 11.0615 11.7908 11.1047C11.6863 11.148 11.5742 11.1702 11.4611 11.1702C11.2326 11.1702 11.0134 11.0796 10.8518 10.9182C10.6902 10.7568 10.5994 10.5379 10.5994 10.3097C10.5994 10.0817 10.6901 9.86296 10.8514 9.70162C11.0128 9.54027 11.2317 9.44949 11.4601 9.44922H11.4611Z" fill="#35393B"/>
<path d="M7.6266 9.81836C7.6928 9.81836 7.7563 9.8446 7.80315 9.89132C7.85 9.93804 7.87637 10.0014 7.87646 10.0675C7.87646 10.1003 7.86999 10.1327 7.85743 10.163C7.84487 10.1932 7.82646 10.2207 7.80325 10.2439C7.78005 10.267 7.7525 10.2854 7.72219 10.2979C7.69187 10.3104 7.65939 10.3168 7.6266 10.3167C7.56042 10.3167 7.49695 10.2905 7.45016 10.2437C7.40336 10.197 7.37708 10.1336 7.37708 10.0675C7.37708 10.0015 7.40336 9.93807 7.45016 9.89134C7.49695 9.84461 7.56042 9.81836 7.6266 9.81836Z" fill="white"/>
<path d="M11.7516 9.81836C11.8178 9.81836 11.8812 9.84461 11.928 9.89134C11.9748 9.93807 12.0011 10.0015 12.0011 10.0675C12.0011 10.1336 11.9748 10.197 11.928 10.2437C11.8812 10.2905 11.8178 10.3167 11.7516 10.3167C11.6854 10.3167 11.622 10.2905 11.5752 10.2437C11.5284 10.197 11.5021 10.1336 11.5021 10.0675C11.5021 10.0015 11.5284 9.93807 11.5752 9.89134C11.622 9.84461 11.6854 9.81836 11.7516 9.81836Z" fill="white"/>
<path d="M9.40369 14.6374C8.79619 14.6379 8.21283 14.875 7.7776 15.2982C7.34238 15.7215 7.0896 16.2976 7.07301 16.904C7.03873 16.902 7.00206 16.9006 6.96607 16.9006C6.74716 16.9005 6.53038 16.9436 6.32812 17.0272C6.12586 17.1108 5.94207 17.2334 5.78726 17.388C5.63245 17.5426 5.50964 17.7261 5.42586 17.928C5.34207 18.13 5.29895 18.3465 5.29895 18.5651C5.29895 19.0067 5.47459 19.4301 5.78724 19.7424C6.09988 20.0546 6.52392 20.23 6.96607 20.23H11.8447C12.2869 20.23 12.7109 20.0546 13.0236 19.7424C13.3362 19.4301 13.5118 19.0067 13.5118 18.5651C13.5118 18.3465 13.4687 18.13 13.3849 17.928C13.3012 17.7261 13.1784 17.5426 13.0235 17.388C12.8687 17.2334 12.6849 17.1108 12.4827 17.0272C12.2804 16.9436 12.0636 16.9005 11.8447 16.9006C11.422 16.8886 11.011 17.041 10.6986 17.3257C10.8962 16.9053 11.2392 16.5703 11.6644 16.3824C11.5346 15.8827 11.2423 15.4402 10.8335 15.1242C10.4246 14.8083 9.92234 14.6368 9.4054 14.6367" fill="white"/>
<path d="M0.549059 19.6722C0.578218 19.4286 0.677318 19.1987 0.834406 19.0101C0.991494 18.8215 1.19986 18.6823 1.43437 18.6094C1.70103 18.8096 1.97043 19.0064 2.24703 19.1913C2.67469 19.4767 3.11711 19.7395 3.57243 19.9785C4.30933 20.3687 4.53897 20.5994 5.41881 20.4632C6.74575 20.2596 8.08642 20.1582 9.42894 20.1599C11.114 20.1559 12.7954 20.3173 14.4488 20.6419C15.9481 20.9304 17.4088 21.3917 18.8017 22.0165C18.8469 22.2593 18.8163 22.51 18.7142 22.7349C18.6121 22.9598 18.4433 23.148 18.2307 23.274C16.9335 22.6937 15.5733 22.2657 14.1774 21.9987C12.6129 21.6922 11.0221 21.5399 9.42791 21.5441C7.83368 21.5399 6.24289 21.6922 4.67847 21.9987C3.2809 22.2661 1.91918 22.6948 0.620693 23.2761C0.0575604 23.0317 -0.088107 22.6004 0.0472779 22.0199C0.798105 21.6781 1.57143 21.3878 2.36185 21.1512L2.66552 21.0594L2.39132 20.8986C1.75373 20.5256 1.13827 20.1161 0.548031 19.6722" fill="#C18E2E"/>
<path d="M0.547683 19.6858C0.580069 19.4659 0.664428 19.257 0.793775 19.0762C1.64339 19.7506 2.55083 20.3489 3.50559 20.8643L2.66449 21.0731L2.39029 20.9125C1.75269 20.5394 1.13723 20.1298 0.546997 19.6858" fill="#A96C25"/>
<path d="M18.6581 22.8476C18.5611 23.0287 18.412 23.1766 18.23 23.2724C16.9329 22.6921 15.5727 22.2641 14.1767 21.997C12.6123 21.6905 11.0215 21.5383 9.42724 21.5425C7.833 21.5383 6.24221 21.6905 4.67779 21.997C3.28022 22.2644 1.9185 22.6931 0.620016 23.2744C0.413674 23.1956 0.238135 23.0527 0.119263 22.8668C2.25526 21.7489 5.62035 21.0273 9.4077 21.0273C13.1728 21.0273 16.5214 21.7407 18.6591 22.848" fill="#A96C25"/>
</g>
<defs>
<clipPath id="clip0_1763_4303">
<rect width="88" height="32" fill="white"/>
</clipPath>
</defs>
</svg>
