<svg width="122" height="32" viewBox="0 0 122 32" fill="none" xmlns="http://www.w3.org/2000/svg">
<path d="M121.899 13.7641V12.1434H119.992V9.79492H118.381V12.1434H116.836V13.7641H118.348V18.461C118.348 19.8172 119.466 20.9418 120.814 20.9418H121.899V19.321H120.814C120.354 19.321 119.959 18.9572 119.959 18.461V13.7641H121.899Z" fill="black"/>
<path d="M112.463 11.9785C114.205 11.9785 115.586 13.4008 115.586 15.1539V17.8C115.586 19.52 114.172 20.9754 112.463 20.9754H111.838C110.128 20.9754 108.715 19.5531 108.715 17.8V15.1539C108.715 13.4008 110.128 11.9785 111.838 11.9785H112.463ZM110.359 15.1539V17.8C110.359 18.66 111.049 19.3215 111.871 19.3215H112.495C113.35 19.3215 114.008 18.6269 114.008 17.8V15.1539C114.008 14.2939 113.35 13.6324 112.495 13.6324H111.871C111.049 13.5993 110.359 14.2939 110.359 15.1539Z" fill="black"/>
<path d="M106.937 15.1539V17.8C106.937 19.5531 105.524 20.9754 103.814 20.9754H103.617C102.894 20.9754 102.203 20.7108 101.677 20.2808V23.7869H100.066V12.1439H101.677V12.6731C102.203 12.2431 102.861 11.9785 103.617 11.9785H103.814C105.524 11.9785 106.937 13.4008 106.937 15.1539ZM105.326 15.1539C105.326 14.327 104.669 13.6324 103.814 13.6324H103.189C102.368 13.6324 101.677 14.327 101.677 15.1539V17.8C101.677 18.66 102.368 19.3215 103.189 19.3215H103.814C104.669 19.3215 105.326 18.6269 105.326 17.8V15.1539Z" fill="black"/>
<path d="M92.508 18.0961C92.6724 18.7907 93.2641 19.3199 94.0202 19.3199H95.1379C95.9598 19.3199 96.6502 18.6253 96.6502 17.7984C96.6502 16.8392 96.0584 16.2769 95.2037 15.9461L93.7243 15.3838C92.3436 14.8546 91.193 13.9284 91.193 12.1754C91.193 10.4223 92.6066 9 94.3161 9H95.1051C96.5515 9 97.8008 9.9923 98.1295 11.3815L96.5515 11.8446C96.42 11.15 95.7954 10.6538 95.0722 10.6538H94.2832C93.4285 10.6538 92.771 11.3484 92.771 12.1754C92.771 12.8369 93.0011 13.3331 94.3161 13.8623L95.7954 14.4577C97.3077 15.0861 98.261 16.2107 98.261 17.7984C98.261 19.5515 96.8474 20.9407 95.1379 20.9407H94.0202C92.5409 20.9407 91.3245 19.9153 90.9629 18.5592L92.508 18.0961Z" fill="black"/>
<path d="M89.4165 13.7641V12.1434H87.5098V9.79492H85.8989V12.1434H84.3867V13.7641H85.8989V18.461C85.8989 19.8172 87.0167 20.9418 88.3645 20.9418H89.4494V19.321H88.3645C87.9043 19.321 87.5098 18.9572 87.5098 18.461V13.7641H89.4165Z" fill="black"/>
<path d="M82.943 15.1549V20.811H81.3322V15.1549C81.3322 14.2949 80.6747 13.6333 79.8199 13.6333H79.1953C78.3735 13.6333 77.6831 14.3279 77.6831 15.1549V20.811H76.0723V9.16797H77.6831V12.6741C78.2091 12.2441 78.8666 11.9795 79.6227 11.9795H79.8199C81.5623 11.9795 82.943 13.4018 82.943 15.1549Z" fill="black"/>
<path d="M73.9704 12.1417V20.7416C73.9704 22.4947 72.5896 23.8839 70.8473 23.8839H70.1898C68.7105 23.8839 67.4941 22.8586 67.1654 21.5024L68.7105 21.0393C68.8748 21.7009 69.4666 22.2301 70.1898 22.2301H70.8473C71.6692 22.2301 72.3595 21.5355 72.3595 20.7086V19.6832C71.8335 20.1132 71.176 20.3778 70.4199 20.3778H70.2227C68.5132 20.3778 67.0996 18.9555 67.0996 17.2024V15.0855C67.0996 13.3325 68.5132 11.9102 70.2227 11.9102H70.4199C71.1432 11.9102 71.8335 12.1748 72.3595 12.6048V12.0755L73.9704 12.1417ZM72.3595 17.2686V15.1517C72.3595 14.2917 71.702 13.6301 70.8473 13.6301H70.2227C69.4008 13.6301 68.7105 14.3248 68.7105 15.1517V17.2686C68.7105 18.0955 69.4008 18.7901 70.2227 18.7901H70.8473C71.6692 18.7901 72.3595 18.0955 72.3595 17.2686Z" fill="black"/>
<path d="M59.9937 12.1445V17.8006C59.9937 18.6606 60.6511 19.3222 61.5059 19.3222H62.1305C62.9852 19.3222 63.6427 18.6276 63.6427 17.8006V12.1445H65.2536V17.8006C65.2536 19.5537 63.84 20.9429 62.1305 20.9429H61.5059C59.7635 20.9429 58.3828 19.5206 58.3828 17.7676V12.1445H59.9937Z" fill="black"/>
<path d="M53.3531 11.9785C55.0955 11.9785 56.4762 13.4008 56.4762 15.1539V17.8C56.4762 19.52 55.0626 20.9754 53.3531 20.9754H52.7285C51.0191 20.9754 49.6055 19.5531 49.6055 17.8V15.1539C49.6055 13.4008 51.0191 11.9785 52.7285 11.9785H53.3531ZM51.2163 15.1539V17.8C51.2163 18.66 51.9067 19.3215 52.7285 19.3215H53.3531C54.2079 19.3215 54.8654 18.6269 54.8654 17.8V15.1539C54.8654 14.2939 54.2079 13.6324 53.3531 13.6324H52.7285C51.9067 13.5993 51.2163 14.2939 51.2163 15.1539Z" fill="black"/>
<path d="M47.7321 15.1549V20.811H46.1212V15.1549C46.1212 14.2949 45.4637 13.6333 44.609 13.6333H43.9844C43.1625 13.6333 42.4722 14.3279 42.4722 15.1549V20.811H40.8613V9.16797H42.4722V12.6741C42.9982 12.2441 43.6557 11.9795 44.4118 11.9795H44.609C46.3185 11.9795 47.7321 13.4018 47.7321 15.1549Z" fill="black"/>
<path d="M39.12 9.16797V10.7887H35.8654V20.7779H34.2546V10.8218H31V9.20105L39.12 9.16797Z" fill="black"/>
<path d="M19.1659 27C20.6715 27 21.8921 25.7719 21.8921 24.257C21.8921 22.7421 20.6715 21.5141 19.1659 21.5141C17.6603 21.5141 16.4397 22.7421 16.4397 24.257C16.4397 25.7719 17.6603 27 19.1659 27Z" fill="black"/>
<path d="M21.6982 10.4573H0V11.8288H7.45529V26.8311H8.81838V11.8288H10.1815V26.8311H11.5168V11.8288H12.8798V26.8311H14.2429V11.8288H21.6982V10.4573Z" fill="black"/>
<path d="M21.6982 7.74353H0V9.11501H21.6982V7.74353Z" fill="black"/>
<path d="M21.6982 5H0V6.37148H21.6982V5Z" fill="black"/>
</svg>
