<svg width="100" height="32" viewBox="0 0 100 32" fill="none" xmlns="http://www.w3.org/2000/svg">
<path d="M44.5645 22.8213L40.0376 10.041C39.9634 9.89157 39.8892 9.66736 39.8892 9.44314C39.8892 8.91997 40.3345 8.32207 41.0766 8.32207C41.5961 8.32207 42.0413 8.69576 42.2639 9.29367L45.9744 20.2802L49.7592 9.21893C49.9076 8.69576 50.2786 8.24733 50.8723 8.24733H51.0207C51.6144 8.24733 52.0597 8.62102 52.2081 9.21893L55.9186 20.2802L59.7033 9.21893C59.8517 8.7705 60.1486 8.32207 60.8165 8.32207C61.4844 8.32207 61.9296 8.7705 61.9296 9.3684C61.9296 9.59262 61.8554 9.81683 61.7812 9.96631L57.1802 22.7466C56.9575 23.4192 56.5123 23.7929 55.9186 23.7929H55.8444C55.3249 23.7929 54.8054 23.4939 54.5828 22.7466L50.8723 11.9095L47.1618 22.7466C46.9392 23.4192 46.5681 23.7929 45.9002 23.7929H45.826C45.2323 23.8676 44.7871 23.4192 44.5645 22.8213Z" fill="#717074"/>
<path d="M77.663 9.51614C77.663 8.91823 78.1083 8.32033 78.7762 8.32033C79.3698 8.32033 79.9635 8.76876 79.9635 9.51614V12.132C81.0767 9.59088 83.5256 8.4698 85.084 8.4698C85.7519 8.4698 86.1972 8.91823 86.1972 9.66562C86.1972 10.2635 85.8261 10.712 85.1582 10.8614C82.264 11.1604 79.8893 13.4025 79.8893 17.7374V22.8196C79.8893 23.4175 79.4441 24.0154 78.7762 24.0154C78.1825 24.0154 77.5888 23.5669 77.5888 22.8196V9.51614" fill="#717074"/>
<path d="M93.3953 23.9406C89.388 23.9406 86.1227 20.8016 86.1227 16.1678V16.0931C86.1227 11.7583 89.0911 8.32033 93.1727 8.32033C97.5511 8.32033 100 11.9078 100 15.9436C100 16.5415 99.5548 16.99 98.9611 16.99H88.2748C88.5717 20.2037 90.8722 22.0722 93.4695 22.0722C95.2506 22.0722 96.6606 21.3995 97.6995 20.3532C97.8479 20.2037 98.0706 20.129 98.2932 20.129C98.8127 20.129 99.2579 20.5774 99.2579 21.1006C99.2579 21.3248 99.1837 21.6237 98.9611 21.7732C97.5511 23.0438 95.9185 23.9406 93.3953 23.9406ZM97.7737 15.271C97.5511 12.5057 95.9927 10.1888 93.0985 10.1888C90.5011 10.1888 88.5717 12.3562 88.349 15.271H97.7737Z" fill="#717074"/>
<path d="M61.8596 19.3069C61.8596 16.0931 64.4569 14.3741 68.2416 14.3741C70.1711 14.3741 71.5069 14.5983 72.8426 14.972V14.4489C72.8426 11.6836 71.21 10.413 68.39 10.413C66.9058 10.413 66.0153 10.5625 64.9022 11.0856C64.7538 11.1604 64.6053 11.1604 64.5311 11.1604C64.0116 11.1604 63.4922 10.712 63.4922 10.1888C63.4922 9.66562 63.7148 9.4414 64.0859 9.21719C65.5701 8.61928 66.6832 8.32033 68.6127 8.32033C70.6906 8.32033 72.3232 8.8435 73.4363 9.96457C74.4753 11.0109 74.9947 12.5057 74.9947 14.3741V22.6701C74.9947 23.268 74.5495 23.7912 73.8816 23.7912C73.2879 23.7912 72.7684 23.3427 72.7684 22.7448V21.2501C71.7295 22.6701 69.9485 23.8659 67.3511 23.8659C64.6795 23.9406 61.8596 22.3711 61.8596 19.3069ZM72.8426 18.111V16.6163C71.7295 16.3173 70.2453 16.0184 68.39 16.0184C65.5701 16.0184 64.0117 17.2889 64.0117 19.1574V19.2321C64.0117 21.1006 65.7185 22.2217 67.7222 22.2217C70.6163 22.2217 72.8426 20.5027 72.8426 18.111Z" fill="#717074"/>
<path d="M4.04854 9.29291C3.60328 8.17184 2.34171 7.72341 1.22856 8.17184C0.115408 8.62027 -0.329853 9.96556 0.263828 11.0119L5.01327 21.4005C5.75537 23.0448 6.57169 23.9416 8.05589 23.9416C9.6143 23.9416 10.2822 22.97 11.0985 21.4005C11.0985 21.4005 15.2543 12.2824 15.3285 12.2077C15.4027 12.133 15.4769 11.834 15.9222 11.834C16.2932 11.834 16.5158 12.133 16.5158 12.5067V21.3258C16.5158 22.6711 17.2579 23.8669 18.6679 23.8669C20.1521 23.8669 20.8942 22.7458 20.8942 21.3258V14.1509C20.8942 12.7309 21.9332 11.834 23.1947 11.834C24.5305 11.834 25.421 12.8056 25.421 14.1509V21.4005C25.421 22.7458 26.1632 23.9416 27.5731 23.9416C29.0573 23.9416 29.7994 22.8205 29.7994 21.4005V14.1509C29.7994 12.7309 30.8384 11.834 32.1 11.834C33.4357 11.834 34.3263 12.8056 34.3263 14.1509V21.4005C34.3263 22.7458 35.0684 23.9416 36.4784 23.9416C37.9626 23.9416 38.7047 22.8205 38.7047 21.4005V13.1793C38.7047 10.115 36.3299 8.02236 33.3615 8.02236C30.3931 8.02236 28.6121 10.0403 28.6121 10.0403C27.5731 8.76975 26.3116 8.02236 24.0111 8.02236C21.6363 8.02236 19.4842 10.0403 19.4842 10.0403C18.5195 8.76975 16.8127 8.02236 15.5511 8.02236C13.4732 8.02236 11.7664 8.99396 10.7275 11.3108L7.68484 18.4857L4.04854 9.29291Z" fill="#717074"/>
</svg>
