<svg width="103" height="36" viewBox="0 0 103 36" fill="none" xmlns="http://www.w3.org/2000/svg">
<path d="M20.54 12.39H14.018L10.743 18.058L14.003 23.668H20.539L23.799 18.058L20.54 12.39ZM19.67 22.13H14.87L12.48 18.043L14.872 13.913H19.672L22.064 18.043L19.67 22.13Z" fill="#373737"/>
<path d="M12.48 18.057L14.872 22.13H19.672L22.079 18.057L19.672 13.87H14.872L12.48 18.057Z" fill="#E82429"/>
<path d="M20.54 24.437H14.018L10.743 30.09L14.003 35.7H20.539L23.799 30.09L20.54 24.437ZM19.67 34.22H14.87L12.48 30.133L14.872 26.003H19.672L22.064 30.133L19.67 34.22Z" fill="#373737"/>
<path d="M12.48 30.09L14.872 34.22H19.672L22.079 30.09L19.672 25.96H14.872L12.48 30.09Z" fill="#6289C6"/>
<path d="M20.54 0.299988H14.018L10.743 5.96799L14.018 11.578H20.554L23.814 5.96799L20.54 0.299988ZM19.67 10.04H14.87L12.48 5.95299L14.872 1.78099H19.672L22.064 5.91099L19.67 10.04Z" fill="#373737"/>
<path d="M12.48 5.967L14.872 10.04H19.672L22.079 5.967L19.672 1.78H14.872L12.48 5.967Z" fill="#F9C515"/>
<path d="M31.15 18.456H24.68L21.42 24.124L24.68 29.734H31.216L34.476 24.124L31.15 18.456ZM30.28 28.22H25.48L23.088 24.133L25.48 20.003H30.28L32.672 24.133L30.28 28.22Z" fill="#373737"/>
<path d="M23.146 24.123L25.54 28.22H30.28L32.73 24.133L30.28 19.946H25.54L23.146 24.123Z" fill="#8061A9"/>
<path d="M31.15 6.366H24.68L21.42 11.976L24.68 17.586H31.216L34.476 11.976L31.15 6.366ZM30.28 16.12H25.48L23.088 12.033L25.48 7.903H30.28L32.672 12.033L30.28 16.12Z" fill="#373737"/>
<path d="M23.146 12.033L25.54 16.12H30.28L32.73 12.033L30.28 7.84601H25.54L23.146 12.033Z" fill="#F17423"/>
<path d="M9.87403 18.456H3.39403L0.134033 24.124L3.39403 29.734H9.93003L13.19 24.124L9.87403 18.456ZM9.00403 28.211H4.26203L1.87003 24.124L4.26203 19.994H9.06203L11.454 24.124L9.00403 28.211Z" fill="#373737"/>
<path d="M1.87 24.123L4.262 28.21H9.004L11.454 24.123L9.004 19.936H4.262L1.87 24.123Z" fill="#97C93D"/>
<path d="M9.87403 6.366H3.39403L0.134033 11.976L3.39403 17.586H9.93003L13.19 11.976L9.87403 6.366ZM9.00403 16.121H4.26203L1.87003 12.034L4.26203 7.904H9.06203L11.454 12.034L9.00403 16.121Z" fill="#373737"/>
<path d="M1.87 12.033L4.262 16.12H9.004L11.454 12.033L9.004 7.84601H4.262L1.87 12.033Z" fill="#CADD72"/>
<path d="M48.393 14.755C48.9377 14.7587 49.4803 14.8201 50.012 14.938C50.516 15.045 50.942 15.238 51.356 15.442V17.02C50.8955 16.8531 50.4265 16.7102 49.951 16.592C49.478 16.485 49.051 16.409 48.577 16.409C48.103 16.409 47.647 16.485 47.172 16.623C46.697 16.761 46.302 17.02 45.905 17.386C45.539 17.752 45.248 18.211 45.005 18.791C44.791 19.371 44.685 20.089 44.685 20.959C44.685 21.559 44.761 22.159 44.945 22.699C45.1095 23.2014 45.3685 23.6678 45.708 24.073C46.044 24.47 46.471 24.76 46.93 24.973C47.434 25.187 48.014 25.293 48.67 25.293C49.143 25.293 49.6 25.263 50.12 25.156C50.5965 25.0414 51.0656 24.8985 51.525 24.728V26.316C51.388 26.392 51.205 26.499 50.991 26.576C50.777 26.653 50.518 26.713 50.228 26.79C49.968 26.866 49.694 26.897 49.358 26.927L48.458 27.003C47.6941 27.0133 46.9342 26.8894 46.213 26.637C45.5376 26.3881 44.9119 26.021 44.365 25.553C43.8278 25.0218 43.4111 24.3814 43.143 23.675C42.843 22.912 42.67 22.055 42.67 21.003C42.67 20.24 42.746 19.553 42.93 18.943C43.067 18.343 43.296 17.783 43.587 17.323C43.878 16.863 44.187 16.453 44.564 16.123C44.9254 15.8089 45.3253 15.5421 45.754 15.329C46.181 15.115 46.624 14.963 47.052 14.856L48.396 14.734L48.393 14.755ZM54.455 12.373V10.235H56.355V12.373H54.455ZM54.485 26.711V15.076H56.385V26.72L54.485 26.711ZM60.303 26.721V8.983H62.203V26.72L60.303 26.721ZM66.08 12.373V10.235H67.98V12.373H66.08ZM66.11 26.711V15.076H68.01V26.72L66.11 26.711ZM76.458 27.011C75.9132 27.0118 75.37 26.9504 74.839 26.828C74.3965 26.7022 73.9711 26.5229 73.572 26.294C73.206 26.034 72.885 25.79 72.642 25.424C72.3766 25.103 72.1731 24.7354 72.042 24.34C71.935 24.04 71.859 23.74 71.782 23.363L71.706 22.203V15.088H73.606V22.203C73.606 22.86 73.682 23.403 73.866 23.823C74.049 24.327 74.37 24.693 74.796 24.983C75.222 25.273 75.804 25.411 76.46 25.411C77.178 25.411 77.758 25.274 78.2 24.938C78.628 24.618 78.963 24.22 79.13 23.671C79.267 23.274 79.344 22.771 79.344 22.191V15.071H81.244V22.217C81.2443 22.5797 81.2189 22.9419 81.168 23.301C81.1383 23.6194 81.0663 23.9325 80.954 24.232C80.817 24.629 80.588 24.995 80.354 25.347C80.094 25.667 79.774 25.947 79.424 26.217C79.058 26.477 78.63 26.645 78.126 26.797C77.5832 26.9412 77.0237 27.0131 76.462 27.011H76.458ZM94.293 26.711H92.393V19.22C92.3946 18.7808 92.333 18.3437 92.21 17.922C92.103 17.556 91.95 17.265 91.737 17.052C91.5218 16.8312 91.2616 16.6593 90.974 16.548C90.674 16.441 90.374 16.411 89.997 16.411C89.31 16.411 88.699 16.594 88.149 16.945C87.615 17.311 87.095 17.815 86.669 18.457V26.733H84.776V15.076H86.256L86.622 16.696H86.652L87.339 15.933C87.599 15.719 87.873 15.505 88.164 15.333C88.4758 15.1459 88.8164 15.0117 89.172 14.936C89.538 14.829 89.935 14.799 90.372 14.799C91.242 14.799 91.96 15.013 92.54 15.399C93.12 15.827 93.548 16.376 93.884 17.094H93.914C94.418 16.376 95.029 15.796 95.684 15.399C96.339 15.002 97.134 14.799 97.99 14.799C98.387 14.799 98.815 14.875 99.288 14.982C99.761 15.089 100.158 15.302 100.555 15.582C100.952 15.862 101.242 16.3 101.485 16.849C101.745 17.383 101.882 18.071 101.882 18.941V26.744H100.05V19.247C100.052 18.8078 99.99 18.3707 99.867 17.949C99.76 17.583 99.607 17.292 99.394 17.079C99.1788 16.8582 98.9186 16.6863 98.631 16.575C98.331 16.468 98.031 16.438 97.654 16.438C96.967 16.438 96.356 16.621 95.806 16.972C95.272 17.338 94.752 17.842 94.294 18.484L94.293 26.711Z" fill="#1E2222"/>
</svg>
