<svg width="448" height="318" viewBox="0 0 448 318" fill="none" xmlns="http://www.w3.org/2000/svg">
<g clip-path="url(#clip0)">
<path d="M428.167 305.14H0V318H428.167V305.14Z" fill="#E1E5EA"/>
<path d="M103.834 292.279H67.667V305.14H103.834V292.279Z" fill="black"/>
<path d="M91 270.066V305.14H103.833V270.066H91Z" fill="black"/>
<path d="M130.667 238.5V273.573H143.5V238.5H130.667Z" fill="black"/>
<path d="M159.833 270.066V305.14H172.666V270.066H159.833Z" fill="black"/>
<path d="M196 292.279H159.833V305.14H196V292.279Z" fill="black"/>
<path d="M115.5 247.853H91V270.066H115.5V247.853Z" fill="black"/>
<path d="M172.666 247.853H149.333V270.066H172.666V247.853Z" fill="black"/>
<path d="M149.333 247.853H115.5V259.544H149.333V247.853Z" fill="black"/>
<path d="M172.667 236.162H91V247.853H172.667V236.162Z" fill="#FFE22C"/>
<path d="M172.667 224.471H91V236.162H172.667V224.471Z" fill="black"/>
<path d="M161 212.779H91V224.471H161V212.779Z" fill="#FFE22C"/>
<path d="M196 212.779H161V224.471H196V212.779Z" fill="black"/>
<path d="M172.667 201.088H91V212.779H172.667V201.088Z" fill="#1A1A1A"/>
<path d="M90.9997 201.088H68.833V212.779H90.9997V201.088Z" fill="#004991"/>
<path d="M91.0003 259.544H57.167V270.066H91.0003V259.544Z" fill="#004991"/>
<path d="M196 259.544H172.667V270.066H196V259.544Z" fill="#004991"/>
<path d="M196 224.471H172.667V259.544H196V224.471Z" fill="#7DCAFF"/>
<path d="M207.667 224.471H196V259.544H207.667V224.471Z" fill="#004991"/>
<path d="M242.667 0H231V305.14H242.667V0Z" fill="#482C14"/>
<path d="M436.334 23.3828H242.667V140.295H436.334V23.3828Z" fill="#3C4D66"/>
<path d="M282.798 78.8792H289.152C289.098 73.8093 285.01 70.3809 278.628 70.3809C272.355 70.3809 267.838 73.7563 267.877 78.7998C267.865 82.9166 270.786 85.2331 275.532 86.3053L278.401 86.9671C281.417 87.6555 282.771 88.463 282.798 89.9852C282.771 91.64 281.203 92.7916 278.535 92.7916C275.6 92.7916 273.669 91.4413 273.521 88.8336H267.167C267.247 95.1743 271.711 98.2056 278.615 98.2056C285.452 98.2056 289.5 95.1478 289.527 89.9985C289.5 85.6699 286.538 83.0224 281.123 81.8443L278.762 81.3148C276.269 80.7853 274.687 79.9646 274.741 78.3497C274.755 76.8671 276.042 75.7949 278.615 75.7949C281.203 75.7949 282.624 76.9465 282.798 78.8792Z" fill="white"/>
<path d="M306.164 89.0854C306.164 91.4549 304.635 92.7787 302.692 92.7787C300.68 92.7787 299.447 91.4285 299.434 89.2178V77.5293H292.879V90.4886C292.892 95.082 295.721 98.1266 299.957 98.1266C303.039 98.1266 305.332 96.5645 306.244 94.0759H306.459V97.8618H312.705V77.5293H306.164V89.0854Z" fill="white"/>
<path d="M316.878 97.8618H323.432V85.8291C323.432 83.8171 324.626 82.533 326.342 82.533C328.044 82.533 329.17 83.7112 329.17 85.5909V97.8618H335.471V85.7232C335.471 83.7773 336.557 82.533 338.367 82.533C340.029 82.533 341.209 83.6318 341.209 85.657V97.8618H347.764V84.1745C347.764 79.8724 345.082 77.2646 341.195 77.2646C338.152 77.2646 335.752 78.8398 334.988 81.2622H334.773C334.224 78.8266 332.012 77.2646 329.157 77.2646C326.342 77.2646 324.196 78.7868 323.339 81.2622H323.111V77.5293H316.878V97.8618Z" fill="white"/>
<path d="M351.826 97.8618H358.382V85.8291C358.382 83.8171 359.575 82.533 361.29 82.533C362.994 82.533 364.119 83.7112 364.119 85.5909V97.8618H370.419V85.7232C370.419 83.7773 371.506 82.533 373.315 82.533C374.978 82.533 376.157 83.6318 376.157 85.657V97.8618H382.712V84.1745C382.712 79.8724 380.031 77.2646 376.144 77.2646C373.101 77.2646 370.702 78.8398 369.937 81.2622H369.723C369.173 78.8266 366.961 77.2646 364.105 77.2646C361.29 77.2646 359.146 78.7868 358.288 81.2622H358.06V77.5293H351.826V97.8618Z" fill="white"/>
<path d="M386.775 97.8613H393.33V77.5288H386.775V97.8613ZM390.059 75.1594C391.922 75.1594 393.424 73.7694 393.424 72.0618C393.424 70.3542 391.922 68.9775 390.059 68.9775C388.209 68.9775 386.694 70.3542 386.694 72.0618C386.694 73.7694 388.209 75.1594 390.059 75.1594Z" fill="white"/>
<path d="M409.124 77.5296H405.411V72.6582H398.857V77.5296H396.135V82.295H398.857V92.1833C398.816 96.3001 401.524 98.3651 406.148 98.1533C407.73 98.0739 408.87 97.7561 409.5 97.5708L408.508 92.8981C408.226 92.9643 407.569 93.0966 407.073 93.0966C406.014 93.0966 405.411 92.673 405.411 91.4685V82.295H409.124V77.5296Z" fill="white"/>
<path d="M277.605 61.9631C283.018 61.9631 286.579 59.3287 287.332 55.2489L281.3 55.0733C280.789 56.4512 279.446 57.1942 277.726 57.1942C275.201 57.1942 273.642 55.5055 273.642 52.9659V52.7903H287.398V51.1421C287.398 44.3063 283.261 40.5508 277.403 40.5508C271.17 40.5508 267.167 44.8468 267.167 51.2772C267.167 57.9238 271.116 61.9631 277.605 61.9631ZM273.642 48.9536C273.736 46.8867 275.362 45.3196 277.537 45.3196C279.7 45.3196 281.259 46.8327 281.286 48.9536H273.642Z" fill="white"/>
<path d="M290.753 61.5714H303.099C309.184 61.5714 312.677 58.3021 312.677 53.8305C312.677 49.8318 309.789 47.319 306.457 47.1704V46.9002C309.48 46.2653 311.602 44.0633 311.602 40.9022C311.602 36.7277 308.405 33.9043 302.226 33.9043H290.753V61.5714ZM297.403 56.1811V49.5886H301.634C304.173 49.5886 305.732 50.9395 305.732 53.0605C305.732 55.0194 304.389 56.1811 301.513 56.1811H297.403ZM297.403 45.2791V39.2135H301.191C303.408 39.2135 304.818 40.3618 304.818 42.199C304.818 44.1444 303.26 45.2791 301.084 45.2791H297.403Z" fill="white"/>
<path d="M315.875 61.5714H322.525V52.9794H327.038C333.339 52.9794 337.275 49.2238 337.275 43.4824C337.275 37.795 333.419 33.9043 327.239 33.9043H315.875V61.5714ZM322.525 47.7108V39.2945H325.802C328.784 39.2945 330.384 40.9156 330.384 43.4824C330.384 46.0356 328.784 47.7108 325.802 47.7108H322.525Z" fill="white"/>
<path d="M340.553 61.5714H347.203V50.4532H358.138V45.0089H347.203V39.3351H359.334V33.9043H340.553V61.5714Z" fill="white"/>
<path d="M267.455 131.616H282.003V127.666H274.037V127.537L276.389 125.3C280.65 121.469 281.763 119.519 281.763 117.194C281.763 113.541 278.874 111.066 274.412 111.066C270.065 111.066 267.158 113.65 267.167 117.777H271.668C271.668 115.946 272.761 114.887 274.393 114.887C275.995 114.887 277.157 115.907 277.157 117.58C277.157 119.094 276.235 120.124 274.623 121.618L267.455 128.092V131.616Z" fill="#B4BBC4"/>
<path d="M292.816 132.111C297.958 132.12 301.116 128.201 301.126 121.509C301.135 114.858 297.958 111.066 292.816 111.066C287.672 111.066 284.524 114.848 284.515 121.509C284.495 128.181 287.672 132.111 292.816 132.111ZM292.816 128.102C290.772 128.102 289.38 125.983 289.398 121.509C289.409 117.125 290.781 115.046 292.816 115.046C294.86 115.046 296.232 117.125 296.241 121.509C296.25 125.983 294.869 128.102 292.816 128.102Z" fill="#B4BBC4"/>
<path d="M303.847 131.616H318.394V127.666H310.429V127.537L312.781 125.3C317.042 121.469 318.155 119.519 318.155 117.194C318.155 113.541 315.266 111.066 310.804 111.066C306.457 111.066 303.549 113.65 303.559 117.777H308.06C308.06 115.946 309.153 114.887 310.785 114.887C312.387 114.887 313.549 115.907 313.549 117.58C313.549 119.094 312.627 120.124 311.015 121.618L303.847 128.092V131.616Z" fill="#B4BBC4"/>
<path d="M330.167 111.344H325.762L320.916 114.452V118.688L325.311 115.917H325.426V131.616H330.167V111.344Z" fill="#B4BBC4"/>
<path d="M288.167 10.5225H242.667V23.3828H288.167V10.5225Z" fill="#192230"/>
<path d="M380.334 10.5225H333.667V23.3828H380.334V10.5225Z" fill="#192230"/>
<path d="M333.667 0H288.167V10.5221H333.667V0Z" fill="#192230"/>
<path d="M424.666 0H380.333V10.5221H424.666V0Z" fill="#192230"/>
<path d="M424.666 10.5225H380.333V23.3828H424.666V10.5225Z" fill="#3C4D66"/>
<path d="M333.667 10.5225H288.167V23.3828H333.667V10.5225Z" fill="#3C4D66"/>
<path d="M436.334 10.5225H424.667V23.3828H436.334V10.5225Z" fill="#192230"/>
<path d="M448 23.3828H436.333V174.199H448V23.3828Z" fill="#192230"/>
<path d="M436.334 140.294H424.667V151.985H436.334V140.294Z" fill="#3C4D66"/>
<path d="M424.667 140.294H379.167V151.985H424.667V140.294Z" fill="#192230"/>
<path d="M379.167 140.294H332.5V151.985H379.167V140.294Z" fill="#3C4D66"/>
<path d="M332.5 140.294H288.167V151.985H332.5V140.294Z" fill="#192230"/>
<path d="M288.167 140.294H242.667V151.985H288.167V140.294Z" fill="#3C4D66"/>
<path d="M288.167 151.985H242.667V164.846H288.167V151.985Z" fill="#192230"/>
<path d="M379.167 151.985H332.5V164.846H379.167V151.985Z" fill="#192230"/>
<path d="M436.334 151.985H424.667V164.846H436.334V151.985Z" fill="#192230"/>
<path d="M90.9997 212.779H68.833V224.471H90.9997V212.779Z" fill="black"/>
<path d="M91.0003 224.471H57.167V259.544H91.0003V224.471Z" fill="#7DCAFF"/>
<path d="M57.1667 224.471H45.5V259.544H57.1667V224.471Z" fill="#004991"/>
<path d="M57.1667 178.875H45.5V201.088H57.1667V178.875Z" fill="black"/>
<path d="M68.8337 201.088H57.167V212.779H68.8337V201.088Z" fill="black"/>
<path d="M68.8337 212.779H57.167V224.471H68.8337V212.779Z" fill="#004991"/>
<path d="M184.334 201.088H172.667V212.779H184.334V201.088Z" fill="#004991"/>
<path d="M207.667 201.088H196V212.779H207.667V201.088Z" fill="black"/>
<path d="M231 189.397H207.667V201.089H231V189.397Z" fill="black"/>
<path d="M172.667 190.566H91V201.088H172.667V190.566Z" fill="#1A1A1A"/>
<path d="M172.667 167.184H91V178.875H172.667V167.184Z" fill="#1A1A1A"/>
<path d="M161 155.492H103.833V167.183H161V155.492Z" fill="#1A1A1A"/>
<path d="M172.667 155.492H161V167.183H172.667V155.492Z" fill="#262623"/>
<path d="M148.167 132.11V155.492H159.834V132.11H148.167Z" fill="black"/>
<path d="M91 132.11V167.184H103.833V132.11H91Z" fill="#262623"/>
<path d="M103.833 120.419V132.11H115.5V120.419H103.833Z" fill="#262623"/>
<path d="M79.333 167.183V201.088H90.9997V167.183H79.333Z" fill="#262623"/>
<path d="M159.833 120.419V132.11H172.666V120.419H159.833Z" fill="black"/>
<path d="M103.833 178.875H91V190.566H103.833V178.875Z" fill="#191919"/>
<path d="M115.5 178.875H103.833V190.566H115.5V178.875Z" fill="#014B3C"/>
<path d="M127.167 178.875H115.5V190.566H127.167V178.875Z" fill="#00F2BF"/>
<path d="M137.667 178.875H127.167V190.566H137.667V178.875Z" fill="#1A1A1A"/>
<path d="M149.334 178.875H137.667V190.566H149.334V178.875Z" fill="#014B3C"/>
<path d="M161 178.875H149.333V190.566H161V178.875Z" fill="#00F2BF"/>
<path d="M172.667 178.875H161V190.566H172.667V178.875Z" fill="#1A1A1A"/>
<path d="M149.333 259.544H115.5V270.066H149.333V259.544Z" fill="#FFE22C"/>
<path d="M149.333 270.066H115.5V281.758H149.333V270.066Z" fill="black"/>
</g>
<defs>
<clipPath id="clip0">
<rect width="448" height="318" fill="white"/>
</clipPath>
</defs>
</svg>
