<svg width="122" height="42" viewBox="0 0 122 42" fill="none" xmlns="http://www.w3.org/2000/svg">
<path fill-rule="evenodd" clip-rule="evenodd" d="M27.2056 0.124752C27.7627 0.40992 27.9832 1.09255 27.6981 1.64945C27.1353 2.74905 26.8308 4.32624 26.7143 5.94737C26.5994 7.54743 26.6759 9.06168 26.7936 9.95288C26.8756 10.5732 26.4391 11.1423 25.8187 11.2241C25.1984 11.3058 24.6291 10.8692 24.5472 10.2489C24.4087 9.20083 24.3286 7.5327 24.4542 5.78445C24.5782 4.05727 24.9114 2.1202 25.6809 0.616763C25.9659 0.0598654 26.6486 -0.160415 27.2056 0.124752Z" fill="#1A1A1A"/>
<path d="M20.6325 18.0606C21.3128 14.8287 14.3988 14.3013 10.8567 14.4416C-3.10702 14.7419 2.7298 23.3033 10.4608 24.2579C13.6424 24.6507 19.7822 22.1004 20.6325 18.0606Z" fill="#CFEDFC"/>
<path d="M3.45358 16.2362C3.84552 15.9129 4.35437 15.6202 4.99263 15.3693L5.19163 15.9945L6.20462 17.2777L7.68849 18.6229L8.82849 18.4536L14.5268 17.8629L20.5168 18.5037C20.3285 19.1045 20.0234 19.6693 19.6313 20.1926C17.8584 19.8375 13.7194 19.7322 11.4714 19.7279C10.8698 20.4348 10.6521 22.8381 10.605 24.2734C10.5564 24.2688 10.5085 24.2636 10.4611 24.2578C9.83015 24.1799 9.21178 24.0513 8.61576 23.8807C8.56064 22.7585 8.94773 21.1537 9.22941 20.263C7.4672 20.3589 5.60322 21.2293 4.57517 21.8358C4.10136 21.4553 3.69053 21.0491 3.35742 20.6303L5.64153 19.3752C5.28897 19.196 4.17485 17.4382 3.45358 16.2362Z" fill="#00ACE6"/>
<path d="M19.4478 21.9605L21.5009 23.3487L12.2241 37.0733L9.9951 35.5661L8.28305 33.0411L7.42578 28.8722L8.96097 25.2101L12.6455 26.3341L19.4478 21.9605Z" fill="#FFE100"/>
<path fill-rule="evenodd" clip-rule="evenodd" d="M17.5814 12.8361C20.3334 6.90205 27.0279 8.35697 30.1895 10.4947L21.5012 23.3486L20.504 22.6744C19.238 24.1428 16.652 25.2542 15.5173 25.6264C15.6325 27.2767 17.0174 28.5493 17.6954 28.9792L14.841 33.2022C11.5092 30.9493 10.5359 27.7275 10.4658 26.3982L9.22911 26.3311C7.04562 31.2812 10.4695 35.1175 12.5813 36.5453L8.89434 42L9.53547 36.8787C5.37934 33.3164 6.1229 27.934 7.0142 25.688C4.15089 25.1193 -0.818504 20.9647 0.115049 17.4338C1.7405 11.2861 12.4066 11.388 17.5814 12.8361ZM20.6359 18.0401C21.2828 14.8264 14.3905 14.3015 10.8559 14.4415C8.60893 14.4898 6.87467 14.7521 5.5785 15.1621C6.15534 16.9538 7.49288 17.8447 8.14244 18.076C12.2406 17.1441 17.562 17.574 20.6359 18.0401ZM20.3773 18.8886C18.2337 18.6102 15.0397 18.5384 13.3825 18.5426C11.1321 20.0791 10.8435 22.6701 11.035 24.2966C14.0831 24.349 19.0231 22.2245 20.3773 18.8886ZM10.0072 24.193C9.59598 21.8366 10.9196 19.6135 11.7319 18.7085C7.56447 18.8675 4.93727 20.0502 3.65378 20.9786C5.02714 22.4811 7.38528 23.7656 10.0072 24.193ZM2.92395 20.0064C3.95418 19.3768 5.79991 18.7976 6.80422 18.5385C5.35226 17.4526 4.71826 16.3191 4.49408 15.5855C2.22293 16.6773 1.96548 18.3866 2.92395 20.0064Z" fill="#1A1A1A"/>
<path fill-rule="evenodd" clip-rule="evenodd" d="M40.9234 9.40098C40.4513 8.99033 39.7358 9.0401 39.3253 9.51214C38.5148 10.4442 37.1649 11.3145 35.7042 12.0267C34.2625 12.7296 32.8291 13.2229 31.9583 13.4457C31.3523 13.6009 30.9869 14.218 31.1422 14.8241C31.2974 15.4302 31.9146 15.7959 32.5207 15.6407C33.5447 15.3786 35.1222 14.8313 36.6975 14.0633C38.2538 13.3046 39.9269 12.2736 41.035 10.9992C41.4455 10.5272 41.3956 9.81163 40.9234 9.40098Z" fill="#1A1A1A"/>
<path d="M26.7315 22.1851C29.4766 20.3494 32.5424 26.57 33.7322 29.9098C38.6571 42.982 28.5387 40.7551 24.7721 33.9353C23.222 31.1288 23.3002 24.4798 26.7315 22.1851Z" fill="#CFEDFC"/>
<path d="M34.8261 37.4501C34.9799 36.9658 35.0618 36.3845 35.0568 35.6986L34.4026 35.7469L32.8345 35.2849L31.0335 34.4089L30.7657 33.2878L29.1904 27.7788L26.3636 22.458C25.8764 22.8568 25.4661 23.3503 25.1266 23.9093C26.1168 25.4224 27.7568 29.2248 28.5986 31.3097C28.1669 32.1314 26.0182 33.2291 24.7041 33.8076C24.7264 33.851 24.7491 33.8936 24.7722 33.9353C25.0796 34.492 25.4293 35.018 25.8097 35.5076C26.8715 35.1406 28.2161 34.1833 28.9376 33.5899C29.5052 35.2612 29.3923 37.3156 29.2127 38.4958C29.7423 38.7938 30.2723 39.0237 30.785 39.1768L31.0983 36.5891C31.3959 36.8496 33.442 37.2286 34.8261 37.4501Z" fill="#00ACE6"/>
<path d="M23.5544 24.7368L21.5014 23.3486L12.2246 37.0732L14.4536 38.5804L17.4343 39.2285L21.6217 38.4706L24.4474 35.6811L22.0314 32.6801L23.5544 24.7368Z" fill="#FFE100"/>
<path fill-rule="evenodd" clip-rule="evenodd" d="M32.7158 23.0693C37.1958 18.3037 33.3513 12.6325 30.1897 10.4948L21.5014 23.3487L22.4986 24.0229C21.608 25.7452 21.5405 28.5595 21.618 29.7514C20.0439 30.2594 18.3472 29.4483 17.6956 28.9793L14.8412 33.2022C18.173 35.4551 21.5249 35.1577 22.7844 34.7275L23.3074 35.8503C19.5284 39.7215 14.6932 37.9732 12.5815 36.5454L8.89453 42L13.4072 39.4965C18.261 42.0265 22.9778 39.3306 24.7295 37.6664C26.3242 40.112 32.0307 43.1761 34.9587 40.9938C40.0569 37.1942 35.9877 27.3326 32.7158 23.0693ZM26.7492 22.1736C29.4898 20.3756 32.5452 26.577 33.7325 29.9098C34.525 32.0133 34.928 33.7206 35.0305 35.0764C33.1532 35.2087 31.8282 34.2993 31.3715 33.7826C30.709 29.6317 28.3271 24.8529 26.7492 22.1736ZM26.0583 22.7298C27.1154 24.6156 28.3723 27.5533 28.9859 29.0931C28.399 31.7542 26.1026 32.9876 24.5221 33.4161C23.3376 30.6065 23.4679 25.2299 26.0583 22.7298ZM25.0013 34.3313C27.3408 33.8349 28.9102 31.7779 29.4471 30.6868C30.8525 34.614 30.7343 37.4932 30.3512 39.0304C28.4453 38.3156 26.3749 36.6056 25.0013 34.3313ZM31.5252 39.3455C31.7254 38.1546 31.575 36.2257 31.4411 35.197C32.9897 36.14 34.2776 36.306 35.0418 36.2407C34.8752 38.7555 33.3853 39.6314 31.5252 39.3455Z" fill="#1A1A1A"/>
<path fill-rule="evenodd" clip-rule="evenodd" d="M62.545 26.1328V13.8645H68.4692C73.0944 13.8645 74.6316 13.91 75.4792 14.0723C76.0766 14.1866 76.907 14.4367 77.3246 14.6279C77.7424 14.8192 78.4036 15.2744 78.7938 15.6396C79.1841 16.0046 79.6609 16.6293 79.8533 17.0277C80.0457 17.4263 80.2681 18.1646 80.3472 18.6688C80.4448 19.2901 80.4449 19.882 80.3474 20.5066C80.2683 21.0133 80.0434 21.7596 79.8473 22.1651C79.6512 22.5705 79.2068 23.1523 78.8598 23.4579C78.5127 23.7636 77.8961 24.1726 77.4896 24.3668L76.7505 24.7201L77.1745 24.8281C77.4078 24.8876 77.867 25.0503 78.1951 25.1897C78.5231 25.3293 79.0885 25.7168 79.4517 26.051C79.8148 26.3853 80.2566 26.8875 80.4334 27.1672C80.6104 27.4469 80.8558 28.0151 80.979 28.4299C81.1048 28.8534 81.2029 29.6982 81.2029 30.3572C81.2029 31.1663 81.1112 31.8098 80.907 32.4318C80.7443 32.9278 80.3784 33.6394 80.0942 34.0134C79.8099 34.3874 79.2276 34.9334 78.8 35.2268C78.3724 35.5201 77.6208 35.8922 77.1297 36.0537C76.6387 36.215 75.6528 36.4087 74.9388 36.4839C74.2249 36.5591 71.1443 36.6217 68.0929 36.6231L62.545 36.6255L62.5318 30.1931L62.1575 30.6879C61.9516 30.96 61.3344 31.6317 60.786 32.1803C60.2376 32.7291 59.3829 33.4528 58.8868 33.7887C58.3907 34.1245 57.4684 34.6412 56.8373 34.9368C56.2061 35.2326 55.2126 35.6107 54.6296 35.7773C54.0119 35.9537 52.9444 36.1133 52.0716 36.1597C50.9405 36.2199 50.3087 36.1805 49.4915 35.9985C48.8962 35.8662 47.9687 35.5374 47.4304 35.2679C46.8918 34.9984 46.1312 34.4902 45.74 34.1383C45.3487 33.7866 44.732 33.0525 44.3694 32.5069C44.0069 31.9615 43.5577 31.0765 43.3712 30.5401C43.1848 30.0039 42.9665 29.0412 42.8861 28.4006C42.8059 27.76 42.7806 26.8199 42.8299 26.3112C42.8794 25.8026 43.0428 24.9214 43.1933 24.3531C43.3437 23.7848 43.6339 22.9895 43.838 22.5859C44.0421 22.1823 44.4672 21.4704 44.7831 21.0038C45.0987 20.5373 45.8108 19.7103 46.3656 19.166C46.9202 18.6217 47.7327 17.9629 48.1709 17.7021C48.609 17.4412 49.3669 17.0595 49.855 16.8538C50.6412 16.5226 51.7096 16.4092 52.3456 16.4092C52.9817 16.4092 54.0474 16.5083 54.7506 16.8786C55.1669 17.098 55.7869 17.5649 56.1284 17.9162C56.5655 18.3661 56.8164 18.7861 56.976 19.3351C57.1332 19.8761 57.1735 20.3477 57.1078 20.8746C57.0555 21.2922 56.8144 22.0315 56.5717 22.5172C56.2931 23.0748 55.7366 23.7989 55.062 24.4817C54.4744 25.0765 53.437 25.9249 52.7569 26.3671C52.0769 26.8093 51.1228 27.3508 50.6366 27.5704C50.1507 27.79 49.2443 28.1299 48.6223 28.3255C48.0004 28.521 47.1895 28.7264 46.8201 28.7816C46.3637 28.85 46.1487 28.9497 46.1487 29.0933C46.1487 29.2094 46.3387 29.7026 46.571 30.1892C46.8032 30.676 47.2542 31.3433 47.5734 31.6721C47.8924 32.0009 48.5659 32.4629 49.0701 32.6989C49.8015 33.0411 50.2376 33.1422 51.2286 33.1988C52.1033 33.2487 52.787 33.1992 53.5404 33.0315C54.1288 32.9006 55.1711 32.52 55.8566 32.1858C56.5423 31.8516 57.612 31.1937 58.2339 30.7235C58.8559 30.2534 59.7836 29.4328 60.2952 28.8999C60.807 28.3671 61.5227 27.5265 61.8854 27.0319L62.545 26.1328ZM74.6628 19.3636C74.4864 19.0994 74.1206 18.772 73.85 18.6361C73.4315 18.4257 72.9422 18.3888 70.5665 18.3887L67.7749 18.3884V22.6296H70.5012C73.0475 22.6296 73.2692 22.6086 73.8582 22.3115C74.2687 22.1045 74.5753 21.8207 74.736 21.4986C74.8719 21.2265 74.9833 20.7429 74.9833 20.4239C74.9835 20.056 74.8664 19.6683 74.6628 19.3636ZM54.5503 19.8328C54.429 19.6595 54.1459 19.4227 53.9213 19.3065C53.6834 19.1835 53.1342 19.0953 52.606 19.0953C51.8466 19.0953 51.5297 19.1794 50.6555 19.6126C49.8968 19.9886 49.3223 20.4238 48.5516 21.2058C47.818 21.9503 47.3047 22.6377 46.885 23.4376C46.5514 24.0732 46.1886 25.0238 46.0785 25.5498C45.9684 26.0757 45.9107 26.5384 45.9502 26.5779C45.9894 26.6173 46.5138 26.5478 47.1152 26.4233C47.7164 26.2991 48.7117 25.9878 49.3266 25.7317C49.9414 25.4757 51.0012 24.8939 51.6816 24.4386C52.3619 23.9835 53.2097 23.2789 53.5657 22.8729C53.9214 22.467 54.3382 21.8761 54.4918 21.56C54.6453 21.2439 54.7709 20.7968 54.7709 20.5666C54.7709 20.3363 54.6717 20.006 54.5503 19.8328ZM75.2299 28.1287C75.0543 27.8645 74.6275 27.5053 74.2812 27.3303C73.6899 27.0315 73.477 27.0122 70.7839 27.0122H67.9162V32.1263L70.8492 32.0785C73.4943 32.0356 73.8377 32.0019 74.3476 31.7357C74.6816 31.5613 75.0421 31.214 75.2288 30.8875C75.4593 30.4834 75.5451 30.102 75.5468 29.4718C75.5485 28.8096 75.4748 28.4974 75.2299 28.1287Z" fill="#1A1A1A"/>
<path fill-rule="evenodd" clip-rule="evenodd" d="M84.2419 36.5548L84.1696 13.8645H89.5938C93.8213 13.8645 95.2949 13.9123 96.2733 14.0808C97.0333 14.2117 97.9338 14.4884 98.5556 14.7817C99.1382 15.0567 99.9077 15.5741 100.334 15.9776C100.748 16.3688 101.251 16.9918 101.451 17.3619C101.652 17.7322 101.921 18.4431 102.05 18.942C102.195 19.5038 102.282 20.3915 102.278 21.2747C102.275 22.0856 102.18 23.0526 102.057 23.5174C101.938 23.967 101.706 24.6032 101.54 24.9312C101.374 25.2593 101.023 25.8238 100.76 26.1856C100.496 26.5475 99.8524 27.1326 99.3288 27.4861C98.8051 27.8395 97.995 28.254 97.5286 28.4071C97.0621 28.5603 96.1829 28.7544 95.5749 28.8386C94.9666 28.9227 93.3934 28.9914 92.0788 28.9914H89.6885L89.6131 36.5548H84.2419ZM96.2919 19.7596C96.097 19.4106 95.7547 19.0755 95.4083 18.8951C94.9071 18.6339 94.5505 18.5488 92.2634 18.5096L89.6838 18.5123V24.3261L91.9807 24.3252C93.244 24.3248 94.5179 24.2578 94.8115 24.1762C95.1051 24.0947 95.5665 23.8338 95.8367 23.5965C96.1794 23.2955 96.3968 22.9282 96.5558 22.3811C96.7021 21.8776 96.7526 21.3703 96.6969 20.9634C96.6491 20.6148 96.4669 20.0732 96.2919 19.7596Z" fill="#1A1A1A"/>
<path d="M105.779 25.3864L105.815 36.5548H111.187L111.261 27.8642L120.657 27.7897L120.735 23.1951H111.257V18.6712H122V13.8645H105.775C105.77 15.8302 105.765 21.0896 105.779 25.3864Z" fill="#1A1A1A"/>
</svg>
