<svg width="280" height="120" viewBox="0 0 280 120" fill="none" xmlns="http://www.w3.org/2000/svg">
<path fill-rule="evenodd" clip-rule="evenodd" d="M91.1903 59.8685C91.1903 54.0644 95.1351 50.0027 100.761 50.0027H101.174C102.735 49.9639 104.277 50.3392 105.634 51.0882C106.991 51.8372 108.112 52.9314 108.875 54.2528C108.972 54.4176 108.948 54.5471 108.784 54.6295L106.356 55.8068C106.317 55.8319 106.273 55.8489 106.227 55.8565C106.18 55.8642 106.133 55.8624 106.087 55.8514C106.041 55.8403 105.999 55.8202 105.961 55.7922C105.924 55.7643 105.893 55.7292 105.871 55.6891C105.411 54.8534 104.714 54.1627 103.862 53.6986C103.01 53.2345 102.04 53.0162 101.064 53.0696H100.646C97.1075 53.0696 94.6678 55.7951 94.6678 59.7567C94.6678 63.7183 97.0953 66.3849 100.646 66.3849H101.064C103.377 66.3849 104.706 65.6255 105.762 64.46C105.813 64.3933 105.887 64.3469 105.971 64.3295C106.055 64.3122 106.142 64.3251 106.217 64.3658L108.711 65.5431C108.75 65.5586 108.784 65.5845 108.809 65.6178C108.834 65.6511 108.848 65.6905 108.851 65.7315C108.844 65.8049 108.814 65.8746 108.766 65.9316C107.236 68.0979 104.481 69.4635 101.119 69.4635H100.706C94.9712 69.4164 91.1903 65.6079 91.1903 59.8685ZM83.2401 69.0692H86.2442C86.4384 69.0692 86.5476 68.9632 86.493 68.7748C84.6387 62.5769 82.2785 56.5319 79.4349 50.6974C79.3986 50.59 79.3263 50.4974 79.2295 50.4345C79.1327 50.3715 79.017 50.3418 78.9008 50.3501H74.9864C74.8695 50.3425 74.7534 50.3724 74.6558 50.4352C74.5582 50.4979 74.4846 50.5901 74.4463 50.6974C71.6124 56.536 69.2525 62.5801 67.3881 68.7748C67.3335 68.9632 67.4428 69.0692 67.637 69.0692H70.5318C70.6057 69.0732 70.6786 69.0509 70.7367 69.0064C70.7948 68.962 70.8342 68.8984 70.8474 68.8278C71.2358 67.2914 71.7153 65.6726 72.2675 64.0421H81.4922C82.0445 65.6726 82.5239 67.2914 82.9245 68.8278C82.9377 68.8984 82.9771 68.962 83.0352 69.0064C83.0933 69.0509 83.1662 69.0732 83.2401 69.0692ZM77.2015 53.2933C78.3485 55.7539 79.4652 58.4499 80.4726 61.1518H73.275C74.2824 58.4499 75.4112 55.7539 76.5582 53.2933H77.2015ZM64.026 53.0873V50.6267C64.0277 50.5915 64.0218 50.5563 64.0087 50.5234C63.9956 50.4905 63.9756 50.4606 63.9499 50.4357C63.9241 50.4107 63.8933 50.3913 63.8594 50.3786C63.8255 50.3658 63.7892 50.3601 63.7529 50.3618H49.8551C49.8188 50.3601 49.7825 50.3658 49.7486 50.3786C49.7147 50.3913 49.6839 50.4107 49.6582 50.4357C49.6325 50.4606 49.6124 50.4905 49.5993 50.5234C49.5862 50.5563 49.5803 50.5915 49.582 50.6267V68.7984C49.5794 68.8341 49.5847 68.8699 49.5974 68.9035C49.6101 68.9371 49.63 68.9677 49.6558 68.9933C49.6816 69.0189 49.7127 69.0389 49.7471 69.052C49.7815 69.065 49.8183 69.0709 49.8551 69.0691H52.5861C52.623 69.0709 52.6598 69.065 52.6942 69.052C52.7286 69.0389 52.7597 69.0189 52.7855 68.9933C52.8113 68.9677 52.8312 68.9371 52.8439 68.9035C52.8566 68.8699 52.8619 68.8341 52.8592 68.7984V61.3814H61.8473C61.8844 61.383 61.9215 61.3772 61.9561 61.3642C61.9908 61.3512 62.0222 61.3313 62.0485 61.3058C62.0748 61.2803 62.0953 61.2498 62.1087 61.2162C62.1221 61.1825 62.1282 61.1466 62.1264 61.1106V58.65C62.1282 58.6143 62.1222 58.5785 62.1087 58.5452C62.0953 58.5119 62.0747 58.4817 62.0483 58.4567C62.0219 58.4316 61.9903 58.4123 61.9557 58.4C61.921 58.3877 61.8841 58.3826 61.8473 58.3851H52.8289V53.3581H63.7529C63.7898 53.3598 63.8266 53.354 63.8609 53.3409C63.8953 53.3278 63.9264 53.3078 63.9522 53.2822C63.978 53.2567 63.998 53.226 64.0107 53.1924C64.0234 53.1588 64.0286 53.123 64.026 53.0873ZM130.826 68.7983V66.3436C130.826 66.2779 130.801 66.2146 130.754 66.1665C130.708 66.1184 130.645 66.0891 130.577 66.0846H119.107V61.1929H128.21C128.247 61.1947 128.284 61.1888 128.319 61.1758C128.353 61.1627 128.384 61.1427 128.41 61.1171C128.436 61.0915 128.456 61.0609 128.468 61.0273C128.481 60.9937 128.486 60.9579 128.484 60.9222V58.491C128.485 58.4558 128.479 58.4206 128.466 58.3877C128.453 58.3548 128.433 58.3249 128.407 58.3C128.382 58.275 128.351 58.2556 128.317 58.2429C128.283 58.2302 128.247 58.2245 128.21 58.2261H119.107V53.358H130.298C130.335 53.3597 130.372 53.3538 130.407 53.3408C130.442 53.3278 130.473 53.3079 130.499 53.2824C130.526 53.2569 130.546 53.2264 130.56 53.1928C130.573 53.1592 130.579 53.1232 130.577 53.0872V50.6267C130.579 50.5909 130.573 50.5552 130.56 50.5218C130.546 50.4885 130.526 50.4583 130.499 50.4333C130.473 50.4083 130.441 50.3889 130.407 50.3766C130.372 50.3643 130.335 50.3592 130.298 50.3618H116.073C116.036 50.3601 116 50.3658 115.966 50.3785C115.932 50.3912 115.901 50.4107 115.876 50.4356C115.85 50.4606 115.83 50.4904 115.817 50.5233C115.804 50.5562 115.798 50.5914 115.8 50.6267V68.7983C115.797 68.834 115.802 68.8699 115.815 68.9035C115.828 68.9371 115.848 68.9677 115.873 68.9933C115.899 69.0189 115.93 69.0389 115.965 69.0519C115.999 69.065 116.036 69.0708 116.073 69.0691H130.547C130.584 69.0708 130.621 69.0649 130.656 69.0519C130.69 69.0389 130.722 69.019 130.748 68.9935C130.775 68.968 130.795 68.9375 130.808 68.9039C130.822 68.8703 130.828 68.8343 130.826 68.7983ZM155.745 63.9361C155.745 67.209 153.154 69.0691 148.578 69.0691H139.092C139.055 69.0709 139.018 69.065 138.984 69.052C138.95 69.0389 138.918 69.0189 138.893 68.9933C138.867 68.9677 138.847 68.9371 138.834 68.9035C138.821 68.8699 138.816 68.8341 138.819 68.7984V50.6267C138.817 50.5915 138.823 50.5563 138.836 50.5234C138.849 50.4905 138.869 50.4606 138.895 50.4357C138.921 50.4107 138.952 50.3913 138.985 50.3786C139.019 50.3658 139.056 50.3601 139.092 50.3618H147.734C152.189 50.3618 154.616 52.0748 154.616 55.2005C154.616 57.2608 153.542 58.6088 151.363 59.2387C154.422 59.8568 155.745 61.6345 155.745 63.9361ZM147.667 53.2639H142.096V58.2792H147.667C150.162 58.2792 151.309 57.4904 151.309 55.7656C151.309 54.0409 150.162 53.2639 147.667 53.2639ZM152.383 63.6536C152.383 61.917 151.169 61.1282 148.59 61.1282H142.096V66.1553H148.59C151.236 66.1553 152.383 65.4077 152.383 63.6536ZM171.445 50.0027C165.376 50.0027 161.523 54.0644 161.523 59.7096C161.523 65.343 165.376 69.4164 171.445 69.4164H171.858C177.921 69.4164 181.78 65.3548 181.78 59.7096C181.78 54.0644 177.927 50.0027 171.858 50.0027H171.445ZM178.291 59.7096C178.291 63.736 175.797 66.3672 171.84 66.3672H171.427C167.47 66.3672 164.976 63.736 164.976 59.7096C164.976 55.6832 167.47 53.052 171.427 53.052H171.84C175.797 53.052 178.291 55.6832 178.291 59.7096ZM187.376 59.7096C187.376 54.0644 191.236 50.0027 197.305 50.0027H197.717C203.786 50.0027 207.64 54.0644 207.64 59.7096C207.64 65.3548 203.78 69.4164 197.717 69.4164H197.305C191.236 69.4164 187.376 65.343 187.376 59.7096ZM197.693 66.3672C201.65 66.3672 204.144 63.736 204.144 59.7096C204.144 55.6832 201.65 53.052 197.693 53.052H197.28C193.324 53.052 190.829 55.6832 190.829 59.7096C190.829 63.736 193.324 66.3672 197.28 66.3672H197.693ZM227.862 69.0692H231.418C231.636 69.0692 231.721 68.9102 231.57 68.7631C228.633 65.4127 225.42 62.3002 221.963 59.4565C225.1 56.8103 227.983 53.8923 230.574 50.7386C230.63 50.6853 230.665 50.6143 230.671 50.5384C230.671 50.4325 230.593 50.3501 230.429 50.3501H227.06C226.979 50.3441 226.898 50.3596 226.826 50.3948C226.753 50.4301 226.691 50.4838 226.648 50.5502C224.481 53.233 222.075 55.7248 219.456 57.9966H217.83V50.6267C217.831 50.591 217.825 50.5553 217.812 50.5219C217.798 50.4886 217.778 50.4584 217.751 50.4334C217.725 50.4083 217.694 50.389 217.659 50.3767C217.624 50.3644 217.587 50.3593 217.55 50.3618H214.819C214.783 50.3602 214.747 50.3659 214.713 50.3786C214.679 50.3913 214.648 50.4108 214.623 50.4357C214.597 50.4606 214.577 50.4905 214.564 50.5234C214.551 50.5563 214.545 50.5915 214.546 50.6267V68.7984C214.544 68.8341 214.549 68.8699 214.562 68.9035C214.574 68.9372 214.594 68.9678 214.62 68.9934C214.646 69.0189 214.677 69.0389 214.711 69.052C214.746 69.0651 214.783 69.0709 214.819 69.0692H217.55C217.588 69.0708 217.625 69.065 217.659 69.052C217.694 69.039 217.725 69.0191 217.752 68.9936C217.778 68.9681 217.799 68.9376 217.812 68.904C217.825 68.8703 217.831 68.8344 217.83 68.7984V61.0753H219.426C222.273 63.4679 224.933 66.0632 227.382 68.8396C227.432 68.9172 227.504 68.9797 227.588 69.0202C227.673 69.0608 227.768 69.0777 227.862 69.0692Z" fill="#3B76E7"/>
<rect x="1" y="1" width="278" height="118" stroke="#F2F2F2" stroke-width="2"/>
</svg>
