<svg width="280" height="120" viewBox="0 0 280 120" fill="none" xmlns="http://www.w3.org/2000/svg">
<path d="M58.6669 48.7505C58.6669 46.6088 59.2966 45.6378 61.4747 45.6378L64.5624 45.6446V40.2429C63.2144 40.078 61.8576 39.9969 60.4996 40.0001C54.0195 40.0001 51.697 43.0583 51.697 48.8481V52.3033H47V58.0431H51.697V75.4623H58.6691V58.0431H63.8943L64.4766 52.3033H58.6669V48.7505Z" fill="#1877F2"/>
<path fill-rule="evenodd" clip-rule="evenodd" d="M74.3988 51.8087C68.009 51.8087 64.9597 56.6819 64.9597 63.1523V64.6065C64.9597 71.0837 68.009 75.9501 74.3988 75.9501C77.8837 75.9501 80.0618 74.1986 81.0301 71.9594V75.4623H87.7089V52.3033H81.0301V55.847C80.0122 53.6101 77.8837 51.8087 74.3988 51.8087ZM76.4302 70.4507C73.1867 70.4507 71.9295 68.1639 71.9295 64.7109V63.0661C71.9295 59.6131 73.1867 57.3262 76.4302 57.3262C79.2877 57.3262 80.739 59.418 80.739 62.7258V65.0512C80.739 68.359 79.2877 70.4507 76.4302 70.4507Z" fill="#1877F2"/>
<path d="M102.231 51.8156C104.939 51.8156 107.506 52.4009 108.91 53.3719L107.361 58.3358C105.909 57.6407 104.322 57.2751 102.714 57.265C98.9379 57.265 97.297 59.4543 97.297 63.2022V64.5634C97.297 68.3113 98.9424 70.5006 102.714 70.5006C104.322 70.4905 105.909 70.1249 107.361 69.4298L108.91 74.3915C107.506 75.3648 104.942 75.9501 102.231 75.9501C94.049 75.9501 90.3226 71.5216 90.3226 64.4182V63.3474C90.3226 56.2441 94.049 51.8156 102.231 51.8156Z" fill="#1877F2"/>
<path fill-rule="evenodd" clip-rule="evenodd" d="M109.828 62.7258V64.7676C109.828 71.5737 113.119 75.9977 121.942 76C125.28 76 129.056 75.2718 130.896 74.2962L129.621 69.4979C127.587 70.3736 124.829 70.909 122.213 70.909C118.347 70.909 116.943 69.4979 116.796 66.3353H131.467V62.6373C131.467 56.2146 128.321 51.836 121.157 51.836C113.555 51.836 109.828 56.1579 109.828 62.7258ZM125.222 61.7502H116.798V61.7412C116.798 58.6285 118.01 56.632 121.159 56.6297C124.206 56.6297 125.222 58.6376 125.222 61.1672V61.7502Z" fill="#1877F2"/>
<path fill-rule="evenodd" clip-rule="evenodd" d="M157.304 64.6134C157.304 71.0837 154.207 75.9569 147.824 75.9569C144.339 75.9569 141.92 74.2054 140.951 71.9662V75.4691H134.37V40.6739L141.34 40.0387V55.5113C142.355 53.4694 144.583 51.8133 147.826 51.8133C154.216 51.8133 157.306 56.6797 157.306 63.1568L157.304 64.6134ZM150.334 63.0071C150.334 59.747 149.077 57.3149 145.736 57.3149C142.879 57.3149 141.33 59.3567 141.33 62.6668V65.0988C141.33 68.4066 142.879 70.4507 145.736 70.4507C149.077 70.4507 150.334 68.0187 150.334 64.7585V63.0071Z" fill="#1877F2"/>
<path fill-rule="evenodd" clip-rule="evenodd" d="M159.635 63.2998V64.4659C159.635 71.1314 163.414 75.9501 171.111 75.9501C178.807 75.9501 182.583 71.1314 182.583 64.4659V63.2998C182.583 56.632 178.805 51.8156 171.108 51.8156C163.412 51.8156 159.635 56.632 159.635 63.2998ZM171.097 57.3149C174.352 57.3149 175.611 59.747 175.611 62.812V64.9537C175.611 68.0187 174.34 70.4507 171.097 70.4507C167.854 70.4507 166.594 68.0187 166.594 64.9537V62.812C166.594 59.747 167.842 57.3149 171.097 57.3149Z" fill="#1877F2"/>
<path fill-rule="evenodd" clip-rule="evenodd" d="M184.901 64.4659V63.2998C184.901 56.632 188.677 51.8156 196.374 51.8156C204.071 51.8156 207.847 56.632 207.847 63.2998V64.4659C207.847 71.1314 204.071 75.9501 196.374 75.9501C188.677 75.9501 184.901 71.1314 184.901 64.4659ZM200.877 62.812C200.877 59.747 199.618 57.3149 196.374 57.3149C193.131 57.3149 191.873 59.747 191.873 62.812V64.9537C191.873 68.0187 193.131 70.4507 196.374 70.4507C199.618 70.4507 200.877 68.0187 200.877 64.9537V62.812Z" fill="#1877F2"/>
<path d="M224.303 52.3033L217.43 63.3474V40.0387L210.458 40.6739V75.4623H217.43V64.1188L224.594 75.4623H232L224.497 63.7376L231.709 52.3033H224.303Z" fill="#1877F2"/>
<rect x="1" y="1" width="278" height="118" stroke="#F2F2F2" stroke-width="2"/>
</svg>
