<svg width="280" height="120" viewBox="0 0 280 120" fill="none" xmlns="http://www.w3.org/2000/svg">
<path d="M128.615 63.3651C128.615 70.8464 122.761 76.3592 115.577 76.3592C108.393 76.3592 102.539 70.8464 102.539 63.3651C102.539 55.831 108.393 50.3709 115.577 50.3709C122.761 50.3709 128.615 55.831 128.615 63.3651ZM122.907 63.3651C122.907 58.69 119.515 55.4912 115.577 55.4912C111.639 55.4912 108.247 58.69 108.247 63.3651C108.247 67.9933 111.639 71.2389 115.577 71.2389C119.515 71.2389 122.907 67.9874 122.907 63.3651Z" fill="#EA4335"/>
<path d="M156.741 63.3651C156.741 70.8464 150.887 76.3592 143.703 76.3592C136.519 76.3592 130.665 70.8464 130.665 63.3651C130.665 55.8369 136.519 50.3709 143.703 50.3709C150.887 50.3709 156.741 55.831 156.741 63.3651ZM151.034 63.3651C151.034 58.69 147.641 55.4912 143.703 55.4912C139.766 55.4912 136.373 58.69 136.373 63.3651C136.373 67.9933 139.766 71.2389 143.703 71.2389C147.641 71.2389 151.034 67.9874 151.034 63.3651Z" fill="#FBBC05"/>
<path d="M183.695 51.1559V74.4845C183.695 84.0807 178.035 88 171.343 88C165.044 88 161.253 83.7878 159.823 80.343L164.792 78.2749C165.677 80.3898 167.845 82.8856 171.337 82.8856C175.621 82.8856 178.275 80.2434 178.275 75.2695V73.4007H178.076C176.799 74.9766 174.337 76.3533 171.232 76.3533C164.734 76.3533 158.78 70.694 158.78 63.4119C158.78 56.0771 164.734 50.3709 171.232 50.3709C174.332 50.3709 176.793 51.7477 178.076 53.2767H178.275V51.1618H183.695V51.1559ZM178.68 63.4119C178.68 58.8364 175.627 55.4912 171.742 55.4912C167.804 55.4912 164.505 58.8364 164.505 63.4119C164.505 67.9405 167.804 71.2389 171.742 71.2389C175.627 71.2389 178.68 67.9405 178.68 63.4119Z" fill="#4285F4"/>
<path d="M192.631 37.4822V75.5624H187.065V37.4822H192.631Z" fill="#34A853"/>
<path d="M214.324 67.6417L218.754 70.5944C217.324 72.7093 213.879 76.3533 207.925 76.3533C200.542 76.3533 195.028 70.6471 195.028 63.3591C195.028 55.6318 200.589 50.365 207.287 50.365C214.031 50.365 217.33 55.7314 218.408 58.6313L219 60.1077L201.626 67.3019C202.956 69.9089 205.025 71.2388 207.925 71.2388C210.832 71.2388 212.847 69.8093 214.324 67.6417ZM200.689 62.9666L212.302 58.1451C211.664 56.5223 209.742 55.3916 207.48 55.3916C204.579 55.3916 200.542 57.9517 200.689 62.9666Z" fill="#EA4335"/>
<path d="M81.4678 59.9847V54.4718H100.049C100.23 55.4326 100.324 56.5692 100.324 57.7994C100.324 61.9355 99.1933 67.05 95.5486 70.694C92.0035 74.3848 87.474 76.3533 81.4737 76.3533C70.352 76.3533 61 67.2961 61 56.1766C61 45.0572 70.352 36 81.4737 36C87.6263 36 92.0093 38.4137 95.3025 41.5597L91.4117 45.4497C89.0502 43.2352 85.8508 41.5128 81.4678 41.5128C73.3463 41.5128 66.9944 48.0568 66.9944 56.1766C66.9944 64.2965 73.3463 70.8405 81.4678 70.8405C86.7356 70.8405 89.7358 68.7255 91.6578 66.804C93.2164 65.2456 94.2419 63.0194 94.6462 59.9788L81.4678 59.9847Z" fill="#4285F4"/>
<rect x="1" y="1" width="278" height="118" stroke="#F2F2F2" stroke-width="2"/>
</svg>
