<svg width="280" height="120" viewBox="0 0 280 120" fill="none" xmlns="http://www.w3.org/2000/svg">
<path fill-rule="evenodd" clip-rule="evenodd" d="M77.7598 37H51.92L39 60L51.92 83H77.7598L90.6801 60L77.7598 37ZM71.116 48.8275H58.564L52.2879 60L58.564 71.1727H71.116L77.392 60L71.116 48.8275Z" fill="#0078FB"/>
<path d="M61.0726 53.2893H68.5627L72.3079 59.9563L68.5627 66.6233H61.0726L57.3275 59.9563L61.0726 53.2893Z" fill="#737373"/>
<path d="M68.5627 66.6235L64.8658 59.9565L61.0725 66.6235H68.5627Z" fill="#464646"/>
<path d="M68.5627 53.2894H61.0725L64.8658 59.9564L68.5627 53.2894Z" fill="#C7C7C7"/>
<path d="M68.5627 53.2893L64.8658 59.9563H72.3273L68.5627 53.2893ZM64.8658 59.9563L61.0726 53.2893L57.3275 59.9563H64.8658Z" fill="#989898"/>
<path d="M77.7599 83L90.6802 60H77.392L71.1161 71.1727L77.7599 83Z" fill="#0058FB"/>
<path d="M77.7599 83L84.4039 71.1726H71.1161L77.7599 83Z" fill="#0078FB"/>
<path d="M84.4309 48.8275H71.1161L77.3921 60L84.4309 48.8275Z" fill="#4CBAFB"/>
<path d="M84.4309 48.8438L77.392 60H90.6802L84.4309 48.8438Z" fill="#9DDAFB"/>
<path d="M64.8399 83L71.116 71.1726L77.7598 83H64.8399Z" fill="#0069E4"/>
<path d="M39 60H52.2879L45.276 71.1727H58.564L65.0316 83H51.92L45.276 71.1727L39 60Z" fill="#0101D7"/>
<path fill-rule="evenodd" clip-rule="evenodd" d="M52.2879 60L45.3006 48.8275L39 60H52.2879L58.564 71.1726H45.3006L52.2879 60Z" fill="#0035FB"/>
<path d="M71.116 48.8275L65.0316 37L58.564 48.8275H71.116Z" fill="#0027FB"/>
<path d="M77.7599 37L71.1161 48.8275H84.4309L77.7599 37Z" fill="#37A0FB"/>
<path d="M169.737 60.9831H170.981L171.603 62.09L170.981 63.1969H169.737L169.116 62.09L169.737 60.9831Z" fill="#0101D7"/>
<path d="M106.815 66.8362V53.2848H108.486V66.8362H106.815ZM123.84 56.1287C123.53 55.7724 123.053 55.4479 122.409 55.1553C121.766 54.8626 121.048 54.7163 120.255 54.7163C119.24 54.7163 118.491 54.9135 118.008 55.308C117.525 55.7024 117.284 56.2432 117.284 56.9303C117.284 57.4138 117.408 57.7956 117.655 58.0755C117.903 58.3554 118.281 58.5845 118.788 58.7626C119.308 58.9407 119.964 59.1252 120.757 59.3161C121.673 59.5197 122.465 59.7678 123.134 60.0605C123.802 60.3532 124.316 60.7476 124.675 61.2439C125.034 61.7274 125.213 62.3763 125.213 63.1907C125.213 64.0559 125.003 64.7685 124.582 65.3283C124.161 65.8882 123.586 66.3018 122.855 66.569C122.137 66.8362 121.326 66.9698 120.422 66.9698C118.367 66.9698 116.578 66.3336 115.056 65.0611L115.854 63.6106C116.126 63.8905 116.492 64.1704 116.95 64.4504C117.42 64.7303 117.953 64.9657 118.547 65.1566C119.153 65.3347 119.791 65.4238 120.46 65.4238C121.401 65.4238 122.131 65.252 122.651 64.9085C123.171 64.5522 123.431 64.0368 123.431 63.3624C123.431 62.8535 123.282 62.4463 122.985 62.1409C122.7 61.8355 122.273 61.5811 121.704 61.3775C121.134 61.1739 120.441 60.9703 119.624 60.7667C118.733 60.5377 117.983 60.2895 117.377 60.0223C116.77 59.7424 116.312 59.3797 116.003 58.9344C115.706 58.489 115.557 57.9101 115.557 57.1975C115.557 56.3323 115.761 55.6006 116.17 55.0026C116.578 54.4046 117.141 53.9528 117.86 53.6475C118.578 53.3421 119.389 53.1894 120.292 53.1894C121.172 53.1894 121.97 53.3294 122.688 53.6093C123.418 53.8892 124.062 54.2646 124.619 54.7354L123.84 56.1287ZM137.217 66.9316C136.288 66.9316 135.446 66.7407 134.691 66.359C133.936 65.9773 133.28 65.4619 132.723 64.813C132.178 64.1514 131.757 63.4134 131.46 62.599C131.163 61.7719 131.015 60.9258 131.015 60.0605C131.015 59.1571 131.169 58.2982 131.479 57.4838C131.801 56.6567 132.24 55.9251 132.797 55.2889C133.367 54.6399 134.029 54.131 134.784 53.762C135.539 53.3802 136.363 53.1894 137.254 53.1894C138.183 53.1894 139.024 53.3866 139.78 53.7811C140.535 54.1755 141.185 54.7036 141.73 55.3652C142.274 56.0269 142.695 56.7649 142.992 57.5793C143.289 58.3936 143.438 59.2271 143.438 60.0796C143.438 60.983 143.283 61.8483 142.974 62.6753C142.664 63.4897 142.225 64.2213 141.655 64.8703C141.098 65.5065 140.442 66.0091 139.687 66.3781C138.932 66.7471 138.108 66.9316 137.217 66.9316ZM132.704 60.0605C132.704 60.7476 132.809 61.4156 133.02 62.0646C133.243 62.7008 133.552 63.267 133.949 63.7633C134.345 64.2595 134.821 64.654 135.379 64.9466C135.936 65.2393 136.554 65.3856 137.236 65.3856C137.941 65.3856 138.573 65.2329 139.13 64.9275C139.687 64.6221 140.157 64.215 140.541 63.706C140.937 63.197 141.234 62.6244 141.432 61.9882C141.643 61.352 141.748 60.7094 141.748 60.0605C141.748 59.3734 141.637 58.7117 141.414 58.0755C141.203 57.4393 140.894 56.8731 140.485 56.3768C140.089 55.8678 139.613 55.4734 139.055 55.1934C138.51 54.9008 137.904 54.7545 137.236 54.7545C136.53 54.7545 135.898 54.9072 135.341 55.2125C134.784 55.5052 134.308 55.906 133.912 56.415C133.528 56.924 133.23 57.4965 133.02 58.1328C132.809 58.7562 132.704 59.3988 132.704 60.0605ZM150.08 53.2848L154.444 64.6794L158.79 53.2848H160.554L155.206 66.8362H153.683L148.316 53.2848H150.08ZM169.729 53.2848H171.14L176.526 66.8362H174.626L173.183 62.8662L170.435 55.2698L166.108 66.8362H164.325L169.729 53.2848ZM182.742 66.8362V53.2848H184.414V65.3093H191.768V66.8362H182.742ZM206.995 65.3093V66.8362H198.044V53.2848H206.828V54.8117H199.715V59.2016H205.899V60.6331H199.715V65.3093H206.995ZM215.416 56.4532V66.8362H213.745V53.2848H215.156L223.216 63.8778V53.3039H224.887V66.8362H223.364L215.416 56.4532ZM242 54.8117H237.45V66.8362H235.779V54.8117H231.229V53.2848H242V54.8117Z" fill="black"/>
<rect x="1" y="1" width="278" height="118" stroke="#F2F2F2" stroke-width="2"/>
</svg>
