<svg width="280" height="120" viewBox="0 0 280 120" fill="none" xmlns="http://www.w3.org/2000/svg">
<path d="M239 58.0001V54.5403H234.698V49.1616L234.553 49.2061L230.512 50.4408L230.432 50.465V54.5404H224.054V52.2701C224.054 51.2129 224.291 50.4039 224.757 49.8644C225.22 49.3313 225.883 49.0603 226.728 49.0603C227.336 49.0603 227.965 49.2033 228.598 49.4851L228.757 49.5559V45.9123L228.682 45.8849C228.091 45.6729 227.288 45.5661 226.292 45.5661C225.037 45.5661 223.897 45.8388 222.903 46.3793C221.908 46.9205 221.125 47.6932 220.577 48.6755C220.031 49.6568 219.753 50.7901 219.753 52.0442V54.5403H216.758V58.0001H219.753V72.5755H224.054V58.0001H230.432V67.2625C230.432 71.0772 232.234 73.0104 235.787 73.0104C236.371 73.0104 236.986 72.9421 237.613 72.8083C238.252 72.6709 238.687 72.5337 238.943 72.3871L239 72.3536V68.8619L238.825 68.9774C238.592 69.1327 238.301 69.2596 237.96 69.354C237.618 69.4501 237.332 69.4983 237.111 69.4983C236.278 69.4983 235.662 69.2743 235.28 68.8322C234.894 68.3861 234.698 67.606 234.698 66.5148V58.0001H239ZM207.154 69.4988C205.593 69.4988 204.362 68.982 203.495 67.9638C202.622 66.9405 202.18 65.4816 202.18 63.628C202.18 61.7156 202.622 60.2189 203.495 59.1775C204.363 58.143 205.582 57.6179 207.119 57.6179C208.61 57.6179 209.797 58.1194 210.647 59.1092C211.502 60.1041 211.935 61.5889 211.935 63.5235C211.935 65.482 211.528 66.9864 210.723 67.9927C209.925 68.9915 208.724 69.4988 207.154 69.4988ZM207.345 54.1058C204.367 54.1058 202.001 54.9772 200.315 56.6959C198.63 58.4147 197.775 60.7934 197.775 63.7664C197.775 66.5902 198.609 68.8615 200.255 70.5162C201.9 72.1715 204.139 73.01 206.909 73.01C209.796 73.01 212.114 72.1264 213.8 70.384C215.486 68.6434 216.34 66.2872 216.34 63.3837C216.34 60.5157 215.538 58.2275 213.957 56.5838C212.375 54.9393 210.15 54.1058 207.345 54.1058ZM190.841 54.1058C188.815 54.1058 187.14 54.6232 185.86 55.6435C184.572 56.6698 183.919 58.0158 183.919 59.6447C183.919 60.4914 184.06 61.2435 184.337 61.8814C184.616 62.5214 185.048 63.0849 185.622 63.5578C186.192 64.0269 187.071 64.5183 188.236 65.0182C189.216 65.4207 189.946 65.7612 190.41 66.0295C190.864 66.2925 191.186 66.5569 191.368 66.8144C191.544 67.0663 191.634 67.4112 191.634 67.8367C191.634 69.0484 190.725 69.6379 188.855 69.6379C188.162 69.6379 187.371 69.4933 186.504 69.2082C185.644 68.9275 184.832 68.5163 184.097 67.9891L183.918 67.8612V71.9961L183.984 72.0265C184.592 72.307 185.359 72.5436 186.264 72.7297C187.166 72.916 187.986 73.0108 188.699 73.0108C190.897 73.0108 192.667 72.4909 193.959 71.4645C195.259 70.4312 195.917 69.0533 195.917 67.3681C195.917 66.1525 195.563 65.11 194.864 64.2692C194.169 63.4352 192.965 62.6696 191.284 61.9929C189.945 61.4562 189.087 61.0107 188.733 60.6687C188.392 60.3384 188.219 59.8712 188.219 59.2795C188.219 58.755 188.433 58.3348 188.872 57.9945C189.314 57.6526 189.93 57.4786 190.702 57.4786C191.418 57.4786 192.152 57.5917 192.881 57.8132C193.609 58.0347 194.249 58.3314 194.783 58.6943L194.959 58.8142V54.8919L194.892 54.863C194.399 54.652 193.749 54.4714 192.96 54.3248C192.174 54.1792 191.461 54.1058 190.841 54.1058ZM172.707 69.4988C171.147 69.4988 169.916 68.982 169.049 67.9638C168.176 66.9405 167.734 65.482 167.734 63.628C167.734 61.7156 168.176 60.2189 169.049 59.1775C169.917 58.143 171.135 57.6179 172.673 57.6179C174.163 57.6179 175.35 58.1194 176.201 59.1092C177.056 60.1041 177.489 61.5889 177.489 63.5235C177.489 65.482 177.081 66.9864 176.277 67.9927C175.478 68.9915 174.278 69.4988 172.707 69.4988ZM172.899 54.1058C169.92 54.1058 167.555 54.9772 165.869 56.6959C164.184 58.4147 163.329 60.7934 163.329 63.7664C163.329 66.5913 164.163 68.8615 165.809 70.5162C167.454 72.1715 169.693 73.01 172.463 73.01C175.35 73.01 177.669 72.1264 179.354 70.384C181.039 68.6434 181.894 66.2872 181.894 63.3837C181.894 60.5157 181.092 58.2275 179.511 56.5838C177.928 54.9393 175.704 54.1058 172.899 54.1058ZM156.8 57.6636V54.5403H152.552V72.5752H156.8V63.3496C156.8 61.7809 157.157 60.4921 157.859 59.5187C158.553 58.5569 159.478 58.0695 160.607 58.0695C160.99 58.0695 161.419 58.1325 161.884 58.2572C162.345 58.3811 162.678 58.5156 162.875 58.6572L163.053 58.7864V54.5094L162.985 54.4799C162.589 54.3121 162.029 54.2274 161.321 54.2274C160.254 54.2274 159.298 54.5699 158.48 55.2444C157.762 55.8372 157.243 56.65 156.846 57.6636H156.8ZM144.945 54.1058C142.996 54.1058 141.257 54.5231 139.779 55.3458C138.297 56.1704 137.151 57.3477 136.371 58.8446C135.595 60.338 135.201 62.0823 135.201 64.0277C135.201 65.7317 135.583 67.2954 136.339 68.6737C137.094 70.0541 138.164 71.1341 139.517 71.8832C140.869 72.6313 142.432 73.0106 144.162 73.0106C146.181 73.0106 147.904 72.6075 149.286 71.8126L149.342 71.7806V67.894L149.164 68.0241C148.538 68.4795 147.838 68.843 147.085 69.1049C146.334 69.3666 145.65 69.4988 145.05 69.4988C143.383 69.4988 142.045 68.978 141.073 67.9511C140.1 66.9228 139.606 65.479 139.606 63.6621C139.606 61.8338 140.121 60.3528 141.135 59.2601C142.147 58.1706 143.487 57.6179 145.12 57.6179C146.516 57.6179 147.877 58.0901 149.164 59.0226L149.342 59.1518V55.0566L149.285 55.0242C148.8 54.7534 148.139 54.5298 147.319 54.3602C146.502 54.191 145.704 54.1058 144.945 54.1058ZM132.275 54.5404H128.027V72.5752H132.275V54.5404ZM130.195 46.8575C129.496 46.8575 128.886 47.0952 128.385 47.5662C127.882 48.0386 127.626 48.6333 127.626 49.3351C127.626 50.026 127.879 50.6098 128.377 51.0696C128.872 51.5281 129.484 51.7604 130.195 51.7604C130.906 51.7604 131.52 51.5281 132.021 51.0704C132.525 50.6098 132.781 50.0262 132.781 49.3351C132.781 48.6578 132.532 48.0692 132.042 47.5853C131.552 47.1023 130.93 46.8575 130.195 46.8575ZM119.595 53.2098V72.5752H123.931V47.4096H117.93L110.303 66.1018L102.902 47.4096H96.6571V72.575H100.731V53.2079H100.871L108.687 72.5752H111.762L119.455 53.2098H119.595Z" fill="#706D6E"/>
<path d="M61.9846 58.9572H42V39H61.9846V58.9572Z" fill="#F1511B"/>
<path d="M84.0497 58.9572H64.0655V39H84.0497V58.9572Z" fill="#80CC28"/>
<path d="M61.984 81H42V61.043H61.984V81Z" fill="#00ADEF"/>
<path d="M84.0497 81H64.0655V61.043H84.0497V81Z" fill="#FBBC09"/>
<rect x="1" y="1" width="278" height="118" stroke="#F2F2F2" stroke-width="2"/>
</svg>
