<svg width="280" height="120" viewBox="0 0 280 120" fill="none" xmlns="http://www.w3.org/2000/svg">
<rect x="1" y="1" width="278" height="118" stroke="#F2F2F2" stroke-width="2"/>
<path d="M206.083 59.0408L213.999 80C211.666 79.6663 209.334 79.2489 206.958 78.874L202.499 67.2915L197.916 77.9167C195.667 77.5418 193.457 77.4156 191.208 77.1244L199.25 58.7909L191.957 40H198.708L202.791 50.499L207.167 40H213.999L206.083 59.0408ZM186.625 40H180.5V76.3333C182.5 76.4583 184.583 76.5408 186.625 76.7907V40ZM175.207 75.9159C169.625 75.541 164.041 75.2085 158.334 75.0823V40H164.582V69.1661C168.166 69.2499 171.749 69.541 175.207 69.7073V75.9159ZM151.666 54.2081V60.458H143.126V74.6662H136.958V40H154.458V46.2499H143.126V54.2081H151.666ZM126.458 46.2499V74.9998C124.375 74.9998 122.25 74.9998 120.208 75.0823V46.2499H113.75V40H132.958V46.2499H126.458ZM107 60.7905C104.25 60.7905 101 60.7905 98.6666 60.9167V70.2084C102.333 69.9572 106 69.666 109.708 69.541V75.541L92.4167 76.9169V40H109.708V46.2499H98.6666V54.6655C101.084 54.6655 104.792 54.5406 107 54.5406V60.7905ZM72.3749 57.2912V79.1239C70.1253 79.3751 68.1245 79.6663 66 80V40H71.9587L80.0832 62.7088V40H86.3331V77.4156C84.1248 77.7917 81.8753 77.9167 79.4995 78.2491L72.3749 57.2912Z" fill="#E50914"/>
</svg>
