<svg width="452" height="127" viewBox="0 0 452 127" fill="none" xmlns="http://www.w3.org/2000/svg">
<path d="M75 105.078L37 83.1545L-1 105.078V148.922L37 170.846L75 148.922V105.078Z" stroke="#F2F2F2" stroke-width="2"/>
<path d="M263 105.078L225 83.1545L187 105.078V148.922L225 170.846L263 148.922V105.078Z" stroke="#F2F2F2" stroke-width="2"/>
<path d="M131 82L92 104.5V149.5L131 172L170 149.5V104.5L131 82Z" fill="#F2F2F2"/>
<path d="M451 105.078L413 83.1545L375 105.078V148.922L413 170.846L451 148.922V105.078Z" stroke="#F2F2F2" stroke-width="2"/>
<path d="M310 23.0776L272 1.15449L234 23.0776V66.9224L272 88.8455L310 66.9224V23.0776Z" stroke="#F2F2F2" stroke-width="2"/>
<path d="M122 23.0776L84 1.15449L46 23.0776V66.9224L84 88.8455L122 66.9224V23.0776Z" stroke="#F2F2F2" stroke-width="2"/>
<path d="M319 82L280 104.5V149.5L319 172L358 149.5V104.5L319 82Z" fill="#F2F2F2"/>
<path d="M178 0L139 22.5V67.5L178 90L217 67.5V22.5L178 0Z" fill="#F2F2F2"/>
<path d="M-10 0L-49 22.5V67.5L-10 90L29 67.5V22.5L-10 0Z" fill="#F2F2F2"/>
</svg>
