<svg width="160" height="186" viewBox="0 0 160 186" fill="none" xmlns="http://www.w3.org/2000/svg">
<path fill-rule="evenodd" clip-rule="evenodd" d="M87.9755 2.1295C83.0376 -0.709831 76.9624 -0.709835 72.0245 2.1295L8.02446 38.9295C3.06027 41.7839 0 47.0737 0 52.8V126.287C0 132.013 3.06026 137.303 8.02445 140.158L72.0245 176.958C76.9624 179.797 83.0376 179.797 87.9755 176.958L102.195 168.782C103.366 168.768 104.095 169.629 104.095 170.957V174.381C104.095 178.653 105.215 185.155 109.694 185.155C111.847 185.155 114.431 183.632 114.431 179.025V168.223C114.431 165.119 115.594 159.639 119.384 159.639C121.538 159.639 123.26 160.234 124.122 164.097C124.577 166.141 126.262 168.326 128.723 168.326C130.631 168.326 132.681 163.92 132.681 159.082C132.681 153.282 136.466 149.214 139.818 147.148L151.976 140.158C156.94 137.303 160 132.013 160 126.287V52.8C160 47.0737 156.94 41.7839 151.976 38.9295L87.9755 2.1295Z" fill="url(#paint0_linear_1330_3672)"/>
<defs>
<linearGradient id="paint0_linear_1330_3672" x1="190.5" y1="-69.5" x2="-50.0232" y2="-58.2939" gradientUnits="userSpaceOnUse">
<stop stop-color="#FFE100"/>
<stop offset="1" stop-color="#FF6B00"/>
</linearGradient>
</defs>
</svg>
