<svg width="87" height="55" viewBox="0 0 87 55" fill="none" xmlns="http://www.w3.org/2000/svg">
<path d="M8.24823 8.54037C7.90598 2.04969 3.4225 0 0 0H87C80.155 0 75.8854 9.56522 74.987 14.3478C73.3442 23.0932 71.2223 27.3292 67.1153 27.3292C61.9131 27.3292 62.3632 21.5217 61.6393 17.764C60.2703 10.6584 57.5323 9.56522 54.1098 9.56522C48.0862 9.56522 46.238 15.8125 46.238 21.5217V43.7267C46.238 52.1988 42.131 55 38.7085 55C31.5897 55 29.81 43.0435 29.81 35.1863V12.9814C29.81 4.78261 26.0452 2.73292 23.6495 2.73292C20.3639 2.73292 18.858 5.12422 18.858 7.85714C19.1318 16.6025 15.0932 17.764 13.0397 17.764C8.93273 17.764 8.41035 11.6149 8.24823 8.54037Z" fill="#FFA41D"/>
</svg>
