<svg width="40" height="46" viewBox="0 0 40 46" fill="none" xmlns="http://www.w3.org/2000/svg">
<path d="M40 10.9996V34.9996L20 45.9996L0 34.9996V10.9996L20 -0.000366211L40 10.9996Z" fill="#FFE100"/>
<path d="M11 14.1611C11 12.9679 11.9683 11.9996 13.1615 11.9996C14.354 11.9996 15.3222 12.9679 15.323 14.1611C15.323 15.3544 14.3548 16.3429 13.1615 16.3429C11.9683 16.3429 11 15.3544 11 14.1611Z" fill="#1A1A1A"/>
<path d="M28.9955 29.9996V29.9989H29V23.3974C29 20.1679 28.3047 17.6801 24.5292 17.6801C22.7142 17.6801 21.4962 18.6761 20.999 19.6204H20.9465V17.9816H17.3667V29.9989H21.0942V24.0484C21.0942 22.4816 21.3912 20.9666 23.3315 20.9666C25.2432 20.9666 25.2717 22.7546 25.2717 24.1489V29.9996H28.9955Z" fill="#1A1A1A"/>
<path d="M11.297 17.9824H15.029V29.9996H11.297V17.9824Z" fill="#1A1A1A"/>
</svg>
