<svg width="40" height="46" viewBox="0 0 40 46" fill="none" xmlns="http://www.w3.org/2000/svg">
<path d="M40 10.9996V34.9996L20 45.9996L0 34.9996V10.9996L20 -0.000366211L40 10.9996Z" fill="#1A1A1A"/>
<path d="M16.5992 30.5652C23.5173 30.5652 27.3013 24.8333 27.3013 19.8632C27.3013 19.7 27.3013 19.5377 27.2903 19.3773C28.0265 18.8443 28.6619 18.1844 29.1667 17.4285C28.4802 17.7328 27.7519 17.9324 27.0061 18.0207C27.7914 17.5505 28.3791 16.811 28.6598 15.9398C27.9216 16.3779 27.114 16.6867 26.2719 16.8528C25.7048 16.2494 24.9547 15.8498 24.1375 15.7159C23.3204 15.5819 22.4819 15.7211 21.7519 16.1119C21.0219 16.5026 20.441 17.1231 20.0993 17.8773C19.7576 18.6316 19.674 19.4774 19.8616 20.2839C18.3662 20.209 16.9032 19.8204 15.5676 19.1434C14.2321 18.4663 13.0538 17.5161 12.1094 16.3542C11.6284 17.1821 11.4811 18.1622 11.6974 19.095C11.9136 20.0277 12.4773 20.843 13.2735 21.3747C12.6752 21.3574 12.0898 21.1964 11.5667 20.9054V20.9531C11.5671 21.8214 11.8677 22.6629 12.4177 23.3349C12.9677 24.0069 13.7332 24.4679 14.5844 24.6399C14.0305 24.7909 13.4494 24.8128 12.8858 24.7041C13.1261 25.4516 13.5941 26.1053 14.2242 26.5737C14.8544 27.0422 15.6152 27.3019 16.4003 27.3166C15.6203 27.9294 14.7272 28.3825 13.772 28.6499C12.8167 28.9173 11.8182 28.9937 10.8334 28.8749C12.5536 29.9789 14.5552 30.5644 16.5992 30.5616" fill="white"/>
</svg>
